%TF.GenerationSoftware,Altium Limited,Altium Designer,24.2.2 (26)*%
G04 Layer_Color=0*
%FSLAX45Y45*%
%MOMM*%
%TF.SameCoordinates,B44B2995-802D-4FBC-A6AD-B2E30319FF36*%
%TF.FilePolarity,Positive*%
%TF.FileFunction,Plated,1,2,PTH,Drill*%
%TF.Part,Single*%
G01*
G75*
%TA.AperFunction,OtherDrill,Free Pad (5.969mm,57.531mm)*%
%ADD94C,3.50000*%
%TA.AperFunction,ComponentDrill*%
%ADD95C,1.70000*%
%ADD96C,1.10000*%
%ADD97R,0.60000X1.70000*%
%ADD98C,2.70000*%
%TA.AperFunction,OtherDrill,Free Pad (49.711mm,49.711mm)*%
%ADD99C,6.50240*%
%TA.AperFunction,OtherDrill,Free Pad (5.969mm,5.969mm)*%
%ADD100C,3.50000*%
%TA.AperFunction,OtherDrill,Free Pad (57.531mm,57.531mm)*%
%ADD101C,3.50000*%
%TA.AperFunction,OtherDrill,Free Pad (57.531mm,5.969mm)*%
%ADD102C,3.50000*%
%TA.AperFunction,OtherDrill,Free Pad (13.789mm,13.789mm)*%
%ADD103C,6.50240*%
%TA.AperFunction,ViaDrill,NotFilled*%
%ADD104C,0.45000*%
%ADD105C,0.50000*%
%ADD106C,0.35000*%
D94*
X596900Y5753100D02*
D03*
D95*
X3704420Y3840480D02*
D03*
X4794420D02*
D03*
D96*
X2847340Y3355340D02*
D03*
X3101340D02*
D03*
D97*
X3850000Y5285740D02*
D03*
X2500000D02*
D03*
D98*
X3535000Y4685740D02*
D03*
X2815000D02*
D03*
D99*
X4971059Y4971059D02*
D03*
D100*
X596900Y596900D02*
D03*
D101*
X5753100Y5753100D02*
D03*
D102*
Y596900D02*
D03*
D103*
X1378941Y1378941D02*
D03*
D104*
X6160005Y5457464D02*
D03*
X6060005Y5257464D02*
D03*
X6160005Y5057464D02*
D03*
X6060005Y4857464D02*
D03*
X6160005Y4657464D02*
D03*
X6060005Y4457464D02*
D03*
X6160005Y4257464D02*
D03*
X6060005Y1657462D02*
D03*
X6160005Y1457462D02*
D03*
X6060005Y1257462D02*
D03*
X6160005Y1057462D02*
D03*
X5860005Y5257464D02*
D03*
X5960005Y5057464D02*
D03*
X5860005Y4857464D02*
D03*
X5960005Y4657464D02*
D03*
X5860005Y4457464D02*
D03*
X5960005Y4257464D02*
D03*
X5660004Y5257464D02*
D03*
X5760004Y5057464D02*
D03*
X5660004Y4857464D02*
D03*
X5760004Y4657464D02*
D03*
X5660004Y4457464D02*
D03*
X5760004Y4257464D02*
D03*
Y1857462D02*
D03*
X5660004Y1657462D02*
D03*
X5760004Y1457462D02*
D03*
X5460004Y6057465D02*
D03*
Y5257464D02*
D03*
X5560004Y5057464D02*
D03*
X5460004Y4857464D02*
D03*
X5560004Y4657464D02*
D03*
X5460004Y4457464D02*
D03*
X5560004Y4257464D02*
D03*
X5460004Y1657462D02*
D03*
X5560004Y1457462D02*
D03*
X5260004Y6057465D02*
D03*
Y5657464D02*
D03*
X5360004Y5457464D02*
D03*
Y4657464D02*
D03*
Y4257464D02*
D03*
X5060004Y6057465D02*
D03*
X5160004Y5857465D02*
D03*
X5060004Y5657464D02*
D03*
X5160004Y5457464D02*
D03*
Y1057462D02*
D03*
X4860004Y6057465D02*
D03*
X4960004Y5857465D02*
D03*
X4860004Y5657464D02*
D03*
X4960004Y5457464D02*
D03*
Y1057462D02*
D03*
X4860004Y857462D02*
D03*
X4660004Y6057465D02*
D03*
X4760004Y5857465D02*
D03*
X4660004Y5657464D02*
D03*
X4760004Y5457464D02*
D03*
X4660004Y5257464D02*
D03*
Y2457463D02*
D03*
X4760004Y2257463D02*
D03*
Y1057462D02*
D03*
X4660004Y857462D02*
D03*
X4760004Y657462D02*
D03*
X4460004Y6057465D02*
D03*
X4560004Y5857465D02*
D03*
X4460004Y5657464D02*
D03*
X4560004Y5457464D02*
D03*
X4460004Y5257464D02*
D03*
Y2457463D02*
D03*
X4560004Y2257463D02*
D03*
X4460004Y857462D02*
D03*
X4560004Y657462D02*
D03*
X4460004Y457462D02*
D03*
X4260004Y6057465D02*
D03*
X4360004Y5857465D02*
D03*
X4260004Y5657464D02*
D03*
X4360004Y5457464D02*
D03*
X4260004Y5257464D02*
D03*
X4360004Y5057464D02*
D03*
Y2257463D02*
D03*
X4260004Y857462D02*
D03*
X4360004Y657462D02*
D03*
X4260004Y457462D02*
D03*
X4060004Y6057465D02*
D03*
X4160004Y5857465D02*
D03*
X4060004Y5657464D02*
D03*
X4160004Y5457464D02*
D03*
X4060004Y5257464D02*
D03*
X4160004Y5057464D02*
D03*
Y657462D02*
D03*
X3860003Y6057465D02*
D03*
X3960004Y5857465D02*
D03*
X3860003Y5657464D02*
D03*
X3960004Y5457464D02*
D03*
Y5057464D02*
D03*
X3660003Y6057465D02*
D03*
X3760003Y5857465D02*
D03*
X3660003Y5657464D02*
D03*
X3760003Y5457464D02*
D03*
X3660003Y5257464D02*
D03*
X3760003Y5057464D02*
D03*
X3460003Y6057465D02*
D03*
X3560003Y5857465D02*
D03*
X3460003Y5657464D02*
D03*
X3560003Y5457464D02*
D03*
X3460003Y5257464D02*
D03*
X3560003Y5057464D02*
D03*
X3460003Y2457463D02*
D03*
Y2057462D02*
D03*
X3560003Y657462D02*
D03*
X3260003Y6057465D02*
D03*
X3360003Y5857465D02*
D03*
X3260003Y5657464D02*
D03*
X3360003Y5457464D02*
D03*
X3260003Y5257464D02*
D03*
X3360003Y5057464D02*
D03*
X3260003Y2457463D02*
D03*
X3360003Y2257463D02*
D03*
X3260003Y2057462D02*
D03*
X3360003Y1857462D02*
D03*
Y657462D02*
D03*
X3060003Y6057465D02*
D03*
X3160003Y5857465D02*
D03*
X3060003Y5657464D02*
D03*
X3160003Y5457464D02*
D03*
X3060003Y5257464D02*
D03*
X3160003Y5057464D02*
D03*
X3060003Y4857464D02*
D03*
Y4457464D02*
D03*
Y2457463D02*
D03*
X3160003Y2257463D02*
D03*
X3060003Y2057462D02*
D03*
X3160003Y657462D02*
D03*
X2860003Y6057465D02*
D03*
X2960003Y5857465D02*
D03*
X2860003Y5657464D02*
D03*
X2960003Y5457464D02*
D03*
X2860003Y5257464D02*
D03*
X2960003Y5057464D02*
D03*
X2860003Y2457463D02*
D03*
X2960003Y2257463D02*
D03*
Y657462D02*
D03*
X2660003Y6057465D02*
D03*
X2760003Y5857465D02*
D03*
X2660003Y5657464D02*
D03*
X2760003Y5457464D02*
D03*
X2660003Y5257464D02*
D03*
X2760003Y5057464D02*
D03*
X2660003Y4457464D02*
D03*
X2760003Y4257464D02*
D03*
X2660003Y4057464D02*
D03*
Y3657463D02*
D03*
X2760003Y657462D02*
D03*
X2460003Y6057465D02*
D03*
X2560003Y5857465D02*
D03*
X2460003Y5657464D02*
D03*
X2560003Y5457464D02*
D03*
Y5057464D02*
D03*
X2460003Y4857464D02*
D03*
X2560003Y4657464D02*
D03*
X2460003Y4457464D02*
D03*
X2560003Y4257464D02*
D03*
X2460003Y4057464D02*
D03*
Y3657463D02*
D03*
Y1257462D02*
D03*
Y857462D02*
D03*
X2560003Y657462D02*
D03*
X2260003Y6057465D02*
D03*
X2360003Y5857465D02*
D03*
X2260003Y5657464D02*
D03*
X2360003Y5457464D02*
D03*
X2260003Y5257464D02*
D03*
X2360003Y5057464D02*
D03*
X2260003Y4857464D02*
D03*
X2360003Y4657464D02*
D03*
X2260003Y4457464D02*
D03*
X2360003Y4257464D02*
D03*
X2260003Y4057464D02*
D03*
X2360003Y3857463D02*
D03*
X2260003Y3657463D02*
D03*
Y1657462D02*
D03*
Y1257462D02*
D03*
X2360003Y1057462D02*
D03*
X2260003Y857462D02*
D03*
X2360003Y657462D02*
D03*
X2060002Y6057465D02*
D03*
X2160003Y5857465D02*
D03*
X2060002Y5657464D02*
D03*
X2160003Y5457464D02*
D03*
X2060002Y5257464D02*
D03*
X2160003Y5057464D02*
D03*
X2060002Y4857464D02*
D03*
X2160003Y4657464D02*
D03*
X2060002Y4457464D02*
D03*
X2160003Y4257464D02*
D03*
X2060002Y4057464D02*
D03*
X2160003Y3857463D02*
D03*
X2060002Y3657463D02*
D03*
Y1657462D02*
D03*
X2160003Y1457462D02*
D03*
X2060002Y1257462D02*
D03*
X2160003Y1057462D02*
D03*
X2060002Y857462D02*
D03*
X2160003Y657462D02*
D03*
X1860002Y6057465D02*
D03*
X1960002Y5857465D02*
D03*
X1860002Y5657464D02*
D03*
X1960002Y5457464D02*
D03*
X1860002Y5257464D02*
D03*
X1960002Y5057464D02*
D03*
X1860002Y4857464D02*
D03*
X1960002Y4657464D02*
D03*
X1860002Y4457464D02*
D03*
X1960002Y4257464D02*
D03*
X1860002Y4057464D02*
D03*
X1960002Y3857463D02*
D03*
X1860002Y3657463D02*
D03*
Y1657462D02*
D03*
X1960002Y1457462D02*
D03*
X1860002Y1257462D02*
D03*
X1960002Y1057462D02*
D03*
X1860002Y857462D02*
D03*
X1960002Y657462D02*
D03*
X1660002Y6057465D02*
D03*
X1760002Y5857465D02*
D03*
X1660002Y5657464D02*
D03*
X1760002Y5457464D02*
D03*
X1660002Y5257464D02*
D03*
X1760002Y5057464D02*
D03*
X1660002Y4857464D02*
D03*
X1760002Y4657464D02*
D03*
X1660002Y4457464D02*
D03*
X1760002Y4257464D02*
D03*
X1660002Y4057464D02*
D03*
X1760002Y3857463D02*
D03*
X1660002Y3657463D02*
D03*
X1760002Y3457463D02*
D03*
Y1057462D02*
D03*
X1660002Y857462D02*
D03*
X1760002Y657462D02*
D03*
X1460002Y6057465D02*
D03*
X1560002Y5857465D02*
D03*
X1460002Y5657464D02*
D03*
X1560002Y5457464D02*
D03*
X1460002Y5257464D02*
D03*
X1560002Y5057464D02*
D03*
X1460002Y4857464D02*
D03*
X1560002Y4657464D02*
D03*
X1460002Y4457464D02*
D03*
X1560002Y4257464D02*
D03*
X1460002Y4057464D02*
D03*
X1560002Y3857463D02*
D03*
X1460002Y3657463D02*
D03*
Y3257463D02*
D03*
Y857462D02*
D03*
X1560002Y657462D02*
D03*
X1260002Y6057465D02*
D03*
X1360002Y5857465D02*
D03*
X1260002Y5657464D02*
D03*
X1360002Y5457464D02*
D03*
X1260002Y5257464D02*
D03*
X1360002Y5057464D02*
D03*
X1260002Y4857464D02*
D03*
X1360002Y4657464D02*
D03*
X1260002Y4457464D02*
D03*
X1360002Y4257464D02*
D03*
X1260002Y4057464D02*
D03*
X1360002Y3857463D02*
D03*
X1260002Y3657463D02*
D03*
X1360002Y3457463D02*
D03*
X1260002Y3257463D02*
D03*
X1060002Y6057465D02*
D03*
X1160002Y5857465D02*
D03*
X1060002Y5657464D02*
D03*
X1160002Y5457464D02*
D03*
X1060002Y5257464D02*
D03*
X1160002Y5057464D02*
D03*
X1060002Y4857464D02*
D03*
X1160002Y4657464D02*
D03*
X1060002Y4457464D02*
D03*
X1160002Y4257464D02*
D03*
X1060002Y4057464D02*
D03*
X1160002Y3857463D02*
D03*
X1060002Y3657463D02*
D03*
X1160002Y3457463D02*
D03*
X1060002Y3257463D02*
D03*
X1160002Y3057463D02*
D03*
X1060002Y2857463D02*
D03*
X1160002Y2657463D02*
D03*
X1060002Y2457463D02*
D03*
X1160002Y2257463D02*
D03*
X960002Y5457464D02*
D03*
X860002Y5257464D02*
D03*
X960002Y5057464D02*
D03*
X860002Y4857464D02*
D03*
X960002Y4657464D02*
D03*
X860002Y4457464D02*
D03*
X960002Y4257464D02*
D03*
X860002Y4057464D02*
D03*
X960002Y3857463D02*
D03*
X860002Y3657463D02*
D03*
X960002Y3457463D02*
D03*
X860002Y3257463D02*
D03*
X960002Y3057463D02*
D03*
X860002Y2857463D02*
D03*
X960002Y2657463D02*
D03*
X860002Y2457463D02*
D03*
X960002Y2257463D02*
D03*
X660002Y5257464D02*
D03*
X760002Y5057464D02*
D03*
X660002Y4857464D02*
D03*
X760002Y4657464D02*
D03*
X660002Y4457464D02*
D03*
X760002Y4257464D02*
D03*
X660002Y4057464D02*
D03*
X760002Y3857463D02*
D03*
X660002Y3657463D02*
D03*
X760002Y3457463D02*
D03*
X660002Y3257463D02*
D03*
X760002Y3057463D02*
D03*
X660002Y2857463D02*
D03*
X760002Y2657463D02*
D03*
X660002Y2457463D02*
D03*
X760002Y2257463D02*
D03*
X460002Y5257464D02*
D03*
X560002Y5057464D02*
D03*
X460002Y4857464D02*
D03*
X560002Y4657464D02*
D03*
X460002Y4457464D02*
D03*
X560002Y4257464D02*
D03*
X460002Y4057464D02*
D03*
X560002Y3857463D02*
D03*
X460002Y3657463D02*
D03*
X560002Y3457463D02*
D03*
X460002Y3257463D02*
D03*
X560002Y3057463D02*
D03*
X460002Y2857463D02*
D03*
X560002Y2657463D02*
D03*
X460002Y2457463D02*
D03*
X560002Y2257463D02*
D03*
Y1057462D02*
D03*
X260002Y5257464D02*
D03*
X360002Y5057464D02*
D03*
X260002Y4857464D02*
D03*
X360002Y4657464D02*
D03*
X260002Y4457464D02*
D03*
X360002Y4257464D02*
D03*
X260002Y4057464D02*
D03*
X360002Y3857463D02*
D03*
X260002Y3657463D02*
D03*
X360002Y3457463D02*
D03*
X260002Y3257463D02*
D03*
X360002Y3057463D02*
D03*
X260002Y2857463D02*
D03*
X360002Y2657463D02*
D03*
X260002Y2457463D02*
D03*
X360002Y2257463D02*
D03*
X260002Y1257462D02*
D03*
X360002Y1057462D02*
D03*
X260002Y857462D02*
D03*
D105*
X6040120Y2156460D02*
D03*
X5073700Y2301240D02*
D03*
X2923540Y2197100D02*
D03*
X2016681Y2449639D02*
D03*
X1765221D02*
D03*
X154940Y1304260D02*
D03*
X396240D02*
D03*
X637540D02*
D03*
X2645600Y3921760D02*
D03*
X1663700Y3316000D02*
D03*
X2035860Y3355340D02*
D03*
X2354580Y2555240D02*
D03*
X2687320Y2771140D02*
D03*
X2623820Y2483640D02*
D03*
X3180080Y2632760D02*
D03*
X3641180Y2519680D02*
D03*
Y2288540D02*
D03*
X3710080Y2001520D02*
D03*
X5529240Y2171700D02*
D03*
X5804240D02*
D03*
X4373880Y1022400D02*
D03*
X4599940D02*
D03*
X5293360Y1245920D02*
D03*
X5072380D02*
D03*
X4599940Y2019500D02*
D03*
X5965400Y3302000D02*
D03*
Y3048000D02*
D03*
X5261400Y3556000D02*
D03*
Y3302000D02*
D03*
Y3048000D02*
D03*
Y2794000D02*
D03*
X5965400D02*
D03*
Y2540000D02*
D03*
Y3556000D02*
D03*
Y3810000D02*
D03*
X1765300Y2153920D02*
D03*
X2570177Y1950030D02*
D03*
X2573020Y2032000D02*
D03*
X2016760Y2153920D02*
D03*
D106*
X5261400Y3810000D02*
D03*
Y2540000D02*
D03*
%TF.MD5,209e608540750a308bbff47eb6704342*%
M02*
