%TF.GenerationSoftware,Altium Limited,Altium Designer,24.2.2 (26)*%
G04 Layer_Color=8421504*
%FSLAX45Y45*%
%MOMM*%
%TF.SameCoordinates,B44B2995-802D-4FBC-A6AD-B2E30319FF36*%
%TF.FilePolarity,Positive*%
%TF.FileFunction,Paste,Top*%
%TF.Part,Single*%
G01*
G75*
%TA.AperFunction,SMDPad,CuDef*%
%ADD10R,0.80000X0.80000*%
%ADD12R,1.00000X0.80000*%
%ADD13R,0.55000X1.75000*%
%ADD14R,3.20000X1.60000*%
%ADD15R,1.50000X1.30000*%
%ADD16R,0.85000X0.90000*%
%ADD17R,1.30000X1.50000*%
%ADD18R,0.90000X0.85000*%
%ADD19R,1.17000X2.72000*%
%ADD20R,0.70000X1.90000*%
%ADD21R,3.30700X2.28700*%
G04:AMPARAMS|DCode=22|XSize=0.76mm|YSize=0.6604mm|CornerRadius=0.08255mm|HoleSize=0mm|Usage=FLASHONLY|Rotation=180.000|XOffset=0mm|YOffset=0mm|HoleType=Round|Shape=RoundedRectangle|*
%AMROUNDEDRECTD22*
21,1,0.76000,0.49530,0,0,180.0*
21,1,0.59490,0.66040,0,0,180.0*
1,1,0.16510,-0.29745,0.24765*
1,1,0.16510,0.29745,0.24765*
1,1,0.16510,0.29745,-0.24765*
1,1,0.16510,-0.29745,-0.24765*
%
%ADD22ROUNDEDRECTD22*%
%ADD23R,1.74000X0.99000*%
%ADD24R,1.20000X1.20000*%
%ADD26R,2.80000X5.30000*%
%ADD27R,0.99000X1.74000*%
%ADD28R,1.40000X0.90000*%
%ADD29R,0.60000X0.80000*%
%ADD30R,0.90000X1.90000*%
%ADD31R,3.20000X1.90000*%
%TA.AperFunction,NonConductor*%
%ADD55C,0.12800*%
%TA.AperFunction,SMDPad,CuDef*%
%ADD89R,1.60000X1.40000*%
%ADD90R,0.30000X0.38000*%
%ADD91R,1.00000X2.00000*%
D10*
X637540Y1812360D02*
D03*
Y1662360D02*
D03*
X154940Y1812360D02*
D03*
Y1662360D02*
D03*
X396240Y1812360D02*
D03*
Y1662360D02*
D03*
D12*
X5529240Y2076700D02*
D03*
Y2171700D02*
D03*
Y2266700D02*
D03*
X5804240D02*
D03*
Y2171700D02*
D03*
Y2076700D02*
D03*
D13*
X5378600Y2075520D02*
D03*
Y1800520D02*
D03*
X5238600Y2075520D02*
D03*
Y1800520D02*
D03*
D14*
X3145600Y3921760D02*
D03*
X2645600D02*
D03*
D15*
X4599940Y1187400D02*
D03*
X2433320Y1809800D02*
D03*
Y1974800D02*
D03*
X3180080Y2632760D02*
D03*
Y2797760D02*
D03*
X4373880Y1022400D02*
D03*
Y1187400D02*
D03*
X4599940Y1022400D02*
D03*
D16*
X2200940Y3162300D02*
D03*
X2045940D02*
D03*
D17*
X2035860Y3355340D02*
D03*
X2200860D02*
D03*
X2203500Y2989580D02*
D03*
X2368500D02*
D03*
X3755440Y2788920D02*
D03*
X3920440D02*
D03*
X3392220D02*
D03*
X3557220D02*
D03*
X5073700Y2301240D02*
D03*
X5238700D02*
D03*
D18*
X1663700Y3161000D02*
D03*
Y3316000D02*
D03*
X154940Y1304260D02*
D03*
Y1459260D02*
D03*
X396240Y1304260D02*
D03*
Y1459260D02*
D03*
X637540Y1304260D02*
D03*
Y1459260D02*
D03*
D19*
X3454720Y3355340D02*
D03*
X3748720D02*
D03*
D20*
X2433320Y2196140D02*
D03*
X2560320D02*
D03*
X2687320D02*
D03*
X2814320D02*
D03*
Y2771140D02*
D03*
X2687320D02*
D03*
X2560320D02*
D03*
X2433320D02*
D03*
D21*
X2623820Y2483640D02*
D03*
D22*
X2278380Y2772560D02*
D03*
Y2632560D02*
D03*
D23*
X2016681Y2152640D02*
D03*
Y2449639D02*
D03*
X1765221Y2152640D02*
D03*
Y2449639D02*
D03*
D24*
X2622300Y1612900D02*
D03*
X2432300D02*
D03*
D26*
X3928920Y1191260D02*
D03*
X2918920D02*
D03*
D27*
X3938180Y2288540D02*
D03*
X3641180D02*
D03*
X3938180Y2519680D02*
D03*
X3641180D02*
D03*
D28*
X3710080Y2001520D02*
D03*
X3920080Y1906520D02*
D03*
Y2096520D02*
D03*
D29*
X2858680Y1998980D02*
D03*
X2688680D02*
D03*
D30*
X4374940Y1409500D02*
D03*
X4599940D02*
D03*
D31*
Y2019500D02*
D03*
D55*
X5983500Y2156460D02*
G03*
X5983500Y2156460I-6400J0D01*
G01*
X5941900D02*
G03*
X5941900Y2156460I-6400J0D01*
G01*
X1855799Y3202188D02*
G03*
X1855799Y3202188I-6400J0D01*
G01*
Y3160588D02*
G03*
X1855799Y3160588I-6400J0D01*
G01*
X5389140Y1610360D02*
G03*
X5389140Y1610360I-6400J0D01*
G01*
X5347540D02*
G03*
X5347540Y1610360I-6400J0D01*
G01*
D89*
X5293360Y1245920D02*
D03*
Y1410920D02*
D03*
X5072380Y1245920D02*
D03*
Y1410920D02*
D03*
D90*
X5381940Y1610360D02*
D03*
X5341940D02*
D03*
D91*
X4824940Y1409500D02*
D03*
%TF.MD5,131150cc002d651c3cb1ed7e218972f4*%
M02*
