%TF.GenerationSoftware,Altium Limited,Altium Designer,24.2.2 (26)*%
G04 Layer_Physical_Order=1*
G04 Layer_Color=255*
%FSLAX45Y45*%
%MOMM*%
%TF.SameCoordinates,B44B2995-802D-4FBC-A6AD-B2E30319FF36*%
%TF.FilePolarity,Positive*%
%TF.FileFunction,Copper,L1,Top,Signal*%
%TF.Part,Single*%
G01*
G75*
%TA.AperFunction,SMDPad,CuDef*%
%ADD10R,0.80000X0.80000*%
%ADD11R,0.20000X0.28000*%
%ADD12R,1.00000X0.80000*%
%ADD13R,0.55000X1.75000*%
%ADD14R,3.20000X1.60000*%
%ADD15R,1.50000X1.30000*%
%ADD16R,0.85000X0.90000*%
%ADD17R,1.30000X1.50000*%
%ADD18R,0.90000X0.85000*%
%ADD19R,1.17000X2.72000*%
%ADD20R,0.70000X1.90000*%
%ADD21R,3.30700X2.28700*%
G04:AMPARAMS|DCode=22|XSize=0.76mm|YSize=0.6604mm|CornerRadius=0.08255mm|HoleSize=0mm|Usage=FLASHONLY|Rotation=180.000|XOffset=0mm|YOffset=0mm|HoleType=Round|Shape=RoundedRectangle|*
%AMROUNDEDRECTD22*
21,1,0.76000,0.49530,0,0,180.0*
21,1,0.59490,0.66040,0,0,180.0*
1,1,0.16510,-0.29745,0.24765*
1,1,0.16510,0.29745,0.24765*
1,1,0.16510,0.29745,-0.24765*
1,1,0.16510,-0.29745,-0.24765*
%
%ADD22ROUNDEDRECTD22*%
%ADD23R,1.74000X0.99000*%
%ADD24R,1.20000X1.20000*%
%ADD25R,0.28000X0.20000*%
%ADD26R,2.80000X5.30000*%
%ADD27R,0.99000X1.74000*%
%ADD28R,1.40000X0.90000*%
%ADD29R,0.60000X0.80000*%
%ADD30R,0.90000X1.90000*%
%ADD31R,3.20000X1.90000*%
%TA.AperFunction,Conductor*%
%ADD32C,0.15000*%
%ADD33C,0.80000*%
%ADD34C,0.30000*%
%ADD35C,0.50000*%
%ADD36C,0.25400*%
%TA.AperFunction,ViaPad*%
%ADD37C,7.00000*%
%TA.AperFunction,ComponentPad*%
%ADD38C,2.10000*%
%ADD39C,1.40000*%
%ADD40O,1.20000X2.40000*%
%ADD41R,3.71600X3.71600*%
%ADD42C,3.71600*%
%TA.AperFunction,ViaPad*%
%ADD43C,7.50000*%
%ADD44C,0.60000*%
%ADD45C,0.75000*%
%ADD46C,0.50000*%
G36*
X5981113Y6159500D02*
X5981368Y6158215D01*
X5984667Y6124724D01*
X5994811Y6091283D01*
X6011284Y6060465D01*
X6033452Y6033452D01*
X6060465Y6011284D01*
X6091283Y5994811D01*
X6124724Y5984667D01*
X6158215Y5981368D01*
X6159500Y5981113D01*
X6298613D01*
Y4003875D01*
X6285913Y3998615D01*
X6225574Y4058954D01*
X6217920Y4062124D01*
X5261004D01*
Y4478020D01*
X5257834Y4485674D01*
X5257833Y4485674D01*
X5137090Y4606418D01*
X5139077Y4618961D01*
X5175464Y4637502D01*
X5225127Y4673584D01*
X5268535Y4716991D01*
X5304617Y4766655D01*
X5332487Y4821351D01*
X5351456Y4879734D01*
X5361059Y4940366D01*
Y5001753D01*
X5351456Y5062385D01*
X5332487Y5120768D01*
X5304617Y5175464D01*
X5268535Y5225127D01*
X5225127Y5268535D01*
X5175464Y5304617D01*
X5120768Y5332487D01*
X5062385Y5351456D01*
X5001753Y5361059D01*
X4940366D01*
X4879734Y5351456D01*
X4821351Y5332487D01*
X4766655Y5304617D01*
X4716991Y5268535D01*
X4673584Y5225127D01*
X4637502Y5175464D01*
X4609632Y5120768D01*
X4590662Y5062385D01*
X4581059Y5001753D01*
Y4996844D01*
X3276600D01*
X3268946Y4993674D01*
X3190206Y4914934D01*
X3187036Y4907280D01*
Y4734560D01*
Y4455161D01*
X3187035Y4455160D01*
X3190206Y4447506D01*
X3191802Y4435879D01*
X3190206Y4430913D01*
X3189382Y4428924D01*
X3187860Y4427401D01*
Y4425248D01*
X3187036Y4423259D01*
Y4316124D01*
X2966720D01*
X2959066Y4312954D01*
X2959066Y4312953D01*
X2877786Y4231674D01*
X2874616Y4224020D01*
Y3564794D01*
X2870200Y3561170D01*
X1711960D01*
X1702205Y3559229D01*
X1693936Y3553704D01*
X1559316Y3419084D01*
X1553791Y3410815D01*
X1551850Y3401060D01*
Y3244860D01*
X1553791Y3235105D01*
X1559316Y3226836D01*
X1606000Y3180152D01*
Y3105800D01*
X1721400D01*
Y3136810D01*
X1803400D01*
X1810216Y3138166D01*
X1822699Y3138688D01*
X1822700Y3138688D01*
X1822700Y3138688D01*
X1876099D01*
X1876099Y3138688D01*
X1888799Y3141361D01*
X1892706Y3138751D01*
X1902460Y3136810D01*
X1990740D01*
Y3104600D01*
X2079182D01*
X2080913Y3091900D01*
X2047836Y3058824D01*
X1323341D01*
X1323340Y3058824D01*
X1315686Y3055654D01*
X1242026Y2981994D01*
X1238856Y2974340D01*
Y2163483D01*
X1214716Y2139344D01*
X203200D01*
X195546Y2136174D01*
X195546Y2136173D01*
X64087Y2004715D01*
X51387Y2009975D01*
Y5981113D01*
X190500D01*
X191785Y5981368D01*
X225276Y5984667D01*
X258717Y5994811D01*
X289535Y6011284D01*
X316547Y6033452D01*
X338716Y6060465D01*
X355189Y6091283D01*
X365333Y6124724D01*
X368632Y6158215D01*
X368887Y6159500D01*
Y6298613D01*
X5981113D01*
Y6159500D01*
D02*
G37*
G36*
X6283960Y3985260D02*
Y3484880D01*
X6073140Y3274060D01*
X6024788D01*
X6017732Y3284620D01*
X6020400Y3291060D01*
Y3312940D01*
X6012027Y3333155D01*
X5996555Y3348627D01*
X5976340Y3357000D01*
X5954460D01*
X5934245Y3348627D01*
X5918774Y3333155D01*
X5910400Y3312940D01*
Y3291060D01*
X5913068Y3284620D01*
X5906012Y3274060D01*
X5732780D01*
X5295951Y2837231D01*
X5292555Y2840627D01*
X5272340Y2849000D01*
X5250460D01*
X5230245Y2840627D01*
X5214773Y2825155D01*
X5206400Y2804940D01*
Y2783060D01*
X5214773Y2762845D01*
X5218169Y2759449D01*
X5125720Y2667000D01*
X4467860D01*
X4257040Y2456180D01*
Y2108200D01*
X4429940Y1935300D01*
Y1914500D01*
X4450740D01*
X4686300Y1678940D01*
Y1277800D01*
X4673719D01*
X4670340Y1289100D01*
X4670340Y1290500D01*
Y1396800D01*
X4599940D01*
X4529540D01*
Y1290500D01*
X4529540Y1289100D01*
X4526161Y1277800D01*
X4499540D01*
Y1200100D01*
X4599940D01*
Y1174700D01*
X4499540D01*
Y1097000D01*
X4514940D01*
Y947400D01*
X4508760Y937260D01*
X4465060D01*
X4458880Y947400D01*
X4458880Y949960D01*
Y1097000D01*
X4474280D01*
Y1174700D01*
X4373880D01*
X4273480D01*
Y1097000D01*
X4288880D01*
Y949960D01*
X4288880Y947400D01*
X4282700Y937260D01*
X4246880D01*
X4010660Y701040D01*
Y431800D01*
X3967480Y388620D01*
X1381760D01*
X1315720Y454660D01*
Y586740D01*
X863600Y1038860D01*
Y1808480D01*
X849630Y1822450D01*
X844550D01*
X751840Y1915160D01*
X563880D01*
X518160Y1869440D01*
Y1656080D01*
X492760Y1630680D01*
X447220D01*
Y1662360D01*
X446240Y1667285D01*
Y1712360D01*
X401165D01*
X396240Y1713339D01*
X391315Y1712360D01*
X346240D01*
Y1667285D01*
X345260Y1662360D01*
Y1643740D01*
X332560Y1638480D01*
X310544Y1660496D01*
Y1938617D01*
X370244Y1998316D01*
X876897D01*
X1033780Y1841432D01*
Y1560574D01*
X1017513Y1528649D01*
X998544Y1470266D01*
X988941Y1409634D01*
Y1348247D01*
X998544Y1287615D01*
X1017513Y1229232D01*
X1033780Y1197307D01*
Y1094740D01*
X1478280Y650240D01*
Y556260D01*
X1498600Y535940D01*
X3690620D01*
X3787140Y632460D01*
Y784860D01*
X3368040D01*
X3355340Y797560D01*
Y1778000D01*
X3469640Y1892300D01*
X3792220D01*
Y2649220D01*
X3677920D01*
X3660140Y2667000D01*
Y2753234D01*
X3680440D01*
Y2703920D01*
X3830040D01*
Y2688520D01*
X3907740D01*
Y2788920D01*
Y2889320D01*
X3830040D01*
Y2873920D01*
X3680440D01*
Y2824606D01*
X3660140D01*
Y2877820D01*
X3721010Y2938690D01*
X4415580D01*
X4425335Y2940631D01*
X4433604Y2946156D01*
X5250535Y3763087D01*
X5251952Y3762500D01*
X5270848D01*
X5288306Y3769732D01*
X5301668Y3783094D01*
X5308900Y3800552D01*
Y3819448D01*
X5301668Y3836906D01*
X5288306Y3850268D01*
X5270848Y3857500D01*
X5261004D01*
Y4051300D01*
X6217920D01*
X6283960Y3985260D01*
D02*
G37*
G36*
X4581059Y4940366D02*
X4590662Y4879734D01*
X4609632Y4821351D01*
X4637502Y4766655D01*
X4673584Y4716991D01*
X4716991Y4673584D01*
X4766655Y4637502D01*
X4821351Y4609632D01*
X4879734Y4590662D01*
X4940366Y4581059D01*
X5001753D01*
X5062385Y4590662D01*
X5119107Y4609093D01*
X5250180Y4478020D01*
Y3856766D01*
X5234493Y3850268D01*
X5221132Y3836906D01*
X5213900Y3819448D01*
Y3800552D01*
X5214487Y3799135D01*
X4877372Y3462020D01*
X4290060D01*
X4000500Y3751580D01*
Y3855720D01*
X3581400Y4274820D01*
X3378200D01*
X3197860Y4455160D01*
Y4734560D01*
Y4907280D01*
X3276600Y4986020D01*
X4581059D01*
Y4940366D01*
D02*
G37*
G36*
X2941230Y3428602D02*
Y3408917D01*
X2928530Y3405514D01*
X2923679Y3413917D01*
X2905917Y3431679D01*
X2884163Y3444238D01*
X2860040Y3450702D01*
Y3355340D01*
Y3259978D01*
X2884163Y3266442D01*
X2905917Y3279001D01*
X2923679Y3296763D01*
X2928530Y3305166D01*
X2941230Y3301763D01*
Y3053036D01*
X2943171Y3043282D01*
X2948696Y3035012D01*
X2965184Y3018524D01*
X2852420Y2905760D01*
X2622663D01*
X2620642Y2907840D01*
X2619505Y2909045D01*
X2619064Y2910642D01*
X2613724Y2917494D01*
X2613110Y2917842D01*
X2612840Y2918494D01*
X2609584Y2919843D01*
X2606519Y2921582D01*
X2605838Y2921394D01*
X2605187Y2921664D01*
X2567344D01*
X2558444Y2930564D01*
Y3055619D01*
X2558444Y3055620D01*
X2555274Y3063274D01*
X2537494Y3081054D01*
X2529840Y3084224D01*
X2458900D01*
X2451246Y3081054D01*
X2443500Y3074580D01*
X2293900D01*
Y3089980D01*
X2280745D01*
X2268840Y3091900D01*
X2268840Y3102680D01*
Y3149600D01*
X2200940D01*
X2133040D01*
X2133040Y3091900D01*
X2121135Y3089980D01*
X2113100D01*
Y3002280D01*
X2203500D01*
Y2989580D01*
X2216200D01*
Y2889180D01*
X2220912D01*
X2226173Y2876480D01*
X2202146Y2852454D01*
X2198976Y2844800D01*
Y2822642D01*
X2199993Y2820185D01*
X2200254Y2817539D01*
X2201520Y2816501D01*
X2202146Y2814988D01*
X2204872Y2807763D01*
X2205188Y2800468D01*
X2204720Y2800000D01*
Y2731246D01*
X2204603Y2731150D01*
X2202146Y2730132D01*
X2201520Y2728620D01*
X2200254Y2727581D01*
X2199993Y2724935D01*
X2198976Y2722479D01*
Y2705101D01*
X2198976Y2705100D01*
X2202146Y2697446D01*
X2204720Y2694872D01*
Y2583180D01*
X2245360Y2542540D01*
Y1955800D01*
X2136140Y1846580D01*
X1043940D01*
X881380Y2009140D01*
X365760D01*
X299720Y1943100D01*
Y1651000D01*
X287020Y1638300D01*
X205920D01*
Y1662360D01*
X204940Y1667285D01*
Y1712360D01*
X159865D01*
X154940Y1713339D01*
X150015Y1712360D01*
X104940D01*
Y1667285D01*
X103960Y1662360D01*
Y1651360D01*
X91260Y1646100D01*
X60960Y1676400D01*
Y1988820D01*
X63500D01*
X203200Y2128520D01*
X1219200D01*
X1249680Y2159000D01*
Y2974340D01*
X1323340Y3048000D01*
X2052320D01*
X2092960Y3088640D01*
Y3104600D01*
X2101140D01*
Y3220000D01*
X2092960D01*
Y3270340D01*
X2110460D01*
Y3254940D01*
X2188160D01*
Y3355340D01*
Y3455740D01*
X2110460D01*
Y3440340D01*
X2092960D01*
Y3464560D01*
X2138590Y3510190D01*
X2859642D01*
X2941230Y3428602D01*
D02*
G37*
G36*
X6298613Y3466265D02*
Y368887D01*
X6159500D01*
X6158215Y368632D01*
X6124724Y365333D01*
X6091283Y355189D01*
X6060465Y338716D01*
X6033452Y316547D01*
X6011284Y289535D01*
X5994811Y258717D01*
X5984667Y225276D01*
X5981368Y191785D01*
X5981113Y190500D01*
Y51387D01*
X368887D01*
Y190500D01*
X368632Y191785D01*
X365333Y225276D01*
X355189Y258717D01*
X338716Y289535D01*
X316547Y316547D01*
X289535Y338716D01*
X258717Y355189D01*
X225276Y365333D01*
X191785Y368632D01*
X190500Y368887D01*
X51387D01*
Y1652705D01*
X64087Y1657965D01*
X83607Y1638446D01*
X85596Y1637622D01*
X87118Y1636099D01*
X89272D01*
X91260Y1635276D01*
X96791Y1633073D01*
X103960Y1626944D01*
Y1511760D01*
X99940D01*
Y1406760D01*
X209940D01*
Y1511760D01*
X205920D01*
Y1627476D01*
X287019D01*
X287020Y1627475D01*
X294674Y1630646D01*
X294675Y1630647D01*
X307374Y1643346D01*
X311555Y1644178D01*
X324907Y1630826D01*
X326896Y1630002D01*
X328418Y1628479D01*
X330572D01*
X332560Y1627656D01*
X338091Y1625453D01*
X345260Y1619324D01*
Y1511760D01*
X341240D01*
Y1406760D01*
X451240D01*
Y1511760D01*
X447220D01*
Y1619856D01*
X492760D01*
X500414Y1623026D01*
X500414Y1623027D01*
X525814Y1648426D01*
X528984Y1656080D01*
Y1680568D01*
X541684Y1685828D01*
X567094Y1660419D01*
X569522Y1659413D01*
X570880Y1658055D01*
X572470D01*
X574078Y1657269D01*
X574352Y1657252D01*
X574563Y1657325D01*
X574747Y1657248D01*
X580446Y1654392D01*
X586560Y1648419D01*
Y1511760D01*
X582540D01*
Y1406760D01*
X690216D01*
Y1372160D01*
X650240D01*
Y1304260D01*
Y1236360D01*
X690216D01*
Y998221D01*
X690216Y998220D01*
X693386Y990566D01*
X734684Y949269D01*
X727859Y938133D01*
X682371Y952913D01*
X625626Y961900D01*
X568174D01*
X511429Y952913D01*
X456789Y935159D01*
X405598Y909076D01*
X359118Y875307D01*
X318493Y834682D01*
X284724Y788202D01*
X258641Y737011D01*
X240887Y682371D01*
X231900Y625626D01*
Y568174D01*
X240887Y511429D01*
X258641Y456789D01*
X284724Y405598D01*
X318493Y359118D01*
X359118Y318493D01*
X405598Y284724D01*
X456789Y258641D01*
X511429Y240887D01*
X568174Y231900D01*
X625626D01*
X682371Y240887D01*
X737011Y258641D01*
X788202Y284724D01*
X834682Y318493D01*
X875307Y359118D01*
X909076Y405598D01*
X935159Y456789D01*
X952913Y511429D01*
X961900Y568174D01*
Y625626D01*
X952913Y682371D01*
X938132Y727859D01*
X949269Y734684D01*
X1152496Y531456D01*
Y378460D01*
X1155666Y370806D01*
X1155667Y370806D01*
X1178481Y347991D01*
X1272405Y251529D01*
X1272476Y251498D01*
X1272506Y251426D01*
X1276270Y249867D01*
X1280016Y248257D01*
X1280088Y248286D01*
X1280160Y248256D01*
X5417820D01*
X5425474Y251426D01*
X5425474Y251427D01*
X5486434Y312386D01*
X5489604Y320040D01*
Y327614D01*
X5501337Y332475D01*
X5515318Y318493D01*
X5561798Y284724D01*
X5612989Y258641D01*
X5667629Y240887D01*
X5724374Y231900D01*
X5781826D01*
X5838571Y240887D01*
X5893211Y258641D01*
X5944402Y284724D01*
X5990882Y318493D01*
X6031507Y359118D01*
X6065276Y405598D01*
X6091359Y456789D01*
X6109113Y511429D01*
X6118100Y568174D01*
Y625626D01*
X6109113Y682371D01*
X6091359Y737011D01*
X6065276Y788202D01*
X6031507Y834682D01*
X5990882Y875307D01*
X5944402Y909076D01*
X5893211Y935159D01*
X5862665Y945084D01*
X5859701Y957433D01*
X5984274Y1082006D01*
X5987444Y1089660D01*
Y1735416D01*
X6268754Y2016726D01*
X6271924Y2024380D01*
Y2933700D01*
X6268754Y2941354D01*
X6268753Y2941354D01*
X6240814Y2969294D01*
X6233160Y2972464D01*
X5748021D01*
X5748020Y2972465D01*
X5740366Y2969294D01*
X5740365Y2969293D01*
X5541346Y2770273D01*
X5304631D01*
X5304631Y2770274D01*
X5296977Y2767103D01*
X5286423Y2756549D01*
X5270187Y2749824D01*
X5252613D01*
X5236376Y2756549D01*
X5233476Y2759449D01*
X5228065Y2761691D01*
X5225823Y2767103D01*
X5225823Y2767103D01*
X5223949Y2768977D01*
X5217224Y2785213D01*
Y2802787D01*
X5223949Y2819024D01*
X5236377Y2831451D01*
X5252613Y2838176D01*
X5270187D01*
X5286424Y2831451D01*
X5288297Y2829577D01*
X5291872Y2828096D01*
X5293709Y2827335D01*
X5293710D01*
X5295951Y2826406D01*
X5295951Y2826406D01*
Y2826406D01*
X5303605Y2829577D01*
X5303606Y2829578D01*
X5737264Y3263236D01*
X5906012D01*
X5907036Y3263660D01*
X5908124Y3263444D01*
X5910748Y3265198D01*
X5913666Y3266406D01*
X5914090Y3267431D01*
X5915012Y3268047D01*
X5922068Y3278606D01*
X5922284Y3279694D01*
X5923068Y3280478D01*
Y3283634D01*
X5923684Y3286732D01*
X5923068Y3287654D01*
Y3288762D01*
X5921224Y3293213D01*
Y3310787D01*
X5927950Y3327024D01*
X5940377Y3339451D01*
X5956613Y3346176D01*
X5974187D01*
X5990424Y3339451D01*
X6002851Y3327023D01*
X6009576Y3310787D01*
Y3293213D01*
X6007732Y3288762D01*
Y3287653D01*
X6007117Y3286732D01*
X6007732Y3283635D01*
Y3280478D01*
X6008516Y3279694D01*
X6008732Y3278606D01*
X6015788Y3268047D01*
X6016710Y3267431D01*
X6017134Y3266406D01*
X6020051Y3265198D01*
X6022676Y3263444D01*
X6023764Y3263660D01*
X6024788Y3263236D01*
X6073140D01*
X6080794Y3266406D01*
X6080794Y3266407D01*
X6285913Y3471525D01*
X6298613Y3466265D01*
D02*
G37*
G36*
X2111549Y3498457D02*
X2085306Y3472214D01*
X2082136Y3464560D01*
Y3455740D01*
X2048560D01*
Y3355340D01*
Y3254940D01*
X2082136D01*
Y3220000D01*
X1990740D01*
Y3187790D01*
X1902460D01*
X1901500Y3187599D01*
X1900081Y3188688D01*
X1849399D01*
X1804494D01*
X1803400Y3187790D01*
X1721400D01*
Y3216200D01*
X1642048D01*
X1621881Y3236367D01*
X1626741Y3248100D01*
X1651000D01*
Y3316000D01*
Y3383900D01*
X1614188D01*
X1608928Y3396600D01*
X1722518Y3510190D01*
X2106689D01*
X2111549Y3498457D01*
D02*
G37*
G36*
X3370546Y4267166D02*
X3378200Y4263996D01*
X3576917D01*
X3989676Y3851236D01*
Y3751580D01*
X3992846Y3743926D01*
X3992847Y3743926D01*
X4282406Y3454366D01*
X4290060Y3451196D01*
Y3101340D01*
X4224020Y3035300D01*
X3644900D01*
X3586480Y3093720D01*
Y3596640D01*
X3416300Y3766820D01*
Y4094480D01*
X3408680D01*
X3197860Y4305300D01*
Y4423259D01*
X3209593Y4428119D01*
X3370546Y4267166D01*
D02*
G37*
G36*
X3190206Y4297646D02*
X3190207Y4297646D01*
X3401026Y4086826D01*
X3405476Y4084983D01*
Y3766820D01*
X3408646Y3759166D01*
X3575656Y3592156D01*
Y3093720D01*
X3578826Y3086066D01*
X3617859Y3047033D01*
X3612999Y3035300D01*
X3020504D01*
X2992210Y3063594D01*
Y3439160D01*
X2990269Y3448915D01*
X2984744Y3457184D01*
X2888224Y3553704D01*
X2885440Y3555564D01*
Y4224020D01*
X2966720Y4305300D01*
X3187036D01*
X3190206Y4297646D01*
D02*
G37*
G36*
X3037552Y2946156D02*
X3045822Y2940631D01*
X3055576Y2938690D01*
X3523070D01*
X3556000Y2905760D01*
Y2876620D01*
X3482620D01*
Y2889320D01*
X3404920D01*
Y2788920D01*
Y2688520D01*
X3482620D01*
Y2701220D01*
X3541780D01*
X3547040Y2688520D01*
X3515801Y2657281D01*
X3267780D01*
Y2707360D01*
X3280480D01*
Y2785060D01*
X3180080D01*
X3079680D01*
Y2707360D01*
X3092380D01*
Y2657281D01*
X3048000Y2611120D01*
X2773680D01*
X2745740Y2639060D01*
Y2641428D01*
X2753920Y2650740D01*
X2758440Y2650740D01*
X2801620D01*
Y2771140D01*
X2814320D01*
Y2783840D01*
X2874720D01*
Y2890659D01*
X2874720Y2891540D01*
X2870340Y2904240D01*
X2915041Y2948940D01*
X3034768D01*
X3037552Y2946156D01*
D02*
G37*
G36*
X2547620Y3055620D02*
Y2926080D01*
X2562860Y2910840D01*
X2605187D01*
X2610526Y2903989D01*
X2604942Y2891540D01*
X2573020D01*
Y2771140D01*
X2547620D01*
Y2891540D01*
X2499920D01*
Y2871154D01*
X2487220Y2865893D01*
X2478320Y2874794D01*
Y2876140D01*
X2476974D01*
X2475293Y2877820D01*
X2462135D01*
X2458900Y2889180D01*
X2458900D01*
Y2976880D01*
X2368500D01*
Y3002280D01*
X2458900D01*
Y3073400D01*
X2529840D01*
X2547620Y3055620D01*
D02*
G37*
G36*
X6261100Y2933700D02*
Y2024380D01*
X5976620Y1739900D01*
Y1089660D01*
X5839553Y952593D01*
X5838571Y952913D01*
X5781826Y961900D01*
X5724374D01*
X5667629Y952913D01*
X5612989Y935159D01*
X5561798Y909076D01*
X5515318Y875307D01*
X5474693Y834682D01*
X5440924Y788202D01*
X5414841Y737011D01*
X5397087Y682371D01*
X5388100Y625626D01*
Y568174D01*
X5397087Y511429D01*
X5414841Y456789D01*
X5440924Y405598D01*
X5474693Y359118D01*
X5478780Y355032D01*
Y320040D01*
X5417820Y259080D01*
X1280160D01*
X1186180Y355600D01*
X1163320Y378460D01*
Y535940D01*
X903810Y795450D01*
X875307Y834682D01*
X834682Y875307D01*
X795450Y903810D01*
X701040Y998220D01*
Y1619720D01*
X688520Y1632240D01*
Y1662360D01*
X687540Y1667285D01*
Y1712360D01*
X642465D01*
X637540Y1713339D01*
X632615Y1712360D01*
X587540D01*
Y1673240D01*
X575022Y1668055D01*
X574748Y1668072D01*
X541020Y1701800D01*
Y1876993D01*
X568364Y1904336D01*
X747356D01*
X836896Y1814796D01*
X844550Y1811626D01*
X845147D01*
X852776Y1803996D01*
Y1038860D01*
X855946Y1031206D01*
X1304896Y582256D01*
Y454661D01*
X1304895Y454660D01*
X1308066Y447006D01*
X1308067Y447005D01*
X1374106Y380966D01*
X1381760Y377796D01*
X3967480D01*
X3975134Y380966D01*
X3975134Y380967D01*
X3982787Y388620D01*
X4503420D01*
X4645660Y396240D01*
X5466080Y1216660D01*
X5844540D01*
Y1922780D01*
X5730330D01*
Y2020404D01*
X5741540Y2024000D01*
Y2024000D01*
X5866940D01*
Y2051210D01*
X5896730D01*
X5906485Y2053151D01*
X5914754Y2058676D01*
X5951464Y2095386D01*
X5956989Y2103655D01*
X5958929Y2113410D01*
X5958203Y2117060D01*
X5958510Y2121950D01*
X5962972Y2129301D01*
X5966052Y2132460D01*
X5990530D01*
X5993493Y2125305D01*
X6008965Y2109833D01*
X6029180Y2101460D01*
X6051060D01*
X6071275Y2109833D01*
X6086747Y2125305D01*
X6095120Y2145520D01*
Y2167400D01*
X6086747Y2187615D01*
X6071275Y2203087D01*
X6051060Y2211460D01*
X6029180D01*
X6008965Y2203087D01*
X5993493Y2187615D01*
X5990530Y2180460D01*
X5972119D01*
X5961470Y2192020D01*
Y2274457D01*
X5959529Y2284212D01*
X5954004Y2292481D01*
X5688461Y2558024D01*
X5680192Y2563549D01*
X5670437Y2565490D01*
X5302255D01*
X5301668Y2566906D01*
X5288306Y2580268D01*
X5270848Y2587500D01*
X5251952D01*
X5234493Y2580268D01*
X5221132Y2566906D01*
X5213900Y2549448D01*
Y2530552D01*
X5221132Y2513094D01*
X5234493Y2499732D01*
X5251952Y2492500D01*
X5270848D01*
X5288306Y2499732D01*
X5301668Y2513094D01*
X5302255Y2514510D01*
X5659879D01*
X5843257Y2331133D01*
X5838397Y2319400D01*
X5741540D01*
Y2276240D01*
X5738065D01*
X5728310Y2274299D01*
X5720041Y2268774D01*
X5686816Y2235549D01*
X5681291Y2227280D01*
X5679350Y2217525D01*
Y1923178D01*
X5678952Y1922780D01*
X5321964D01*
X5318794Y1930434D01*
X5303554Y1945674D01*
X5295900Y1948844D01*
X4949796D01*
X4912360Y1986280D01*
Y2593340D01*
X4975196Y2656176D01*
X5125719D01*
X5125720Y2656176D01*
X5133374Y2659346D01*
X5225823Y2751795D01*
X5230245Y2747373D01*
X5250460Y2739000D01*
X5272340D01*
X5292555Y2747373D01*
X5304631Y2759449D01*
X5545829D01*
X5748020Y2961640D01*
X6233160D01*
X6261100Y2933700D01*
D02*
G37*
G36*
X2372920Y2783840D02*
X2433320D01*
Y2758440D01*
X2372920D01*
Y2667793D01*
X2361187Y2662933D01*
X2336800Y2687320D01*
X2227580D01*
X2209800Y2705100D01*
Y2722479D01*
X2222500Y2726331D01*
X2224371Y2723531D01*
X2235503Y2716093D01*
X2248635Y2713481D01*
X2265680D01*
Y2772561D01*
Y2831639D01*
X2248635D01*
X2235503Y2829027D01*
X2224371Y2821589D01*
X2222500Y2818789D01*
X2209800Y2822642D01*
Y2844800D01*
X2242820Y2877820D01*
X2372920D01*
Y2783840D01*
D02*
G37*
G36*
X2626920Y2877260D02*
Y2783840D01*
X2687320D01*
Y2771140D01*
X2700020D01*
Y2650740D01*
X2722078D01*
X2722124Y2650721D01*
X2731994Y2641428D01*
Y2639060D01*
X2733224Y2636090D01*
X2725376Y2623390D01*
X2636520D01*
Y2496340D01*
X2814570D01*
Y2597374D01*
X3048000D01*
X3048135Y2597429D01*
X3048271Y2597376D01*
X3052974Y2599434D01*
X3057720Y2601400D01*
X3057776Y2601535D01*
X3057910Y2601593D01*
X3067900Y2611984D01*
X3079680Y2607239D01*
Y2542360D01*
X3167380D01*
Y2632760D01*
X3192780D01*
Y2542360D01*
X3280480D01*
Y2643535D01*
X3515801D01*
X3525522Y2647561D01*
X3525522Y2647561D01*
X3556760Y2678800D01*
X3557807Y2681326D01*
X3559740Y2683260D01*
Y2685994D01*
X3560787Y2688520D01*
X3559740Y2691047D01*
Y2691220D01*
X3564331Y2700651D01*
X3566515Y2703920D01*
X3632220D01*
Y2753234D01*
X3649316D01*
Y2667001D01*
X3649316Y2667000D01*
X3652486Y2659346D01*
X3667053Y2644780D01*
X3662508Y2632080D01*
X3653880D01*
Y2532380D01*
X3716080D01*
Y2625696D01*
X3716080Y2632080D01*
X3726164Y2638396D01*
X3781396D01*
Y2071920D01*
X3722780D01*
Y2001520D01*
Y1931120D01*
X3781396D01*
Y1903124D01*
X3469640D01*
X3461986Y1899954D01*
X3347686Y1785654D01*
X3344516Y1778000D01*
Y797561D01*
X3344515Y797560D01*
X3347686Y789906D01*
X3347687Y789905D01*
X3360386Y777206D01*
X3368040Y774036D01*
X3776316D01*
Y636944D01*
X3686136Y546764D01*
X1503084D01*
X1489104Y560744D01*
Y650239D01*
X1489105Y650240D01*
X1485934Y657894D01*
X1485933Y657895D01*
X1044604Y1099224D01*
Y1154001D01*
X1057304Y1158128D01*
X1081465Y1124873D01*
X1124873Y1081465D01*
X1174536Y1045383D01*
X1229232Y1017513D01*
X1287615Y998544D01*
X1348247Y988941D01*
X1409634D01*
X1470266Y998544D01*
X1528649Y1017513D01*
X1583345Y1045383D01*
X1633009Y1081465D01*
X1676416Y1124873D01*
X1712498Y1174536D01*
X1740368Y1229232D01*
X1759338Y1287615D01*
X1768941Y1348247D01*
Y1409634D01*
X1759338Y1470266D01*
X1740368Y1528649D01*
X1712498Y1583345D01*
X1676416Y1633009D01*
X1633009Y1676416D01*
X1583345Y1712498D01*
X1528649Y1740368D01*
X1470266Y1759338D01*
X1409634Y1768941D01*
X1348247D01*
X1287615Y1759338D01*
X1229232Y1740368D01*
X1174536Y1712498D01*
X1124873Y1676416D01*
X1081465Y1633009D01*
X1057304Y1599753D01*
X1044604Y1603880D01*
Y1835756D01*
X2136139D01*
X2136140Y1835756D01*
X2143794Y1838926D01*
X2238043Y1933175D01*
X2249776Y1928315D01*
Y1907540D01*
X2252946Y1899886D01*
X2273266Y1879566D01*
X2280920Y1876396D01*
X2332920D01*
X2335620Y1877514D01*
X2348320Y1870719D01*
Y1734800D01*
X2337516Y1730224D01*
X2332920D01*
X2329546Y1728827D01*
X2326053Y1727766D01*
X2325787Y1727270D01*
X2325267Y1727054D01*
X2323869Y1723680D01*
X2322149Y1720460D01*
X2320948Y1708257D01*
X2321112Y1707718D01*
X2320896Y1707197D01*
Y1445261D01*
X2320895Y1445260D01*
X2324066Y1437606D01*
X2324067Y1437605D01*
X2334226Y1427446D01*
X2341880Y1424276D01*
X2526636D01*
Y820420D01*
X2529806Y812766D01*
X2567906Y774666D01*
X2575560Y771496D01*
X3202939D01*
X3202940Y771495D01*
X3210594Y774666D01*
X3210595Y774667D01*
X3276634Y840706D01*
X3279804Y848360D01*
Y1770379D01*
X3279805Y1770380D01*
X3276634Y1778034D01*
X3276633Y1778035D01*
X3154714Y1899954D01*
X3147060Y1903124D01*
X2825144D01*
Y1933580D01*
X2845980D01*
Y1998980D01*
X2858680D01*
Y2011680D01*
X2914080D01*
Y2064380D01*
X2877955D01*
X2874720Y2075740D01*
X2874720D01*
Y2183440D01*
X2814320D01*
Y2196140D01*
X2801620D01*
Y2316540D01*
X2766749D01*
X2765927Y2317215D01*
X2764356Y2317693D01*
X2763196Y2318854D01*
X2760542D01*
X2758002Y2319627D01*
X2756553Y2318854D01*
X2754912D01*
X2743578Y2314159D01*
X2742056Y2312637D01*
X2740066Y2311813D01*
X2739648Y2310804D01*
X2737846Y2308428D01*
X2737720Y2308302D01*
X2732320Y2301140D01*
X2642320D01*
Y2301140D01*
X2631897Y2294576D01*
X2630362Y2293668D01*
X2628583Y2293542D01*
X2618020Y2288265D01*
X2610002Y2291209D01*
X2605320Y2294403D01*
Y2301140D01*
X2515320D01*
Y2091140D01*
X2504515Y2086564D01*
X2504440D01*
X2496786Y2083394D01*
X2493616Y2075740D01*
Y2057400D01*
X2488538Y2049800D01*
X2384578D01*
X2381366Y2054549D01*
X2378446Y2062500D01*
X2382622Y2070941D01*
X2382788Y2073433D01*
X2383744Y2075740D01*
Y2080335D01*
X2388320Y2091140D01*
X2478320D01*
Y2301140D01*
X2388320D01*
X2380574Y2308894D01*
X2372920Y2312064D01*
X2273301D01*
X2273300Y2312064D01*
X2268884Y2310235D01*
X2263586Y2312103D01*
X2256184Y2316025D01*
Y2542540D01*
X2253014Y2550194D01*
X2241196Y2562011D01*
X2247452Y2573716D01*
X2248635Y2573481D01*
X2265680D01*
Y2632559D01*
X2278380D01*
Y2645259D01*
X2342439D01*
Y2648413D01*
X2348176Y2651964D01*
X2355139Y2654614D01*
X2355522Y2654455D01*
X2357045Y2652933D01*
X2359198D01*
X2361187Y2652109D01*
X2363176Y2652933D01*
X2365329D01*
X2377062Y2657794D01*
X2378487Y2659218D01*
X2378684Y2659357D01*
X2380574Y2660140D01*
X2385859Y2664234D01*
X2395482Y2666140D01*
X2478320D01*
Y2845164D01*
X2479151Y2847039D01*
X2487220Y2855069D01*
X2489209Y2855893D01*
X2491362D01*
X2502620Y2860557D01*
X2512736Y2856782D01*
X2515320Y2854653D01*
Y2666140D01*
X2605320D01*
Y2869283D01*
X2608042Y2878795D01*
X2614220Y2882951D01*
X2626920Y2877260D01*
D02*
G37*
G36*
X4948155Y2644443D02*
X4904706Y2600994D01*
X4901536Y2593340D01*
Y1986280D01*
X4904706Y1978626D01*
X4904707Y1978626D01*
X4922755Y1960577D01*
X4917895Y1948844D01*
X4785340D01*
Y2006800D01*
X4612640D01*
Y1899100D01*
X4673899D01*
X4678760Y1887367D01*
X4678646Y1887254D01*
X4675476Y1879600D01*
Y1721665D01*
X4663743Y1716805D01*
X4493180Y1887367D01*
X4498041Y1899100D01*
X4587240D01*
Y2006800D01*
X4414540D01*
Y1982601D01*
X4402807Y1977741D01*
X4267864Y2112684D01*
Y2451697D01*
X4472344Y2656176D01*
X4943295D01*
X4948155Y2644443D01*
D02*
G37*
G36*
X2637790Y2280577D02*
Y1956138D01*
X2637562Y1953812D01*
X2630734Y1944100D01*
X2619191Y1941307D01*
X2618478Y1940787D01*
X2617595D01*
X2615215Y1938407D01*
X2612498Y1936425D01*
X2612361Y1935553D01*
X2611737Y1934929D01*
X2607627Y1925007D01*
X2595200Y1912580D01*
X2594278Y1912198D01*
X2592756Y1910675D01*
X2590766Y1909851D01*
X2589942Y1907862D01*
X2588420Y1906340D01*
Y1904659D01*
X2588298Y1903892D01*
X2587596Y1902198D01*
Y1899475D01*
X2586456Y1892300D01*
X2552700D01*
X2529840Y1915160D01*
Y2032000D01*
X2518320Y2043520D01*
Y2049800D01*
X2512040D01*
X2504440Y2057400D01*
Y2075740D01*
X2547620D01*
Y2196140D01*
X2560320D01*
Y2208840D01*
X2620720D01*
Y2277515D01*
X2633420Y2283859D01*
X2637790Y2280577D01*
D02*
G37*
G36*
X2372920Y2208840D02*
X2433320D01*
Y2183440D01*
X2372920D01*
Y2075740D01*
X2367706Y2065200D01*
X2332920D01*
Y1987500D01*
X2433320D01*
Y1962100D01*
X2332920D01*
Y1887220D01*
X2280920D01*
X2260600Y1907540D01*
Y2288540D01*
X2273300Y2301240D01*
X2372920D01*
Y2208840D01*
D02*
G37*
G36*
X5833716Y1227484D02*
X5466081D01*
X5466080Y1227484D01*
X5458426Y1224314D01*
X5405493Y1171381D01*
X5393760Y1176241D01*
Y1256636D01*
X5445759D01*
X5445760Y1256636D01*
X5453414Y1259806D01*
X5488974Y1295366D01*
X5492145Y1303020D01*
X5488974Y1310674D01*
X5488973Y1310675D01*
X5487064Y1312583D01*
Y1455420D01*
X5483894Y1463074D01*
X5483893Y1463074D01*
X5425294Y1521674D01*
X5417640Y1524844D01*
X5396724D01*
X5376214Y1545353D01*
Y1570960D01*
X5417340D01*
Y1597660D01*
X5381940D01*
Y1610360D01*
X5369240D01*
Y1649760D01*
X5354269D01*
X5350755Y1652276D01*
X5347542Y1655552D01*
X5344491Y1661494D01*
X5343667Y1663483D01*
Y1665635D01*
X5342145Y1667158D01*
X5341321Y1669147D01*
X5321964Y1688504D01*
Y1911956D01*
X5321964Y1911956D01*
X5334866D01*
X5338400Y1900720D01*
X5338400D01*
Y1700320D01*
X5418800D01*
Y1843480D01*
X5661190D01*
X5670944Y1845420D01*
X5679214Y1850946D01*
X5722864Y1894596D01*
X5728389Y1902865D01*
X5730182Y1911877D01*
X5730330Y1911956D01*
X5833716D01*
Y1227484D01*
D02*
G37*
G36*
X2446020Y1719400D02*
X2525162D01*
X2525981Y1707570D01*
X2517116Y1698300D01*
X2513936Y1698300D01*
X2445000D01*
Y1612900D01*
Y1527500D01*
X2513936D01*
X2517700Y1527500D01*
X2526636Y1518501D01*
Y1435100D01*
X2341880D01*
X2331720Y1445260D01*
Y1707197D01*
X2332920Y1719400D01*
X2420620D01*
Y1809800D01*
X2446020D01*
Y1719400D01*
D02*
G37*
G36*
X5311140Y1922780D02*
Y1684020D01*
X5333667Y1661493D01*
X5328806Y1649760D01*
X5306540D01*
Y1623060D01*
X5341940D01*
Y1610360D01*
X5354640D01*
Y1570960D01*
X5365390D01*
Y1540870D01*
X5392240Y1514020D01*
X5417640D01*
X5476240Y1455420D01*
Y1308100D01*
X5481320Y1303020D01*
X5445760Y1267460D01*
X5378360D01*
Y1320520D01*
X5393760D01*
Y1398220D01*
X5293360D01*
X5192960D01*
Y1320520D01*
X5208360D01*
Y1267460D01*
X5157380D01*
Y1320520D01*
X5172780D01*
Y1398220D01*
X5072380D01*
X4971980D01*
Y1320520D01*
X4987380D01*
Y1267460D01*
X4706588D01*
X4697124Y1277800D01*
Y1678940D01*
X4693954Y1686594D01*
X4693953Y1686594D01*
X4686300Y1694247D01*
Y1879600D01*
X4719320Y1912620D01*
X4737100D01*
X4738980Y1914500D01*
X4769940D01*
Y1938020D01*
X5295900D01*
X5311140Y1922780D01*
D02*
G37*
G36*
X4698603Y1260152D02*
X4698836Y1260044D01*
X4698934Y1259806D01*
X4702557Y1258306D01*
X4706109Y1256646D01*
X4706351Y1256734D01*
X4706588Y1256636D01*
X4971980D01*
Y1155520D01*
X5059680D01*
Y1245920D01*
X5085080D01*
Y1155520D01*
X5172780D01*
Y1256636D01*
X5192960D01*
Y1155520D01*
X5280660D01*
Y1245920D01*
X5306060D01*
Y1155520D01*
X5373039D01*
X5377899Y1143787D01*
X4640939Y406826D01*
X4503130Y399444D01*
X4010205D01*
X4005345Y411177D01*
X4018314Y424146D01*
X4021484Y431800D01*
Y696557D01*
X4251364Y926436D01*
X4282700D01*
X4283933Y926947D01*
X4285253Y926741D01*
X4287632Y928479D01*
X4290354Y929606D01*
X4290865Y930840D01*
X4291943Y931627D01*
X4292170Y932000D01*
X4361180D01*
Y1022400D01*
X4386580D01*
Y932000D01*
X4455590D01*
X4455817Y931627D01*
X4456895Y930840D01*
X4457406Y929606D01*
X4460127Y928479D01*
X4462507Y926741D01*
X4463827Y926947D01*
X4465060Y926436D01*
X4508760D01*
X4509993Y926947D01*
X4511313Y926741D01*
X4513692Y928479D01*
X4516414Y929606D01*
X4516925Y930840D01*
X4518003Y931627D01*
X4518230Y932000D01*
X4587240D01*
Y1022400D01*
X4599940D01*
Y1035100D01*
X4700340D01*
Y1112800D01*
X4684940D01*
Y1256270D01*
X4697640Y1261205D01*
X4698603Y1260152D01*
D02*
G37*
G36*
X2768600Y2301006D02*
Y2070100D01*
X2814320Y2024380D01*
Y1892300D01*
X3147060D01*
X3268980Y1770380D01*
Y848360D01*
X3202940Y782320D01*
X2575560D01*
X2537460Y820420D01*
Y1527500D01*
X2609600D01*
Y1612900D01*
Y1698300D01*
X2537460D01*
Y1793240D01*
X2598420Y1854200D01*
Y1902198D01*
X2601332Y1903404D01*
X2616803Y1918875D01*
X2621737Y1930786D01*
X2633280Y1933580D01*
X2636641Y1933580D01*
X2675980D01*
Y1998980D01*
X2688680D01*
Y2011680D01*
X2744080D01*
Y2063040D01*
X2744080Y2064380D01*
X2747315Y2075740D01*
X2747720D01*
Y2183440D01*
X2687320D01*
Y2208840D01*
X2747720D01*
Y2304159D01*
X2759054Y2308854D01*
X2768600Y2301006D01*
D02*
G37*
%LPC*%
G36*
X5781826Y6118100D02*
X5724374D01*
X5667629Y6109113D01*
X5612989Y6091359D01*
X5561798Y6065276D01*
X5515318Y6031507D01*
X5474693Y5990882D01*
X5440924Y5944402D01*
X5414841Y5893211D01*
X5397087Y5838571D01*
X5388100Y5781826D01*
Y5724374D01*
X5397087Y5667629D01*
X5414841Y5612989D01*
X5440924Y5561798D01*
X5474693Y5515318D01*
X5515318Y5474693D01*
X5561798Y5440924D01*
X5612989Y5414841D01*
X5667629Y5397087D01*
X5724374Y5388100D01*
X5781826D01*
X5838571Y5397087D01*
X5893211Y5414841D01*
X5944402Y5440924D01*
X5990882Y5474693D01*
X6031507Y5515318D01*
X6065276Y5561798D01*
X6091359Y5612989D01*
X6109113Y5667629D01*
X6118100Y5724374D01*
Y5781826D01*
X6109113Y5838571D01*
X6091359Y5893211D01*
X6065276Y5944402D01*
X6031507Y5990882D01*
X5990882Y6031507D01*
X5944402Y6065276D01*
X5893211Y6091359D01*
X5838571Y6109113D01*
X5781826Y6118100D01*
D02*
G37*
G36*
X625626D02*
X568174D01*
X511429Y6109113D01*
X456789Y6091359D01*
X405598Y6065276D01*
X359118Y6031507D01*
X318493Y5990882D01*
X284724Y5944402D01*
X258641Y5893211D01*
X240887Y5838571D01*
X231900Y5781826D01*
Y5724374D01*
X240887Y5667629D01*
X258641Y5612989D01*
X284724Y5561798D01*
X318493Y5515318D01*
X359118Y5474693D01*
X405598Y5440924D01*
X456789Y5414841D01*
X511429Y5397087D01*
X568174Y5388100D01*
X625626D01*
X682371Y5397087D01*
X737011Y5414841D01*
X788202Y5440924D01*
X834682Y5474693D01*
X875307Y5515318D01*
X909076Y5561798D01*
X935159Y5612989D01*
X952913Y5667629D01*
X961900Y5724374D01*
Y5781826D01*
X952913Y5838571D01*
X935159Y5893211D01*
X909076Y5944402D01*
X875307Y5990882D01*
X834682Y6031507D01*
X788202Y6065276D01*
X737011Y6091359D01*
X682371Y6109113D01*
X625626Y6118100D01*
D02*
G37*
G36*
X3850000Y5421387D02*
X3830421Y5418810D01*
X3812176Y5411252D01*
X3798476Y5400740D01*
X3790000D01*
Y5390747D01*
X3784488Y5383564D01*
X3776930Y5365319D01*
X3774353Y5345740D01*
Y5225740D01*
X3776930Y5206161D01*
X3784488Y5187916D01*
X3790000Y5180733D01*
Y5170740D01*
X3798476D01*
X3812176Y5160228D01*
X3830421Y5152670D01*
X3850000Y5150093D01*
X3869579Y5152670D01*
X3887824Y5160228D01*
X3901524Y5170740D01*
X3910000D01*
Y5180733D01*
X3915512Y5187916D01*
X3923069Y5206161D01*
X3925647Y5225740D01*
Y5345740D01*
X3923069Y5365319D01*
X3915512Y5383564D01*
X3910000Y5390747D01*
Y5400740D01*
X3901524D01*
X3887824Y5411252D01*
X3869579Y5418810D01*
X3850000Y5421387D01*
D02*
G37*
G36*
X2500000D02*
X2480421Y5418810D01*
X2462176Y5411252D01*
X2448476Y5400740D01*
X2440000D01*
Y5390747D01*
X2434488Y5383564D01*
X2426931Y5365319D01*
X2424353Y5345740D01*
Y5225740D01*
X2426931Y5206161D01*
X2434488Y5187916D01*
X2440000Y5180733D01*
Y5170740D01*
X2448476D01*
X2462176Y5160228D01*
X2480421Y5152670D01*
X2500000Y5150093D01*
X2519579Y5152670D01*
X2537824Y5160228D01*
X2551524Y5170740D01*
X2560000D01*
Y5180733D01*
X2565512Y5187916D01*
X2573070Y5206161D01*
X2575647Y5225740D01*
Y5345740D01*
X2573070Y5365319D01*
X2565512Y5383564D01*
X2560000Y5390747D01*
Y5400740D01*
X2551524D01*
X2537824Y5411252D01*
X2519579Y5418810D01*
X2500000Y5421387D01*
D02*
G37*
G36*
X2835801Y4896940D02*
X2827700D01*
Y4698440D01*
X3026200D01*
Y4706541D01*
X3018084Y4747345D01*
X3002163Y4785781D01*
X2979050Y4820372D01*
X2949632Y4849790D01*
X2915041Y4872903D01*
X2876605Y4888824D01*
X2835801Y4896940D01*
D02*
G37*
G36*
X2802300D02*
X2794199D01*
X2753395Y4888824D01*
X2714959Y4872903D01*
X2680368Y4849790D01*
X2650950Y4820372D01*
X2627837Y4785781D01*
X2611916Y4747345D01*
X2603800Y4706541D01*
Y4698440D01*
X2802300D01*
Y4896940D01*
D02*
G37*
G36*
X3026200Y4673040D02*
X2827700D01*
Y4474540D01*
X2835801D01*
X2876605Y4482656D01*
X2915041Y4498577D01*
X2949632Y4521690D01*
X2979050Y4551108D01*
X3002163Y4585699D01*
X3018084Y4624135D01*
X3026200Y4664939D01*
Y4673040D01*
D02*
G37*
G36*
X2802300D02*
X2603800D01*
Y4664939D01*
X2611916Y4624135D01*
X2627837Y4585699D01*
X2650950Y4551108D01*
X2680368Y4521690D01*
X2714959Y4498577D01*
X2753395Y4482656D01*
X2794199Y4474540D01*
X2802300D01*
Y4673040D01*
D02*
G37*
G36*
X2831000Y4027160D02*
X2658300D01*
Y3934460D01*
X2831000D01*
Y4027160D01*
D02*
G37*
G36*
X2632900D02*
X2460200D01*
Y3934460D01*
X2632900D01*
Y4027160D01*
D02*
G37*
G36*
X2831000Y3909060D02*
X2658300D01*
Y3816360D01*
X2831000D01*
Y3909060D01*
D02*
G37*
G36*
X2632900D02*
X2460200D01*
Y3816360D01*
X2632900D01*
Y3909060D01*
D02*
G37*
G36*
X5272340Y3611000D02*
X5250460D01*
X5230245Y3602627D01*
X5214773Y3587155D01*
X5206400Y3566940D01*
Y3545060D01*
X5214773Y3524845D01*
X5230245Y3509373D01*
X5250460Y3501000D01*
X5272340D01*
X5292555Y3509373D01*
X5308026Y3524845D01*
X5316400Y3545060D01*
Y3566940D01*
X5308026Y3587155D01*
X5292555Y3602627D01*
X5272340Y3611000D01*
D02*
G37*
G36*
Y3357000D02*
X5250460D01*
X5230245Y3348627D01*
X5214773Y3333155D01*
X5206400Y3312940D01*
Y3291060D01*
X5214773Y3270845D01*
X5230245Y3255373D01*
X5250460Y3247000D01*
X5272340D01*
X5292555Y3255373D01*
X5308026Y3270845D01*
X5316400Y3291060D01*
Y3312940D01*
X5308026Y3333155D01*
X5292555Y3348627D01*
X5272340Y3357000D01*
D02*
G37*
G36*
Y3103000D02*
X5250460D01*
X5230245Y3094627D01*
X5214773Y3079155D01*
X5206400Y3058940D01*
Y3037060D01*
X5214773Y3016845D01*
X5230245Y3001373D01*
X5250460Y2993000D01*
X5272340D01*
X5292555Y3001373D01*
X5308026Y3016845D01*
X5316400Y3037060D01*
Y3058940D01*
X5308026Y3079155D01*
X5292555Y3094627D01*
X5272340Y3103000D01*
D02*
G37*
G36*
X4010840Y2889320D02*
X3933140D01*
Y2801620D01*
X4010840D01*
Y2889320D01*
D02*
G37*
G36*
Y2776220D02*
X3933140D01*
Y2688520D01*
X4010840D01*
Y2776220D01*
D02*
G37*
G36*
X4013080Y2632080D02*
X3950880D01*
Y2532380D01*
X4013080D01*
Y2632080D01*
D02*
G37*
G36*
X3925480D02*
X3863280D01*
Y2532380D01*
X3925480D01*
Y2632080D01*
D02*
G37*
G36*
X4013080Y2506980D02*
X3938180D01*
X3863280D01*
Y2413640D01*
X3863280Y2404110D01*
X3863280Y2394580D01*
Y2301240D01*
X3938180D01*
X4013080D01*
Y2394580D01*
X4013080Y2404110D01*
X4013080Y2413640D01*
Y2506980D01*
D02*
G37*
G36*
Y2275840D02*
X3950880D01*
Y2176140D01*
X4013080D01*
Y2275840D01*
D02*
G37*
G36*
X3925480D02*
X3863280D01*
Y2176140D01*
X3925480D01*
Y2275840D01*
D02*
G37*
G36*
X4000080Y2151520D02*
X3840080D01*
Y2041520D01*
X4000080D01*
Y2151520D01*
D02*
G37*
G36*
X4015480Y1976920D02*
X3932780D01*
Y1919220D01*
X4015480D01*
Y1976920D01*
D02*
G37*
G36*
X3907380D02*
X3824680D01*
Y1919220D01*
X3907380D01*
Y1976920D01*
D02*
G37*
G36*
X4015480Y1893820D02*
X3932780D01*
Y1836120D01*
X4015480D01*
Y1893820D01*
D02*
G37*
G36*
X3907380D02*
X3824680D01*
Y1836120D01*
X3907380D01*
Y1893820D01*
D02*
G37*
G36*
X461640Y1877760D02*
X408940D01*
Y1825060D01*
X461640D01*
Y1877760D01*
D02*
G37*
G36*
X383540D02*
X330840D01*
Y1825060D01*
X383540D01*
Y1877760D01*
D02*
G37*
G36*
X461640Y1799660D02*
X408940D01*
Y1746960D01*
X461640D01*
Y1799660D01*
D02*
G37*
G36*
X383540D02*
X330840D01*
Y1746960D01*
X383540D01*
Y1799660D01*
D02*
G37*
G36*
X4670340Y1529900D02*
X4612640D01*
Y1422200D01*
X4670340D01*
Y1529900D01*
D02*
G37*
G36*
X4445340D02*
X4387639D01*
Y1422200D01*
X4445340D01*
Y1529900D01*
D02*
G37*
G36*
X4362239D02*
X4304540D01*
Y1422200D01*
X4362239D01*
Y1529900D01*
D02*
G37*
G36*
X4587240D02*
X4529540D01*
Y1422200D01*
X4587240D01*
Y1529900D01*
D02*
G37*
G36*
X4094320Y1481660D02*
X3941620D01*
Y1203960D01*
X4094320D01*
Y1481660D01*
D02*
G37*
G36*
X3916220D02*
X3763520D01*
Y1203960D01*
X3916220D01*
Y1481660D01*
D02*
G37*
G36*
X4445340Y1396800D02*
X4374939D01*
X4304540D01*
Y1290500D01*
X4304540Y1289100D01*
X4301161Y1277800D01*
X4273480D01*
Y1200100D01*
X4373880D01*
X4474280D01*
Y1277800D01*
X4448719D01*
X4445340Y1289100D01*
X4445340Y1290500D01*
Y1396800D01*
D02*
G37*
G36*
X4094320Y1178560D02*
X3941620D01*
Y900860D01*
X4094320D01*
Y1178560D01*
D02*
G37*
G36*
X3916220D02*
X3763520D01*
Y900860D01*
X3916220D01*
Y1178560D01*
D02*
G37*
G36*
X3746200Y4896940D02*
X3547700D01*
Y4698440D01*
X3746200D01*
Y4896940D01*
D02*
G37*
G36*
X3522300D02*
X3323800D01*
Y4698440D01*
X3522300D01*
Y4896940D01*
D02*
G37*
G36*
X3746200Y4673040D02*
X3547700D01*
Y4474540D01*
X3746200D01*
Y4673040D01*
D02*
G37*
G36*
X3522300D02*
X3323800D01*
Y4474540D01*
X3522300D01*
Y4673040D01*
D02*
G37*
G36*
X4811588Y3970880D02*
X4807120D01*
Y3853180D01*
X4924820D01*
Y3857648D01*
X4915934Y3890813D01*
X4898766Y3920547D01*
X4874487Y3944826D01*
X4844753Y3961994D01*
X4811588Y3970880D01*
D02*
G37*
G36*
X4781720D02*
X4777252D01*
X4744087Y3961994D01*
X4714353Y3944826D01*
X4690074Y3920547D01*
X4672906Y3890813D01*
X4664020Y3857648D01*
Y3853180D01*
X4781720D01*
Y3970880D01*
D02*
G37*
G36*
X4924820Y3827780D02*
X4807120D01*
Y3710080D01*
X4811588D01*
X4844753Y3718966D01*
X4874487Y3736134D01*
X4898766Y3760413D01*
X4915934Y3790147D01*
X4924820Y3823312D01*
Y3827780D01*
D02*
G37*
G36*
X4781720D02*
X4664020D01*
Y3823312D01*
X4672906Y3790147D01*
X4690074Y3760413D01*
X4714353Y3736134D01*
X4744087Y3718966D01*
X4777252Y3710080D01*
X4781720D01*
Y3827780D01*
D02*
G37*
G36*
X2834640Y3450702D02*
X2810517Y3444238D01*
X2788763Y3431679D01*
X2771001Y3413917D01*
X2758442Y3392163D01*
X2751978Y3368040D01*
X2834640D01*
Y3450702D01*
D02*
G37*
G36*
X2291260Y3455740D02*
X2213560D01*
Y3368040D01*
X2291260D01*
Y3455740D01*
D02*
G37*
G36*
X2834640Y3342640D02*
X2751978D01*
X2758442Y3318517D01*
X2771001Y3296763D01*
X2788763Y3279001D01*
X2810517Y3266442D01*
X2834640Y3259978D01*
Y3342640D01*
D02*
G37*
G36*
X2291260Y3342640D02*
X2213560D01*
Y3254940D01*
X2291260D01*
Y3342640D01*
D02*
G37*
G36*
X2268840Y3232700D02*
X2213640D01*
Y3175000D01*
X2268840D01*
Y3232700D01*
D02*
G37*
G36*
X2188240D02*
X2133040D01*
Y3175000D01*
X2188240D01*
Y3232700D01*
D02*
G37*
G36*
X2190800Y2976880D02*
X2113100D01*
Y2889180D01*
X2190800D01*
Y2976880D01*
D02*
G37*
G36*
X2113681Y2509140D02*
X1919681D01*
Y2390139D01*
X2113681D01*
Y2509140D01*
D02*
G37*
G36*
X1862221D02*
X1668221D01*
Y2390139D01*
X1862221D01*
Y2509140D01*
D02*
G37*
G36*
X2129081Y2227540D02*
X2029381D01*
Y2165340D01*
X2129081D01*
Y2227540D01*
D02*
G37*
G36*
X2003981D02*
X1904281D01*
Y2165340D01*
X2003981D01*
Y2227540D01*
D02*
G37*
G36*
X1877621D02*
X1777921D01*
Y2165340D01*
X1877621D01*
Y2227540D01*
D02*
G37*
G36*
X1752521D02*
X1652821D01*
Y2165340D01*
X1752521D01*
Y2227540D01*
D02*
G37*
G36*
X2129081Y2139940D02*
X2029381D01*
Y2077740D01*
X2129081D01*
Y2139940D01*
D02*
G37*
G36*
X2003981D02*
X1904281D01*
Y2077740D01*
X2003981D01*
Y2139940D01*
D02*
G37*
G36*
X1877621D02*
X1777921D01*
Y2077740D01*
X1877621D01*
Y2139940D01*
D02*
G37*
G36*
X1752521D02*
X1652821D01*
Y2077740D01*
X1752521D01*
Y2139940D01*
D02*
G37*
G36*
X220340Y1877760D02*
X167640D01*
Y1825060D01*
X220340D01*
Y1877760D01*
D02*
G37*
G36*
X142240D02*
X89540D01*
Y1825060D01*
X142240D01*
Y1877760D01*
D02*
G37*
G36*
X220340Y1799660D02*
X167640D01*
Y1746960D01*
X220340D01*
Y1799660D01*
D02*
G37*
G36*
X142240D02*
X89540D01*
Y1746960D01*
X142240D01*
Y1799660D01*
D02*
G37*
G36*
X624840Y1372160D02*
X567140D01*
Y1316960D01*
X624840D01*
Y1372160D01*
D02*
G37*
G36*
X466640D02*
X408940D01*
Y1316960D01*
X466640D01*
Y1372160D01*
D02*
G37*
G36*
X383540D02*
X325840D01*
Y1316960D01*
X383540D01*
Y1372160D01*
D02*
G37*
G36*
X225340D02*
X167640D01*
Y1316960D01*
X225340D01*
Y1372160D01*
D02*
G37*
G36*
X142240D02*
X84540D01*
Y1316960D01*
X142240D01*
Y1372160D01*
D02*
G37*
G36*
X624840Y1291560D02*
X567140D01*
Y1236360D01*
X624840D01*
Y1291560D01*
D02*
G37*
G36*
X466640D02*
X408940D01*
Y1236360D01*
X466640D01*
Y1291560D01*
D02*
G37*
G36*
X383540D02*
X325840D01*
Y1236360D01*
X383540D01*
Y1291560D01*
D02*
G37*
G36*
X225340D02*
X167640D01*
Y1236360D01*
X225340D01*
Y1291560D01*
D02*
G37*
G36*
X142240D02*
X84540D01*
Y1236360D01*
X142240D01*
Y1291560D01*
D02*
G37*
G36*
X2023160Y3455740D02*
X1945460D01*
Y3368040D01*
X2023160D01*
Y3455740D01*
D02*
G37*
G36*
X1734100Y3383900D02*
X1676400D01*
Y3328700D01*
X1734100D01*
Y3383900D01*
D02*
G37*
G36*
X2023160Y3342640D02*
X1945460D01*
Y3254940D01*
X2023160D01*
Y3342640D01*
D02*
G37*
G36*
X1734100Y3303300D02*
X1676400D01*
Y3248100D01*
X1734100D01*
Y3303300D01*
D02*
G37*
G36*
X1888799Y3236788D02*
X1862099D01*
Y3214088D01*
X1888799D01*
Y3236788D01*
D02*
G37*
G36*
X1836699D02*
X1809999D01*
Y3214088D01*
X1836699D01*
Y3236788D01*
D02*
G37*
G36*
X3721588Y3970880D02*
X3717120D01*
Y3853180D01*
X3834820D01*
Y3857648D01*
X3825934Y3890813D01*
X3808766Y3920547D01*
X3784487Y3944826D01*
X3754753Y3961994D01*
X3721588Y3970880D01*
D02*
G37*
G36*
X3691720D02*
X3687252D01*
X3654087Y3961994D01*
X3624353Y3944826D01*
X3600074Y3920547D01*
X3582906Y3890813D01*
X3574020Y3857648D01*
Y3853180D01*
X3691720D01*
Y3970880D01*
D02*
G37*
G36*
X3834820Y3827780D02*
X3717120D01*
Y3710080D01*
X3721588D01*
X3754753Y3718966D01*
X3784487Y3736134D01*
X3808766Y3760413D01*
X3825934Y3790147D01*
X3834820Y3823312D01*
Y3827780D01*
D02*
G37*
G36*
X3691720D02*
X3574020D01*
Y3823312D01*
X3582906Y3790147D01*
X3600074Y3760413D01*
X3624353Y3736134D01*
X3654087Y3718966D01*
X3687252Y3710080D01*
X3691720D01*
Y3827780D01*
D02*
G37*
G36*
X3832620Y3516740D02*
X3761420D01*
Y3368040D01*
X3832620D01*
Y3516740D01*
D02*
G37*
G36*
X3736020D02*
X3664820D01*
Y3368040D01*
X3736020D01*
Y3516740D01*
D02*
G37*
G36*
X3832620Y3342640D02*
X3761420D01*
Y3193940D01*
X3832620D01*
Y3342640D01*
D02*
G37*
G36*
X3736020D02*
X3664820D01*
Y3193940D01*
X3736020D01*
Y3342640D01*
D02*
G37*
G36*
X3331000Y4027160D02*
X3158300D01*
Y3934460D01*
X3331000D01*
Y4027160D01*
D02*
G37*
G36*
X3132900D02*
X2960200D01*
Y3934460D01*
X3132900D01*
Y4027160D01*
D02*
G37*
G36*
X3331000Y3909060D02*
X3158300D01*
Y3816360D01*
X3331000D01*
Y3909060D01*
D02*
G37*
G36*
X3132900D02*
X2960200D01*
Y3816360D01*
X3132900D01*
Y3909060D01*
D02*
G37*
G36*
X3114040Y3450702D02*
Y3368040D01*
X3196702D01*
X3190238Y3392163D01*
X3177679Y3413917D01*
X3159917Y3431679D01*
X3138163Y3444238D01*
X3114040Y3450702D01*
D02*
G37*
G36*
X3538620Y3516740D02*
X3467420D01*
Y3368040D01*
X3538620D01*
Y3516740D01*
D02*
G37*
G36*
X3442020D02*
X3370820D01*
Y3368040D01*
X3442020D01*
Y3516740D01*
D02*
G37*
G36*
X3088640Y3450702D02*
X3064517Y3444238D01*
X3042763Y3431679D01*
X3025001Y3413917D01*
X3012442Y3392163D01*
X3005978Y3368040D01*
X3088640D01*
Y3450702D01*
D02*
G37*
G36*
X3196702Y3342640D02*
X3114040D01*
Y3259978D01*
X3138163Y3266442D01*
X3159917Y3279001D01*
X3177679Y3296763D01*
X3190238Y3318517D01*
X3196702Y3342640D01*
D02*
G37*
G36*
X3088640D02*
X3005978D01*
X3012442Y3318517D01*
X3025001Y3296763D01*
X3042763Y3279001D01*
X3064517Y3266442D01*
X3088640Y3259978D01*
Y3342640D01*
D02*
G37*
G36*
X3538620D02*
X3467420D01*
Y3193940D01*
X3538620D01*
Y3342640D01*
D02*
G37*
G36*
X3442020D02*
X3370820D01*
Y3193940D01*
X3442020D01*
Y3342640D01*
D02*
G37*
G36*
X3280480Y2888160D02*
X3192780D01*
Y2810460D01*
X3280480D01*
Y2888160D01*
D02*
G37*
G36*
X3167380D02*
X3079680D01*
Y2810460D01*
X3167380D01*
Y2888160D01*
D02*
G37*
G36*
X3379520Y2889320D02*
X3301820D01*
Y2801620D01*
X3379520D01*
Y2889320D01*
D02*
G37*
G36*
Y2776220D02*
X3301820D01*
Y2688520D01*
X3379520D01*
Y2776220D01*
D02*
G37*
G36*
X2874720Y2758440D02*
X2827020D01*
Y2650740D01*
X2874720D01*
Y2758440D01*
D02*
G37*
G36*
X5329100Y2401640D02*
X5251400D01*
Y2313940D01*
X5329100D01*
Y2401640D01*
D02*
G37*
G36*
X5591940Y2319400D02*
X5466540D01*
Y2292189D01*
X5463985D01*
X5454231Y2290249D01*
X5445961Y2284724D01*
X5407494Y2246256D01*
X5401968Y2237987D01*
X5400028Y2228232D01*
Y2192996D01*
X5382753Y2175720D01*
X5338400D01*
Y1975320D01*
X5418800D01*
Y2139672D01*
X5443542Y2164414D01*
X5449067Y2172683D01*
X5451007Y2182438D01*
Y2209301D01*
X5454745Y2211816D01*
X5457761Y2212375D01*
X5469240Y2206263D01*
Y2142100D01*
X5453840D01*
Y2089400D01*
X5529240D01*
X5604640D01*
Y2142100D01*
X5589240D01*
Y2214000D01*
X5591940D01*
Y2319400D01*
D02*
G37*
G36*
X5226000Y2401640D02*
X5148300D01*
Y2386240D01*
X4998700D01*
Y2216240D01*
X5148300D01*
Y2200840D01*
X5185024D01*
X5185700Y2188420D01*
X5185700Y2188140D01*
Y2088221D01*
X5238600D01*
X5291500D01*
Y2188140D01*
X5291500Y2188420D01*
X5292176Y2200840D01*
X5329100D01*
Y2288540D01*
X5238700D01*
Y2301240D01*
X5226000D01*
Y2401640D01*
D02*
G37*
G36*
X5604640Y2064000D02*
X5541940D01*
Y2011300D01*
X5604640D01*
Y2064000D01*
D02*
G37*
G36*
X5516540D02*
X5453840D01*
Y2011300D01*
X5516540D01*
Y2064000D01*
D02*
G37*
G36*
X5291500Y2062821D02*
X5251300D01*
Y1962620D01*
X5291500D01*
Y2062821D01*
D02*
G37*
G36*
X5225900D02*
X5185700D01*
Y1962620D01*
X5225900D01*
Y2062821D01*
D02*
G37*
G36*
X702940Y1877760D02*
X650240D01*
Y1825060D01*
X702940D01*
Y1877760D01*
D02*
G37*
G36*
X624840D02*
X572140D01*
Y1825060D01*
X624840D01*
Y1877760D01*
D02*
G37*
G36*
X702940Y1799660D02*
X650240D01*
Y1746960D01*
X702940D01*
Y1799660D01*
D02*
G37*
G36*
X624840D02*
X572140D01*
Y1746960D01*
X624840D01*
Y1799660D01*
D02*
G37*
G36*
X2308125Y2831639D02*
X2291080D01*
Y2785261D01*
X2342439D01*
Y2797325D01*
X2339827Y2810457D01*
X2332389Y2821589D01*
X2321256Y2829027D01*
X2308125Y2831639D01*
D02*
G37*
G36*
X2342439Y2759861D02*
X2291080D01*
Y2713481D01*
X2308125D01*
X2321256Y2716093D01*
X2332389Y2723531D01*
X2339827Y2734664D01*
X2342439Y2747795D01*
Y2759861D01*
D02*
G37*
G36*
X2674620Y2758440D02*
X2626920D01*
Y2650740D01*
X2674620D01*
Y2758440D01*
D02*
G37*
G36*
X2342439Y2619859D02*
X2291080D01*
Y2573481D01*
X2308125D01*
X2321256Y2576093D01*
X2332389Y2583531D01*
X2339827Y2594663D01*
X2342439Y2607795D01*
Y2619859D01*
D02*
G37*
G36*
X3628480Y2632080D02*
X3566280D01*
Y2532380D01*
X3628480D01*
Y2632080D01*
D02*
G37*
G36*
X2611120Y2623390D02*
X2433070D01*
Y2496340D01*
X2611120D01*
Y2623390D01*
D02*
G37*
G36*
X2814570Y2470940D02*
X2636520D01*
Y2343890D01*
X2814570D01*
Y2470940D01*
D02*
G37*
G36*
X2611120D02*
X2433070D01*
Y2343890D01*
X2611120D01*
Y2470940D01*
D02*
G37*
G36*
X3716080Y2506980D02*
X3641180D01*
X3566280D01*
Y2413640D01*
X3566280Y2404110D01*
X3566280Y2394580D01*
Y2301240D01*
X3641180D01*
X3716080D01*
Y2394580D01*
X3716080Y2404110D01*
X3716080Y2413640D01*
Y2506980D01*
D02*
G37*
G36*
X2874720Y2316540D02*
X2827020D01*
Y2208840D01*
X2874720D01*
Y2316540D01*
D02*
G37*
G36*
X3716080Y2275840D02*
X3653880D01*
Y2176140D01*
X3716080D01*
Y2275840D01*
D02*
G37*
G36*
X3628480D02*
X3566280D01*
Y2176140D01*
X3628480D01*
Y2275840D01*
D02*
G37*
G36*
X3697380Y2071920D02*
X3614680D01*
Y2014220D01*
X3697380D01*
Y2071920D01*
D02*
G37*
G36*
X2914080Y1986280D02*
X2871380D01*
Y1933580D01*
X2914080D01*
Y1986280D01*
D02*
G37*
G36*
X3697380Y1988820D02*
X3614680D01*
Y1931120D01*
X3697380D01*
Y1988820D01*
D02*
G37*
G36*
X4785340Y2139900D02*
X4612640D01*
Y2032200D01*
X4785340D01*
Y2139900D01*
D02*
G37*
G36*
X4587240D02*
X4414540D01*
Y2032200D01*
X4587240D01*
Y2139900D01*
D02*
G37*
G36*
X2620720Y2183440D02*
X2573020D01*
Y2075740D01*
X2620720D01*
Y2183440D01*
D02*
G37*
G36*
X5417340Y1649760D02*
X5394640D01*
Y1623060D01*
X5417340D01*
Y1649760D01*
D02*
G37*
G36*
X2419600Y1698300D02*
X2346900D01*
Y1625600D01*
X2419600D01*
Y1698300D01*
D02*
G37*
G36*
Y1600200D02*
X2346900D01*
Y1527500D01*
X2419600D01*
Y1600200D01*
D02*
G37*
G36*
X5291500Y1913420D02*
X5251299D01*
Y1813220D01*
X5291500D01*
Y1913420D01*
D02*
G37*
G36*
X5225899D02*
X5185700D01*
Y1813220D01*
X5225899D01*
Y1913420D01*
D02*
G37*
G36*
X5291500Y1787820D02*
X5251299D01*
Y1687620D01*
X5291500D01*
Y1787820D01*
D02*
G37*
G36*
X5225899D02*
X5185700D01*
Y1687620D01*
X5225899D01*
Y1787820D01*
D02*
G37*
G36*
X5329240Y1597660D02*
X5306540D01*
Y1570960D01*
X5329240D01*
Y1597660D01*
D02*
G37*
G36*
X5172780Y1501320D02*
X5085080D01*
Y1423620D01*
X5172780D01*
Y1501320D01*
D02*
G37*
G36*
X5393760D02*
X5306060D01*
Y1423620D01*
X5393760D01*
Y1501320D01*
D02*
G37*
G36*
X5280660D02*
X5192960D01*
Y1423620D01*
X5280660D01*
Y1501320D01*
D02*
G37*
G36*
X5059680D02*
X4971980D01*
Y1423620D01*
X5059680D01*
Y1501320D01*
D02*
G37*
G36*
X4895340Y1529900D02*
X4837641D01*
Y1422200D01*
X4895340D01*
Y1529900D01*
D02*
G37*
G36*
X4812241D02*
X4754540D01*
Y1422200D01*
X4812241D01*
Y1529900D01*
D02*
G37*
G36*
X4895340Y1396800D02*
X4837641D01*
Y1289100D01*
X4895340D01*
Y1396800D01*
D02*
G37*
G36*
X4812241D02*
X4754540D01*
Y1289100D01*
X4812241D01*
Y1396800D01*
D02*
G37*
G36*
X4700340Y1009700D02*
X4612640D01*
Y932000D01*
X4700340D01*
Y1009700D01*
D02*
G37*
G36*
X2744080Y1986280D02*
X2701380D01*
Y1933580D01*
X2744080D01*
Y1986280D01*
D02*
G37*
G36*
X2707700Y1698300D02*
X2635000D01*
Y1625600D01*
X2707700D01*
Y1698300D01*
D02*
G37*
G36*
Y1600200D02*
X2635000D01*
Y1527500D01*
X2707700D01*
Y1600200D01*
D02*
G37*
G36*
X3084320Y1481660D02*
X2931620D01*
Y1203960D01*
X3084320D01*
Y1481660D01*
D02*
G37*
G36*
X2906220D02*
X2753520D01*
Y1203960D01*
X2906220D01*
Y1481660D01*
D02*
G37*
G36*
X3084320Y1178560D02*
X2931620D01*
Y900860D01*
X3084320D01*
Y1178560D01*
D02*
G37*
G36*
X2906220D02*
X2753520D01*
Y900860D01*
X2906220D01*
Y1178560D01*
D02*
G37*
%LPD*%
D10*
X637540Y1812360D02*
D03*
Y1662360D02*
D03*
X154940Y1812360D02*
D03*
Y1662360D02*
D03*
X396240Y1812360D02*
D03*
Y1662360D02*
D03*
D11*
X5976300Y2156460D02*
D03*
X5936300D02*
D03*
X5381940Y1610360D02*
D03*
X5341940D02*
D03*
D12*
X5529240Y2076700D02*
D03*
Y2171700D02*
D03*
Y2266700D02*
D03*
X5804240D02*
D03*
Y2171700D02*
D03*
Y2076700D02*
D03*
D13*
X5378600Y2075520D02*
D03*
Y1800520D02*
D03*
X5238600Y2075520D02*
D03*
Y1800520D02*
D03*
D14*
X3145600Y3921760D02*
D03*
X2645600D02*
D03*
D15*
X4599940Y1187400D02*
D03*
X2433320Y1809800D02*
D03*
Y1974800D02*
D03*
X3180080Y2632760D02*
D03*
Y2797760D02*
D03*
X4373880Y1022400D02*
D03*
Y1187400D02*
D03*
X4599940Y1022400D02*
D03*
X5293360Y1245920D02*
D03*
Y1410920D02*
D03*
X5072380Y1245920D02*
D03*
Y1410920D02*
D03*
D16*
X2200940Y3162300D02*
D03*
X2045940D02*
D03*
D17*
X2035860Y3355340D02*
D03*
X2200860D02*
D03*
X2203500Y2989580D02*
D03*
X2368500D02*
D03*
X3755440Y2788920D02*
D03*
X3920440D02*
D03*
X3392220D02*
D03*
X3557220D02*
D03*
X5073700Y2301240D02*
D03*
X5238700D02*
D03*
D18*
X1663700Y3161000D02*
D03*
Y3316000D02*
D03*
X154940Y1304260D02*
D03*
Y1459260D02*
D03*
X396240Y1304260D02*
D03*
Y1459260D02*
D03*
X637540Y1304260D02*
D03*
Y1459260D02*
D03*
D19*
X3454720Y3355340D02*
D03*
X3748720D02*
D03*
D20*
X2433320Y2196140D02*
D03*
X2560320D02*
D03*
X2687320D02*
D03*
X2814320D02*
D03*
Y2771140D02*
D03*
X2687320D02*
D03*
X2560320D02*
D03*
X2433320D02*
D03*
D21*
X2623820Y2483640D02*
D03*
D22*
X2278380Y2772560D02*
D03*
Y2632560D02*
D03*
D23*
X2016681Y2152640D02*
D03*
Y2449639D02*
D03*
X1765221Y2152640D02*
D03*
Y2449639D02*
D03*
D24*
X2622300Y1612900D02*
D03*
X2432300D02*
D03*
D25*
X1849399Y3201388D02*
D03*
Y3161388D02*
D03*
D26*
X3928920Y1191260D02*
D03*
X2918920D02*
D03*
D27*
X3938180Y2288540D02*
D03*
X3641180D02*
D03*
X3938180Y2519680D02*
D03*
X3641180D02*
D03*
D28*
X3710080Y2001520D02*
D03*
X3920080Y1906520D02*
D03*
Y2096520D02*
D03*
D29*
X2858680Y1998980D02*
D03*
X2688680D02*
D03*
D30*
X4374940Y1409500D02*
D03*
X4599940D02*
D03*
X4824940D02*
D03*
D31*
X4599940Y2019500D02*
D03*
D32*
X5976300Y2156460D02*
X6040120D01*
X1803400Y3162300D02*
X1804312Y3161388D01*
X1849399D01*
X1850311Y3162300D02*
X1902460D01*
X1849399Y3161388D02*
X1850311Y3162300D01*
X5936300Y2156460D02*
Y2191700D01*
X5935980Y2192020D02*
X5936300Y2191700D01*
X5933440Y2113410D02*
X5936300Y2116270D01*
Y2156460D01*
D33*
X154940Y1459260D02*
Y1662360D01*
X396240Y1459260D02*
Y1662360D01*
X637540Y1459260D02*
Y1662360D01*
X2200940Y3159800D02*
X2203500Y3157240D01*
Y2989580D02*
Y3157240D01*
X2200940Y3159800D02*
Y3162300D01*
D34*
X1661200Y3161000D02*
X1662500Y3162300D01*
X1803400D01*
X1902460D02*
X2045940D01*
X5238650Y2075570D02*
Y2301190D01*
X2966720Y3053036D02*
X3055576Y2964180D01*
X2870200Y3535680D02*
X2966720Y3439160D01*
Y3053036D02*
Y3439160D01*
X2016681Y2153841D02*
X2016760Y2153920D01*
X2016681Y2152640D02*
Y2153841D01*
X3055576Y2964180D02*
X4415580D01*
X5261400Y3810000D01*
X1711960Y3535680D02*
X2870200D01*
X1577340Y3401060D02*
X1711960Y3535680D01*
X1577340Y3244860D02*
Y3401060D01*
Y3244860D02*
X1661200Y3161000D01*
X5261400Y2540000D02*
X5670437D01*
X5935980Y2274457D01*
Y2192020D02*
Y2274457D01*
X5804240Y2076700D02*
X5896730D01*
X5933440Y2113410D01*
X5704840Y1912620D02*
Y2217525D01*
X5661190Y1868970D02*
X5704840Y1912620D01*
X5387050Y1868970D02*
X5661190D01*
X5704840Y2217525D02*
X5738065Y2250750D01*
X5788290D02*
X5804240Y2266700D01*
X5738065Y2250750D02*
X5788290D01*
X5378600Y1860520D02*
X5387050Y1868970D01*
X5378600Y1800520D02*
Y1860520D01*
X5425518Y2228232D02*
X5463985Y2266700D01*
X5529240D01*
X5378600Y2075520D02*
Y2135520D01*
X5425518Y2182438D01*
Y2228232D01*
D35*
X5238600Y2075520D02*
X5238650Y2075570D01*
Y2301190D02*
X5238700Y2301240D01*
X3557220Y2788920D02*
X3755440D01*
D36*
X2687320Y2196140D02*
X2688000Y2195460D01*
Y1999660D02*
X2688680Y1998980D01*
X2688000Y1999660D02*
Y2195460D01*
D37*
X596900Y5753100D02*
D03*
Y596900D02*
D03*
X5753100Y5753100D02*
D03*
Y596900D02*
D03*
D38*
X3704420Y3840480D02*
D03*
X4794420D02*
D03*
D39*
X2847340Y3355340D02*
D03*
X3101340D02*
D03*
D40*
X3850000Y5285740D02*
D03*
X2500000D02*
D03*
D41*
X3535000Y4685740D02*
D03*
D42*
X2815000D02*
D03*
D43*
X4971059Y4971059D02*
D03*
X1378941Y1378941D02*
D03*
D44*
X6160005Y5457464D02*
D03*
X6060005Y5257464D02*
D03*
X6160005Y5057464D02*
D03*
X6060005Y4857464D02*
D03*
X6160005Y4657464D02*
D03*
X6060005Y4457464D02*
D03*
X6160005Y4257464D02*
D03*
X6060005Y1657462D02*
D03*
X6160005Y1457462D02*
D03*
X6060005Y1257462D02*
D03*
X6160005Y1057462D02*
D03*
X5860005Y5257464D02*
D03*
X5960005Y5057464D02*
D03*
X5860005Y4857464D02*
D03*
X5960005Y4657464D02*
D03*
X5860005Y4457464D02*
D03*
X5960005Y4257464D02*
D03*
X5660004Y5257464D02*
D03*
X5760004Y5057464D02*
D03*
X5660004Y4857464D02*
D03*
X5760004Y4657464D02*
D03*
X5660004Y4457464D02*
D03*
X5760004Y4257464D02*
D03*
Y1857462D02*
D03*
X5660004Y1657462D02*
D03*
X5760004Y1457462D02*
D03*
X5460004Y6057465D02*
D03*
Y5257464D02*
D03*
X5560004Y5057464D02*
D03*
X5460004Y4857464D02*
D03*
X5560004Y4657464D02*
D03*
X5460004Y4457464D02*
D03*
X5560004Y4257464D02*
D03*
X5460004Y1657462D02*
D03*
X5560004Y1457462D02*
D03*
X5260004Y6057465D02*
D03*
Y5657464D02*
D03*
X5360004Y5457464D02*
D03*
Y4657464D02*
D03*
Y4257464D02*
D03*
X5060004Y6057465D02*
D03*
X5160004Y5857465D02*
D03*
X5060004Y5657464D02*
D03*
X5160004Y5457464D02*
D03*
Y1057462D02*
D03*
X4860004Y6057465D02*
D03*
X4960004Y5857465D02*
D03*
X4860004Y5657464D02*
D03*
X4960004Y5457464D02*
D03*
Y1057462D02*
D03*
X4860004Y857462D02*
D03*
X4660004Y6057465D02*
D03*
X4760004Y5857465D02*
D03*
X4660004Y5657464D02*
D03*
X4760004Y5457464D02*
D03*
X4660004Y5257464D02*
D03*
Y2457463D02*
D03*
X4760004Y2257463D02*
D03*
Y1057462D02*
D03*
X4660004Y857462D02*
D03*
X4760004Y657462D02*
D03*
X4460004Y6057465D02*
D03*
X4560004Y5857465D02*
D03*
X4460004Y5657464D02*
D03*
X4560004Y5457464D02*
D03*
X4460004Y5257464D02*
D03*
Y2457463D02*
D03*
X4560004Y2257463D02*
D03*
X4460004Y857462D02*
D03*
X4560004Y657462D02*
D03*
X4460004Y457462D02*
D03*
X4260004Y6057465D02*
D03*
X4360004Y5857465D02*
D03*
X4260004Y5657464D02*
D03*
X4360004Y5457464D02*
D03*
X4260004Y5257464D02*
D03*
X4360004Y5057464D02*
D03*
Y2257463D02*
D03*
X4260004Y857462D02*
D03*
X4360004Y657462D02*
D03*
X4260004Y457462D02*
D03*
X4060004Y6057465D02*
D03*
X4160004Y5857465D02*
D03*
X4060004Y5657464D02*
D03*
X4160004Y5457464D02*
D03*
X4060004Y5257464D02*
D03*
X4160004Y5057464D02*
D03*
Y657462D02*
D03*
X3860003Y6057465D02*
D03*
X3960004Y5857465D02*
D03*
X3860003Y5657464D02*
D03*
X3960004Y5457464D02*
D03*
Y5057464D02*
D03*
X3660003Y6057465D02*
D03*
X3760003Y5857465D02*
D03*
X3660003Y5657464D02*
D03*
X3760003Y5457464D02*
D03*
X3660003Y5257464D02*
D03*
X3760003Y5057464D02*
D03*
X3460003Y6057465D02*
D03*
X3560003Y5857465D02*
D03*
X3460003Y5657464D02*
D03*
X3560003Y5457464D02*
D03*
X3460003Y5257464D02*
D03*
X3560003Y5057464D02*
D03*
X3460003Y2457463D02*
D03*
Y2057462D02*
D03*
X3560003Y657462D02*
D03*
X3260003Y6057465D02*
D03*
X3360003Y5857465D02*
D03*
X3260003Y5657464D02*
D03*
X3360003Y5457464D02*
D03*
X3260003Y5257464D02*
D03*
X3360003Y5057464D02*
D03*
X3260003Y2457463D02*
D03*
X3360003Y2257463D02*
D03*
X3260003Y2057462D02*
D03*
X3360003Y1857462D02*
D03*
Y657462D02*
D03*
X3060003Y6057465D02*
D03*
X3160003Y5857465D02*
D03*
X3060003Y5657464D02*
D03*
X3160003Y5457464D02*
D03*
X3060003Y5257464D02*
D03*
X3160003Y5057464D02*
D03*
X3060003Y4857464D02*
D03*
Y4457464D02*
D03*
Y2457463D02*
D03*
X3160003Y2257463D02*
D03*
X3060003Y2057462D02*
D03*
X3160003Y657462D02*
D03*
X2860003Y6057465D02*
D03*
X2960003Y5857465D02*
D03*
X2860003Y5657464D02*
D03*
X2960003Y5457464D02*
D03*
X2860003Y5257464D02*
D03*
X2960003Y5057464D02*
D03*
X2860003Y2457463D02*
D03*
X2960003Y2257463D02*
D03*
Y657462D02*
D03*
X2660003Y6057465D02*
D03*
X2760003Y5857465D02*
D03*
X2660003Y5657464D02*
D03*
X2760003Y5457464D02*
D03*
X2660003Y5257464D02*
D03*
X2760003Y5057464D02*
D03*
X2660003Y4457464D02*
D03*
X2760003Y4257464D02*
D03*
X2660003Y4057464D02*
D03*
Y3657463D02*
D03*
X2760003Y657462D02*
D03*
X2460003Y6057465D02*
D03*
X2560003Y5857465D02*
D03*
X2460003Y5657464D02*
D03*
X2560003Y5457464D02*
D03*
Y5057464D02*
D03*
X2460003Y4857464D02*
D03*
X2560003Y4657464D02*
D03*
X2460003Y4457464D02*
D03*
X2560003Y4257464D02*
D03*
X2460003Y4057464D02*
D03*
Y3657463D02*
D03*
Y1257462D02*
D03*
Y857462D02*
D03*
X2560003Y657462D02*
D03*
X2260003Y6057465D02*
D03*
X2360003Y5857465D02*
D03*
X2260003Y5657464D02*
D03*
X2360003Y5457464D02*
D03*
X2260003Y5257464D02*
D03*
X2360003Y5057464D02*
D03*
X2260003Y4857464D02*
D03*
X2360003Y4657464D02*
D03*
X2260003Y4457464D02*
D03*
X2360003Y4257464D02*
D03*
X2260003Y4057464D02*
D03*
X2360003Y3857463D02*
D03*
X2260003Y3657463D02*
D03*
Y1657462D02*
D03*
Y1257462D02*
D03*
X2360003Y1057462D02*
D03*
X2260003Y857462D02*
D03*
X2360003Y657462D02*
D03*
X2060002Y6057465D02*
D03*
X2160003Y5857465D02*
D03*
X2060002Y5657464D02*
D03*
X2160003Y5457464D02*
D03*
X2060002Y5257464D02*
D03*
X2160003Y5057464D02*
D03*
X2060002Y4857464D02*
D03*
X2160003Y4657464D02*
D03*
X2060002Y4457464D02*
D03*
X2160003Y4257464D02*
D03*
X2060002Y4057464D02*
D03*
X2160003Y3857463D02*
D03*
X2060002Y3657463D02*
D03*
Y1657462D02*
D03*
X2160003Y1457462D02*
D03*
X2060002Y1257462D02*
D03*
X2160003Y1057462D02*
D03*
X2060002Y857462D02*
D03*
X2160003Y657462D02*
D03*
X1860002Y6057465D02*
D03*
X1960002Y5857465D02*
D03*
X1860002Y5657464D02*
D03*
X1960002Y5457464D02*
D03*
X1860002Y5257464D02*
D03*
X1960002Y5057464D02*
D03*
X1860002Y4857464D02*
D03*
X1960002Y4657464D02*
D03*
X1860002Y4457464D02*
D03*
X1960002Y4257464D02*
D03*
X1860002Y4057464D02*
D03*
X1960002Y3857463D02*
D03*
X1860002Y3657463D02*
D03*
Y1657462D02*
D03*
X1960002Y1457462D02*
D03*
X1860002Y1257462D02*
D03*
X1960002Y1057462D02*
D03*
X1860002Y857462D02*
D03*
X1960002Y657462D02*
D03*
X1660002Y6057465D02*
D03*
X1760002Y5857465D02*
D03*
X1660002Y5657464D02*
D03*
X1760002Y5457464D02*
D03*
X1660002Y5257464D02*
D03*
X1760002Y5057464D02*
D03*
X1660002Y4857464D02*
D03*
X1760002Y4657464D02*
D03*
X1660002Y4457464D02*
D03*
X1760002Y4257464D02*
D03*
X1660002Y4057464D02*
D03*
X1760002Y3857463D02*
D03*
X1660002Y3657463D02*
D03*
X1760002Y3457463D02*
D03*
Y1057462D02*
D03*
X1660002Y857462D02*
D03*
X1760002Y657462D02*
D03*
X1460002Y6057465D02*
D03*
X1560002Y5857465D02*
D03*
X1460002Y5657464D02*
D03*
X1560002Y5457464D02*
D03*
X1460002Y5257464D02*
D03*
X1560002Y5057464D02*
D03*
X1460002Y4857464D02*
D03*
X1560002Y4657464D02*
D03*
X1460002Y4457464D02*
D03*
X1560002Y4257464D02*
D03*
X1460002Y4057464D02*
D03*
X1560002Y3857463D02*
D03*
X1460002Y3657463D02*
D03*
Y3257463D02*
D03*
Y857462D02*
D03*
X1560002Y657462D02*
D03*
X1260002Y6057465D02*
D03*
X1360002Y5857465D02*
D03*
X1260002Y5657464D02*
D03*
X1360002Y5457464D02*
D03*
X1260002Y5257464D02*
D03*
X1360002Y5057464D02*
D03*
X1260002Y4857464D02*
D03*
X1360002Y4657464D02*
D03*
X1260002Y4457464D02*
D03*
X1360002Y4257464D02*
D03*
X1260002Y4057464D02*
D03*
X1360002Y3857463D02*
D03*
X1260002Y3657463D02*
D03*
X1360002Y3457463D02*
D03*
X1260002Y3257463D02*
D03*
X1060002Y6057465D02*
D03*
X1160002Y5857465D02*
D03*
X1060002Y5657464D02*
D03*
X1160002Y5457464D02*
D03*
X1060002Y5257464D02*
D03*
X1160002Y5057464D02*
D03*
X1060002Y4857464D02*
D03*
X1160002Y4657464D02*
D03*
X1060002Y4457464D02*
D03*
X1160002Y4257464D02*
D03*
X1060002Y4057464D02*
D03*
X1160002Y3857463D02*
D03*
X1060002Y3657463D02*
D03*
X1160002Y3457463D02*
D03*
X1060002Y3257463D02*
D03*
X1160002Y3057463D02*
D03*
X1060002Y2857463D02*
D03*
X1160002Y2657463D02*
D03*
X1060002Y2457463D02*
D03*
X1160002Y2257463D02*
D03*
X960002Y5457464D02*
D03*
X860002Y5257464D02*
D03*
X960002Y5057464D02*
D03*
X860002Y4857464D02*
D03*
X960002Y4657464D02*
D03*
X860002Y4457464D02*
D03*
X960002Y4257464D02*
D03*
X860002Y4057464D02*
D03*
X960002Y3857463D02*
D03*
X860002Y3657463D02*
D03*
X960002Y3457463D02*
D03*
X860002Y3257463D02*
D03*
X960002Y3057463D02*
D03*
X860002Y2857463D02*
D03*
X960002Y2657463D02*
D03*
X860002Y2457463D02*
D03*
X960002Y2257463D02*
D03*
X660002Y5257464D02*
D03*
X760002Y5057464D02*
D03*
X660002Y4857464D02*
D03*
X760002Y4657464D02*
D03*
X660002Y4457464D02*
D03*
X760002Y4257464D02*
D03*
X660002Y4057464D02*
D03*
X760002Y3857463D02*
D03*
X660002Y3657463D02*
D03*
X760002Y3457463D02*
D03*
X660002Y3257463D02*
D03*
X760002Y3057463D02*
D03*
X660002Y2857463D02*
D03*
X760002Y2657463D02*
D03*
X660002Y2457463D02*
D03*
X760002Y2257463D02*
D03*
X460002Y5257464D02*
D03*
X560002Y5057464D02*
D03*
X460002Y4857464D02*
D03*
X560002Y4657464D02*
D03*
X460002Y4457464D02*
D03*
X560002Y4257464D02*
D03*
X460002Y4057464D02*
D03*
X560002Y3857463D02*
D03*
X460002Y3657463D02*
D03*
X560002Y3457463D02*
D03*
X460002Y3257463D02*
D03*
X560002Y3057463D02*
D03*
X460002Y2857463D02*
D03*
X560002Y2657463D02*
D03*
X460002Y2457463D02*
D03*
X560002Y2257463D02*
D03*
Y1057462D02*
D03*
X260002Y5257464D02*
D03*
X360002Y5057464D02*
D03*
X260002Y4857464D02*
D03*
X360002Y4657464D02*
D03*
X260002Y4457464D02*
D03*
X360002Y4257464D02*
D03*
X260002Y4057464D02*
D03*
X360002Y3857463D02*
D03*
X260002Y3657463D02*
D03*
X360002Y3457463D02*
D03*
X260002Y3257463D02*
D03*
X360002Y3057463D02*
D03*
X260002Y2857463D02*
D03*
X360002Y2657463D02*
D03*
X260002Y2457463D02*
D03*
X360002Y2257463D02*
D03*
X260002Y1257462D02*
D03*
X360002Y1057462D02*
D03*
X260002Y857462D02*
D03*
D45*
X6040120Y2156460D02*
D03*
X5073700Y2301240D02*
D03*
X2923540Y2197100D02*
D03*
X2016681Y2449639D02*
D03*
X1765221D02*
D03*
X154940Y1304260D02*
D03*
X396240D02*
D03*
X637540D02*
D03*
X2645600Y3921760D02*
D03*
X1663700Y3316000D02*
D03*
X2035860Y3355340D02*
D03*
X2354580Y2555240D02*
D03*
X2687320Y2771140D02*
D03*
X2623820Y2483640D02*
D03*
X3180080Y2632760D02*
D03*
X3641180Y2519680D02*
D03*
Y2288540D02*
D03*
X3710080Y2001520D02*
D03*
X5529240Y2171700D02*
D03*
X5804240D02*
D03*
X4373880Y1022400D02*
D03*
X4599940D02*
D03*
X5293360Y1245920D02*
D03*
X5072380D02*
D03*
X4599940Y2019500D02*
D03*
X5965400Y3302000D02*
D03*
Y3048000D02*
D03*
X5261400Y3556000D02*
D03*
Y3302000D02*
D03*
Y3048000D02*
D03*
Y2794000D02*
D03*
X5965400D02*
D03*
Y2540000D02*
D03*
Y3556000D02*
D03*
Y3810000D02*
D03*
X1765300Y2153920D02*
D03*
X2570177Y1950030D02*
D03*
X2573020Y2032000D02*
D03*
X2016760Y2153920D02*
D03*
D46*
X5261400Y3810000D02*
D03*
Y2540000D02*
D03*
%TF.MD5,b8502248f7e95d4eab6ec372f5fdf55a*%
M02*
