%TF.GenerationSoftware,Altium Limited,Altium Designer,24.2.2 (26)*%
G04 Layer_Color=0*
%FSLAX45Y45*%
%MOMM*%
%TF.SameCoordinates,D31C6D6D-B6E9-44EC-8E0F-9CDDCF0E9FEB*%
%TF.FilePolarity,Positive*%
%TF.FileFunction,Plated,1,4,PTH,Drill*%
%TF.Part,Single*%
G01*
G75*
%TA.AperFunction,OtherDrill,Free Pad (13.789mm,13.789mm)*%
%ADD126C,6.50240*%
%TA.AperFunction,OtherDrill,Free Pad (57.531mm,5.969mm)*%
%ADD127C,3.50000*%
%TA.AperFunction,OtherDrill,Free Pad (57.531mm,57.531mm)*%
%ADD128C,3.50000*%
%TA.AperFunction,OtherDrill,Free Pad (5.969mm,57.531mm)*%
%ADD129C,3.50000*%
%TA.AperFunction,OtherDrill,Free Pad (5.969mm,5.969mm)*%
%ADD130C,3.50000*%
%TA.AperFunction,OtherDrill,Free Pad (49.711mm,49.711mm)*%
%ADD131C,6.50240*%
%TA.AperFunction,ComponentDrill*%
%ADD132C,1.10000*%
%ADD133O,0.60000X1.40000*%
%ADD134C,0.65000*%
%ADD135O,0.60000X1.70000*%
%ADD136C,1.19000*%
%TA.AperFunction,ViaDrill,NotFilled*%
%ADD137C,0.45000*%
%ADD138C,0.50000*%
%ADD139C,0.35000*%
%ADD140C,0.20000*%
D126*
X1378941Y1378941D02*
D03*
D127*
X5753100Y596900D02*
D03*
D128*
Y5753100D02*
D03*
D129*
X596900D02*
D03*
D130*
Y596900D02*
D03*
D131*
X4971059Y4971059D02*
D03*
D132*
X1550200Y3098800D02*
D03*
Y3352800D02*
D03*
X4799800Y3098800D02*
D03*
Y3352800D02*
D03*
D133*
X2679500Y324300D02*
D03*
X3543500D02*
D03*
D134*
X2822500Y692300D02*
D03*
X3400500D02*
D03*
D135*
X3543500Y742300D02*
D03*
X2679500D02*
D03*
D136*
X3925035Y4972585D02*
D03*
X4104640Y4792980D02*
D03*
X4284245Y4613375D02*
D03*
X4463850Y4433770D02*
D03*
D137*
X6060005Y5460004D02*
D03*
X6160005Y5260004D02*
D03*
X6060005Y5060004D02*
D03*
X6160005Y4860004D02*
D03*
X6060005Y4660004D02*
D03*
X6160005Y4460004D02*
D03*
X6060005Y4260004D02*
D03*
X6160005Y4060004D02*
D03*
Y3660003D02*
D03*
X6060005Y3460003D02*
D03*
Y2660003D02*
D03*
Y2260003D02*
D03*
X6160005Y2060002D02*
D03*
X6060005Y1860002D02*
D03*
X6160005Y1660002D02*
D03*
X6060005Y1460002D02*
D03*
X6160005Y1260002D02*
D03*
X6060005Y1060002D02*
D03*
X6160005Y860002D02*
D03*
Y460002D02*
D03*
X5960005Y5260004D02*
D03*
X5860005Y5060004D02*
D03*
X5960005Y4860004D02*
D03*
X5860005Y4660004D02*
D03*
X5960005Y4460004D02*
D03*
X5860005Y4260004D02*
D03*
X5960005Y4060004D02*
D03*
X5860005Y3460003D02*
D03*
Y2660003D02*
D03*
Y2260003D02*
D03*
X5960005Y2060002D02*
D03*
X5860005Y1860002D02*
D03*
X5960005Y1660002D02*
D03*
X5860005Y1460002D02*
D03*
X5960005Y1260002D02*
D03*
X5860005Y1060002D02*
D03*
X5760004Y5260004D02*
D03*
X5660004Y5060004D02*
D03*
X5760004Y4860004D02*
D03*
X5660004Y4660004D02*
D03*
X5760004Y4460004D02*
D03*
X5660004Y4260004D02*
D03*
X5760004Y4060004D02*
D03*
X5660004Y3860003D02*
D03*
X5760004Y3660003D02*
D03*
X5660004Y3460003D02*
D03*
Y3060003D02*
D03*
Y2660003D02*
D03*
Y2260003D02*
D03*
X5760004Y2060002D02*
D03*
X5660004Y1860002D02*
D03*
X5760004Y1660002D02*
D03*
X5660004Y1460002D02*
D03*
X5760004Y1260002D02*
D03*
X5660004Y1060002D02*
D03*
X5560004Y5260004D02*
D03*
X5460004Y5060004D02*
D03*
X5560004Y4860004D02*
D03*
X5460004Y4660004D02*
D03*
X5560004Y4460004D02*
D03*
X5460004Y4260004D02*
D03*
X5560004Y4060004D02*
D03*
Y3660003D02*
D03*
Y3260003D02*
D03*
X5460004Y2260003D02*
D03*
X5560004Y2060002D02*
D03*
X5460004Y1860002D02*
D03*
X5560004Y1660002D02*
D03*
X5460004Y1460002D02*
D03*
X5560004Y1260002D02*
D03*
X5460004Y1060002D02*
D03*
Y260002D02*
D03*
X5360004Y6060005D02*
D03*
X5260004Y5860005D02*
D03*
Y5460004D02*
D03*
X5360004Y5260004D02*
D03*
X5260004Y4660004D02*
D03*
X5360004Y4460004D02*
D03*
X5260004Y4260004D02*
D03*
X5360004Y4060004D02*
D03*
X5260004Y2660003D02*
D03*
Y2260003D02*
D03*
X5360004Y2060002D02*
D03*
X5260004Y1860002D02*
D03*
X5360004Y1660002D02*
D03*
Y1260002D02*
D03*
X5260004Y1060002D02*
D03*
X5360004Y860002D02*
D03*
X5260004Y660002D02*
D03*
Y260002D02*
D03*
X5160004Y6060005D02*
D03*
X5060004Y5860005D02*
D03*
X5160004Y5660004D02*
D03*
X5060004Y5460004D02*
D03*
X5160004Y4460004D02*
D03*
X5060004Y4260004D02*
D03*
X5160004Y4060004D02*
D03*
X5060004Y2660003D02*
D03*
Y2260003D02*
D03*
X5160004Y2060002D02*
D03*
Y1260002D02*
D03*
X5060004Y1060002D02*
D03*
X5160004Y860002D02*
D03*
X5060004Y660002D02*
D03*
X5160004Y460002D02*
D03*
X5060004Y260002D02*
D03*
X4960004Y6060005D02*
D03*
X4860004Y5860005D02*
D03*
X4960004Y5660004D02*
D03*
X4860004Y5460004D02*
D03*
X4960004Y4460004D02*
D03*
X4860004Y4260004D02*
D03*
X4960004Y4060004D02*
D03*
Y3660003D02*
D03*
X4860004Y2660003D02*
D03*
Y2260003D02*
D03*
X4960004Y2060002D02*
D03*
X4860004Y1460002D02*
D03*
X4960004Y1260002D02*
D03*
X4860004Y1060002D02*
D03*
X4960004Y860002D02*
D03*
X4860004Y660002D02*
D03*
X4960004Y460002D02*
D03*
X4860004Y260002D02*
D03*
X4760004Y6060005D02*
D03*
X4660004Y5860005D02*
D03*
X4760004Y5660004D02*
D03*
X4660004Y5460004D02*
D03*
Y4660004D02*
D03*
X4760004Y4460004D02*
D03*
X4660004Y4260004D02*
D03*
X4760004Y4060004D02*
D03*
X4660004Y3860003D02*
D03*
X4760004Y3660003D02*
D03*
X4660004Y2260003D02*
D03*
Y1860002D02*
D03*
X4760004Y1660002D02*
D03*
X4660004Y1460002D02*
D03*
X4760004Y1260002D02*
D03*
Y860002D02*
D03*
X4660004Y660002D02*
D03*
X4760004Y460002D02*
D03*
X4660004Y260002D02*
D03*
X4560004Y6060005D02*
D03*
X4460004Y5860005D02*
D03*
X4560004Y5660004D02*
D03*
X4460004Y5460004D02*
D03*
X4560004Y5260004D02*
D03*
X4460004Y5060004D02*
D03*
X4560004Y4860004D02*
D03*
X4460004Y4660004D02*
D03*
Y4260004D02*
D03*
X4560004Y4060004D02*
D03*
X4460004Y3860003D02*
D03*
X4560004Y3660003D02*
D03*
X4460004Y3460003D02*
D03*
X4560004Y3260003D02*
D03*
X4460004Y2660003D02*
D03*
X4560004Y2460003D02*
D03*
X4460004Y2260003D02*
D03*
Y1860002D02*
D03*
X4560004Y1660002D02*
D03*
X4460004Y660002D02*
D03*
X4560004Y460002D02*
D03*
X4460004Y260002D02*
D03*
X4360004Y6060005D02*
D03*
X4260004Y5860005D02*
D03*
X4360004Y5660004D02*
D03*
X4260004Y5460004D02*
D03*
X4360004Y5260004D02*
D03*
X4260004Y5060004D02*
D03*
X4360004Y4860004D02*
D03*
X4260004Y4260004D02*
D03*
X4360004Y4060004D02*
D03*
X4260004Y3860003D02*
D03*
X4360004Y3660003D02*
D03*
X4260004Y3460003D02*
D03*
Y2660003D02*
D03*
X4360004Y2460003D02*
D03*
X4260004Y2260003D02*
D03*
Y1860002D02*
D03*
X4360004Y1660002D02*
D03*
X4260004Y1060002D02*
D03*
Y660002D02*
D03*
X4360004Y460002D02*
D03*
X4260004Y260002D02*
D03*
X4160004Y6060005D02*
D03*
X4060004Y5860005D02*
D03*
X4160004Y5660004D02*
D03*
X4060004Y5460004D02*
D03*
X4160004Y5260004D02*
D03*
X4060004Y5060004D02*
D03*
Y4660004D02*
D03*
X4160004Y4460004D02*
D03*
X4060004Y4260004D02*
D03*
Y2260003D02*
D03*
X4160004Y1260002D02*
D03*
Y860002D02*
D03*
X4060004Y660002D02*
D03*
X4160004Y460002D02*
D03*
X4060004Y260002D02*
D03*
X3960004Y6060005D02*
D03*
X3860003Y5860005D02*
D03*
X3960004Y5660004D02*
D03*
X3860003Y5460004D02*
D03*
X3960004Y5260004D02*
D03*
Y4460004D02*
D03*
X3860003Y3860003D02*
D03*
X3960004Y3660003D02*
D03*
X3860003Y2260003D02*
D03*
Y660002D02*
D03*
X3960004Y460002D02*
D03*
X3860003Y260002D02*
D03*
X3660003Y5460004D02*
D03*
Y4260004D02*
D03*
X3760003Y2860003D02*
D03*
Y2460003D02*
D03*
Y1260002D02*
D03*
Y860002D02*
D03*
Y460002D02*
D03*
X3660003Y260002D02*
D03*
X3560003Y6060005D02*
D03*
X3460003Y5860005D02*
D03*
X3560003Y5660004D02*
D03*
X3460003Y5460004D02*
D03*
X3560003Y4860004D02*
D03*
X3460003Y3060003D02*
D03*
X3360003Y6060005D02*
D03*
X3260003Y5860005D02*
D03*
X3360003Y5660004D02*
D03*
X3260003Y5460004D02*
D03*
X3360003Y5260004D02*
D03*
X3260003Y4660004D02*
D03*
Y3460003D02*
D03*
X3360003Y3260003D02*
D03*
X3260003Y3060003D02*
D03*
X3360003Y460002D02*
D03*
X3260003Y260002D02*
D03*
X3160003Y6060005D02*
D03*
X3060003Y5860005D02*
D03*
X3160003Y5660004D02*
D03*
X3060003Y5460004D02*
D03*
X3160003Y5260004D02*
D03*
X3060003Y4660004D02*
D03*
X3160003Y4460004D02*
D03*
X3060003Y3860003D02*
D03*
Y3460003D02*
D03*
X3160003Y3260003D02*
D03*
X3060003Y3060003D02*
D03*
X3160003Y2860003D02*
D03*
X3060003Y2660003D02*
D03*
X3160003Y460002D02*
D03*
X3060003Y260002D02*
D03*
X2960003Y6060005D02*
D03*
X2860003Y5860005D02*
D03*
X2960003Y5660004D02*
D03*
X2860003Y5460004D02*
D03*
Y5060004D02*
D03*
X2960003Y3660003D02*
D03*
X2860003Y3460003D02*
D03*
X2960003Y3260003D02*
D03*
X2860003Y3060003D02*
D03*
X2960003Y2860003D02*
D03*
Y460002D02*
D03*
X2860003Y260002D02*
D03*
X2760003Y6060005D02*
D03*
X2660003Y5860005D02*
D03*
X2760003Y5660004D02*
D03*
X2660003Y5460004D02*
D03*
X2760003Y4860004D02*
D03*
Y3260003D02*
D03*
X2660003Y3060003D02*
D03*
X2760003Y2860003D02*
D03*
Y1260002D02*
D03*
Y460002D02*
D03*
X2560003Y6060005D02*
D03*
X2460003Y5860005D02*
D03*
X2560003Y5660004D02*
D03*
X2460003Y5460004D02*
D03*
X2560003Y4060004D02*
D03*
X2460003Y3860003D02*
D03*
Y2260003D02*
D03*
X2560003Y2060002D02*
D03*
Y1260002D02*
D03*
X2460003Y1060002D02*
D03*
Y660002D02*
D03*
X2560003Y460002D02*
D03*
X2460003Y260002D02*
D03*
X2360003Y6060005D02*
D03*
X2260003Y5860005D02*
D03*
X2360003Y5660004D02*
D03*
X2260003Y5460004D02*
D03*
Y5060004D02*
D03*
Y4260004D02*
D03*
X2360003Y4060004D02*
D03*
Y1660002D02*
D03*
X2260003Y1060002D02*
D03*
X2360003Y860002D02*
D03*
X2260003Y660002D02*
D03*
X2360003Y460002D02*
D03*
X2260003Y260002D02*
D03*
X2160003Y6060005D02*
D03*
X2060002Y5860005D02*
D03*
X2160003Y5660004D02*
D03*
X2060002Y5460004D02*
D03*
X2160003Y5260004D02*
D03*
X2060002Y5060004D02*
D03*
Y4660004D02*
D03*
X2160003Y4460004D02*
D03*
X2060002Y3060003D02*
D03*
X2160003Y2860003D02*
D03*
X2060002Y2660003D02*
D03*
X2160003Y2460003D02*
D03*
X2060002Y1460002D02*
D03*
Y1060002D02*
D03*
X2160003Y860002D02*
D03*
X2060002Y660002D02*
D03*
X2160003Y460002D02*
D03*
X2060002Y260002D02*
D03*
X1960002Y6060005D02*
D03*
X1860002Y5860005D02*
D03*
X1960002Y5660004D02*
D03*
X1860002Y5460004D02*
D03*
X1960002Y5260004D02*
D03*
X1860002Y5060004D02*
D03*
X1960002Y4860004D02*
D03*
Y4460004D02*
D03*
X1860002Y2660003D02*
D03*
X1960002Y2460003D02*
D03*
Y2060002D02*
D03*
X1860002Y1860002D02*
D03*
X1960002Y1260002D02*
D03*
X1860002Y1060002D02*
D03*
X1960002Y860002D02*
D03*
X1860002Y660002D02*
D03*
X1960002Y460002D02*
D03*
X1860002Y260002D02*
D03*
X1760002Y6060005D02*
D03*
X1660002Y5860005D02*
D03*
X1760002Y5660004D02*
D03*
X1660002Y5460004D02*
D03*
X1760002Y5260004D02*
D03*
X1660002Y5060004D02*
D03*
X1760002Y4860004D02*
D03*
X1660002Y4260004D02*
D03*
X1760002Y2860003D02*
D03*
X1660002Y1860002D02*
D03*
Y1060002D02*
D03*
X1760002Y860002D02*
D03*
X1660002Y660002D02*
D03*
X1760002Y460002D02*
D03*
X1660002Y260002D02*
D03*
X1560002Y6060005D02*
D03*
X1460002Y5860005D02*
D03*
X1560002Y5660004D02*
D03*
X1460002Y5460004D02*
D03*
X1560002Y5260004D02*
D03*
Y4060004D02*
D03*
X1460002Y3860003D02*
D03*
Y3460003D02*
D03*
X1560002Y2860003D02*
D03*
X1460002Y2660003D02*
D03*
X1560002Y860002D02*
D03*
X1460002Y660002D02*
D03*
X1560002Y460002D02*
D03*
X1460002Y260002D02*
D03*
X1360002Y6060005D02*
D03*
X1260002Y5860005D02*
D03*
X1360002Y5660004D02*
D03*
X1260002Y5460004D02*
D03*
X1360002Y5260004D02*
D03*
X1260002Y5060004D02*
D03*
X1360002Y4060004D02*
D03*
X1260002Y3460003D02*
D03*
X1360002Y3260003D02*
D03*
X1260002Y3060003D02*
D03*
X1360002Y2860003D02*
D03*
X1260002Y1860002D02*
D03*
X1360002Y860002D02*
D03*
X1260002Y660002D02*
D03*
X1360002Y460002D02*
D03*
X1260002Y260002D02*
D03*
X1160002Y6060005D02*
D03*
X1060002Y5860005D02*
D03*
X1160002Y5660004D02*
D03*
X1060002Y5460004D02*
D03*
X1160002Y5260004D02*
D03*
X1060002Y5060004D02*
D03*
Y4260004D02*
D03*
Y3860003D02*
D03*
X1160002Y3660003D02*
D03*
X1060002Y3460003D02*
D03*
X1160002Y3260003D02*
D03*
X1060002Y3060003D02*
D03*
X1160002Y2860003D02*
D03*
X1060002Y2660003D02*
D03*
Y2260003D02*
D03*
X1160002Y2060002D02*
D03*
X1060002Y1860002D02*
D03*
Y1060002D02*
D03*
X1160002Y860002D02*
D03*
X1060002Y660002D02*
D03*
X1160002Y460002D02*
D03*
X1060002Y260002D02*
D03*
X960002Y6060005D02*
D03*
Y5260004D02*
D03*
X860002Y5060004D02*
D03*
X960002Y4860004D02*
D03*
X860002Y3860003D02*
D03*
X960002Y3660003D02*
D03*
X860002Y3460003D02*
D03*
X960002Y3260003D02*
D03*
X860002Y3060003D02*
D03*
X960002Y2860003D02*
D03*
X860002Y2660003D02*
D03*
X960002Y2460003D02*
D03*
Y2060002D02*
D03*
X860002Y1860002D02*
D03*
X960002Y1660002D02*
D03*
X860002Y1460002D02*
D03*
X960002Y1260002D02*
D03*
X860002Y1060002D02*
D03*
X960002Y860002D02*
D03*
X860002Y260002D02*
D03*
X760002Y5260004D02*
D03*
X660002Y5060004D02*
D03*
X760002Y4860004D02*
D03*
X660002Y4660004D02*
D03*
Y4260004D02*
D03*
X760002Y4060004D02*
D03*
X660002Y3860003D02*
D03*
X760002Y3660003D02*
D03*
X660002Y3460003D02*
D03*
X760002Y3260003D02*
D03*
X660002Y3060003D02*
D03*
X760002Y2860003D02*
D03*
X660002Y2660003D02*
D03*
X760002Y2460003D02*
D03*
X660002Y2260003D02*
D03*
X760002Y1660002D02*
D03*
Y1260002D02*
D03*
X660002Y1060002D02*
D03*
X560002Y5260004D02*
D03*
X460002Y5060004D02*
D03*
X560002Y4860004D02*
D03*
X460002Y4660004D02*
D03*
X560002Y4460004D02*
D03*
X460002Y4260004D02*
D03*
X560002Y4060004D02*
D03*
X460002Y3860003D02*
D03*
X560002Y3660003D02*
D03*
X460002Y3460003D02*
D03*
X560002Y3260003D02*
D03*
X460002Y3060003D02*
D03*
X560002Y2860003D02*
D03*
X460002Y2660003D02*
D03*
X560002Y2460003D02*
D03*
X460002Y2260003D02*
D03*
X560002Y2060002D02*
D03*
X460002Y1060002D02*
D03*
X260002Y5460004D02*
D03*
X360002Y5260004D02*
D03*
X260002Y5060004D02*
D03*
X360002Y4860004D02*
D03*
X260002Y4660004D02*
D03*
X360002Y4460004D02*
D03*
X260002Y4260004D02*
D03*
X360002Y4060004D02*
D03*
X260002Y3860003D02*
D03*
X360002Y3660003D02*
D03*
X260002Y3460003D02*
D03*
X360002Y3260003D02*
D03*
X260002Y3060003D02*
D03*
X360002Y2860003D02*
D03*
X260002Y2660003D02*
D03*
X360002Y2460003D02*
D03*
X260002Y2260003D02*
D03*
X360002Y2060002D02*
D03*
X260002Y1860002D02*
D03*
Y1460002D02*
D03*
Y1060002D02*
D03*
D138*
X396240Y1812360D02*
D03*
X637540Y1304260D02*
D03*
X396240D02*
D03*
X1165860Y2410460D02*
D03*
X1239520Y2473960D02*
D03*
X1386840Y2623820D02*
D03*
X1308100Y2545080D02*
D03*
X1231900Y2334260D02*
D03*
X1292860Y2260600D02*
D03*
X1216660Y2153920D02*
D03*
X1290320Y2067560D02*
D03*
X1608071Y2537978D02*
D03*
X1676400Y2476500D02*
D03*
X1785620Y2377440D02*
D03*
X1859280Y2319020D02*
D03*
X1932940Y2242820D02*
D03*
X2009140Y2164080D02*
D03*
X2087880Y2090420D02*
D03*
X2164080Y2021840D02*
D03*
X2230120Y1950720D02*
D03*
X2301240Y1879600D02*
D03*
X2420620Y1729740D02*
D03*
X2448560Y1630680D02*
D03*
X2517140Y1559560D02*
D03*
X2588260Y1498600D02*
D03*
X2524760Y1432560D02*
D03*
X2448560Y1356360D02*
D03*
X2316480Y1211580D02*
D03*
X2374900Y1282700D02*
D03*
X2255520Y1275080D02*
D03*
X2179320Y1341120D02*
D03*
X2110740Y1272540D02*
D03*
X2016760Y1343660D02*
D03*
X1930400Y1427480D02*
D03*
X1844040Y1506220D02*
D03*
X1762760Y1592580D02*
D03*
X1684020Y1678940D02*
D03*
X1600200Y1762760D02*
D03*
X1524000Y1833880D02*
D03*
X1445260Y1910080D02*
D03*
X1363980Y1986280D02*
D03*
X1457960Y2560320D02*
D03*
X1531620Y2496820D02*
D03*
X3973928Y3084894D02*
D03*
X3431500Y799800D02*
D03*
X2791500D02*
D03*
X3405303Y4339977D02*
D03*
X1320800Y4724400D02*
D03*
X3240711Y2144358D02*
D03*
X3422042Y2027921D02*
D03*
X3111500Y1267800D02*
D03*
X2693640Y1018100D02*
D03*
X3529779Y1018069D02*
D03*
X2894580Y4973320D02*
D03*
X3539653Y4205627D02*
D03*
X3878306Y4075885D02*
D03*
X3763779Y3962193D02*
D03*
X4345259Y2948576D02*
D03*
X3962707Y2586027D02*
D03*
X4076659Y2472870D02*
D03*
X4906587Y1748506D02*
D03*
X3708669Y1843681D02*
D03*
X4385445Y958715D02*
D03*
X3914714Y950133D02*
D03*
X3948380Y1137920D02*
D03*
X3966800Y1488440D02*
D03*
X2579235Y1761625D02*
D03*
X2602672Y2353060D02*
D03*
X2370906Y2588909D02*
D03*
X1682885Y2632575D02*
D03*
X2213164Y4062900D02*
D03*
X1577038Y3858563D02*
D03*
X2690995Y4517525D02*
D03*
X2553302Y4379624D02*
D03*
X1020193Y4562681D02*
D03*
X1357234Y4282297D02*
D03*
X1760835Y4701453D02*
D03*
X2872750Y5148350D02*
D03*
X3686250Y6133350D02*
D03*
Y5763350D02*
D03*
X3668750Y5160850D02*
D03*
X3340100Y1287780D02*
D03*
X4519795Y824365D02*
D03*
X3764714Y950133D02*
D03*
X3783380Y1137920D02*
D03*
X3606800Y1488440D02*
D03*
X3543669Y1843681D02*
D03*
X3556392Y2162271D02*
D03*
X2737022Y2218710D02*
D03*
X2236556Y2723259D02*
D03*
X2052803Y3447674D02*
D03*
X2556645Y4651875D02*
D03*
X2418952Y4513974D02*
D03*
X1621655Y4885824D02*
D03*
X1154544Y4428330D02*
D03*
X3084580Y4973320D02*
D03*
X4210909Y2814226D02*
D03*
X5261400Y3302000D02*
D03*
Y3048000D02*
D03*
X5965400Y3302000D02*
D03*
Y3048000D02*
D03*
Y3810000D02*
D03*
Y3556000D02*
D03*
Y2794000D02*
D03*
Y2540000D02*
D03*
D139*
X3086968Y2343135D02*
D03*
X3097673Y2417770D02*
D03*
X3649980Y3211412D02*
D03*
X4247806Y3059893D02*
D03*
X2498881Y3426939D02*
D03*
X3035668Y3954412D02*
D03*
X3268980Y3934460D02*
D03*
X3403210Y3804138D02*
D03*
X3329867Y3786647D02*
D03*
X3255624Y3799803D02*
D03*
X2730199Y2044820D02*
D03*
X3483242Y3785502D02*
D03*
X2808158Y2044027D02*
D03*
X3196342Y645729D02*
D03*
X3086281Y681201D02*
D03*
X2391294Y3174126D02*
D03*
X1750060Y3329940D02*
D03*
X1709994Y3665564D02*
D03*
X1817922Y3717326D02*
D03*
D140*
X3001500Y1547350D02*
D03*
Y1657350D02*
D03*
Y1767350D02*
D03*
X3111500Y1547350D02*
D03*
Y1657350D02*
D03*
Y1767350D02*
D03*
X3221500Y1547350D02*
D03*
Y1657350D02*
D03*
Y1767350D02*
D03*
%TF.MD5,73020a5abc61450d16ad4e003c01c3f9*%
M02*
