%TF.GenerationSoftware,Altium Limited,Altium Designer,24.2.2 (26)*%
G04 Layer_Physical_Order=4*
G04 Layer_Color=16711680*
%FSLAX45Y45*%
%MOMM*%
%TF.SameCoordinates,D31C6D6D-B6E9-44EC-8E0F-9CDDCF0E9FEB*%
%TF.FilePolarity,Positive*%
%TF.FileFunction,Copper,L4,Bot,Signal*%
%TF.Part,Single*%
G01*
G75*
%TA.AperFunction,SMDPad,CuDef*%
%ADD15R,4.50000X1.00000*%
%ADD16R,4.32000X1.00000*%
%TA.AperFunction,Conductor*%
%ADD49C,0.25400*%
%ADD50C,0.26193*%
%ADD51C,0.20455*%
%ADD52C,0.27000*%
%ADD53C,0.26200*%
%ADD58C,0.25000*%
%TA.AperFunction,ViaPad*%
%ADD59C,7.50000*%
%ADD60C,7.00000*%
%TA.AperFunction,ComponentPad*%
%ADD61C,1.40000*%
%ADD62O,1.00000X1.80000*%
%ADD63O,1.00000X2.10000*%
%ADD64C,1.70000*%
%ADD65P,2.40416X4X180.0*%
%TA.AperFunction,ViaPad*%
%ADD66C,0.60000*%
%ADD67C,0.75000*%
%ADD68C,0.50000*%
G36*
X5981113Y6159500D02*
X5981368Y6158215D01*
X5984667Y6124724D01*
X5994811Y6091283D01*
X6011284Y6060465D01*
X6033452Y6033452D01*
X6060465Y6011284D01*
X6091283Y5994811D01*
X6124724Y5984667D01*
X6158215Y5981368D01*
X6159500Y5981113D01*
X6298613D01*
Y368887D01*
X6159500D01*
X6158215Y368632D01*
X6124724Y365333D01*
X6091283Y355189D01*
X6060465Y338716D01*
X6033452Y316547D01*
X6011284Y289535D01*
X5994811Y258717D01*
X5984667Y225276D01*
X5981368Y191785D01*
X5981113Y190500D01*
Y51387D01*
X368887D01*
Y190500D01*
X368632Y191785D01*
X365333Y225276D01*
X355189Y258717D01*
X338716Y289535D01*
X316547Y316547D01*
X289535Y338716D01*
X258717Y355189D01*
X225276Y365333D01*
X191785Y368632D01*
X190500Y368887D01*
X51387D01*
Y5981113D01*
X190500D01*
X191785Y5981368D01*
X225276Y5984667D01*
X258717Y5994811D01*
X289535Y6011284D01*
X316547Y6033452D01*
X338716Y6060465D01*
X355189Y6091283D01*
X365333Y6124724D01*
X368632Y6158215D01*
X368887Y6159500D01*
Y6298613D01*
X5981113D01*
Y6159500D01*
D02*
G37*
%LPC*%
G36*
X5781826Y6118100D02*
X5724374D01*
X5667629Y6109113D01*
X5612989Y6091359D01*
X5561798Y6065276D01*
X5515318Y6031507D01*
X5474693Y5990882D01*
X5440924Y5944402D01*
X5414841Y5893211D01*
X5397087Y5838571D01*
X5388100Y5781826D01*
Y5724374D01*
X5397087Y5667629D01*
X5414841Y5612989D01*
X5440924Y5561798D01*
X5474693Y5515318D01*
X5515318Y5474693D01*
X5561798Y5440924D01*
X5612989Y5414841D01*
X5667629Y5397087D01*
X5724374Y5388100D01*
X5781826D01*
X5838571Y5397087D01*
X5893211Y5414841D01*
X5944402Y5440924D01*
X5990882Y5474693D01*
X6031507Y5515318D01*
X6065276Y5561798D01*
X6091359Y5612989D01*
X6109113Y5667629D01*
X6118100Y5724374D01*
Y5781826D01*
X6109113Y5838571D01*
X6091359Y5893211D01*
X6065276Y5944402D01*
X6031507Y5990882D01*
X5990882Y6031507D01*
X5944402Y6065276D01*
X5893211Y6091359D01*
X5838571Y6109113D01*
X5781826Y6118100D01*
D02*
G37*
G36*
X625626D02*
X568174D01*
X511429Y6109113D01*
X456789Y6091359D01*
X405598Y6065276D01*
X359118Y6031507D01*
X318493Y5990882D01*
X284724Y5944402D01*
X258641Y5893211D01*
X240887Y5838571D01*
X231900Y5781826D01*
Y5724374D01*
X240887Y5667629D01*
X258641Y5612989D01*
X284724Y5561798D01*
X318493Y5515318D01*
X359118Y5474693D01*
X405598Y5440924D01*
X456789Y5414841D01*
X511429Y5397087D01*
X568174Y5388100D01*
X625626D01*
X682371Y5397087D01*
X737011Y5414841D01*
X788202Y5440924D01*
X834682Y5474693D01*
X875307Y5515318D01*
X909076Y5561798D01*
X935159Y5612989D01*
X952913Y5667629D01*
X961900Y5724374D01*
Y5781826D01*
X952913Y5838571D01*
X935159Y5893211D01*
X909076Y5944402D01*
X875307Y5990882D01*
X834682Y6031507D01*
X788202Y6065276D01*
X737011Y6091359D01*
X682371Y6109113D01*
X625626Y6118100D01*
D02*
G37*
G36*
X3095520Y5028320D02*
X3073640D01*
X3053425Y5019947D01*
X3037954Y5004475D01*
X3029580Y4984260D01*
Y4962380D01*
X3037954Y4942165D01*
X3053425Y4926693D01*
X3073640Y4918320D01*
X3095520D01*
X3115735Y4926693D01*
X3131207Y4942165D01*
X3139580Y4962380D01*
Y4984260D01*
X3131207Y5004475D01*
X3115735Y5019947D01*
X3095520Y5028320D01*
D02*
G37*
G36*
X1632595Y4940824D02*
X1610715D01*
X1590500Y4932451D01*
X1575029Y4916979D01*
X1566655Y4896764D01*
Y4874884D01*
X1575029Y4854669D01*
X1590500Y4839198D01*
X1610715Y4830824D01*
X1632595D01*
X1652810Y4839198D01*
X1668282Y4854669D01*
X1676655Y4874884D01*
Y4896764D01*
X1668282Y4916979D01*
X1652810Y4932451D01*
X1632595Y4940824D01*
D02*
G37*
G36*
X3938200Y5072585D02*
X3911869D01*
X3886436Y5065770D01*
X3863634Y5052605D01*
X3845015Y5033986D01*
X3831850Y5011184D01*
X3825035Y4985751D01*
Y4959420D01*
X3831850Y4933987D01*
X3839638Y4920497D01*
X3019014Y4099873D01*
X3013908Y4092232D01*
X3012115Y4083218D01*
Y3996069D01*
X3008762Y3994680D01*
X2995400Y3981318D01*
X2988168Y3963860D01*
Y3944964D01*
X2995400Y3927505D01*
X3008762Y3914144D01*
X3026220Y3906912D01*
X3045116D01*
X3062575Y3914144D01*
X3075936Y3927505D01*
X3083168Y3944964D01*
Y3963860D01*
X3075936Y3981318D01*
X3062575Y3994680D01*
X3059221Y3996069D01*
Y4073463D01*
X3338258Y4352500D01*
X3350303Y4346584D01*
Y4329037D01*
X3358676Y4308822D01*
X3374148Y4293350D01*
X3394363Y4284977D01*
X3397452D01*
X3402312Y4273244D01*
X3361834Y4232766D01*
X3361253Y4231896D01*
X3252759Y4123401D01*
X3247786Y4115959D01*
X3246039Y4107180D01*
Y3976371D01*
X3242074Y3974728D01*
X3228712Y3961366D01*
X3221480Y3943908D01*
Y3925012D01*
X3228712Y3907554D01*
X3242074Y3894192D01*
X3259532Y3886960D01*
X3278428D01*
X3295886Y3894192D01*
X3309248Y3907554D01*
X3316480Y3925012D01*
Y3943908D01*
X3309248Y3961366D01*
X3295886Y3974728D01*
X3291921Y3976371D01*
Y4097678D01*
X3393696Y4199453D01*
X3394566Y4200034D01*
X3964367Y4769835D01*
X4007314D01*
X4011455Y4754381D01*
X4024620Y4731579D01*
X4043239Y4712960D01*
X4066041Y4699795D01*
X4091475Y4692980D01*
X4117805D01*
X4143239Y4699795D01*
X4166041Y4712960D01*
X4184660Y4731579D01*
X4197825Y4754381D01*
X4204640Y4779815D01*
Y4806145D01*
X4197825Y4831579D01*
X4184660Y4854381D01*
X4166041Y4873000D01*
X4143239Y4886165D01*
X4117805Y4892980D01*
X4091475D01*
X4066041Y4886165D01*
X4043239Y4873000D01*
X4024620Y4854381D01*
X4011455Y4831579D01*
X4007314Y4816125D01*
X3954780D01*
X3945923Y4814363D01*
X3938414Y4809346D01*
X3472036Y4342967D01*
X3460302Y4347827D01*
Y4350917D01*
X3451929Y4371132D01*
X3436457Y4386603D01*
X3416243Y4394977D01*
X3398696D01*
X3392779Y4407021D01*
X3872947Y4887188D01*
X3886436Y4879400D01*
X3911869Y4872586D01*
X3938200D01*
X3963633Y4879400D01*
X3986436Y4892565D01*
X4005055Y4911184D01*
X4018220Y4933987D01*
X4025034Y4959420D01*
Y4985751D01*
X4018220Y5011184D01*
X4005055Y5033986D01*
X3986436Y5052605D01*
X3963633Y5065770D01*
X3938200Y5072585D01*
D02*
G37*
G36*
X4298779Y4723775D02*
X4269711D01*
X4241632Y4716251D01*
X4216458Y4701717D01*
X4215161Y4700420D01*
X4284245Y4631336D01*
X4353329Y4700420D01*
X4352032Y4701717D01*
X4326858Y4716251D01*
X4298779Y4723775D01*
D02*
G37*
G36*
X2567585Y4706875D02*
X2545705D01*
X2525490Y4698502D01*
X2510018Y4683030D01*
X2501645Y4662815D01*
Y4640935D01*
X2510018Y4620720D01*
X2525490Y4605249D01*
X2545705Y4596875D01*
X2567585D01*
X2587800Y4605249D01*
X2603271Y4620720D01*
X2611645Y4640935D01*
Y4662815D01*
X2603271Y4683030D01*
X2587800Y4698502D01*
X2567585Y4706875D01*
D02*
G37*
G36*
X5001753Y5361059D02*
X4940366D01*
X4879734Y5351456D01*
X4821351Y5332487D01*
X4766655Y5304617D01*
X4716991Y5268535D01*
X4673584Y5225127D01*
X4637502Y5175464D01*
X4609632Y5120768D01*
X4590662Y5062385D01*
X4581059Y5001753D01*
Y4940366D01*
X4590662Y4879734D01*
X4609632Y4821351D01*
X4637502Y4766655D01*
X4673584Y4716991D01*
X4716991Y4673584D01*
X4766655Y4637502D01*
X4821351Y4609632D01*
X4879734Y4590662D01*
X4940366Y4581059D01*
X5001753D01*
X5062385Y4590662D01*
X5120768Y4609632D01*
X5175464Y4637502D01*
X5225127Y4673584D01*
X5268535Y4716991D01*
X5304617Y4766655D01*
X5332487Y4821351D01*
X5351456Y4879734D01*
X5361059Y4940366D01*
Y5001753D01*
X5351456Y5062385D01*
X5332487Y5120768D01*
X5304617Y5175464D01*
X5268535Y5225127D01*
X5225127Y5268535D01*
X5175464Y5304617D01*
X5120768Y5332487D01*
X5062385Y5351456D01*
X5001753Y5361059D01*
D02*
G37*
G36*
X4371289Y4682459D02*
X4302206Y4613375D01*
X4371289Y4544291D01*
X4372587Y4545588D01*
X4387121Y4570762D01*
X4394645Y4598841D01*
Y4627909D01*
X4387121Y4655988D01*
X4372587Y4681162D01*
X4371289Y4682459D01*
D02*
G37*
G36*
X4197200D02*
X4195903Y4681162D01*
X4181369Y4655988D01*
X4173845Y4627909D01*
Y4598841D01*
X4181369Y4570762D01*
X4195903Y4545588D01*
X4197200Y4544291D01*
X4266284Y4613375D01*
X4197200Y4682459D01*
D02*
G37*
G36*
X4284245Y4595414D02*
X4215161Y4526331D01*
X4216458Y4525033D01*
X4241632Y4510499D01*
X4269711Y4502975D01*
X4298779D01*
X4326858Y4510499D01*
X4352032Y4525033D01*
X4353329Y4526331D01*
X4284245Y4595414D01*
D02*
G37*
G36*
X2429892Y4568974D02*
X2408012D01*
X2387797Y4560601D01*
X2372325Y4545129D01*
X2363952Y4524914D01*
Y4503034D01*
X2372325Y4482820D01*
X2387797Y4467348D01*
X2408012Y4458975D01*
X2429892D01*
X2450107Y4467348D01*
X2465579Y4482820D01*
X2473952Y4503034D01*
Y4524914D01*
X2465579Y4545129D01*
X2450107Y4560601D01*
X2429892Y4568974D01*
D02*
G37*
G36*
X1165484Y4483330D02*
X1143604D01*
X1123389Y4474957D01*
X1107917Y4459485D01*
X1099544Y4439271D01*
Y4417390D01*
X1107917Y4397176D01*
X1123389Y4381704D01*
X1143604Y4373331D01*
X1165484D01*
X1185698Y4381704D01*
X1201170Y4397176D01*
X1209543Y4417390D01*
Y4439271D01*
X1201170Y4459485D01*
X1185698Y4474957D01*
X1165484Y4483330D01*
D02*
G37*
G36*
X4463850Y4575191D02*
X4322429Y4433770D01*
X4463850Y4292349D01*
X4605271Y4433770D01*
X4463850Y4575191D01*
D02*
G37*
G36*
X2224104Y4117900D02*
X2202224D01*
X2182009Y4109527D01*
X2166538Y4094055D01*
X2158164Y4073840D01*
Y4051960D01*
X2166538Y4031746D01*
X2182009Y4016274D01*
X2202224Y4007901D01*
X2224104D01*
X2244319Y4016274D01*
X2259791Y4031746D01*
X2268164Y4051960D01*
Y4073840D01*
X2259791Y4094055D01*
X2244319Y4109527D01*
X2224104Y4117900D01*
D02*
G37*
G36*
X1587978Y3913562D02*
X1566098D01*
X1545883Y3905189D01*
X1530412Y3889717D01*
X1522038Y3869503D01*
Y3847622D01*
X1530412Y3827408D01*
X1545883Y3811936D01*
X1566098Y3803563D01*
X1587978D01*
X1608193Y3811936D01*
X1623665Y3827408D01*
X1632038Y3847622D01*
Y3869503D01*
X1623665Y3889717D01*
X1608193Y3905189D01*
X1587978Y3913562D01*
D02*
G37*
G36*
X6191400Y3870000D02*
X5739400D01*
Y3750000D01*
X6191400D01*
Y3870000D01*
D02*
G37*
G36*
X1827370Y3764825D02*
X1808474D01*
X1791016Y3757594D01*
X1777654Y3744232D01*
X1770422Y3726774D01*
Y3707877D01*
X1771813Y3704520D01*
X1762766Y3695472D01*
X1753940Y3693354D01*
X1746612Y3696121D01*
X1736901Y3705833D01*
X1719442Y3713064D01*
X1700546D01*
X1683088Y3705833D01*
X1669726Y3692471D01*
X1662494Y3675013D01*
Y3656116D01*
X1669726Y3638658D01*
X1683088Y3625296D01*
X1686445Y3623905D01*
Y3370006D01*
X1688238Y3360994D01*
X1693343Y3353354D01*
X1703951Y3342746D01*
X1702560Y3339388D01*
Y3320492D01*
X1709792Y3303034D01*
X1723154Y3289672D01*
X1740612Y3282440D01*
X1759508D01*
X1776966Y3289672D01*
X1790328Y3303034D01*
X1797560Y3320492D01*
Y3339388D01*
X1790328Y3356846D01*
X1776966Y3370208D01*
X1759508Y3377440D01*
X1740612D01*
X1733543Y3388258D01*
Y3616681D01*
X1739211Y3620447D01*
X1751911Y3613637D01*
Y3507062D01*
X1753704Y3498050D01*
X1758809Y3490410D01*
X1998499Y3250719D01*
X2012566Y3236653D01*
X2007305Y3223953D01*
X1993900D01*
X1984887Y3222160D01*
X1977246Y3217054D01*
X1882544Y3122353D01*
X1631888D01*
X1629407Y3131609D01*
X1618217Y3150991D01*
X1602391Y3166817D01*
X1583009Y3178007D01*
X1561391Y3183800D01*
X1539010D01*
X1517391Y3178007D01*
X1498009Y3166817D01*
X1482183Y3150991D01*
X1470993Y3131609D01*
X1465200Y3109990D01*
Y3087610D01*
X1470993Y3065991D01*
X1482183Y3046609D01*
X1498009Y3030783D01*
X1517391Y3019593D01*
X1539010Y3013800D01*
X1561391D01*
X1583009Y3019593D01*
X1602391Y3030783D01*
X1618217Y3046609D01*
X1629407Y3065991D01*
X1631888Y3075247D01*
X1892300D01*
X1901313Y3077040D01*
X1908954Y3082146D01*
X2003656Y3176847D01*
X2291484D01*
X2304241Y3164090D01*
Y3147824D01*
X2306034Y3138811D01*
X2311139Y3131170D01*
X2348337Y3093972D01*
X2355978Y3088866D01*
X2364991Y3087074D01*
X2417596D01*
X2426609Y3088866D01*
X2434250Y3093972D01*
X2471448Y3131170D01*
X2476554Y3138810D01*
X2478346Y3147824D01*
Y3371967D01*
X2488209Y3379946D01*
X2489433Y3379439D01*
X2508329D01*
X2525787Y3386670D01*
X2539149Y3400032D01*
X2546381Y3417490D01*
Y3436387D01*
X2539149Y3453845D01*
X2525787Y3467207D01*
X2508329Y3474439D01*
X2489433D01*
X2471974Y3467207D01*
X2458613Y3453845D01*
X2451381Y3436387D01*
Y3417490D01*
X2452770Y3414137D01*
X2438139Y3399506D01*
X2433034Y3391865D01*
X2431241Y3382852D01*
Y3217947D01*
X2419508Y3213087D01*
X2418200Y3214395D01*
X2400742Y3221626D01*
X2381845D01*
X2378488Y3220235D01*
X2334855Y3263868D01*
X2327215Y3268973D01*
X2318203Y3270766D01*
X2045059D01*
X2031802Y3284022D01*
X1799009Y3516816D01*
Y3660731D01*
X1808474Y3669826D01*
X1827370D01*
X1844829Y3677057D01*
X1858191Y3690419D01*
X1865422Y3707877D01*
Y3726774D01*
X1858191Y3744232D01*
X1844829Y3757594D01*
X1827370Y3764825D01*
D02*
G37*
G36*
X6191400Y3616000D02*
X5739400D01*
Y3496000D01*
X6191400D01*
Y3616000D01*
D02*
G37*
G36*
X2063743Y3502674D02*
X2041863D01*
X2021648Y3494300D01*
X2006176Y3478829D01*
X1997803Y3458614D01*
Y3436734D01*
X2006176Y3416519D01*
X2021648Y3401047D01*
X2041863Y3392674D01*
X2063743D01*
X2083958Y3401047D01*
X2099429Y3416519D01*
X2107803Y3436734D01*
Y3458614D01*
X2099429Y3478829D01*
X2083958Y3494300D01*
X2063743Y3502674D01*
D02*
G37*
G36*
X5490100Y3872700D02*
X5032700D01*
Y3833549D01*
X4981113D01*
X4972101Y3831756D01*
X4964462Y3826651D01*
X4835740Y3697929D01*
X4830635Y3690290D01*
X4828842Y3681278D01*
Y3555035D01*
X4802556Y3528749D01*
X4622540D01*
X4613528Y3526956D01*
X4605889Y3521851D01*
X4449857Y3365820D01*
X3902909D01*
X3553328Y3715400D01*
Y3732487D01*
X3563390Y3742549D01*
X3568495Y3750189D01*
X3570287Y3759201D01*
Y3811803D01*
X3568495Y3820815D01*
X3563390Y3828455D01*
X3526195Y3865650D01*
X3518555Y3870755D01*
X3509543Y3872548D01*
X3448071D01*
X3439059Y3870755D01*
X3431419Y3865650D01*
X3416016Y3850247D01*
X3412658Y3851637D01*
X3393762D01*
X3376303Y3844406D01*
X3362942Y3831044D01*
X3348845Y3830199D01*
X3339315Y3834147D01*
X3320419D01*
X3308588Y3829246D01*
X3295892Y3826710D01*
X3282530Y3840072D01*
X3265072Y3847303D01*
X3246176D01*
X3228717Y3840072D01*
X3215356Y3826710D01*
X3208124Y3809252D01*
Y3790355D01*
X3215356Y3772897D01*
X3228717Y3759535D01*
X3240098Y3754821D01*
X3243130Y3750284D01*
X3734246Y3259168D01*
X3732781Y3253105D01*
X3728640Y3246813D01*
X3703468D01*
X3694455Y3245020D01*
X3687916Y3240651D01*
X3676886Y3251680D01*
X3659428Y3258912D01*
X3640532D01*
X3623074Y3251680D01*
X3609712Y3238318D01*
X3602480Y3220860D01*
Y3201964D01*
X3609712Y3184505D01*
X3623074Y3171144D01*
X3640532Y3163912D01*
X3659428D01*
X3676886Y3171144D01*
X3690248Y3184505D01*
X3693524Y3192413D01*
X3696174D01*
X3705187Y3194206D01*
X3712828Y3199311D01*
X3713224Y3199707D01*
X3721504D01*
X3792371Y3128840D01*
X3800012Y3123734D01*
X3809026Y3121942D01*
X4172329D01*
X4207518Y3086752D01*
X4200307Y3069341D01*
Y3050445D01*
X4207538Y3032987D01*
X4220900Y3019625D01*
X4238358Y3012393D01*
X4257255D01*
X4274713Y3019625D01*
X4288075Y3032987D01*
X4295306Y3050445D01*
Y3069341D01*
X4288075Y3086800D01*
X4274713Y3100161D01*
X4257255Y3107393D01*
X4253495D01*
X4202445Y3158442D01*
X4207687Y3171142D01*
X4409485D01*
X4501952Y3078675D01*
X4504935Y3076682D01*
X4651869Y2929749D01*
X4659508Y2924644D01*
X4668520Y2922851D01*
X4755286D01*
X4758338Y2919799D01*
Y2627293D01*
X4760130Y2618281D01*
X4765235Y2610642D01*
X4855069Y2520808D01*
X4862708Y2515704D01*
X4871720Y2513911D01*
X5023700D01*
Y2477300D01*
X5499100D01*
Y2602700D01*
X5023700D01*
Y2561009D01*
X4881474D01*
X4805436Y2637047D01*
Y2816659D01*
X4818136Y2821901D01*
X4862689Y2777348D01*
X4870328Y2772244D01*
X4879340Y2770451D01*
X5032700D01*
Y2731300D01*
X5490100D01*
Y2856700D01*
X5032700D01*
Y2817549D01*
X4889094D01*
X4854629Y2852014D01*
Y2965113D01*
X4852836Y2974125D01*
X4847732Y2981765D01*
X4833103Y2996393D01*
X4835246Y3008750D01*
X4837214Y3010243D01*
X4858377Y3022461D01*
X4876139Y3040223D01*
X4888698Y3061977D01*
X4895162Y3086100D01*
X4799800D01*
X4704438D01*
X4710901Y3061977D01*
X4723461Y3040223D01*
X4731842Y3031842D01*
X4726581Y3019142D01*
X4698650D01*
X4556621Y3161171D01*
X4553639Y3163164D01*
X4459974Y3256829D01*
X4465217Y3269529D01*
X4481797D01*
X4490809Y3271321D01*
X4498449Y3276426D01*
X4654371Y3432348D01*
X4742181D01*
X4745782Y3424697D01*
X4746440Y3419648D01*
X4731783Y3404991D01*
X4720593Y3385609D01*
X4714800Y3363990D01*
Y3341610D01*
X4720593Y3319991D01*
X4731783Y3300609D01*
X4747609Y3284783D01*
X4766991Y3273593D01*
X4788609Y3267800D01*
X4810990D01*
X4832609Y3273593D01*
X4851991Y3284783D01*
X4867817Y3300609D01*
X4879007Y3319991D01*
X4884800Y3341610D01*
Y3363990D01*
X4879007Y3385609D01*
X4867817Y3404991D01*
X4853160Y3419648D01*
X4853818Y3424697D01*
X4857419Y3432348D01*
X4870891D01*
X4879903Y3434140D01*
X4887542Y3439245D01*
X4918852Y3470554D01*
X4923956Y3478194D01*
X4925749Y3487206D01*
Y3528466D01*
X4929734Y3532451D01*
X5032700D01*
Y3493300D01*
X5490100D01*
Y3618700D01*
X5032700D01*
Y3579549D01*
X4919980D01*
X4910968Y3577756D01*
X4903329Y3572651D01*
X4888640Y3557963D01*
X4876440Y3562163D01*
X4875940Y3562563D01*
Y3671524D01*
X4990867Y3786451D01*
X5032700D01*
Y3747300D01*
X5490100D01*
Y3872700D01*
D02*
G37*
G36*
X5502800Y3377400D02*
X5274100D01*
Y3314700D01*
X5502800D01*
Y3377400D01*
D02*
G37*
G36*
X5248700D02*
X5020000D01*
Y3314700D01*
X5248700D01*
Y3377400D01*
D02*
G37*
G36*
X6206800D02*
X5978100D01*
Y3314700D01*
X6206800D01*
Y3377400D01*
D02*
G37*
G36*
X5952700D02*
X5724000D01*
Y3314700D01*
X5952700D01*
Y3377400D01*
D02*
G37*
G36*
X1561391Y3437800D02*
X1539010D01*
X1517391Y3432007D01*
X1498009Y3420817D01*
X1482183Y3404991D01*
X1470993Y3385609D01*
X1465200Y3363990D01*
Y3341610D01*
X1470993Y3319991D01*
X1482183Y3300609D01*
X1498009Y3284783D01*
X1517391Y3273593D01*
X1539010Y3267800D01*
X1561391D01*
X1583009Y3273593D01*
X1602391Y3284783D01*
X1618217Y3300609D01*
X1629407Y3319991D01*
X1635200Y3341610D01*
Y3363990D01*
X1629407Y3385609D01*
X1618217Y3404991D01*
X1602391Y3420817D01*
X1583009Y3432007D01*
X1561391Y3437800D01*
D02*
G37*
G36*
X6206800Y3289300D02*
X5978100D01*
Y3226600D01*
X6206800D01*
Y3289300D01*
D02*
G37*
G36*
X5952700D02*
X5724000D01*
Y3226600D01*
X5952700D01*
Y3289300D01*
D02*
G37*
G36*
X5502800Y3289300D02*
X5274100D01*
Y3226600D01*
X5502800D01*
Y3289300D01*
D02*
G37*
G36*
X5248700D02*
X5020000D01*
Y3226600D01*
X5248700D01*
Y3289300D01*
D02*
G37*
G36*
X4812500Y3194162D02*
Y3111500D01*
X4895162D01*
X4888698Y3135623D01*
X4876139Y3157377D01*
X4858377Y3175139D01*
X4836623Y3187698D01*
X4812500Y3194162D01*
D02*
G37*
G36*
X4787100D02*
X4762977Y3187698D01*
X4741223Y3175139D01*
X4723461Y3157377D01*
X4710901Y3135623D01*
X4704438Y3111500D01*
X4787100D01*
Y3194162D01*
D02*
G37*
G36*
X5502800Y3123400D02*
X5274100D01*
Y3060700D01*
X5502800D01*
Y3123400D01*
D02*
G37*
G36*
X5248700D02*
X5020000D01*
Y3060700D01*
X5248700D01*
Y3123400D01*
D02*
G37*
G36*
X6206800D02*
X5978100D01*
Y3060700D01*
X6206800D01*
Y3123400D01*
D02*
G37*
G36*
X5952700D02*
X5724000D01*
Y3060700D01*
X5952700D01*
Y3123400D01*
D02*
G37*
G36*
X6206800Y3035300D02*
X5978100D01*
Y2972600D01*
X6206800D01*
Y3035300D01*
D02*
G37*
G36*
X5952700D02*
X5724000D01*
Y2972600D01*
X5952700D01*
Y3035300D01*
D02*
G37*
G36*
X5502800Y3035300D02*
X5274100D01*
Y2972600D01*
X5502800D01*
Y3035300D01*
D02*
G37*
G36*
X5248700D02*
X5020000D01*
Y2972600D01*
X5248700D01*
Y3035300D01*
D02*
G37*
G36*
X4221849Y2869226D02*
X4199969D01*
X4179754Y2860852D01*
X4164282Y2845381D01*
X4155909Y2825166D01*
Y2803286D01*
X4164282Y2783071D01*
X4179754Y2767599D01*
X4199969Y2759226D01*
X4221849D01*
X4242064Y2767599D01*
X4257535Y2783071D01*
X4265909Y2803286D01*
Y2825166D01*
X4257535Y2845381D01*
X4242064Y2860852D01*
X4221849Y2869226D01*
D02*
G37*
G36*
X6191400Y2854000D02*
X5739400D01*
Y2734000D01*
X6191400D01*
Y2854000D01*
D02*
G37*
G36*
X2247496Y2778259D02*
X2225616D01*
X2205401Y2769886D01*
X2189930Y2754414D01*
X2181556Y2734199D01*
Y2712319D01*
X2189930Y2692104D01*
X2205401Y2676633D01*
X2225616Y2668259D01*
X2247496D01*
X2267711Y2676633D01*
X2283183Y2692104D01*
X2291556Y2712319D01*
Y2734199D01*
X2283183Y2754414D01*
X2267711Y2769886D01*
X2247496Y2778259D01*
D02*
G37*
G36*
X6191400Y2600000D02*
X5739400D01*
Y2480000D01*
X6191400D01*
Y2600000D01*
D02*
G37*
G36*
X2747962Y2273710D02*
X2726082D01*
X2705867Y2265337D01*
X2690395Y2249865D01*
X2682022Y2229650D01*
Y2207770D01*
X2690395Y2187555D01*
X2705867Y2172084D01*
X2726082Y2163710D01*
X2747962D01*
X2768177Y2172084D01*
X2783648Y2187555D01*
X2792022Y2207770D01*
Y2229650D01*
X2783648Y2249865D01*
X2768177Y2265337D01*
X2747962Y2273710D01*
D02*
G37*
G36*
X3567332Y2217271D02*
X3545452D01*
X3525238Y2208897D01*
X3509766Y2193426D01*
X3501393Y2173211D01*
Y2151331D01*
X3509766Y2131116D01*
X3525238Y2115644D01*
X3545452Y2107271D01*
X3567332D01*
X3587547Y2115644D01*
X3603019Y2131116D01*
X3611392Y2151331D01*
Y2173211D01*
X3603019Y2193426D01*
X3587547Y2208897D01*
X3567332Y2217271D01*
D02*
G37*
G36*
X3107121Y2465270D02*
X3088224D01*
X3070766Y2458039D01*
X3057404Y2444677D01*
X3050173Y2427219D01*
Y2421246D01*
X3008095Y2379168D01*
X3003624Y2372477D01*
X3002054Y2364585D01*
Y2330226D01*
X2797632Y2125804D01*
X2783571D01*
X2775679Y2124234D01*
X2768988Y2119763D01*
X2740989Y2091764D01*
X2739647Y2092320D01*
X2720750D01*
X2703292Y2085089D01*
X2689930Y2071727D01*
X2682699Y2054269D01*
Y2035372D01*
X2689930Y2017914D01*
X2703292Y2004552D01*
X2720750Y1997321D01*
X2739647D01*
X2757105Y2004552D01*
X2768782Y2016229D01*
X2781252Y2003759D01*
X2798710Y1996527D01*
X2817607D01*
X2835065Y2003759D01*
X2848427Y2017120D01*
X2855658Y2034579D01*
Y2053475D01*
X2852563Y2060948D01*
X2944697Y2153083D01*
X3087250Y2295635D01*
X3096416D01*
X3113874Y2302866D01*
X3127236Y2316228D01*
X3134468Y2333686D01*
Y2352583D01*
X3127236Y2370041D01*
X3123782Y2373495D01*
X3124579Y2377502D01*
X3137941Y2390864D01*
X3145173Y2408322D01*
Y2427219D01*
X3137941Y2444677D01*
X3124579Y2458039D01*
X3107121Y2465270D01*
D02*
G37*
G36*
X3554609Y1898681D02*
X3532729D01*
X3512514Y1890308D01*
X3497043Y1874836D01*
X3488669Y1854621D01*
Y1832741D01*
X3497043Y1812526D01*
X3512514Y1797055D01*
X3532729Y1788681D01*
X3554609D01*
X3574824Y1797055D01*
X3590296Y1812526D01*
X3598669Y1832741D01*
Y1854621D01*
X3590296Y1874836D01*
X3574824Y1890308D01*
X3554609Y1898681D01*
D02*
G37*
G36*
X407180Y1867360D02*
X385300D01*
X365085Y1858987D01*
X349613Y1843515D01*
X341240Y1823300D01*
Y1801420D01*
X349613Y1781205D01*
X365085Y1765734D01*
X385300Y1757360D01*
X407180D01*
X427395Y1765734D01*
X442867Y1781205D01*
X451240Y1801420D01*
Y1823300D01*
X442867Y1843515D01*
X427395Y1858987D01*
X407180Y1867360D01*
D02*
G37*
G36*
X3617740Y1543440D02*
X3595860D01*
X3575645Y1535067D01*
X3560173Y1519595D01*
X3551800Y1499380D01*
Y1477500D01*
X3560173Y1457285D01*
X3575645Y1441813D01*
X3595860Y1433440D01*
X3617740D01*
X3637955Y1441813D01*
X3653427Y1457285D01*
X3661800Y1477500D01*
Y1499380D01*
X3653427Y1519595D01*
X3637955Y1535067D01*
X3617740Y1543440D01*
D02*
G37*
G36*
X3351040Y1342780D02*
X3329160D01*
X3308945Y1334407D01*
X3293473Y1318935D01*
X3285100Y1298720D01*
Y1276840D01*
X3293473Y1256625D01*
X3308945Y1241153D01*
X3329160Y1232780D01*
X3351040D01*
X3371255Y1241153D01*
X3386727Y1256625D01*
X3395100Y1276840D01*
Y1298720D01*
X3386727Y1318935D01*
X3371255Y1334407D01*
X3351040Y1342780D01*
D02*
G37*
G36*
X3794320Y1192920D02*
X3772440D01*
X3752225Y1184547D01*
X3736754Y1169075D01*
X3728380Y1148860D01*
Y1126980D01*
X3736754Y1106765D01*
X3752225Y1091293D01*
X3772440Y1082920D01*
X3794320D01*
X3814535Y1091293D01*
X3830007Y1106765D01*
X3838380Y1126980D01*
Y1148860D01*
X3830007Y1169075D01*
X3814535Y1184547D01*
X3794320Y1192920D01*
D02*
G37*
G36*
X1409634Y1768941D02*
X1348247D01*
X1287615Y1759338D01*
X1229232Y1740368D01*
X1174536Y1712498D01*
X1124873Y1676416D01*
X1081465Y1633009D01*
X1045383Y1583345D01*
X1017513Y1528649D01*
X998544Y1470266D01*
X988941Y1409634D01*
Y1348247D01*
X998544Y1287615D01*
X1017513Y1229232D01*
X1045383Y1174536D01*
X1081465Y1124873D01*
X1124873Y1081465D01*
X1174536Y1045383D01*
X1229232Y1017513D01*
X1287615Y998544D01*
X1348247Y988941D01*
X1409634D01*
X1470266Y998544D01*
X1528649Y1017513D01*
X1583345Y1045383D01*
X1633009Y1081465D01*
X1676416Y1124873D01*
X1712498Y1174536D01*
X1740368Y1229232D01*
X1759338Y1287615D01*
X1768941Y1348247D01*
Y1409634D01*
X1759338Y1470266D01*
X1740368Y1528649D01*
X1712498Y1583345D01*
X1676416Y1633009D01*
X1633009Y1676416D01*
X1583345Y1712498D01*
X1528649Y1740368D01*
X1470266Y1759338D01*
X1409634Y1768941D01*
D02*
G37*
G36*
X3775654Y1005133D02*
X3753774D01*
X3733559Y996759D01*
X3718087Y981288D01*
X3709714Y961073D01*
Y939193D01*
X3718087Y918978D01*
X3733559Y903506D01*
X3753774Y895133D01*
X3775654D01*
X3795868Y903506D01*
X3811340Y918978D01*
X3819713Y939193D01*
Y961073D01*
X3811340Y981288D01*
X3795868Y996759D01*
X3775654Y1005133D01*
D02*
G37*
G36*
X4530735Y879365D02*
X4508855D01*
X4488640Y870991D01*
X4473169Y855520D01*
X4464795Y835305D01*
Y813425D01*
X4473169Y793210D01*
X4488640Y777738D01*
X4508855Y769365D01*
X4530735D01*
X4550950Y777738D01*
X4566422Y793210D01*
X4574795Y813425D01*
Y835305D01*
X4566422Y855520D01*
X4550950Y870991D01*
X4530735Y879365D01*
D02*
G37*
G36*
X2692200Y871679D02*
Y755000D01*
X2755551D01*
Y797300D01*
X2752959Y816984D01*
X2745362Y835325D01*
X2733276Y851076D01*
X2717525Y863162D01*
X2699184Y870759D01*
X2692200Y871679D01*
D02*
G37*
G36*
X2666800Y871679D02*
X2659817Y870759D01*
X2641475Y863162D01*
X2625724Y851076D01*
X2613638Y835325D01*
X2606041Y816984D01*
X2603449Y797300D01*
Y755000D01*
X2666800D01*
Y871679D01*
D02*
G37*
G36*
X3556200D02*
Y755000D01*
X3619551D01*
Y797300D01*
X3616959Y816984D01*
X3609362Y835325D01*
X3597276Y851076D01*
X3581525Y863162D01*
X3563183Y870759D01*
X3556200Y871679D01*
D02*
G37*
G36*
X3530800Y871679D02*
X3523816Y870759D01*
X3505475Y863162D01*
X3489724Y851076D01*
X3477638Y835325D01*
X3470041Y816984D01*
X3467449Y797300D01*
Y755000D01*
X3530800D01*
Y871679D01*
D02*
G37*
G36*
X2834932Y754800D02*
X2810068D01*
X2787097Y745285D01*
X2769515Y727704D01*
X2768251Y724651D01*
X2755551Y727177D01*
Y729600D01*
X2692200D01*
Y612921D01*
X2699184Y613841D01*
X2717525Y621438D01*
X2733276Y633524D01*
X2745362Y649275D01*
X2752144Y665648D01*
X2758340Y667075D01*
X2765602Y666345D01*
X2769515Y656897D01*
X2787097Y639315D01*
X2810068Y629800D01*
X2834932D01*
X2857904Y639315D01*
X2875485Y656897D01*
X2885000Y679868D01*
Y704732D01*
X2875485Y727704D01*
X2857904Y745285D01*
X2834932Y754800D01*
D02*
G37*
G36*
X3619551Y729600D02*
X3556200D01*
Y612921D01*
X3563183Y613841D01*
X3581525Y621438D01*
X3597276Y633524D01*
X3609362Y649275D01*
X3616959Y667616D01*
X3619551Y687300D01*
Y729600D01*
D02*
G37*
G36*
X2666800Y729600D02*
X2603449D01*
Y687300D01*
X2606041Y667616D01*
X2613638Y649275D01*
X2625724Y633524D01*
X2641475Y621438D01*
X2659817Y613841D01*
X2666800Y612921D01*
Y729600D01*
D02*
G37*
G36*
X3412932Y754800D02*
X3388068D01*
X3365096Y745285D01*
X3347515Y727704D01*
X3338000Y704732D01*
Y679868D01*
X3347515Y656897D01*
X3365096Y639315D01*
X3388068Y629800D01*
X3412932D01*
X3435903Y639315D01*
X3453485Y656897D01*
X3457398Y666345D01*
X3464660Y667075D01*
X3470856Y665648D01*
X3477638Y649275D01*
X3489724Y633524D01*
X3505475Y621438D01*
X3523816Y613841D01*
X3530800Y612921D01*
Y729600D01*
X3467449D01*
Y727177D01*
X3454749Y724651D01*
X3453485Y727704D01*
X3435903Y745285D01*
X3412932Y754800D01*
D02*
G37*
G36*
X3095729Y728701D02*
X3076833D01*
X3059374Y721469D01*
X3046012Y708108D01*
X3038781Y690649D01*
Y671753D01*
X3046012Y654295D01*
X3059374Y640933D01*
X3076833Y633701D01*
X3095729D01*
X3106856Y638310D01*
X3112050Y633117D01*
X3118740Y628646D01*
X3126633Y627076D01*
X3152655D01*
X3156073Y618823D01*
X3169435Y605461D01*
X3186893Y598230D01*
X3205790D01*
X3223248Y605461D01*
X3236610Y618823D01*
X3243841Y636281D01*
Y655178D01*
X3236610Y672636D01*
X3223248Y685998D01*
X3205790Y693229D01*
X3186893D01*
X3169435Y685998D01*
X3156073Y672636D01*
X3154287Y668324D01*
X3145514D01*
X3133781Y671753D01*
Y690649D01*
X3126549Y708108D01*
X3113187Y721469D01*
X3095729Y728701D01*
D02*
G37*
G36*
X2692200Y438679D02*
Y337000D01*
X2755551D01*
Y364300D01*
X2752959Y383983D01*
X2745362Y402325D01*
X2733276Y418076D01*
X2717525Y430162D01*
X2699184Y437759D01*
X2692200Y438679D01*
D02*
G37*
G36*
X2666800Y438679D02*
X2659817Y437759D01*
X2641475Y430162D01*
X2625724Y418076D01*
X2613638Y402325D01*
X2606041Y383983D01*
X2603449Y364300D01*
Y337000D01*
X2666800D01*
Y438679D01*
D02*
G37*
G36*
X3556200D02*
Y337000D01*
X3619551D01*
Y364300D01*
X3616959Y383983D01*
X3609362Y402325D01*
X3597276Y418076D01*
X3581525Y430162D01*
X3563183Y437759D01*
X3556200Y438679D01*
D02*
G37*
G36*
X3530800Y438679D02*
X3523816Y437759D01*
X3505475Y430162D01*
X3489724Y418076D01*
X3477638Y402325D01*
X3470041Y383983D01*
X3467449Y364300D01*
Y337000D01*
X3530800D01*
Y438679D01*
D02*
G37*
G36*
X5781826Y961900D02*
X5724374D01*
X5667629Y952913D01*
X5612989Y935159D01*
X5561798Y909076D01*
X5515318Y875307D01*
X5474693Y834682D01*
X5440924Y788202D01*
X5414841Y737011D01*
X5397087Y682371D01*
X5388100Y625626D01*
Y568174D01*
X5397087Y511429D01*
X5414841Y456789D01*
X5440924Y405598D01*
X5474693Y359118D01*
X5515318Y318493D01*
X5561798Y284724D01*
X5612989Y258641D01*
X5667629Y240887D01*
X5724374Y231900D01*
X5781826D01*
X5838571Y240887D01*
X5893211Y258641D01*
X5944402Y284724D01*
X5990882Y318493D01*
X6031507Y359118D01*
X6065276Y405598D01*
X6091359Y456789D01*
X6109113Y511429D01*
X6118100Y568174D01*
Y625626D01*
X6109113Y682371D01*
X6091359Y737011D01*
X6065276Y788202D01*
X6031507Y834682D01*
X5990882Y875307D01*
X5944402Y909076D01*
X5893211Y935159D01*
X5838571Y952913D01*
X5781826Y961900D01*
D02*
G37*
G36*
X625626D02*
X568174D01*
X511429Y952913D01*
X456789Y935159D01*
X405598Y909076D01*
X359118Y875307D01*
X318493Y834682D01*
X284724Y788202D01*
X258641Y737011D01*
X240887Y682371D01*
X231900Y625626D01*
Y568174D01*
X240887Y511429D01*
X258641Y456789D01*
X284724Y405598D01*
X318493Y359118D01*
X359118Y318493D01*
X405598Y284724D01*
X456789Y258641D01*
X511429Y240887D01*
X568174Y231900D01*
X625626D01*
X682371Y240887D01*
X737011Y258641D01*
X788202Y284724D01*
X834682Y318493D01*
X875307Y359118D01*
X909076Y405598D01*
X935159Y456789D01*
X952913Y511429D01*
X961900Y568174D01*
Y625626D01*
X952913Y682371D01*
X935159Y737011D01*
X909076Y788202D01*
X875307Y834682D01*
X834682Y875307D01*
X788202Y909076D01*
X737011Y935159D01*
X682371Y952913D01*
X625626Y961900D01*
D02*
G37*
G36*
X3619551Y311600D02*
X3556200D01*
Y209922D01*
X3563183Y210841D01*
X3581525Y218438D01*
X3597276Y230524D01*
X3609362Y246275D01*
X3616959Y264617D01*
X3619551Y284300D01*
Y311600D01*
D02*
G37*
G36*
X2666800Y311600D02*
X2603449D01*
Y284300D01*
X2606041Y264617D01*
X2613638Y246275D01*
X2625724Y230524D01*
X2641475Y218438D01*
X2659817Y210841D01*
X2666800Y209922D01*
Y311600D01*
D02*
G37*
G36*
X2755551D02*
X2692200D01*
Y209921D01*
X2699184Y210841D01*
X2717525Y218438D01*
X2733276Y230524D01*
X2745362Y246275D01*
X2752959Y264617D01*
X2755551Y284300D01*
Y311600D01*
D02*
G37*
G36*
X3530800Y311600D02*
X3467449D01*
Y284300D01*
X3470041Y264617D01*
X3477638Y246275D01*
X3489724Y230524D01*
X3505475Y218438D01*
X3523816Y210841D01*
X3530800Y209921D01*
Y311600D01*
D02*
G37*
%LPD*%
D15*
X5261400Y2540000D02*
D03*
D16*
Y2794000D02*
D03*
Y3048000D02*
D03*
Y3302000D02*
D03*
Y3556000D02*
D03*
Y3810000D02*
D03*
X5965400D02*
D03*
Y3556000D02*
D03*
Y3302000D02*
D03*
Y3048000D02*
D03*
Y2794000D02*
D03*
Y2540000D02*
D03*
D49*
X3378200Y4216400D02*
X3954780Y4792980D01*
X4104640D01*
D50*
X3259781Y3766935D02*
X3832025Y3194691D01*
X4350716Y3243884D02*
X4439616D01*
X4419239Y3194691D02*
X4518604Y3095327D01*
X4252329Y3342271D02*
X4459611D01*
X3444498Y3721358D02*
X3872778Y3293077D01*
X4301523D02*
X4481797D01*
X3832025Y3194691D02*
X4399909D01*
X4439616Y3243884D02*
X4538980Y3144520D01*
X3872778Y3293077D02*
X4301523D01*
X3332942Y3763344D02*
X3852402Y3243884D01*
X4481797Y3293077D02*
X4644617Y3455897D01*
X3893155Y3342271D02*
X4252329D01*
X4459611D02*
X4622540Y3505200D01*
X3852402Y3243884D02*
X4350716D01*
X3529779Y3705646D02*
X3893155Y3342271D01*
X4399909Y3194691D02*
X4419239D01*
X3255624Y3799803D02*
X3259781Y3795646D01*
X3332942Y3763344D02*
Y3783572D01*
X3259781Y3766935D02*
Y3795646D01*
X3329867Y3786647D02*
X3332942Y3783572D01*
X4870891Y3455897D02*
X4902200Y3487206D01*
Y3538220D01*
X4644617Y3455897D02*
X4870891D01*
X4902200Y3538220D02*
X4919980Y3556000D01*
X5261400D01*
X4812310Y3505200D02*
X4852391Y3545281D01*
Y3681278D01*
X4622540Y3505200D02*
X4812310D01*
X4852391Y3681278D02*
X4981113Y3810000D01*
X5261400D01*
X5258860Y2537460D02*
X5261400Y2540000D01*
X4871720Y2537460D02*
X5258860D01*
X4781887Y2627293D02*
Y2929553D01*
Y2627293D02*
X4871720Y2537460D01*
X4831080Y2842260D02*
X4879340Y2794000D01*
X4831080Y2842260D02*
Y2965113D01*
X4879340Y2794000D02*
X5261400D01*
X4765040Y2946400D02*
X4781887Y2929553D01*
X4668520Y2946400D02*
X4765040D01*
X4800600Y2995593D02*
X4831080Y2965113D01*
X2318203Y3247217D02*
X2391294Y3174126D01*
X1775460Y3507062D02*
X2015151Y3267371D01*
X2035305Y3247217D01*
X2318203D01*
X3403210Y3804138D02*
X3448071Y3848999D01*
X3529779Y3705646D02*
Y3742241D01*
X3448071Y3848999D02*
X3509543D01*
X3444498Y3746758D02*
X3483242Y3785502D01*
X3546739Y3759201D02*
Y3811803D01*
X3444498Y3721358D02*
Y3746758D01*
X3529779Y3742241D02*
X3546739Y3759201D01*
X3509543Y3848999D02*
X3546739Y3811803D01*
X4688896Y2995593D02*
X4800600D01*
X4519593Y3095327D02*
X4668520Y2946400D01*
X4539970Y3144520D02*
X4688896Y2995593D01*
X4538980Y3144520D02*
X4539970D01*
X4518604Y3095327D02*
X4519593D01*
X1709994Y3370006D02*
X1750060Y3329940D01*
X1709994Y3370006D02*
Y3665564D01*
X1775460Y3507062D02*
Y3674863D01*
X1817922Y3717326D01*
D51*
X3070211Y2412117D02*
X3092020D01*
X3022678Y2364585D02*
X3070211Y2412117D01*
X3092020D02*
X3097673Y2417770D01*
X3081315Y2318866D02*
Y2337481D01*
X3086968Y2343135D01*
X2930114Y2167666D02*
X3081315Y2318866D01*
X2730199Y2051808D02*
X2783571Y2105180D01*
X2730199Y2044820D02*
Y2051808D01*
X3022678Y2321684D02*
Y2364585D01*
X2806174Y2105180D02*
X3022678Y2321684D01*
X2783571Y2105180D02*
X2806174D01*
X2808158Y2045710D02*
X2930114Y2167666D01*
X2808158Y2044027D02*
Y2045710D01*
X3126633Y647700D02*
X3194371D01*
X3196342Y645729D01*
X3093132Y681201D02*
X3126633Y647700D01*
X3086281Y681201D02*
X3093132D01*
D52*
X3111500Y1657350D02*
Y1767350D01*
Y1547350D02*
Y1657350D01*
X3001500D02*
X3111500D01*
X3221500D01*
X3111500D02*
X3221500Y1767350D01*
X3001500Y1547350D02*
X3111500Y1657350D01*
X3221500Y1547350D01*
X3001500Y1767350D02*
X3111500Y1657350D01*
D53*
X3035668Y4083218D02*
X3925035Y4972585D01*
X3035668Y3954412D02*
Y4083218D01*
X3731260Y3223260D02*
X3809026Y3145494D01*
X4182085D02*
X4243253Y3084326D01*
X3809026Y3145494D02*
X4182085D01*
X4243253Y3064447D02*
Y3084326D01*
Y3064447D02*
X4247806Y3059893D01*
X3654534Y3215966D02*
X3696174D01*
X3703468Y3223260D02*
X3731260D01*
X3649980Y3211412D02*
X3654534Y3215966D01*
X3696174D02*
X3703468Y3223260D01*
X2454794Y3382852D02*
X2498881Y3426939D01*
X2454794Y3147824D02*
Y3382852D01*
X2417596Y3110626D02*
X2454794Y3147824D01*
X2364991Y3110626D02*
X2417596D01*
X2327794Y3147824D02*
X2364991Y3110626D01*
X2327794Y3147824D02*
Y3173846D01*
X2301240Y3200400D02*
X2327794Y3173846D01*
X1993900Y3200400D02*
X2301240D01*
X1892300Y3098800D02*
X1993900Y3200400D01*
X1550200Y3098800D02*
X1892300D01*
D58*
X3268980Y4107180D02*
X3378200Y4216400D01*
X3268980Y3934460D02*
Y4107180D01*
D59*
X1378941Y1378941D02*
D03*
X4971059Y4971059D02*
D03*
D60*
X5753100Y596900D02*
D03*
Y5753100D02*
D03*
X596900D02*
D03*
Y596900D02*
D03*
D61*
X1550200Y3098800D02*
D03*
Y3352800D02*
D03*
X4799800Y3098800D02*
D03*
Y3352800D02*
D03*
D62*
X2679500Y324300D02*
D03*
X3543500D02*
D03*
D63*
Y742300D02*
D03*
X2679500D02*
D03*
D64*
X3925035Y4972585D02*
D03*
X4104640Y4792980D02*
D03*
X4284245Y4613375D02*
D03*
D65*
X4463850Y4433770D02*
D03*
D66*
X6060005Y5460004D02*
D03*
X6160005Y5260004D02*
D03*
X6060005Y5060004D02*
D03*
X6160005Y4860004D02*
D03*
X6060005Y4660004D02*
D03*
X6160005Y4460004D02*
D03*
X6060005Y4260004D02*
D03*
X6160005Y4060004D02*
D03*
Y3660003D02*
D03*
X6060005Y3460003D02*
D03*
Y2660003D02*
D03*
Y2260003D02*
D03*
X6160005Y2060002D02*
D03*
X6060005Y1860002D02*
D03*
X6160005Y1660002D02*
D03*
X6060005Y1460002D02*
D03*
X6160005Y1260002D02*
D03*
X6060005Y1060002D02*
D03*
X6160005Y860002D02*
D03*
Y460002D02*
D03*
X5960005Y5260004D02*
D03*
X5860005Y5060004D02*
D03*
X5960005Y4860004D02*
D03*
X5860005Y4660004D02*
D03*
X5960005Y4460004D02*
D03*
X5860005Y4260004D02*
D03*
X5960005Y4060004D02*
D03*
X5860005Y3460003D02*
D03*
Y2660003D02*
D03*
Y2260003D02*
D03*
X5960005Y2060002D02*
D03*
X5860005Y1860002D02*
D03*
X5960005Y1660002D02*
D03*
X5860005Y1460002D02*
D03*
X5960005Y1260002D02*
D03*
X5860005Y1060002D02*
D03*
X5760004Y5260004D02*
D03*
X5660004Y5060004D02*
D03*
X5760004Y4860004D02*
D03*
X5660004Y4660004D02*
D03*
X5760004Y4460004D02*
D03*
X5660004Y4260004D02*
D03*
X5760004Y4060004D02*
D03*
X5660004Y3860003D02*
D03*
X5760004Y3660003D02*
D03*
X5660004Y3460003D02*
D03*
Y3060003D02*
D03*
Y2660003D02*
D03*
Y2260003D02*
D03*
X5760004Y2060002D02*
D03*
X5660004Y1860002D02*
D03*
X5760004Y1660002D02*
D03*
X5660004Y1460002D02*
D03*
X5760004Y1260002D02*
D03*
X5660004Y1060002D02*
D03*
X5560004Y5260004D02*
D03*
X5460004Y5060004D02*
D03*
X5560004Y4860004D02*
D03*
X5460004Y4660004D02*
D03*
X5560004Y4460004D02*
D03*
X5460004Y4260004D02*
D03*
X5560004Y4060004D02*
D03*
Y3660003D02*
D03*
Y3260003D02*
D03*
X5460004Y2260003D02*
D03*
X5560004Y2060002D02*
D03*
X5460004Y1860002D02*
D03*
X5560004Y1660002D02*
D03*
X5460004Y1460002D02*
D03*
X5560004Y1260002D02*
D03*
X5460004Y1060002D02*
D03*
Y260002D02*
D03*
X5360004Y6060005D02*
D03*
X5260004Y5860005D02*
D03*
Y5460004D02*
D03*
X5360004Y5260004D02*
D03*
X5260004Y4660004D02*
D03*
X5360004Y4460004D02*
D03*
X5260004Y4260004D02*
D03*
X5360004Y4060004D02*
D03*
X5260004Y2660003D02*
D03*
Y2260003D02*
D03*
X5360004Y2060002D02*
D03*
X5260004Y1860002D02*
D03*
X5360004Y1660002D02*
D03*
Y1260002D02*
D03*
X5260004Y1060002D02*
D03*
X5360004Y860002D02*
D03*
X5260004Y660002D02*
D03*
Y260002D02*
D03*
X5160004Y6060005D02*
D03*
X5060004Y5860005D02*
D03*
X5160004Y5660004D02*
D03*
X5060004Y5460004D02*
D03*
X5160004Y4460004D02*
D03*
X5060004Y4260004D02*
D03*
X5160004Y4060004D02*
D03*
X5060004Y2660003D02*
D03*
Y2260003D02*
D03*
X5160004Y2060002D02*
D03*
Y1260002D02*
D03*
X5060004Y1060002D02*
D03*
X5160004Y860002D02*
D03*
X5060004Y660002D02*
D03*
X5160004Y460002D02*
D03*
X5060004Y260002D02*
D03*
X4960004Y6060005D02*
D03*
X4860004Y5860005D02*
D03*
X4960004Y5660004D02*
D03*
X4860004Y5460004D02*
D03*
X4960004Y4460004D02*
D03*
X4860004Y4260004D02*
D03*
X4960004Y4060004D02*
D03*
Y3660003D02*
D03*
X4860004Y2660003D02*
D03*
Y2260003D02*
D03*
X4960004Y2060002D02*
D03*
X4860004Y1460002D02*
D03*
X4960004Y1260002D02*
D03*
X4860004Y1060002D02*
D03*
X4960004Y860002D02*
D03*
X4860004Y660002D02*
D03*
X4960004Y460002D02*
D03*
X4860004Y260002D02*
D03*
X4760004Y6060005D02*
D03*
X4660004Y5860005D02*
D03*
X4760004Y5660004D02*
D03*
X4660004Y5460004D02*
D03*
Y4660004D02*
D03*
X4760004Y4460004D02*
D03*
X4660004Y4260004D02*
D03*
X4760004Y4060004D02*
D03*
X4660004Y3860003D02*
D03*
X4760004Y3660003D02*
D03*
X4660004Y2260003D02*
D03*
Y1860002D02*
D03*
X4760004Y1660002D02*
D03*
X4660004Y1460002D02*
D03*
X4760004Y1260002D02*
D03*
Y860002D02*
D03*
X4660004Y660002D02*
D03*
X4760004Y460002D02*
D03*
X4660004Y260002D02*
D03*
X4560004Y6060005D02*
D03*
X4460004Y5860005D02*
D03*
X4560004Y5660004D02*
D03*
X4460004Y5460004D02*
D03*
X4560004Y5260004D02*
D03*
X4460004Y5060004D02*
D03*
X4560004Y4860004D02*
D03*
X4460004Y4660004D02*
D03*
Y4260004D02*
D03*
X4560004Y4060004D02*
D03*
X4460004Y3860003D02*
D03*
X4560004Y3660003D02*
D03*
X4460004Y3460003D02*
D03*
X4560004Y3260003D02*
D03*
X4460004Y2660003D02*
D03*
X4560004Y2460003D02*
D03*
X4460004Y2260003D02*
D03*
Y1860002D02*
D03*
X4560004Y1660002D02*
D03*
X4460004Y660002D02*
D03*
X4560004Y460002D02*
D03*
X4460004Y260002D02*
D03*
X4360004Y6060005D02*
D03*
X4260004Y5860005D02*
D03*
X4360004Y5660004D02*
D03*
X4260004Y5460004D02*
D03*
X4360004Y5260004D02*
D03*
X4260004Y5060004D02*
D03*
X4360004Y4860004D02*
D03*
X4260004Y4260004D02*
D03*
X4360004Y4060004D02*
D03*
X4260004Y3860003D02*
D03*
X4360004Y3660003D02*
D03*
X4260004Y3460003D02*
D03*
Y2660003D02*
D03*
X4360004Y2460003D02*
D03*
X4260004Y2260003D02*
D03*
Y1860002D02*
D03*
X4360004Y1660002D02*
D03*
X4260004Y1060002D02*
D03*
Y660002D02*
D03*
X4360004Y460002D02*
D03*
X4260004Y260002D02*
D03*
X4160004Y6060005D02*
D03*
X4060004Y5860005D02*
D03*
X4160004Y5660004D02*
D03*
X4060004Y5460004D02*
D03*
X4160004Y5260004D02*
D03*
X4060004Y5060004D02*
D03*
Y4660004D02*
D03*
X4160004Y4460004D02*
D03*
X4060004Y4260004D02*
D03*
Y2260003D02*
D03*
X4160004Y1260002D02*
D03*
Y860002D02*
D03*
X4060004Y660002D02*
D03*
X4160004Y460002D02*
D03*
X4060004Y260002D02*
D03*
X3960004Y6060005D02*
D03*
X3860003Y5860005D02*
D03*
X3960004Y5660004D02*
D03*
X3860003Y5460004D02*
D03*
X3960004Y5260004D02*
D03*
Y4460004D02*
D03*
X3860003Y3860003D02*
D03*
X3960004Y3660003D02*
D03*
X3860003Y2260003D02*
D03*
Y660002D02*
D03*
X3960004Y460002D02*
D03*
X3860003Y260002D02*
D03*
X3660003Y5460004D02*
D03*
Y4260004D02*
D03*
X3760003Y2860003D02*
D03*
Y2460003D02*
D03*
Y1260002D02*
D03*
Y860002D02*
D03*
Y460002D02*
D03*
X3660003Y260002D02*
D03*
X3560003Y6060005D02*
D03*
X3460003Y5860005D02*
D03*
X3560003Y5660004D02*
D03*
X3460003Y5460004D02*
D03*
X3560003Y4860004D02*
D03*
X3460003Y3060003D02*
D03*
X3360003Y6060005D02*
D03*
X3260003Y5860005D02*
D03*
X3360003Y5660004D02*
D03*
X3260003Y5460004D02*
D03*
X3360003Y5260004D02*
D03*
X3260003Y4660004D02*
D03*
Y3460003D02*
D03*
X3360003Y3260003D02*
D03*
X3260003Y3060003D02*
D03*
X3360003Y460002D02*
D03*
X3260003Y260002D02*
D03*
X3160003Y6060005D02*
D03*
X3060003Y5860005D02*
D03*
X3160003Y5660004D02*
D03*
X3060003Y5460004D02*
D03*
X3160003Y5260004D02*
D03*
X3060003Y4660004D02*
D03*
X3160003Y4460004D02*
D03*
X3060003Y3860003D02*
D03*
Y3460003D02*
D03*
X3160003Y3260003D02*
D03*
X3060003Y3060003D02*
D03*
X3160003Y2860003D02*
D03*
X3060003Y2660003D02*
D03*
X3160003Y460002D02*
D03*
X3060003Y260002D02*
D03*
X2960003Y6060005D02*
D03*
X2860003Y5860005D02*
D03*
X2960003Y5660004D02*
D03*
X2860003Y5460004D02*
D03*
Y5060004D02*
D03*
X2960003Y3660003D02*
D03*
X2860003Y3460003D02*
D03*
X2960003Y3260003D02*
D03*
X2860003Y3060003D02*
D03*
X2960003Y2860003D02*
D03*
Y460002D02*
D03*
X2860003Y260002D02*
D03*
X2760003Y6060005D02*
D03*
X2660003Y5860005D02*
D03*
X2760003Y5660004D02*
D03*
X2660003Y5460004D02*
D03*
X2760003Y4860004D02*
D03*
Y3260003D02*
D03*
X2660003Y3060003D02*
D03*
X2760003Y2860003D02*
D03*
Y1260002D02*
D03*
Y460002D02*
D03*
X2560003Y6060005D02*
D03*
X2460003Y5860005D02*
D03*
X2560003Y5660004D02*
D03*
X2460003Y5460004D02*
D03*
X2560003Y4060004D02*
D03*
X2460003Y3860003D02*
D03*
Y2260003D02*
D03*
X2560003Y2060002D02*
D03*
Y1260002D02*
D03*
X2460003Y1060002D02*
D03*
Y660002D02*
D03*
X2560003Y460002D02*
D03*
X2460003Y260002D02*
D03*
X2360003Y6060005D02*
D03*
X2260003Y5860005D02*
D03*
X2360003Y5660004D02*
D03*
X2260003Y5460004D02*
D03*
Y5060004D02*
D03*
Y4260004D02*
D03*
X2360003Y4060004D02*
D03*
Y1660002D02*
D03*
X2260003Y1060002D02*
D03*
X2360003Y860002D02*
D03*
X2260003Y660002D02*
D03*
X2360003Y460002D02*
D03*
X2260003Y260002D02*
D03*
X2160003Y6060005D02*
D03*
X2060002Y5860005D02*
D03*
X2160003Y5660004D02*
D03*
X2060002Y5460004D02*
D03*
X2160003Y5260004D02*
D03*
X2060002Y5060004D02*
D03*
Y4660004D02*
D03*
X2160003Y4460004D02*
D03*
X2060002Y3060003D02*
D03*
X2160003Y2860003D02*
D03*
X2060002Y2660003D02*
D03*
X2160003Y2460003D02*
D03*
X2060002Y1460002D02*
D03*
Y1060002D02*
D03*
X2160003Y860002D02*
D03*
X2060002Y660002D02*
D03*
X2160003Y460002D02*
D03*
X2060002Y260002D02*
D03*
X1960002Y6060005D02*
D03*
X1860002Y5860005D02*
D03*
X1960002Y5660004D02*
D03*
X1860002Y5460004D02*
D03*
X1960002Y5260004D02*
D03*
X1860002Y5060004D02*
D03*
X1960002Y4860004D02*
D03*
Y4460004D02*
D03*
X1860002Y2660003D02*
D03*
X1960002Y2460003D02*
D03*
Y2060002D02*
D03*
X1860002Y1860002D02*
D03*
X1960002Y1260002D02*
D03*
X1860002Y1060002D02*
D03*
X1960002Y860002D02*
D03*
X1860002Y660002D02*
D03*
X1960002Y460002D02*
D03*
X1860002Y260002D02*
D03*
X1760002Y6060005D02*
D03*
X1660002Y5860005D02*
D03*
X1760002Y5660004D02*
D03*
X1660002Y5460004D02*
D03*
X1760002Y5260004D02*
D03*
X1660002Y5060004D02*
D03*
X1760002Y4860004D02*
D03*
X1660002Y4260004D02*
D03*
X1760002Y2860003D02*
D03*
X1660002Y1860002D02*
D03*
Y1060002D02*
D03*
X1760002Y860002D02*
D03*
X1660002Y660002D02*
D03*
X1760002Y460002D02*
D03*
X1660002Y260002D02*
D03*
X1560002Y6060005D02*
D03*
X1460002Y5860005D02*
D03*
X1560002Y5660004D02*
D03*
X1460002Y5460004D02*
D03*
X1560002Y5260004D02*
D03*
Y4060004D02*
D03*
X1460002Y3860003D02*
D03*
Y3460003D02*
D03*
X1560002Y2860003D02*
D03*
X1460002Y2660003D02*
D03*
X1560002Y860002D02*
D03*
X1460002Y660002D02*
D03*
X1560002Y460002D02*
D03*
X1460002Y260002D02*
D03*
X1360002Y6060005D02*
D03*
X1260002Y5860005D02*
D03*
X1360002Y5660004D02*
D03*
X1260002Y5460004D02*
D03*
X1360002Y5260004D02*
D03*
X1260002Y5060004D02*
D03*
X1360002Y4060004D02*
D03*
X1260002Y3460003D02*
D03*
X1360002Y3260003D02*
D03*
X1260002Y3060003D02*
D03*
X1360002Y2860003D02*
D03*
X1260002Y1860002D02*
D03*
X1360002Y860002D02*
D03*
X1260002Y660002D02*
D03*
X1360002Y460002D02*
D03*
X1260002Y260002D02*
D03*
X1160002Y6060005D02*
D03*
X1060002Y5860005D02*
D03*
X1160002Y5660004D02*
D03*
X1060002Y5460004D02*
D03*
X1160002Y5260004D02*
D03*
X1060002Y5060004D02*
D03*
Y4260004D02*
D03*
Y3860003D02*
D03*
X1160002Y3660003D02*
D03*
X1060002Y3460003D02*
D03*
X1160002Y3260003D02*
D03*
X1060002Y3060003D02*
D03*
X1160002Y2860003D02*
D03*
X1060002Y2660003D02*
D03*
Y2260003D02*
D03*
X1160002Y2060002D02*
D03*
X1060002Y1860002D02*
D03*
Y1060002D02*
D03*
X1160002Y860002D02*
D03*
X1060002Y660002D02*
D03*
X1160002Y460002D02*
D03*
X1060002Y260002D02*
D03*
X960002Y6060005D02*
D03*
Y5260004D02*
D03*
X860002Y5060004D02*
D03*
X960002Y4860004D02*
D03*
X860002Y3860003D02*
D03*
X960002Y3660003D02*
D03*
X860002Y3460003D02*
D03*
X960002Y3260003D02*
D03*
X860002Y3060003D02*
D03*
X960002Y2860003D02*
D03*
X860002Y2660003D02*
D03*
X960002Y2460003D02*
D03*
Y2060002D02*
D03*
X860002Y1860002D02*
D03*
X960002Y1660002D02*
D03*
X860002Y1460002D02*
D03*
X960002Y1260002D02*
D03*
X860002Y1060002D02*
D03*
X960002Y860002D02*
D03*
X860002Y260002D02*
D03*
X760002Y5260004D02*
D03*
X660002Y5060004D02*
D03*
X760002Y4860004D02*
D03*
X660002Y4660004D02*
D03*
Y4260004D02*
D03*
X760002Y4060004D02*
D03*
X660002Y3860003D02*
D03*
X760002Y3660003D02*
D03*
X660002Y3460003D02*
D03*
X760002Y3260003D02*
D03*
X660002Y3060003D02*
D03*
X760002Y2860003D02*
D03*
X660002Y2660003D02*
D03*
X760002Y2460003D02*
D03*
X660002Y2260003D02*
D03*
X760002Y1660002D02*
D03*
Y1260002D02*
D03*
X660002Y1060002D02*
D03*
X560002Y5260004D02*
D03*
X460002Y5060004D02*
D03*
X560002Y4860004D02*
D03*
X460002Y4660004D02*
D03*
X560002Y4460004D02*
D03*
X460002Y4260004D02*
D03*
X560002Y4060004D02*
D03*
X460002Y3860003D02*
D03*
X560002Y3660003D02*
D03*
X460002Y3460003D02*
D03*
X560002Y3260003D02*
D03*
X460002Y3060003D02*
D03*
X560002Y2860003D02*
D03*
X460002Y2660003D02*
D03*
X560002Y2460003D02*
D03*
X460002Y2260003D02*
D03*
X560002Y2060002D02*
D03*
X460002Y1060002D02*
D03*
X260002Y5460004D02*
D03*
X360002Y5260004D02*
D03*
X260002Y5060004D02*
D03*
X360002Y4860004D02*
D03*
X260002Y4660004D02*
D03*
X360002Y4460004D02*
D03*
X260002Y4260004D02*
D03*
X360002Y4060004D02*
D03*
X260002Y3860003D02*
D03*
X360002Y3660003D02*
D03*
X260002Y3460003D02*
D03*
X360002Y3260003D02*
D03*
X260002Y3060003D02*
D03*
X360002Y2860003D02*
D03*
X260002Y2660003D02*
D03*
X360002Y2460003D02*
D03*
X260002Y2260003D02*
D03*
X360002Y2060002D02*
D03*
X260002Y1860002D02*
D03*
Y1460002D02*
D03*
Y1060002D02*
D03*
D67*
X396240Y1812360D02*
D03*
X637540Y1304260D02*
D03*
X396240D02*
D03*
X1165860Y2410460D02*
D03*
X1239520Y2473960D02*
D03*
X1386840Y2623820D02*
D03*
X1308100Y2545080D02*
D03*
X1231900Y2334260D02*
D03*
X1292860Y2260600D02*
D03*
X1216660Y2153920D02*
D03*
X1290320Y2067560D02*
D03*
X1608071Y2537978D02*
D03*
X1676400Y2476500D02*
D03*
X1785620Y2377440D02*
D03*
X1859280Y2319020D02*
D03*
X1932940Y2242820D02*
D03*
X2009140Y2164080D02*
D03*
X2087880Y2090420D02*
D03*
X2164080Y2021840D02*
D03*
X2230120Y1950720D02*
D03*
X2301240Y1879600D02*
D03*
X2420620Y1729740D02*
D03*
X2448560Y1630680D02*
D03*
X2517140Y1559560D02*
D03*
X2588260Y1498600D02*
D03*
X2524760Y1432560D02*
D03*
X2448560Y1356360D02*
D03*
X2316480Y1211580D02*
D03*
X2374900Y1282700D02*
D03*
X2255520Y1275080D02*
D03*
X2179320Y1341120D02*
D03*
X2110740Y1272540D02*
D03*
X2016760Y1343660D02*
D03*
X1930400Y1427480D02*
D03*
X1844040Y1506220D02*
D03*
X1762760Y1592580D02*
D03*
X1684020Y1678940D02*
D03*
X1600200Y1762760D02*
D03*
X1524000Y1833880D02*
D03*
X1445260Y1910080D02*
D03*
X1363980Y1986280D02*
D03*
X1457960Y2560320D02*
D03*
X1531620Y2496820D02*
D03*
X3973928Y3084894D02*
D03*
X3431500Y799800D02*
D03*
X2791500D02*
D03*
X3405303Y4339977D02*
D03*
X1320800Y4724400D02*
D03*
X3240711Y2144358D02*
D03*
X3422042Y2027921D02*
D03*
X3111500Y1267800D02*
D03*
X2693640Y1018100D02*
D03*
X3529779Y1018069D02*
D03*
X2894580Y4973320D02*
D03*
X3539653Y4205627D02*
D03*
X3878306Y4075885D02*
D03*
X3763779Y3962193D02*
D03*
X4345259Y2948576D02*
D03*
X3962707Y2586027D02*
D03*
X4076659Y2472870D02*
D03*
X4906587Y1748506D02*
D03*
X3708669Y1843681D02*
D03*
X4385445Y958715D02*
D03*
X3914714Y950133D02*
D03*
X3948380Y1137920D02*
D03*
X3966800Y1488440D02*
D03*
X2579235Y1761625D02*
D03*
X2602672Y2353060D02*
D03*
X2370906Y2588909D02*
D03*
X1682885Y2632575D02*
D03*
X2213164Y4062900D02*
D03*
X1577038Y3858563D02*
D03*
X2690995Y4517525D02*
D03*
X2553302Y4379624D02*
D03*
X1020193Y4562681D02*
D03*
X1357234Y4282297D02*
D03*
X1760835Y4701453D02*
D03*
X2872750Y5148350D02*
D03*
X3686250Y6133350D02*
D03*
Y5763350D02*
D03*
X3668750Y5160850D02*
D03*
X3340100Y1287780D02*
D03*
X4519795Y824365D02*
D03*
X3764714Y950133D02*
D03*
X3783380Y1137920D02*
D03*
X3606800Y1488440D02*
D03*
X3543669Y1843681D02*
D03*
X3556392Y2162271D02*
D03*
X2737022Y2218710D02*
D03*
X2236556Y2723259D02*
D03*
X2052803Y3447674D02*
D03*
X2556645Y4651875D02*
D03*
X2418952Y4513974D02*
D03*
X1621655Y4885824D02*
D03*
X1154544Y4428330D02*
D03*
X3084580Y4973320D02*
D03*
X4210909Y2814226D02*
D03*
X5261400Y3302000D02*
D03*
Y3048000D02*
D03*
X5965400Y3302000D02*
D03*
Y3048000D02*
D03*
Y3810000D02*
D03*
Y3556000D02*
D03*
Y2794000D02*
D03*
Y2540000D02*
D03*
D68*
X3086968Y2343135D02*
D03*
X3097673Y2417770D02*
D03*
X3649980Y3211412D02*
D03*
X4247806Y3059893D02*
D03*
X2498881Y3426939D02*
D03*
X3035668Y3954412D02*
D03*
X3268980Y3934460D02*
D03*
X3403210Y3804138D02*
D03*
X3329867Y3786647D02*
D03*
X3255624Y3799803D02*
D03*
X2730199Y2044820D02*
D03*
X3483242Y3785502D02*
D03*
X2808158Y2044027D02*
D03*
X3001500Y1547350D02*
D03*
Y1657350D02*
D03*
Y1767350D02*
D03*
X3111500Y1547350D02*
D03*
Y1657350D02*
D03*
Y1767350D02*
D03*
X3221500Y1547350D02*
D03*
Y1657350D02*
D03*
Y1767350D02*
D03*
X3196342Y645729D02*
D03*
X3086281Y681201D02*
D03*
X2391294Y3174126D02*
D03*
X1750060Y3329940D02*
D03*
X1709994Y3665564D02*
D03*
X1817922Y3717326D02*
D03*
%TF.MD5,39699527c6c28b488a2796123dd39dbb*%
M02*
