%TF.GenerationSoftware,Altium Limited,Altium Designer,24.2.2 (26)*%
G04 Layer_Physical_Order=1*
G04 Layer_Color=255*
%FSLAX45Y45*%
%MOMM*%
%TF.SameCoordinates,D31C6D6D-B6E9-44EC-8E0F-9CDDCF0E9FEB*%
%TF.FilePolarity,Positive*%
%TF.FileFunction,Copper,L1,Top,Signal*%
%TF.Part,Single*%
G01*
G75*
%TA.AperFunction,SMDPad,CuDef*%
%ADD10R,0.90000X0.85000*%
%ADD11R,0.80000X0.80000*%
%ADD12O,0.25000X1.00000*%
%ADD13O,1.00000X0.25000*%
%ADD14R,3.25000X3.25000*%
%ADD15R,4.50000X1.00000*%
%ADD16R,4.32000X1.00000*%
%ADD17P,1.69706X4X180.0*%
%ADD18P,1.69706X4X270.0*%
G04:AMPARAMS|DCode=19|XSize=0.25mm|YSize=0.75mm|CornerRadius=0mm|HoleSize=0mm|Usage=FLASHONLY|Rotation=135.000|XOffset=0mm|YOffset=0mm|HoleType=Round|Shape=Round|*
%AMOVALD19*
21,1,0.50000,0.25000,0.00000,0.00000,225.0*
1,1,0.25000,0.17678,0.17678*
1,1,0.25000,-0.17678,-0.17678*
%
%ADD19OVALD19*%

G04:AMPARAMS|DCode=20|XSize=0.25mm|YSize=0.75mm|CornerRadius=0mm|HoleSize=0mm|Usage=FLASHONLY|Rotation=45.000|XOffset=0mm|YOffset=0mm|HoleType=Round|Shape=Round|*
%AMOVALD20*
21,1,0.50000,0.25000,0.00000,0.00000,135.0*
1,1,0.25000,0.17678,-0.17678*
1,1,0.25000,-0.17678,0.17678*
%
%ADD20OVALD20*%

G04:AMPARAMS|DCode=21|XSize=0.21mm|YSize=0.6mm|CornerRadius=0mm|HoleSize=0mm|Usage=FLASHONLY|Rotation=135.000|XOffset=0mm|YOffset=0mm|HoleType=Round|Shape=Round|*
%AMOVALD21*
21,1,0.39000,0.21000,0.00000,0.00000,225.0*
1,1,0.21000,0.13788,0.13788*
1,1,0.21000,-0.13788,-0.13788*
%
%ADD21OVALD21*%

G04:AMPARAMS|DCode=22|XSize=0.21mm|YSize=0.6mm|CornerRadius=0mm|HoleSize=0mm|Usage=FLASHONLY|Rotation=45.000|XOffset=0mm|YOffset=0mm|HoleType=Round|Shape=Round|*
%AMOVALD22*
21,1,0.39000,0.21000,0.00000,0.00000,135.0*
1,1,0.21000,0.13788,-0.13788*
1,1,0.21000,-0.13788,0.13788*
%
%ADD22OVALD22*%

G04:AMPARAMS|DCode=23|XSize=1.73mm|YSize=1.57mm|CornerRadius=0mm|HoleSize=0mm|Usage=FLASHONLY|Rotation=45.000|XOffset=0mm|YOffset=0mm|HoleType=Round|Shape=Rectangle|*
%AMROTATEDRECTD23*
4,1,4,-0.05657,-1.16673,-1.16673,-0.05657,0.05657,1.16673,1.16673,0.05657,-0.05657,-1.16673,0.0*
%
%ADD23ROTATEDRECTD23*%

G04:AMPARAMS|DCode=24|XSize=5.6mm|YSize=2.1mm|CornerRadius=0mm|HoleSize=0mm|Usage=FLASHONLY|Rotation=315.000|XOffset=0mm|YOffset=0mm|HoleType=Round|Shape=Rectangle|*
%AMROTATEDRECTD24*
4,1,4,-2.72236,1.23744,-1.23744,2.72236,2.72236,-1.23744,1.23744,-2.72236,-2.72236,1.23744,0.0*
%
%ADD24ROTATEDRECTD24*%

G04:AMPARAMS|DCode=25|XSize=1.475mm|YSize=0.3mm|CornerRadius=0mm|HoleSize=0mm|Usage=FLASHONLY|Rotation=135.000|XOffset=0mm|YOffset=0mm|HoleType=Round|Shape=Rectangle|*
%AMROTATEDRECTD25*
4,1,4,0.62756,-0.41543,0.41543,-0.62756,-0.62756,0.41543,-0.41543,0.62756,0.62756,-0.41543,0.0*
%
%ADD25ROTATEDRECTD25*%

G04:AMPARAMS|DCode=26|XSize=1.475mm|YSize=0.3mm|CornerRadius=0mm|HoleSize=0mm|Usage=FLASHONLY|Rotation=45.000|XOffset=0mm|YOffset=0mm|HoleType=Round|Shape=Rectangle|*
%AMROTATEDRECTD26*
4,1,4,-0.41543,-0.62756,-0.62756,-0.41543,0.41543,0.62756,0.62756,0.41543,-0.41543,-0.62756,0.0*
%
%ADD26ROTATEDRECTD26*%

%ADD27R,0.40000X0.50000*%
%ADD28R,0.85000X0.90000*%
%ADD29R,1.30000X1.50000*%
%ADD30R,1.05000X1.00000*%
%ADD31R,0.80000X1.00000*%
%ADD32R,0.60000X1.15000*%
%ADD33R,0.30000X1.15000*%
%ADD34R,2.60000X1.60000*%
G04:AMPARAMS|DCode=35|XSize=1.5mm|YSize=1.3mm|CornerRadius=0mm|HoleSize=0mm|Usage=FLASHONLY|Rotation=135.000|XOffset=0mm|YOffset=0mm|HoleType=Round|Shape=Rectangle|*
%AMROTATEDRECTD35*
4,1,4,0.98995,-0.07071,0.07071,-0.98995,-0.98995,0.07071,-0.07071,0.98995,0.98995,-0.07071,0.0*
%
%ADD35ROTATEDRECTD35*%

G04:AMPARAMS|DCode=36|XSize=0.5mm|YSize=0.35mm|CornerRadius=0mm|HoleSize=0mm|Usage=FLASHONLY|Rotation=135.000|XOffset=0mm|YOffset=0mm|HoleType=Round|Shape=Rectangle|*
%AMROTATEDRECTD36*
4,1,4,0.30052,-0.05303,0.05303,-0.30052,-0.30052,0.05303,-0.05303,0.30052,0.30052,-0.05303,0.0*
%
%ADD36ROTATEDRECTD36*%

G04:AMPARAMS|DCode=37|XSize=1.6mm|YSize=0.6mm|CornerRadius=0mm|HoleSize=0mm|Usage=FLASHONLY|Rotation=225.000|XOffset=0mm|YOffset=0mm|HoleType=Round|Shape=Round|*
%AMOVALD37*
21,1,1.00000,0.60000,0.00000,0.00000,225.0*
1,1,0.60000,0.35355,0.35355*
1,1,0.60000,-0.35355,-0.35355*
%
%ADD37OVALD37*%

%ADD38R,1.20000X1.20000*%
%ADD39R,1.90000X1.35000*%
%ADD40R,1.20000X1.00000*%
%ADD41R,1.55000X1.35000*%
%ADD42R,0.85000X1.10000*%
%ADD43R,0.75000X1.10000*%
%ADD44R,1.17000X1.80000*%
G04:AMPARAMS|DCode=45|XSize=0.9mm|YSize=0.85mm|CornerRadius=0mm|HoleSize=0mm|Usage=FLASHONLY|Rotation=315.000|XOffset=0mm|YOffset=0mm|HoleType=Round|Shape=Rectangle|*
%AMROTATEDRECTD45*
4,1,4,-0.61872,0.01768,-0.01768,0.61872,0.61872,-0.01768,0.01768,-0.61872,-0.61872,0.01768,0.0*
%
%ADD45ROTATEDRECTD45*%

G04:AMPARAMS|DCode=46|XSize=1mm|YSize=1.05mm|CornerRadius=0mm|HoleSize=0mm|Usage=FLASHONLY|Rotation=225.000|XOffset=0mm|YOffset=0mm|HoleType=Round|Shape=Rectangle|*
%AMROTATEDRECTD46*
4,1,4,-0.01768,0.72479,0.72479,-0.01768,0.01768,-0.72479,-0.72479,0.01768,-0.01768,0.72479,0.0*
%
%ADD46ROTATEDRECTD46*%

G04:AMPARAMS|DCode=47|XSize=1mm|YSize=1.05mm|CornerRadius=0mm|HoleSize=0mm|Usage=FLASHONLY|Rotation=135.000|XOffset=0mm|YOffset=0mm|HoleType=Round|Shape=Rectangle|*
%AMROTATEDRECTD47*
4,1,4,0.72479,0.01768,-0.01768,-0.72479,-0.72479,-0.01768,0.01768,0.72479,0.72479,0.01768,0.0*
%
%ADD47ROTATEDRECTD47*%

%TA.AperFunction,Conductor*%
%ADD48C,0.80000*%
%ADD49C,0.25400*%
%ADD50C,0.26193*%
%ADD51C,0.20455*%
%ADD52C,0.27000*%
%ADD53C,0.26200*%
%ADD54C,0.30000*%
%ADD55C,0.50000*%
%ADD56C,1.00000*%
%ADD57C,0.40000*%
%ADD58C,0.25000*%
%TA.AperFunction,ViaPad*%
%ADD59C,7.50000*%
%ADD60C,7.00000*%
%TA.AperFunction,ComponentPad*%
%ADD61C,1.40000*%
%ADD62O,1.00000X1.80000*%
%ADD63O,1.00000X2.10000*%
%ADD64C,1.70000*%
%ADD65P,2.40416X4X180.0*%
%TA.AperFunction,ViaPad*%
%ADD66C,0.60000*%
%ADD67C,0.75000*%
%ADD68C,0.50000*%
G36*
X5981113Y6159500D02*
X5981368Y6158215D01*
X5984667Y6124724D01*
X5994811Y6091283D01*
X6011284Y6060465D01*
X6033452Y6033452D01*
X6060465Y6011284D01*
X6091283Y5994811D01*
X6124724Y5984667D01*
X6158215Y5981368D01*
X6159500Y5981113D01*
X6298613D01*
Y368887D01*
X6159500D01*
X6158215Y368632D01*
X6124724Y365333D01*
X6091283Y355189D01*
X6060465Y338716D01*
X6033452Y316547D01*
X6011284Y289535D01*
X5994811Y258717D01*
X5984667Y225276D01*
X5981368Y191785D01*
X5981113Y190500D01*
Y51387D01*
X368887D01*
Y190500D01*
X368632Y191785D01*
X365333Y225276D01*
X355189Y258717D01*
X338716Y289535D01*
X316547Y316547D01*
X289535Y338716D01*
X258717Y355189D01*
X225276Y365333D01*
X191785Y368632D01*
X190500Y368887D01*
X51387D01*
Y5981113D01*
X190500D01*
X191785Y5981368D01*
X225276Y5984667D01*
X258717Y5994811D01*
X289535Y6011284D01*
X316547Y6033452D01*
X338716Y6060465D01*
X355189Y6091283D01*
X365333Y6124724D01*
X368632Y6158215D01*
X368887Y6159500D01*
Y6298613D01*
X2634250D01*
Y6153350D01*
X2844250D01*
Y6298613D01*
X3231250D01*
Y6153350D01*
X3441250D01*
Y6298613D01*
X5981113D01*
Y6159500D01*
D02*
G37*
%LPC*%
G36*
X3771650Y6208750D02*
X3698950D01*
Y6146050D01*
X3771650D01*
Y6208750D01*
D02*
G37*
G36*
X3673550D02*
X3600850D01*
Y6146050D01*
X3673550D01*
Y6208750D01*
D02*
G37*
G36*
X3771650Y6120650D02*
X3698950D01*
Y6057950D01*
X3771650D01*
Y6120650D01*
D02*
G37*
G36*
X3673550D02*
X3600850D01*
Y6057950D01*
X3673550D01*
Y6120650D01*
D02*
G37*
G36*
X3771650Y5838750D02*
X3698950D01*
Y5776050D01*
X3771650D01*
Y5838750D01*
D02*
G37*
G36*
X3673550D02*
X3600850D01*
Y5776050D01*
X3673550D01*
Y5838750D01*
D02*
G37*
G36*
X3771650Y5750650D02*
X3698950D01*
Y5687950D01*
X3771650D01*
Y5750650D01*
D02*
G37*
G36*
X3673550D02*
X3600850D01*
Y5687950D01*
X3673550D01*
Y5750650D01*
D02*
G37*
G36*
X5781826Y6118100D02*
X5724374D01*
X5667629Y6109113D01*
X5612989Y6091359D01*
X5561798Y6065276D01*
X5515318Y6031507D01*
X5474693Y5990882D01*
X5440924Y5944402D01*
X5414841Y5893211D01*
X5397087Y5838571D01*
X5388100Y5781826D01*
Y5724374D01*
X5397087Y5667629D01*
X5414841Y5612989D01*
X5440924Y5561798D01*
X5474693Y5515318D01*
X5515318Y5474693D01*
X5561798Y5440924D01*
X5612989Y5414841D01*
X5667629Y5397087D01*
X5724374Y5388100D01*
X5781826D01*
X5838571Y5397087D01*
X5893211Y5414841D01*
X5944402Y5440924D01*
X5990882Y5474693D01*
X6031507Y5515318D01*
X6065276Y5561798D01*
X6091359Y5612989D01*
X6109113Y5667629D01*
X6118100Y5724374D01*
Y5781826D01*
X6109113Y5838571D01*
X6091359Y5893211D01*
X6065276Y5944402D01*
X6031507Y5990882D01*
X5990882Y6031507D01*
X5944402Y6065276D01*
X5893211Y6091359D01*
X5838571Y6109113D01*
X5781826Y6118100D01*
D02*
G37*
G36*
X625626D02*
X568174D01*
X511429Y6109113D01*
X456789Y6091359D01*
X405598Y6065276D01*
X359118Y6031507D01*
X318493Y5990882D01*
X284724Y5944402D01*
X258641Y5893211D01*
X240887Y5838571D01*
X231900Y5781826D01*
Y5724374D01*
X240887Y5667629D01*
X258641Y5612989D01*
X284724Y5561798D01*
X318493Y5515318D01*
X359118Y5474693D01*
X405598Y5440924D01*
X456789Y5414841D01*
X511429Y5397087D01*
X568174Y5388100D01*
X625626D01*
X682371Y5397087D01*
X737011Y5414841D01*
X788202Y5440924D01*
X834682Y5474693D01*
X875307Y5515318D01*
X909076Y5561798D01*
X935159Y5612989D01*
X952913Y5667629D01*
X961900Y5724374D01*
Y5781826D01*
X952913Y5838571D01*
X935159Y5893211D01*
X909076Y5944402D01*
X875307Y5990882D01*
X834682Y6031507D01*
X788202Y6065276D01*
X737011Y6091359D01*
X682371Y6109113D01*
X625626Y6118100D01*
D02*
G37*
G36*
X3771650Y5253750D02*
X3681450D01*
Y5173550D01*
X3771650D01*
Y5253750D01*
D02*
G37*
G36*
X3656050D02*
X3565850D01*
Y5173550D01*
X3656050D01*
Y5253750D01*
D02*
G37*
G36*
X2900120Y5363189D02*
X2407834D01*
X2398822Y5361396D01*
X2391183Y5356292D01*
X2353172Y5318281D01*
X2348067Y5310641D01*
X2346275Y5301629D01*
Y5076224D01*
X2348067Y5067212D01*
X2353172Y5059573D01*
X2573477Y4839267D01*
X2568217Y4826567D01*
X2482668D01*
X2440098Y4869137D01*
X2432458Y4874242D01*
X2423446Y4876034D01*
X2369207D01*
X2344877Y4900364D01*
X2349580Y4905067D01*
X2296265Y4958383D01*
X2253556Y4915674D01*
X2250302Y4912420D01*
X2207594Y4869712D01*
X2207594D01*
X2204341Y4866459D01*
X2167359Y4829477D01*
X2158379Y4838457D01*
X2137024Y4817102D01*
X2172662Y4781464D01*
X2163681Y4772484D01*
X2172662Y4763504D01*
X2142327Y4733170D01*
X2168985Y4706512D01*
X2177176Y4714703D01*
X2188881Y4708447D01*
X2188748Y4707778D01*
Y4542029D01*
X2190540Y4533017D01*
X2195645Y4525377D01*
X2509193Y4211830D01*
X2516833Y4206725D01*
X2525844Y4204932D01*
X2622022D01*
X2775887Y4051068D01*
X2775888Y4051067D01*
X2776660Y4050295D01*
Y4044766D01*
X2778452Y4035754D01*
X2783557Y4028115D01*
X2797547Y4014125D01*
X2794612Y4011189D01*
X2796521Y4009280D01*
X2763075Y3975834D01*
X2701345Y3914103D01*
X2692364Y3905124D01*
X2683384Y3896143D01*
X2630634Y3843393D01*
X2623144Y3835903D01*
X2612673Y3825432D01*
X2588208Y3800966D01*
X2586298Y3802875D01*
X2547125Y3763702D01*
X2511306Y3727884D01*
X2493485Y3745705D01*
X2485845Y3750810D01*
X2476834Y3752602D01*
X2444472D01*
X2220558Y3976517D01*
X2221540Y3993495D01*
X2289178Y4061133D01*
X2262291Y4088020D01*
X2259791Y4094055D01*
X2244319Y4109527D01*
X2238284Y4112027D01*
X2211397Y4138914D01*
X2143759Y4071276D01*
X2137150Y4064668D01*
X2126781Y4070294D01*
X2045600Y4151475D01*
X2090687Y4196562D01*
X1966661Y4320589D01*
X1928370Y4282298D01*
X1802119Y4408549D01*
X1794479Y4413654D01*
X1785467Y4415447D01*
X1567313D01*
X1490384Y4492376D01*
Y4534772D01*
X1491699Y4536763D01*
X1503084Y4544209D01*
X1506382Y4543554D01*
X1551039D01*
X1626485Y4468108D01*
X1725480Y4567102D01*
X1626485Y4666097D01*
X1551039Y4590651D01*
X1516136D01*
X1505969Y4600819D01*
X1506444Y4605648D01*
X1456777Y4655316D01*
X1474737Y4673276D01*
X1517953Y4630061D01*
X1519136Y4631830D01*
X1522077Y4646618D01*
X1519136Y4661405D01*
X1519201Y4661735D01*
X1522609Y4664012D01*
X1527140Y4670793D01*
X1528731Y4678792D01*
X1527140Y4686790D01*
X1522609Y4693571D01*
X1500290Y4715890D01*
X1497374Y4722414D01*
X1503211Y4734083D01*
X1510984Y4739277D01*
X1514992Y4745276D01*
X1554627Y4784911D01*
X1556129Y4784612D01*
X1569785Y4787329D01*
X1581362Y4795064D01*
X1597392Y4811094D01*
X1621655Y4786830D01*
X1720650Y4885825D01*
X1621655Y4984820D01*
X1522660Y4885825D01*
X1546925Y4861561D01*
X1530895Y4845532D01*
X1523160Y4833954D01*
X1520443Y4820298D01*
X1508972Y4815292D01*
X1500750Y4816766D01*
X1499656Y4818403D01*
X1492214Y4823376D01*
X1483435Y4825122D01*
X1478091Y4830467D01*
X1476345Y4839245D01*
X1471372Y4846688D01*
X1463929Y4851661D01*
X1455151Y4853407D01*
X1449807Y4858751D01*
X1448061Y4867529D01*
X1443088Y4874972D01*
X1435645Y4879945D01*
X1426866Y4881691D01*
X1421522Y4887035D01*
X1419776Y4895813D01*
X1414803Y4903256D01*
X1407361Y4908229D01*
X1402565Y4909183D01*
X1403012Y4911430D01*
X1400226Y4925437D01*
X1399485Y4926546D01*
X1361600Y4888661D01*
X1352620Y4897641D01*
X1343640Y4888661D01*
X1317757Y4914543D01*
X1312949Y4909735D01*
X1307028Y4909152D01*
X1289971Y4926209D01*
X1283190Y4930740D01*
X1275192Y4932331D01*
X1267193Y4930740D01*
X1260412Y4926209D01*
X1258135Y4922801D01*
X1257805Y4922736D01*
X1243018Y4925677D01*
X1228230Y4922736D01*
X1226460Y4921553D01*
X1269676Y4878337D01*
X1251716Y4860377D01*
X1208500Y4903592D01*
X1207317Y4901823D01*
X1204376Y4887035D01*
X1205806Y4879845D01*
X1198512Y4874972D01*
X1196159Y4871450D01*
X1194777Y4870340D01*
X1183778Y4867309D01*
X1180532Y4867236D01*
X1178559Y4868554D01*
X1169547Y4870347D01*
X1065191D01*
X1056179Y4868554D01*
X1048539Y4863450D01*
X806506Y4621416D01*
X801401Y4613776D01*
X799608Y4604764D01*
Y4244143D01*
X801401Y4235131D01*
X806506Y4227491D01*
X1593221Y3440776D01*
X1585423Y3430614D01*
X1583009Y3432007D01*
X1561391Y3437800D01*
X1539010D01*
X1517391Y3432007D01*
X1498009Y3420817D01*
X1482183Y3404991D01*
X1470993Y3385609D01*
X1465200Y3363990D01*
Y3341610D01*
X1470993Y3319991D01*
X1482183Y3300609D01*
X1498009Y3284783D01*
X1517391Y3273593D01*
X1539010Y3267800D01*
X1561391D01*
X1583009Y3273593D01*
X1602391Y3284783D01*
X1618217Y3300609D01*
X1629407Y3319991D01*
X1635200Y3341610D01*
Y3363990D01*
X1629407Y3385609D01*
X1628014Y3388023D01*
X1638176Y3395821D01*
X1663014Y3370983D01*
Y3303639D01*
X1664807Y3294627D01*
X1669912Y3286987D01*
X1687239Y3269660D01*
X1687239Y3269659D01*
X1712190Y3244709D01*
X1719830Y3239604D01*
X1728842Y3237811D01*
X1852066D01*
X1918829Y3171049D01*
X1944228Y3145649D01*
X1951868Y3140544D01*
X1960880Y3138751D01*
X2226291D01*
X2238435Y3137408D01*
X2242167Y3126051D01*
X2237361Y3121245D01*
X2126679Y3010562D01*
X2127991Y3009251D01*
X1900325Y2781585D01*
X1428705D01*
X1419847Y2779823D01*
X1412339Y2774806D01*
X621174Y1983641D01*
X616157Y1976133D01*
X614395Y1967275D01*
Y1862360D01*
X587540D01*
Y1762360D01*
X687540D01*
Y1862360D01*
X660685D01*
Y1957689D01*
X1438291Y2735295D01*
X1648238D01*
X1653098Y2723562D01*
X1631478Y2701942D01*
X1682885Y2650535D01*
X1734292Y2701942D01*
X1712672Y2723562D01*
X1717532Y2735295D01*
X1909912D01*
X1918769Y2737057D01*
X1926277Y2742074D01*
X2152285Y2968082D01*
X2162034Y2975207D01*
X2171014Y2966227D01*
X2259120Y2878121D01*
X2268100Y2869141D01*
X2293751Y2843490D01*
X2289571Y2829709D01*
X2287747Y2829346D01*
X2276169Y2821611D01*
X2256684Y2802126D01*
X2236556Y2822254D01*
X2137561Y2723259D01*
X2236556Y2624264D01*
X2335551Y2723259D01*
X2307152Y2751659D01*
X2326636Y2771144D01*
X2334372Y2782721D01*
X2334735Y2784546D01*
X2348515Y2788726D01*
X2433988Y2703254D01*
X2423098Y2692364D01*
X2442685Y2672777D01*
X2512795Y2742887D01*
X2530755Y2724926D01*
X2460646Y2654817D01*
X2480232Y2635230D01*
X2491122Y2646119D01*
X2506607Y2630634D01*
X2515587Y2621654D01*
X2508463Y2611905D01*
X2488574Y2592016D01*
X2440273Y2640316D01*
X2379886Y2579929D01*
X2319499Y2519542D01*
X2367800Y2471242D01*
X2205703Y2309145D01*
X2039047D01*
X1883098Y2465093D01*
X1916230Y2498225D01*
X1817235Y2597220D01*
X1718240Y2498225D01*
X1751372Y2465093D01*
X1615486Y2329208D01*
X1392040Y2552654D01*
X1229406Y2390020D01*
X1639528Y1979898D01*
X1802162Y2142532D01*
X1648218Y2296476D01*
X1784104Y2432362D01*
X1817235Y2399230D01*
X1850367Y2432362D01*
X2013094Y2269634D01*
X2020603Y2264617D01*
X2029460Y2262855D01*
X2215289D01*
X2221116Y2264014D01*
X2229694Y2258027D01*
X2232375Y2254841D01*
Y2085340D01*
X2234137Y2076483D01*
X2239154Y2068974D01*
X2379022Y1929107D01*
X2345890Y1895975D01*
X2379022Y1862844D01*
X2230436Y1714258D01*
X2063792Y1880902D01*
X1901158Y1718268D01*
X2311280Y1308146D01*
X2473914Y1470780D01*
X2263168Y1681527D01*
X2411753Y1830112D01*
X2444885Y1796980D01*
X2543880Y1895975D01*
X2453335Y1986520D01*
X2453369Y2003951D01*
X2456748Y2007319D01*
X2484893D01*
X2676301Y1815911D01*
Y1801926D01*
X2664568Y1797066D01*
X2648602Y1813032D01*
X2597195Y1761625D01*
X2648603Y1710219D01*
X2664568Y1726184D01*
X2676301Y1721324D01*
Y1276923D01*
X2589746Y1190367D01*
X2584640Y1182726D01*
X2582847Y1173713D01*
Y657021D01*
X2584640Y648008D01*
X2589746Y640367D01*
X2698637Y531475D01*
X2706278Y526370D01*
X2715291Y524577D01*
X3507709D01*
X3516722Y526370D01*
X3524363Y531475D01*
X3633254Y640367D01*
X3638360Y648008D01*
X3640153Y657021D01*
Y1051416D01*
X3638360Y1060429D01*
X3633254Y1068071D01*
X3615025Y1086300D01*
Y1120402D01*
X3621873D01*
Y1170802D01*
Y1221202D01*
X3615025D01*
Y1240179D01*
X3613233Y1249192D01*
X3608127Y1256833D01*
X3479220Y1385740D01*
X3482001Y1398440D01*
X3746800D01*
Y1578440D01*
X3466800D01*
Y1522298D01*
X3455067Y1517438D01*
X3412900Y1559604D01*
X3408242Y1562717D01*
X3398395Y1572564D01*
X3397722Y1573572D01*
X3395298Y1575191D01*
Y1588937D01*
X3395729Y1589797D01*
X3397722Y1591129D01*
X3402694Y1598571D01*
X3404441Y1607350D01*
X3402694Y1616129D01*
X3397722Y1623572D01*
X3395298Y1625191D01*
Y1639509D01*
X3397722Y1641129D01*
X3402694Y1648571D01*
X3404441Y1657350D01*
X3402694Y1666129D01*
X3397722Y1673571D01*
X3395298Y1675191D01*
Y1689509D01*
X3397722Y1691129D01*
X3402694Y1698571D01*
X3404441Y1707350D01*
X3402694Y1716129D01*
X3397722Y1723572D01*
X3395298Y1725191D01*
Y1739509D01*
X3397722Y1741129D01*
X3402694Y1748571D01*
X3404441Y1757350D01*
X3402694Y1766129D01*
X3397722Y1773572D01*
X3395298Y1775191D01*
Y1789509D01*
X3397722Y1791129D01*
X3402694Y1798571D01*
X3404441Y1807350D01*
X3402694Y1816129D01*
X3401863Y1817373D01*
X3411728Y1825469D01*
X3428025Y1809172D01*
Y1757458D01*
X3429817Y1748446D01*
X3434922Y1740806D01*
X3475268Y1700461D01*
X3482907Y1695356D01*
X3491919Y1693563D01*
X4074494D01*
X4435299Y1332757D01*
X4433898Y1319160D01*
X4432825Y1318280D01*
X4416165Y1314966D01*
X4402040Y1305529D01*
X4331330Y1234818D01*
X4321892Y1220694D01*
X4318578Y1204033D01*
X4321892Y1187373D01*
X4331330Y1173248D01*
X4345454Y1163811D01*
X4362115Y1160497D01*
X4378775Y1163811D01*
X4392900Y1173248D01*
X4463610Y1243959D01*
X4473048Y1258083D01*
X4476362Y1274744D01*
X4474664Y1283279D01*
X4479471Y1288086D01*
X4484575Y1295726D01*
X4486368Y1304738D01*
Y1320975D01*
X4498101Y1325836D01*
X4550991Y1272946D01*
Y1246607D01*
X4531164Y1226780D01*
X4522628Y1228478D01*
X4505967Y1225164D01*
X4491843Y1215726D01*
X4421133Y1145015D01*
X4411695Y1130891D01*
X4408381Y1114231D01*
X4411695Y1097570D01*
X4421133Y1083446D01*
X4435257Y1074008D01*
X4451917Y1070694D01*
X4468578Y1074008D01*
X4482702Y1083446D01*
X4553413Y1154156D01*
X4562850Y1168281D01*
X4566164Y1184941D01*
X4564467Y1193477D01*
X4591191Y1220202D01*
X4596296Y1227841D01*
X4598089Y1236853D01*
Y1264682D01*
X4609822Y1269542D01*
X4660211Y1219153D01*
Y1174072D01*
X4622760Y1136621D01*
X4612430Y1138675D01*
X4595770Y1135361D01*
X4581646Y1125924D01*
X4510935Y1055213D01*
X4501497Y1041089D01*
X4498184Y1024428D01*
X4501497Y1007768D01*
X4510935Y993643D01*
X4525059Y984206D01*
X4541720Y980892D01*
X4558381Y984206D01*
X4572505Y993643D01*
X4643215Y1064354D01*
X4652653Y1078478D01*
X4655967Y1095139D01*
X4654626Y1101880D01*
X4700412Y1147666D01*
X4705516Y1155305D01*
X4707309Y1164317D01*
Y1228907D01*
X4705516Y1237919D01*
X4700411Y1245559D01*
X4133820Y1812150D01*
X4126181Y1817255D01*
X4117169Y1819047D01*
X3893243D01*
X3868883Y1843408D01*
Y1940764D01*
X3867090Y1949776D01*
X3861985Y1957416D01*
X3817778Y2001623D01*
X3810139Y2006728D01*
X3801127Y2008520D01*
X3564373D01*
X3557541Y2015353D01*
Y2039144D01*
X3555748Y2048156D01*
X3553266Y2051871D01*
X3556393Y2063276D01*
Y2063276D01*
X3655387Y2162271D01*
X3665558Y2156164D01*
X3765213Y2056509D01*
X3772852Y2051405D01*
X3781864Y2049612D01*
X4723635D01*
X4924876Y1848371D01*
X4921585Y1837522D01*
X4919675Y1835612D01*
X4902001Y1823802D01*
X4875626Y1797427D01*
X4915567Y1757486D01*
X4955509Y1717545D01*
X4981883Y1743920D01*
X4988118Y1753250D01*
X5004681Y1756690D01*
X5008196Y1754052D01*
Y1729678D01*
X5000960Y1724843D01*
X4930249Y1654132D01*
X4920812Y1640008D01*
X4917498Y1623348D01*
X4920812Y1606687D01*
X4930249Y1592563D01*
X4944374Y1583125D01*
X4961034Y1579811D01*
X4977695Y1583125D01*
X4991819Y1592563D01*
X5062530Y1663273D01*
X5071967Y1677397D01*
X5075281Y1694058D01*
X5071967Y1710719D01*
X5062530Y1724843D01*
X5055294Y1729678D01*
Y1756787D01*
X5067027Y1761648D01*
X5133308Y1695367D01*
Y1658051D01*
X5121547Y1647792D01*
X5104887Y1644478D01*
X5090762Y1635040D01*
X5020052Y1564330D01*
X5010614Y1550206D01*
X5007300Y1533545D01*
X5010614Y1516884D01*
X5020052Y1502760D01*
X5034176Y1493323D01*
X5050837Y1490009D01*
X5067497Y1493323D01*
X5081622Y1502760D01*
X5152332Y1573471D01*
X5161770Y1587595D01*
X5165084Y1604256D01*
X5163386Y1612792D01*
X5173508Y1622914D01*
X5178613Y1630553D01*
X5180405Y1639565D01*
Y1687103D01*
X5192139Y1691963D01*
X5231711Y1652391D01*
Y1566774D01*
X5221006Y1556069D01*
X5211350Y1557990D01*
X5194689Y1554676D01*
X5180565Y1545238D01*
X5109855Y1474527D01*
X5100417Y1460403D01*
X5097103Y1443743D01*
X5100417Y1427082D01*
X5109855Y1412958D01*
X5123979Y1403520D01*
X5140639Y1400206D01*
X5157300Y1403520D01*
X5171424Y1412958D01*
X5242135Y1483668D01*
X5251572Y1497793D01*
X5254886Y1514453D01*
X5253411Y1521868D01*
X5271911Y1540368D01*
X5277016Y1548008D01*
X5278809Y1557020D01*
Y1662145D01*
X5277016Y1671157D01*
X5271911Y1678797D01*
X4782509Y2168199D01*
X4774870Y2173304D01*
X4765858Y2175096D01*
X3826754D01*
X3697977Y2303873D01*
Y2460748D01*
X3696185Y2469760D01*
X3692240Y2475663D01*
X3732165Y2515588D01*
X3730255Y2517497D01*
X3763702Y2550943D01*
X3825432Y2612673D01*
X3834413Y2621653D01*
X3843393Y2630634D01*
X3896143Y2683384D01*
X3905123Y2692364D01*
X3914103Y2701345D01*
X4002209Y2789450D01*
X4005007Y2792248D01*
X4018681Y2787962D01*
X4020116Y2780749D01*
X4027852Y2769172D01*
X4034855Y2762169D01*
Y2743028D01*
X4030922Y2739095D01*
X4025913Y2735748D01*
X4022565Y2730738D01*
X3984344Y2692517D01*
X3982152Y2690325D01*
X3970072Y2688829D01*
X3964475Y2694426D01*
X3918371Y2648323D01*
X3971687Y2595007D01*
X3962707Y2586027D01*
X3971687Y2577047D01*
X3916604Y2521963D01*
X3959046Y2479520D01*
X3960937Y2477629D01*
X3970151Y2469210D01*
X4012595Y2426767D01*
X4067679Y2481850D01*
X4076659Y2472870D01*
X4085639Y2481850D01*
X4138955Y2428534D01*
X4185058Y2474638D01*
X4179461Y2480235D01*
X4180957Y2492315D01*
X4183149Y2494507D01*
X4220973Y2532331D01*
X4225982Y2535678D01*
X4229330Y2540688D01*
X4269346Y2580704D01*
X4184493Y2665557D01*
X4183556Y2664620D01*
X4154854Y2693322D01*
X4155394Y2693861D01*
X4106226Y2743028D01*
Y2776951D01*
X4103510Y2790607D01*
X4095774Y2802184D01*
X4088918Y2809040D01*
X4102827Y2822949D01*
X4111914Y2814226D01*
X4210909Y2715231D01*
X4309903Y2814226D01*
X4246595Y2877535D01*
Y2909873D01*
X4258328Y2914734D01*
X4275892Y2897170D01*
X4336279Y2957557D01*
X4345259Y2948577D01*
X4354239Y2957557D01*
X4414627Y2897170D01*
X4450474Y2933017D01*
X4561147Y2822344D01*
Y2689860D01*
X4562940Y2680847D01*
X4568046Y2673206D01*
X4767102Y2474149D01*
X4774743Y2469043D01*
X4783757Y2467251D01*
X4988814D01*
X4990647Y2465418D01*
X4992226Y2463055D01*
X5015035Y2440246D01*
X5022676Y2435140D01*
X5031689Y2433347D01*
X5491110D01*
X5500124Y2435140D01*
X5507765Y2440246D01*
X5527154Y2459635D01*
X5532260Y2467276D01*
X5534053Y2476289D01*
Y3097568D01*
X5532260Y3106582D01*
X5527154Y3114223D01*
X5426510Y3214867D01*
X5431370Y3226600D01*
X5502800D01*
Y3289300D01*
X5261400D01*
Y3302000D01*
X5248700D01*
Y3377400D01*
X5020000D01*
Y3294633D01*
X5008267Y3289773D01*
X4928586Y3369454D01*
X4920945Y3374560D01*
X4911932Y3376353D01*
X4881487D01*
X4879007Y3385609D01*
X4867817Y3404991D01*
X4851991Y3420817D01*
X4832609Y3432007D01*
X4810990Y3437800D01*
X4788609D01*
X4766991Y3432007D01*
X4747609Y3420817D01*
X4731783Y3404991D01*
X4720593Y3385609D01*
X4714800Y3363990D01*
Y3341610D01*
X4720593Y3319991D01*
X4731783Y3300609D01*
X4747609Y3284783D01*
X4766991Y3273593D01*
X4788609Y3267800D01*
X4810990D01*
X4832609Y3273593D01*
X4851991Y3284783D01*
X4867817Y3300609D01*
X4879007Y3319991D01*
X4881487Y3329247D01*
X4902176D01*
X5028780Y3202643D01*
X5036421Y3197537D01*
X5045435Y3195744D01*
X5379016D01*
X5439627Y3135133D01*
X5434766Y3123400D01*
X5274100D01*
Y3048000D01*
Y2972600D01*
X5486947D01*
Y2869400D01*
X5274100D01*
Y2794000D01*
Y2718600D01*
X5486947D01*
Y2602700D01*
X5032700D01*
Y2563549D01*
X4815434D01*
X4659049Y2719934D01*
Y2853123D01*
X4657256Y2862134D01*
X4652151Y2869774D01*
X4352431Y3169494D01*
X4351645Y3170020D01*
X4351535Y3185221D01*
X4351780Y3185385D01*
X4380498Y3214102D01*
X4656731Y3490336D01*
X4661837Y3497977D01*
X4663630Y3506990D01*
Y3628671D01*
X4821406Y3786447D01*
X5032700D01*
Y3747300D01*
X5490100D01*
Y3872700D01*
X5032700D01*
Y3833553D01*
X4811651D01*
X4802637Y3831760D01*
X4794996Y3826654D01*
X4623423Y3655081D01*
X4618317Y3647440D01*
X4616524Y3638427D01*
Y3516746D01*
X4347189Y3247411D01*
X4325370Y3225592D01*
X4129888D01*
X4125027Y3237325D01*
X4227140Y3339438D01*
X4221807Y3344770D01*
X4222677Y3346072D01*
X4224469Y3355084D01*
Y3388776D01*
X4222677Y3397788D01*
X4217572Y3405427D01*
X4157596Y3465403D01*
Y3990724D01*
X4155804Y3999735D01*
X4150699Y4007375D01*
X3265514Y4892560D01*
Y4997511D01*
X3329402Y5061399D01*
X3334506Y5069038D01*
X3336299Y5078050D01*
X3338899Y5080650D01*
X3367950Y5080650D01*
X3379531Y5083350D01*
X3475250D01*
Y5213350D01*
X3379531D01*
X3367950Y5216050D01*
X3358668Y5216050D01*
X3156832D01*
X3147550Y5216050D01*
X3135969Y5213350D01*
X3049531D01*
X3037950Y5216050D01*
X3028668Y5216050D01*
X3006299D01*
Y5257010D01*
X3004506Y5266022D01*
X2999401Y5273662D01*
X2916771Y5356292D01*
X2909132Y5361396D01*
X2900120Y5363189D01*
D02*
G37*
G36*
X3771650Y5148150D02*
X3681450D01*
Y5067950D01*
X3771650D01*
Y5148150D01*
D02*
G37*
G36*
X3656050D02*
X3565850D01*
Y5067950D01*
X3656050D01*
Y5148150D01*
D02*
G37*
G36*
X1487305Y5140949D02*
X1435898Y5089542D01*
X1487305Y5038135D01*
X1538712Y5089542D01*
X1487305Y5140949D01*
D02*
G37*
G36*
X1556672Y5071582D02*
X1505265Y5020175D01*
X1556672Y4968769D01*
X1608079Y5020175D01*
X1556672Y5071582D01*
D02*
G37*
G36*
X1417938D02*
X1366531Y5020175D01*
X1417938Y4968768D01*
X1469345Y5020175D01*
X1417938Y5071582D01*
D02*
G37*
G36*
X1366408Y4948033D02*
X1352401Y4945247D01*
X1340526Y4937312D01*
X1335718Y4932504D01*
X1352620Y4915602D01*
X1381525Y4944506D01*
X1380416Y4945247D01*
X1366408Y4948033D01*
D02*
G37*
G36*
X1487305Y5002215D02*
X1435898Y4950808D01*
X1487305Y4899401D01*
X1538711Y4950808D01*
X1487305Y5002215D01*
D02*
G37*
G36*
X3938200Y5072585D02*
X3911869D01*
X3886436Y5065770D01*
X3863634Y5052605D01*
X3845015Y5033986D01*
X3831850Y5011184D01*
X3825035Y4985751D01*
Y4959420D01*
X3831850Y4933987D01*
X3845015Y4911184D01*
X3863634Y4892565D01*
X3886436Y4879400D01*
X3911869Y4872586D01*
X3938200D01*
X3963633Y4879400D01*
X3986436Y4892565D01*
X4005055Y4911184D01*
X4018220Y4933987D01*
X4025034Y4959420D01*
Y4985751D01*
X4018220Y5011184D01*
X4005055Y5033986D01*
X3986436Y5052605D01*
X3963633Y5065770D01*
X3938200Y5072585D01*
D02*
G37*
G36*
X2119063Y4799142D02*
X2097709Y4777788D01*
X2124367Y4751130D01*
X2145721Y4772484D01*
X2119063Y4799142D01*
D02*
G37*
G36*
X1760835Y4822226D02*
X1709429Y4770820D01*
X1760836Y4719413D01*
X1812242Y4770820D01*
X1760835Y4822226D01*
D02*
G37*
G36*
X4117805Y4892980D02*
X4091475D01*
X4066041Y4886165D01*
X4043239Y4873000D01*
X4024620Y4854381D01*
X4011455Y4831579D01*
X4004640Y4806145D01*
Y4779815D01*
X4011455Y4754381D01*
X4024620Y4731579D01*
X4043239Y4712960D01*
X4066041Y4699795D01*
X4091475Y4692980D01*
X4117805D01*
X4143239Y4699795D01*
X4166041Y4712960D01*
X4184660Y4731579D01*
X4197825Y4754381D01*
X4204640Y4779815D01*
Y4806145D01*
X4197825Y4831579D01*
X4184660Y4854381D01*
X4166041Y4873000D01*
X4143239Y4886165D01*
X4117805Y4892980D01*
D02*
G37*
G36*
X1830203Y4752859D02*
X1778796Y4701453D01*
X1830203Y4650046D01*
X1881609Y4701453D01*
X1830203Y4752859D01*
D02*
G37*
G36*
X1691469Y4752859D02*
X1640062Y4701453D01*
X1691469Y4650046D01*
X1742875Y4701453D01*
X1691469Y4752859D01*
D02*
G37*
G36*
X4298779Y4723775D02*
X4269711D01*
X4241632Y4716251D01*
X4216458Y4701717D01*
X4215161Y4700420D01*
X4284245Y4631336D01*
X4353329Y4700420D01*
X4352032Y4701717D01*
X4326858Y4716251D01*
X4298779Y4723775D01*
D02*
G37*
G36*
X5001753Y5361059D02*
X4940366D01*
X4879734Y5351456D01*
X4821351Y5332487D01*
X4766655Y5304617D01*
X4716991Y5268535D01*
X4673584Y5225127D01*
X4637502Y5175464D01*
X4609632Y5120768D01*
X4590662Y5062385D01*
X4581059Y5001753D01*
Y4940366D01*
X4590662Y4879734D01*
X4609632Y4821351D01*
X4637502Y4766655D01*
X4673584Y4716991D01*
X4716991Y4673584D01*
X4766655Y4637502D01*
X4821351Y4609632D01*
X4879734Y4590662D01*
X4940366Y4581059D01*
X5001753D01*
X5062385Y4590662D01*
X5120768Y4609632D01*
X5175464Y4637502D01*
X5225127Y4673584D01*
X5268535Y4716991D01*
X5304617Y4766655D01*
X5332487Y4821351D01*
X5351456Y4879734D01*
X5361059Y4940366D01*
Y5001753D01*
X5351456Y5062385D01*
X5332487Y5120768D01*
X5304617Y5175464D01*
X5268535Y5225127D01*
X5225127Y5268535D01*
X5175464Y5304617D01*
X5120768Y5332487D01*
X5062385Y5351456D01*
X5001753Y5361059D01*
D02*
G37*
G36*
X1760836Y4683492D02*
X1709429Y4632085D01*
X1760835Y4580679D01*
X1812242Y4632086D01*
X1760836Y4683492D01*
D02*
G37*
G36*
X4371289Y4682459D02*
X4302206Y4613375D01*
X4371289Y4544291D01*
X4372587Y4545588D01*
X4387121Y4570762D01*
X4394645Y4598841D01*
Y4627909D01*
X4387121Y4655988D01*
X4372587Y4681162D01*
X4371289Y4682459D01*
D02*
G37*
G36*
X4197200D02*
X4195903Y4681162D01*
X4181369Y4655988D01*
X4173845Y4627909D01*
Y4598841D01*
X4181369Y4570762D01*
X4195903Y4545588D01*
X4197200Y4544291D01*
X4266284Y4613375D01*
X4197200Y4682459D01*
D02*
G37*
G36*
X4284245Y4595414D02*
X4215161Y4526331D01*
X4216458Y4525033D01*
X4241632Y4510499D01*
X4269711Y4502975D01*
X4298779D01*
X4326858Y4510499D01*
X4352032Y4525033D01*
X4353329Y4526331D01*
X4284245Y4595414D01*
D02*
G37*
G36*
X4463850Y4575191D02*
X4322429Y4433770D01*
X4463850Y4292349D01*
X4605271Y4433770D01*
X4463850Y4575191D01*
D02*
G37*
G36*
X5502800Y3631400D02*
X5274100D01*
Y3568700D01*
X5502800D01*
Y3631400D01*
D02*
G37*
G36*
X5248700D02*
X5020000D01*
Y3568700D01*
X5248700D01*
Y3631400D01*
D02*
G37*
G36*
X5965400Y3871175D02*
X5959490Y3870000D01*
X5739400D01*
Y3750000D01*
X5904225D01*
Y3616000D01*
X5739400D01*
Y3496000D01*
X5959490D01*
X5965400Y3494825D01*
X5971310Y3496000D01*
X6191400D01*
Y3616000D01*
X6026575D01*
Y3750000D01*
X6191400D01*
Y3870000D01*
X5971310D01*
X5965400Y3871175D01*
D02*
G37*
G36*
X5502800Y3543300D02*
X5274100D01*
Y3480600D01*
X5502800D01*
Y3543300D01*
D02*
G37*
G36*
X5248700D02*
X5020000D01*
Y3480600D01*
X5248700D01*
Y3543300D01*
D02*
G37*
G36*
X5502800Y3377400D02*
X5274100D01*
Y3314700D01*
X5502800D01*
Y3377400D01*
D02*
G37*
G36*
X6206800D02*
X5978100D01*
Y3314700D01*
X6206800D01*
Y3377400D01*
D02*
G37*
G36*
X5952700D02*
X5724000D01*
Y3314700D01*
X5952700D01*
Y3377400D01*
D02*
G37*
G36*
X6206800Y3289300D02*
X5978100D01*
Y3226600D01*
X6206800D01*
Y3289300D01*
D02*
G37*
G36*
X5952700D02*
X5724000D01*
Y3226600D01*
X5952700D01*
Y3289300D01*
D02*
G37*
G36*
X4812500Y3194162D02*
Y3111500D01*
X4895162D01*
X4888698Y3135623D01*
X4876139Y3157377D01*
X4858377Y3175139D01*
X4836623Y3187698D01*
X4812500Y3194162D01*
D02*
G37*
G36*
X4787100D02*
X4762977Y3187698D01*
X4741223Y3175139D01*
X4723461Y3157377D01*
X4710901Y3135623D01*
X4704438Y3111500D01*
X4787100D01*
Y3194162D01*
D02*
G37*
G36*
X5248700Y3123400D02*
X5020000D01*
Y3060700D01*
X5248700D01*
Y3123400D01*
D02*
G37*
G36*
X6206800D02*
X5978100D01*
Y3060700D01*
X6206800D01*
Y3123400D01*
D02*
G37*
G36*
X5952700D02*
X5724000D01*
Y3060700D01*
X5952700D01*
Y3123400D01*
D02*
G37*
G36*
X1561391Y3183800D02*
X1539010D01*
X1517391Y3178007D01*
X1498009Y3166817D01*
X1482183Y3150991D01*
X1470993Y3131609D01*
X1465200Y3109990D01*
Y3087610D01*
X1470993Y3065991D01*
X1482183Y3046609D01*
X1498009Y3030783D01*
X1517391Y3019593D01*
X1539010Y3013800D01*
X1561391D01*
X1583009Y3019593D01*
X1602391Y3030783D01*
X1618217Y3046609D01*
X1629407Y3065991D01*
X1635200Y3087610D01*
Y3109990D01*
X1629407Y3131609D01*
X1618217Y3150991D01*
X1602391Y3166817D01*
X1583009Y3178007D01*
X1561391Y3183800D01*
D02*
G37*
G36*
X4895162Y3086100D02*
X4812500D01*
Y3003438D01*
X4836623Y3009902D01*
X4858377Y3022461D01*
X4876139Y3040223D01*
X4888698Y3061977D01*
X4895162Y3086100D01*
D02*
G37*
G36*
X4787100D02*
X4704438D01*
X4710901Y3061977D01*
X4723461Y3040223D01*
X4741223Y3022461D01*
X4762977Y3009902D01*
X4787100Y3003438D01*
Y3086100D01*
D02*
G37*
G36*
X6206800Y3035300D02*
X5978100D01*
Y2972600D01*
X6206800D01*
Y3035300D01*
D02*
G37*
G36*
X5952700D02*
X5724000D01*
Y2972600D01*
X5952700D01*
Y3035300D01*
D02*
G37*
G36*
X5248700Y3035300D02*
X5020000D01*
Y2972600D01*
X5248700D01*
Y3035300D01*
D02*
G37*
G36*
X4345259Y2930616D02*
X4293852Y2879209D01*
X4345259Y2827802D01*
X4396666Y2879209D01*
X4345259Y2930616D01*
D02*
G37*
G36*
X5248700Y2869400D02*
X5020000D01*
Y2806700D01*
X5248700D01*
Y2869400D01*
D02*
G37*
G36*
Y2781300D02*
X5020000D01*
Y2718600D01*
X5248700D01*
Y2781300D01*
D02*
G37*
G36*
X2370906Y2709683D02*
X2319500Y2658276D01*
X2370906Y2606870D01*
X2422312Y2658277D01*
X2370906Y2709683D01*
D02*
G37*
G36*
X1752252Y2683982D02*
X1700845Y2632575D01*
X1752252Y2581169D01*
X1803659Y2632575D01*
X1752252Y2683982D01*
D02*
G37*
G36*
X1613518D02*
X1562111Y2632575D01*
X1613518Y2581168D01*
X1664925Y2632575D01*
X1613518Y2683982D01*
D02*
G37*
G36*
X3900411Y2630362D02*
X3854308Y2584259D01*
X3898643Y2539924D01*
X3944746Y2586027D01*
X3900411Y2630362D01*
D02*
G37*
G36*
X2301539Y2640316D02*
X2250133Y2588909D01*
X2301539Y2537503D01*
X2352946Y2588909D01*
X2301539Y2640316D01*
D02*
G37*
G36*
X1682885Y2614615D02*
X1631478Y2563208D01*
X1682885Y2511801D01*
X1734291Y2563208D01*
X1682885Y2614615D01*
D02*
G37*
G36*
X5965400Y2855175D02*
X5959490Y2854000D01*
X5739400D01*
Y2734000D01*
X5904225D01*
Y2600000D01*
X5730400D01*
Y2480000D01*
X5959490D01*
X5965400Y2478825D01*
X5971310Y2480000D01*
X6200400D01*
Y2600000D01*
X6026575D01*
Y2734000D01*
X6191400D01*
Y2854000D01*
X5971310D01*
X5965400Y2855175D01*
D02*
G37*
G36*
X4076659Y2454909D02*
X4030556Y2408806D01*
X4074891Y2364471D01*
X4120994Y2410574D01*
X4076659Y2454909D01*
D02*
G37*
G36*
X2579235Y1882399D02*
X2527829Y1830992D01*
X2579235Y1779586D01*
X2630641Y1830993D01*
X2579235Y1882399D01*
D02*
G37*
G36*
X407180Y1867360D02*
X385300D01*
X373229Y1862360D01*
X346240D01*
Y1835371D01*
X341240Y1823300D01*
Y1801420D01*
X346240Y1789349D01*
Y1762360D01*
X373229D01*
X385300Y1757360D01*
X407180D01*
X419251Y1762360D01*
X446240D01*
Y1789349D01*
X451240Y1801420D01*
Y1823300D01*
X446240Y1835371D01*
Y1862360D01*
X419251D01*
X407180Y1867360D01*
D02*
G37*
G36*
X2509868Y1813032D02*
X2458461Y1761625D01*
X2509867Y1710219D01*
X2561274Y1761625D01*
X2509868Y1813032D01*
D02*
G37*
G36*
X4857666Y1779466D02*
X4831291Y1753091D01*
X4819046Y1734766D01*
X4814746Y1713150D01*
X4819046Y1691534D01*
X4824097Y1683976D01*
X4888626Y1748506D01*
X4857666Y1779466D01*
D02*
G37*
G36*
X4906587Y1730545D02*
X4842057Y1666015D01*
X4849616Y1660965D01*
X4871232Y1656665D01*
X4892848Y1660965D01*
X4911173Y1673209D01*
X4937548Y1699584D01*
X4906587Y1730545D01*
D02*
G37*
G36*
X2579235Y1743665D02*
X2527828Y1692258D01*
X2579235Y1640851D01*
X2630642Y1692258D01*
X2579235Y1743665D01*
D02*
G37*
G36*
X4122200Y1593840D02*
X3979500D01*
Y1501140D01*
X4122200D01*
Y1593840D01*
D02*
G37*
G36*
X3954100D02*
X3811400D01*
Y1501140D01*
X3954100D01*
Y1593840D01*
D02*
G37*
G36*
X637540Y1713339D02*
X632615Y1712360D01*
X587540D01*
Y1667285D01*
X586560Y1662360D01*
Y1511760D01*
X582540D01*
Y1406760D01*
X692540D01*
Y1511760D01*
X688520D01*
Y1662360D01*
X687540Y1667285D01*
Y1712360D01*
X642465D01*
X637540Y1713339D01*
D02*
G37*
G36*
X396240D02*
X391315Y1712360D01*
X346240D01*
Y1667285D01*
X345260Y1662360D01*
Y1511760D01*
X341240D01*
Y1406760D01*
X451240D01*
Y1511760D01*
X447220D01*
Y1662360D01*
X446240Y1667285D01*
Y1712360D01*
X401165D01*
X396240Y1713339D01*
D02*
G37*
G36*
X4122200Y1475740D02*
X3979500D01*
Y1383040D01*
X4122200D01*
Y1475740D01*
D02*
G37*
G36*
X3954100D02*
X3811400D01*
Y1383040D01*
X3954100D01*
Y1475740D01*
D02*
G37*
G36*
X707940Y1372160D02*
X650240D01*
Y1316960D01*
X707940D01*
Y1372160D01*
D02*
G37*
G36*
X624840D02*
X567140D01*
Y1316960D01*
X624840D01*
Y1372160D01*
D02*
G37*
G36*
X466640D02*
X408940D01*
Y1316960D01*
X466640D01*
Y1372160D01*
D02*
G37*
G36*
X383540D02*
X325840D01*
Y1316960D01*
X383540D01*
Y1372160D01*
D02*
G37*
G36*
X707940Y1291560D02*
X650240D01*
Y1236360D01*
X707940D01*
Y1291560D01*
D02*
G37*
G36*
X624840D02*
X567140D01*
Y1236360D01*
X624840D01*
Y1291560D01*
D02*
G37*
G36*
X466640D02*
X408940D01*
Y1236360D01*
X466640D01*
Y1291560D01*
D02*
G37*
G36*
X383540D02*
X325840D01*
Y1236360D01*
X383540D01*
Y1291560D01*
D02*
G37*
G36*
X3679973Y1221202D02*
X3647273D01*
Y1183502D01*
X3679973D01*
Y1221202D01*
D02*
G37*
G36*
X4038780Y1238320D02*
X3961080D01*
Y1150620D01*
X4038780D01*
Y1238320D01*
D02*
G37*
G36*
X3679973Y1158102D02*
X3647273D01*
Y1120402D01*
X3679973D01*
Y1158102D01*
D02*
G37*
G36*
X1409634Y1768941D02*
X1348247D01*
X1287615Y1759338D01*
X1229232Y1740368D01*
X1174536Y1712498D01*
X1124873Y1676416D01*
X1081465Y1633009D01*
X1045383Y1583345D01*
X1017513Y1528649D01*
X998544Y1470266D01*
X988941Y1409634D01*
Y1348247D01*
X998544Y1287615D01*
X1017513Y1229232D01*
X1045383Y1174536D01*
X1081465Y1124873D01*
X1124873Y1081465D01*
X1174536Y1045383D01*
X1229232Y1017513D01*
X1287615Y998544D01*
X1348247Y988941D01*
X1409634D01*
X1470266Y998544D01*
X1528649Y1017513D01*
X1583345Y1045383D01*
X1633009Y1081465D01*
X1676416Y1124873D01*
X1712498Y1174536D01*
X1740368Y1229232D01*
X1759338Y1287615D01*
X1768941Y1348247D01*
Y1409634D01*
X1759338Y1470266D01*
X1740368Y1528649D01*
X1712498Y1583345D01*
X1676416Y1633009D01*
X1633009Y1676416D01*
X1583345Y1712498D01*
X1528649Y1740368D01*
X1470266Y1759338D01*
X1409634Y1768941D01*
D02*
G37*
G36*
X4385445Y1079489D02*
X4334038Y1028082D01*
X4385445Y976676D01*
X4436851Y1028082D01*
X4385445Y1079489D01*
D02*
G37*
G36*
X4454812Y1010122D02*
X4403405Y958715D01*
X4454812Y907309D01*
X4506219Y958715D01*
X4454812Y1010122D01*
D02*
G37*
G36*
X4316078Y1010122D02*
X4264671Y958715D01*
X4316078Y907309D01*
X4367485Y958715D01*
X4316078Y1010122D01*
D02*
G37*
G36*
X4702233Y1046120D02*
X4686626Y1043015D01*
X4673395Y1034174D01*
X4602684Y963464D01*
X4593843Y950233D01*
X4593325Y947629D01*
X4544425Y898729D01*
X4519795Y923360D01*
X4420800Y824365D01*
X4519795Y725370D01*
X4618790Y824365D01*
X4594893Y848262D01*
X4642695Y896064D01*
X4647129Y896946D01*
X4660361Y905787D01*
X4731071Y976498D01*
X4739912Y989729D01*
X4743017Y1005336D01*
X4739912Y1020943D01*
X4731071Y1034174D01*
X4717840Y1043015D01*
X4702233Y1046120D01*
D02*
G37*
G36*
X3992614Y937433D02*
X3927414D01*
Y874733D01*
X3992614D01*
Y937433D01*
D02*
G37*
G36*
X3935680Y1238320D02*
X3857980D01*
Y1222920D01*
X3708380D01*
Y1052920D01*
X3857980D01*
Y1038233D01*
X3857980Y1037520D01*
X3856259Y1025533D01*
X3836814D01*
Y1017617D01*
X3827214Y1010133D01*
X3824113Y1010133D01*
X3702214D01*
Y890133D01*
X3824113D01*
X3827214Y890133D01*
X3836814Y882649D01*
Y874733D01*
X3902014D01*
Y950133D01*
X3914714D01*
Y962833D01*
X3992614D01*
Y1024820D01*
X3992614Y1025533D01*
X3994334Y1037520D01*
X4038780D01*
Y1125220D01*
X3948380D01*
Y1137920D01*
X3935680D01*
Y1238320D01*
D02*
G37*
G36*
X4385445Y940755D02*
X4334038Y889348D01*
X4385445Y837941D01*
X4436852Y889348D01*
X4385445Y940755D01*
D02*
G37*
G36*
X2692200Y438679D02*
Y337000D01*
X2755551D01*
Y364300D01*
X2752959Y383983D01*
X2745362Y402325D01*
X2733276Y418076D01*
X2717525Y430162D01*
X2699184Y437759D01*
X2692200Y438679D01*
D02*
G37*
G36*
X2666800Y438679D02*
X2659817Y437759D01*
X2641475Y430162D01*
X2625724Y418076D01*
X2613638Y402325D01*
X2606041Y383983D01*
X2603449Y364300D01*
Y337000D01*
X2666800D01*
Y438679D01*
D02*
G37*
G36*
X3556200D02*
Y337000D01*
X3619551D01*
Y364300D01*
X3616959Y383983D01*
X3609362Y402325D01*
X3597276Y418076D01*
X3581525Y430162D01*
X3563183Y437759D01*
X3556200Y438679D01*
D02*
G37*
G36*
X3530800Y438679D02*
X3523816Y437759D01*
X3505475Y430162D01*
X3489724Y418076D01*
X3477638Y402325D01*
X3470041Y383983D01*
X3467449Y364300D01*
Y337000D01*
X3530800D01*
Y438679D01*
D02*
G37*
G36*
X5781826Y961900D02*
X5724374D01*
X5667629Y952913D01*
X5612989Y935159D01*
X5561798Y909076D01*
X5515318Y875307D01*
X5474693Y834682D01*
X5440924Y788202D01*
X5414841Y737011D01*
X5397087Y682371D01*
X5388100Y625626D01*
Y568174D01*
X5397087Y511429D01*
X5414841Y456789D01*
X5440924Y405598D01*
X5474693Y359118D01*
X5515318Y318493D01*
X5561798Y284724D01*
X5612989Y258641D01*
X5667629Y240887D01*
X5724374Y231900D01*
X5781826D01*
X5838571Y240887D01*
X5893211Y258641D01*
X5944402Y284724D01*
X5990882Y318493D01*
X6031507Y359118D01*
X6065276Y405598D01*
X6091359Y456789D01*
X6109113Y511429D01*
X6118100Y568174D01*
Y625626D01*
X6109113Y682371D01*
X6091359Y737011D01*
X6065276Y788202D01*
X6031507Y834682D01*
X5990882Y875307D01*
X5944402Y909076D01*
X5893211Y935159D01*
X5838571Y952913D01*
X5781826Y961900D01*
D02*
G37*
G36*
X625626D02*
X568174D01*
X511429Y952913D01*
X456789Y935159D01*
X405598Y909076D01*
X359118Y875307D01*
X318493Y834682D01*
X284724Y788202D01*
X258641Y737011D01*
X240887Y682371D01*
X231900Y625626D01*
Y568174D01*
X240887Y511429D01*
X258641Y456789D01*
X284724Y405598D01*
X318493Y359118D01*
X359118Y318493D01*
X405598Y284724D01*
X456789Y258641D01*
X511429Y240887D01*
X568174Y231900D01*
X625626D01*
X682371Y240887D01*
X737011Y258641D01*
X788202Y284724D01*
X834682Y318493D01*
X875307Y359118D01*
X909076Y405598D01*
X935159Y456789D01*
X952913Y511429D01*
X961900Y568174D01*
Y625626D01*
X952913Y682371D01*
X935159Y737011D01*
X909076Y788202D01*
X875307Y834682D01*
X834682Y875307D01*
X788202Y909076D01*
X737011Y935159D01*
X682371Y952913D01*
X625626Y961900D01*
D02*
G37*
G36*
X3619551Y311600D02*
X3556200D01*
Y209922D01*
X3563183Y210841D01*
X3581525Y218438D01*
X3597276Y230524D01*
X3609362Y246275D01*
X3616959Y264617D01*
X3619551Y284300D01*
Y311600D01*
D02*
G37*
G36*
X2666800Y311600D02*
X2603449D01*
Y284300D01*
X2606041Y264617D01*
X2613638Y246275D01*
X2625724Y230524D01*
X2641475Y218438D01*
X2659817Y210841D01*
X2666800Y209922D01*
Y311600D01*
D02*
G37*
G36*
X2755551D02*
X2692200D01*
Y209921D01*
X2699184Y210841D01*
X2717525Y218438D01*
X2733276Y230524D01*
X2745362Y246275D01*
X2752959Y264617D01*
X2755551Y284300D01*
Y311600D01*
D02*
G37*
G36*
X3530800Y311600D02*
X3467449D01*
Y284300D01*
X3470041Y264617D01*
X3477638Y246275D01*
X3489724Y230524D01*
X3505475Y218438D01*
X3523816Y210841D01*
X3530800Y209921D01*
Y311600D01*
D02*
G37*
%LPD*%
G36*
X1139154Y4731172D02*
X1144085Y4724505D01*
X1139363Y4713944D01*
X1118991Y4693571D01*
X1114460Y4686790D01*
X1112869Y4678792D01*
X1114460Y4670793D01*
X1118991Y4664012D01*
X1125772Y4659481D01*
X1125818Y4659472D01*
X1133949Y4656501D01*
X1135225Y4646618D01*
X1136971Y4637839D01*
X1141944Y4630397D01*
X1149387Y4625424D01*
X1158165Y4623678D01*
X1163509Y4618334D01*
X1165255Y4609555D01*
X1170228Y4602112D01*
X1177671Y4597139D01*
X1186449Y4595393D01*
X1191793Y4590049D01*
X1193539Y4581271D01*
X1198512Y4573828D01*
X1205955Y4568855D01*
X1214733Y4567109D01*
X1220078Y4561765D01*
X1221824Y4552986D01*
X1226797Y4545544D01*
X1234239Y4540571D01*
X1243018Y4538825D01*
X1252901Y4537549D01*
X1255872Y4529418D01*
X1255881Y4529372D01*
X1260412Y4522591D01*
X1267193Y4518060D01*
X1275192Y4516469D01*
X1283190Y4518060D01*
X1289971Y4522591D01*
X1312290Y4544910D01*
X1320800Y4548714D01*
X1329310Y4544910D01*
X1351629Y4522591D01*
X1350983Y4507748D01*
X1299361Y4456125D01*
X1287309Y4453564D01*
X1275732Y4461300D01*
X1262075Y4464016D01*
X1217853D01*
X1154544Y4527325D01*
X1055549Y4428330D01*
X1154544Y4329336D01*
X1217853Y4392645D01*
X1262075D01*
X1275732Y4395361D01*
X1287309Y4403097D01*
X1288160Y4404370D01*
X1305451D01*
X1314620Y4406194D01*
X1322394Y4411388D01*
X1417351Y4506345D01*
X1422545Y4514118D01*
X1424369Y4523287D01*
Y4534936D01*
X1437068Y4540958D01*
X1443286Y4536168D01*
Y4492376D01*
X1359143Y4408232D01*
X1350163Y4417212D01*
X1295221Y4362270D01*
X1366214Y4291277D01*
X1437207Y4220284D01*
X1492149Y4275226D01*
X1483169Y4284206D01*
X1567313Y4368349D01*
X1775713D01*
X1895067Y4248995D01*
X1856777Y4210705D01*
X1858003Y4209478D01*
X1849988Y4200098D01*
X1743923Y4094032D01*
X1761994Y4075961D01*
X1707541Y4021509D01*
X1684872Y4044178D01*
X1610626Y3969932D01*
X1688407Y3892150D01*
X1709309Y3913052D01*
X1723878Y3898482D01*
Y3864155D01*
X1629699Y3769975D01*
X1624726Y3762532D01*
X1622979Y3753753D01*
Y3632200D01*
X1624726Y3623421D01*
X1629699Y3615979D01*
X1687359Y3558318D01*
X1687360Y3558317D01*
X1694802Y3553345D01*
X1703581Y3551598D01*
X1852419D01*
X1861198Y3553345D01*
X1868640Y3558317D01*
X1988962Y3678640D01*
X2146401D01*
X2151262Y3666906D01*
X2135747Y3651391D01*
X2187154Y3599984D01*
X2238560Y3651391D01*
X2223045Y3666906D01*
X2227905Y3678640D01*
X2285364D01*
X2375622Y3588381D01*
X2338811Y3551570D01*
Y3551570D01*
X2338811Y3551569D01*
X2303456Y3516214D01*
X2268101Y3480859D01*
X2268100D01*
X2268100Y3480859D01*
X2208279Y3421038D01*
X2197390Y3431927D01*
X2177803Y3412340D01*
X2247912Y3342231D01*
X2229951Y3324270D01*
X2155357Y3398865D01*
X2150884Y3399305D01*
X2149362Y3401582D01*
X2127534Y3423410D01*
X2151798Y3447674D01*
X2052803Y3546669D01*
X1953808Y3447674D01*
X2052803Y3348679D01*
X2077067Y3372943D01*
X2098895Y3351115D01*
X2110472Y3343379D01*
X2115220Y3342435D01*
X2126679Y3339437D01*
X2228792Y3237325D01*
X2223931Y3225591D01*
X1986319D01*
X1387977Y3823934D01*
X1386613Y3824845D01*
X925792Y4285665D01*
Y4519714D01*
X937526Y4524575D01*
X950826Y4511274D01*
X1011213Y4571661D01*
X1071600Y4632048D01*
X1033099Y4670549D01*
X1105337Y4742787D01*
X1127539D01*
X1139154Y4731172D01*
D02*
G37*
G36*
X2399219Y4646832D02*
X2412971Y4660584D01*
X2426420Y4657909D01*
X2450646D01*
X2481914Y4626641D01*
X2484838Y4624688D01*
X2556645Y4552880D01*
X2651078Y4647313D01*
X2675544Y4622847D01*
X2639589Y4586892D01*
X2699975Y4526506D01*
X2690995Y4517525D01*
X2699975Y4508545D01*
X2639588Y4448158D01*
X2687780Y4399966D01*
X2681714Y4388386D01*
X2672301Y4385741D01*
X2668090Y4385610D01*
X2622670Y4431031D01*
X2562283Y4370644D01*
X2553303Y4379624D01*
X2544323Y4370644D01*
X2483936Y4431031D01*
X2447980Y4395076D01*
X2423514Y4419542D01*
X2517947Y4513974D01*
X2418952Y4612969D01*
X2394688Y4588706D01*
X2367891Y4615503D01*
X2381259Y4628871D01*
X2345621Y4664510D01*
X2363581Y4682470D01*
X2399219Y4646832D01*
D02*
G37*
G36*
X2549450Y5067950D02*
X2620650D01*
Y5083350D01*
X2695968D01*
X2707550Y5080649D01*
X2707551Y5080650D01*
X2795870D01*
X2804850Y5071670D01*
Y5067950D01*
X2809180Y5057044D01*
X2809180Y5055250D01*
Y4986020D01*
X2979980D01*
Y5058720D01*
X2949027D01*
X2940650Y5067950D01*
X2949028Y5080650D01*
X3028668D01*
X3037950Y5080650D01*
X3040279Y5081193D01*
X3052979Y5071386D01*
Y5043320D01*
X3014580D01*
Y4903320D01*
X3154580D01*
Y5043320D01*
X3124351D01*
Y5074370D01*
X3132583Y5082602D01*
X3137051Y5083098D01*
X3147550Y5080650D01*
X3156832Y5080650D01*
X3179201D01*
Y4866594D01*
X3180994Y4857582D01*
X3186099Y4849942D01*
X3768970Y4267070D01*
X3685619Y4183719D01*
X3686138Y4183200D01*
X3656881Y4153943D01*
X3655945Y4154879D01*
X3601680Y4100614D01*
X3573375D01*
X3568114Y4113314D01*
X3591059Y4136259D01*
X3530672Y4196646D01*
X3470285Y4257033D01*
X3418879Y4205627D01*
X3457440Y4167066D01*
X3453518Y4153026D01*
X3449847Y4150574D01*
X3443484D01*
X3431928Y4152611D01*
X3431927D01*
X3431927Y4152611D01*
X3412341Y4172197D01*
X3342231Y4102088D01*
X3324270Y4120048D01*
X3398020Y4193798D01*
X3398269Y4196330D01*
X3399320Y4197381D01*
X3407055Y4208958D01*
X3409772Y4222614D01*
Y4244481D01*
X3430536Y4265245D01*
X3432490Y4268170D01*
X3504297Y4339977D01*
X3405303Y4438972D01*
X3306308Y4339977D01*
X3355321Y4290964D01*
X3348852Y4284496D01*
X3341117Y4272919D01*
X3338400Y4259262D01*
Y4226844D01*
X3337350Y4221564D01*
X3337405Y4221288D01*
X3228376Y4112260D01*
X3215676Y4117520D01*
Y4121372D01*
X3213884Y4130384D01*
X3208779Y4138023D01*
X3035811Y4310992D01*
X3035796Y4311001D01*
X2952169Y4394628D01*
Y4572855D01*
X2950376Y4581867D01*
X2945271Y4589506D01*
X2478561Y5056217D01*
X2483421Y5067950D01*
X2524050D01*
Y5183350D01*
X2549450D01*
Y5067950D01*
D02*
G37*
G36*
X3942370Y4029782D02*
X3974314Y4061727D01*
X4071306Y3964735D01*
Y3509414D01*
X4058606Y3504153D01*
X4046544Y3516214D01*
X4020169Y3542589D01*
X4011189Y3551570D01*
X4002209Y3560550D01*
X3914103Y3648655D01*
X3905124Y3657636D01*
X3896143Y3666616D01*
X3843393Y3719366D01*
X3835903Y3726856D01*
X3825432Y3737327D01*
X3737327Y3825432D01*
X3728347Y3834413D01*
X3719366Y3843393D01*
X3666616Y3896143D01*
X3657636Y3905123D01*
X3626099Y3936660D01*
X3626099Y3940479D01*
X3626098Y3940479D01*
X3586925Y3979652D01*
X3538893Y4027684D01*
X3544665Y4038991D01*
X3545099Y4039439D01*
X3601680D01*
X3611108Y4030011D01*
X3614455Y4025001D01*
X3619464Y4021654D01*
X3657288Y3983830D01*
X3659480Y3981638D01*
X3660977Y3969558D01*
X3655379Y3963961D01*
X3701483Y3917857D01*
X3754798Y3971173D01*
X3763779Y3962193D01*
X3772759Y3971173D01*
X3827842Y3916089D01*
X3870850Y3959097D01*
X3880074Y3967486D01*
X3881403Y3968815D01*
X3924409Y4011821D01*
X3869326Y4066905D01*
X3887286Y4084865D01*
X3942370Y4029782D01*
D02*
G37*
G36*
X3128587Y3996554D02*
Y3729346D01*
X3130380Y3720333D01*
X3135486Y3712692D01*
X3589920Y3258258D01*
X3597561Y3253152D01*
X3605088Y3251655D01*
X3609462Y3244386D01*
X3611313Y3239919D01*
X3609712Y3238318D01*
X3602480Y3220860D01*
Y3201964D01*
X3609712Y3184505D01*
X3623074Y3171144D01*
X3626427Y3169754D01*
Y3147842D01*
X3086258Y2607673D01*
X3009555D01*
X2955254Y2661974D01*
X2947613Y2667080D01*
X2938599Y2668872D01*
X2787873D01*
X2778859Y2667080D01*
X2778049Y2666538D01*
X2730526D01*
X2721512Y2664746D01*
X2714237Y2659885D01*
X2643008Y2731114D01*
X2634140Y2739982D01*
X2625123Y2748999D01*
X2630166Y2756546D01*
X2631990Y2765715D01*
X2631990Y2765717D01*
Y2785184D01*
X2630166Y2794354D01*
X2624972Y2802127D01*
X2624971Y2802127D01*
X2483928Y2943171D01*
X2476155Y2948365D01*
X2466985Y2950189D01*
X2447517D01*
X2438348Y2948365D01*
X2430800Y2943322D01*
X2421896Y2952226D01*
X2395521Y2978601D01*
X2386541Y2987581D01*
X2377560Y2996561D01*
X2289455Y3084667D01*
X2280475Y3093647D01*
X2253524Y3120598D01*
X2248071Y3126051D01*
X2251803Y3137408D01*
X2263947Y3138751D01*
X2301646D01*
X2346419Y3093978D01*
X2354059Y3088873D01*
X2363071Y3087081D01*
X2417595D01*
X2426607Y3088873D01*
X2434246Y3093978D01*
X2471442Y3131174D01*
X2476547Y3138813D01*
X2478339Y3147825D01*
Y3170326D01*
X2708827Y3400814D01*
X2713932Y3408453D01*
X2715725Y3417465D01*
Y3655133D01*
X2713932Y3664145D01*
X2708827Y3671784D01*
X2710556Y3686434D01*
X2731114Y3706992D01*
X2739982Y3715860D01*
X2749074Y3724952D01*
X2801824Y3777703D01*
X2810805Y3786683D01*
X2846160Y3822038D01*
X2914961Y3890840D01*
X2916871Y3888931D01*
X2975468Y3947528D01*
X2981438Y3946323D01*
X2988958Y3943057D01*
X2995400Y3927505D01*
X3008762Y3914144D01*
X3026220Y3906912D01*
X3045116D01*
X3062575Y3914144D01*
X3075936Y3927505D01*
X3083168Y3944964D01*
Y3963860D01*
X3081779Y3967214D01*
X3115887Y4001323D01*
X3128587Y3996554D01*
D02*
G37*
G36*
X4030343Y3136191D02*
X4037983Y3131086D01*
X4046994Y3129294D01*
X4087212D01*
X4092472Y3116594D01*
X4080415Y3104537D01*
X4069526Y3115426D01*
X4049939Y3095839D01*
X4120049Y3025730D01*
X4102088Y3007769D01*
X4031978Y3077879D01*
X4012391Y3058292D01*
X4023281Y3047402D01*
X4000724Y3024846D01*
X3998815Y3026755D01*
X3993794Y3021734D01*
X3989178Y3026350D01*
X3982487Y3030820D01*
X3974595Y3032390D01*
X3734711D01*
X3729450Y3045090D01*
X3821702Y3137342D01*
X4029192D01*
X4030343Y3136191D01*
D02*
G37*
G36*
X3911833Y2935955D02*
X3901729Y2925851D01*
X3892860Y2916982D01*
X3883769Y2907890D01*
X3795663Y2819785D01*
X3786683Y2810805D01*
X3777703Y2801824D01*
X3724952Y2749074D01*
X3715972Y2740094D01*
X3706992Y2731114D01*
X3611815Y2635937D01*
X3609906Y2637846D01*
X3604574Y2632514D01*
X3603272Y2633384D01*
X3594260Y2635176D01*
X3460327D01*
X3454997Y2647808D01*
X3754878Y2947688D01*
X3906972D01*
X3911833Y2935955D01*
D02*
G37*
G36*
X2655100Y2482141D02*
X2653191Y2480232D01*
X2727720Y2405703D01*
X2729629Y2407612D01*
X2752186Y2385056D01*
X2741296Y2374166D01*
X2760883Y2354579D01*
X2830993Y2424689D01*
X2848953Y2406728D01*
X2773753Y2331528D01*
X2773421Y2328157D01*
X2771144Y2326636D01*
X2749618Y2305109D01*
X2737022Y2317705D01*
X2638027Y2218710D01*
X2737022Y2119715D01*
X2836017Y2218710D01*
X2800085Y2254642D01*
X2821611Y2276169D01*
X2829347Y2287746D01*
X2829710Y2289571D01*
X2843490Y2293751D01*
X2869141Y2268101D01*
Y2268100D01*
X2869141Y2268100D01*
X2937942Y2199299D01*
X2936033Y2197390D01*
X2941366Y2192057D01*
X2940496Y2190755D01*
X2938704Y2181743D01*
Y2150810D01*
X2940496Y2141798D01*
X2945601Y2134159D01*
X3117766Y1961993D01*
X3111510Y1950289D01*
X3111500Y1950291D01*
X3102721Y1948544D01*
X3095279Y1943572D01*
X3093659Y1941148D01*
X3079341D01*
X3077722Y1943572D01*
X3070279Y1948544D01*
X3061500Y1950291D01*
X3052721Y1948544D01*
X3045279Y1943572D01*
X3043659Y1941148D01*
X3029341D01*
X3027722Y1943572D01*
X3020279Y1948544D01*
X3011500Y1950291D01*
X3002721Y1948544D01*
X2995279Y1943572D01*
X2993659Y1941148D01*
X2979341D01*
X2977722Y1943572D01*
X2970279Y1948544D01*
X2961500Y1950291D01*
X2952721Y1948544D01*
X2945279Y1943572D01*
X2940306Y1936129D01*
X2938560Y1927350D01*
Y1852350D01*
X2932733Y1845250D01*
X2923600D01*
Y1836117D01*
X2916500Y1830291D01*
X2841500D01*
X2832721Y1828544D01*
X2832096Y1828127D01*
X2819396Y1834916D01*
Y1997269D01*
X2835065Y2003759D01*
X2848427Y2017120D01*
X2855658Y2034579D01*
Y2053475D01*
X2848427Y2070933D01*
X2835065Y2084295D01*
X2817607Y2091527D01*
X2798710D01*
X2781252Y2084295D01*
X2769575Y2072619D01*
X2757105Y2085089D01*
X2739647Y2092320D01*
X2720750D01*
X2703292Y2085089D01*
X2689930Y2071727D01*
X2682699Y2054269D01*
Y2035372D01*
X2689930Y2017914D01*
X2703292Y2004552D01*
X2720750Y1997321D01*
X2730265D01*
Y1844592D01*
X2717565Y1840740D01*
X2716508Y1842321D01*
X2511303Y2047526D01*
X2503662Y2052632D01*
X2494649Y2054424D01*
X2398484D01*
X2329195Y2123714D01*
Y2225176D01*
X2600900Y2496880D01*
X2612074Y2508055D01*
X2621654Y2515587D01*
X2655100Y2482141D01*
D02*
G37*
G36*
X3260348Y2183989D02*
X3288915Y2212557D01*
X3306876Y2194596D01*
X3278309Y2166029D01*
X3337151Y2107187D01*
X3304386Y2074422D01*
X3188741D01*
X3129978Y2133185D01*
X3197825Y2201032D01*
X3202930Y2208672D01*
X3204722Y2217684D01*
Y2223022D01*
X3216455Y2227882D01*
X3260348Y2183989D01*
D02*
G37*
G36*
X2736305Y1661498D02*
X2804167Y1593636D01*
X2810858Y1589166D01*
X2818750Y1587596D01*
X2825343Y1575697D01*
X2825279Y1573571D01*
X2820306Y1566129D01*
X2818560Y1557350D01*
X2820306Y1548571D01*
X2825279Y1541129D01*
X2827702Y1539509D01*
Y1525191D01*
X2825279Y1523572D01*
X2820306Y1516129D01*
X2818560Y1507350D01*
X2820306Y1498571D01*
X2825279Y1491129D01*
X2832721Y1486156D01*
X2841500Y1484410D01*
X2916500D01*
X2923600Y1478583D01*
Y1469450D01*
X2932733D01*
X2938560Y1462350D01*
Y1387350D01*
X2940306Y1378571D01*
X2945279Y1371129D01*
X2952721Y1366156D01*
X2961500Y1364410D01*
X2970279Y1366156D01*
X2977722Y1371129D01*
X2979341Y1373552D01*
X2993659D01*
X2995279Y1371129D01*
X3002721Y1366156D01*
X3011500Y1364410D01*
X3020279Y1366156D01*
X3027055Y1370683D01*
X3034176Y1360026D01*
X3038342Y1357242D01*
X3039587Y1344603D01*
X3031689Y1336706D01*
X3027219Y1330015D01*
X3026778Y1327800D01*
X2966500D01*
Y1207800D01*
X3046100D01*
Y1192400D01*
X3098800D01*
Y1267800D01*
X3124200D01*
Y1192400D01*
X3176900D01*
Y1207800D01*
X3256500D01*
Y1327800D01*
X3197351D01*
Y1355632D01*
X3210051Y1364698D01*
X3211500Y1364410D01*
X3220279Y1366156D01*
X3227722Y1371129D01*
X3229341Y1373552D01*
X3243659D01*
X3245279Y1371129D01*
X3252721Y1366156D01*
X3258346Y1365037D01*
X3298961Y1324422D01*
X3293473Y1318935D01*
X3285100Y1298720D01*
Y1276840D01*
X3293473Y1256625D01*
X3308945Y1241153D01*
X3329160Y1232780D01*
X3351040D01*
X3371255Y1241153D01*
X3386727Y1256625D01*
X3395100Y1276840D01*
Y1298720D01*
X3386727Y1318935D01*
X3376634Y1329027D01*
X3377114Y1333780D01*
X3390356Y1338499D01*
X3463985Y1264871D01*
Y1170802D01*
Y1125459D01*
X3425650Y1087124D01*
X3419020Y1077201D01*
X3418198Y1073069D01*
X3322279D01*
Y999117D01*
X3269200Y946037D01*
X3266118Y946285D01*
X3256500Y950249D01*
Y1052800D01*
X2966500D01*
Y969322D01*
X2954767Y964462D01*
X2913105Y1006124D01*
X2904836Y1011649D01*
X2901140Y1012384D01*
Y1073100D01*
X2796140D01*
Y963100D01*
X2873677D01*
X2876140Y962610D01*
X2884523D01*
X2961136Y885997D01*
Y867300D01*
X2911500D01*
Y867300D01*
X2898800Y867300D01*
X2846900D01*
Y882700D01*
X2804200D01*
Y799800D01*
X2778800D01*
Y882700D01*
X2736100D01*
Y864917D01*
X2723400Y858654D01*
X2717525Y863162D01*
X2699184Y870759D01*
X2692200Y871679D01*
Y742300D01*
X2666800D01*
Y871679D01*
X2659817Y870759D01*
X2642653Y863650D01*
X2633315Y867020D01*
X2629953Y868678D01*
Y947700D01*
X2680940D01*
Y1018100D01*
Y1088500D01*
X2629953D01*
Y1163957D01*
X2716508Y1250513D01*
X2721614Y1258154D01*
X2723407Y1267167D01*
Y1657943D01*
X2736107Y1661796D01*
X2736305Y1661498D01*
D02*
G37*
%LPC*%
G36*
X1089560Y4614087D02*
X1038154Y4562681D01*
X1089560Y4511274D01*
X1140967Y4562681D01*
X1089560Y4614087D01*
D02*
G37*
G36*
X1020193Y4544720D02*
X968787Y4493314D01*
X1020193Y4441907D01*
X1071600Y4493314D01*
X1020193Y4544720D01*
D02*
G37*
G36*
X1277260Y4344310D02*
X1222318Y4289368D01*
X1284331Y4227355D01*
X1339273Y4282297D01*
X1277260Y4344310D01*
D02*
G37*
G36*
X1357234Y4264336D02*
X1302292Y4209394D01*
X1364305Y4147381D01*
X1419247Y4202323D01*
X1357234Y4264336D01*
D02*
G37*
G36*
X1575271Y3934576D02*
X1501024Y3860330D01*
X1527912Y3833443D01*
X1530412Y3827408D01*
X1545883Y3811936D01*
X1551918Y3809436D01*
X1578806Y3782549D01*
X1653052Y3856795D01*
X1626165Y3883682D01*
X1623665Y3889717D01*
X1608193Y3905189D01*
X1602158Y3907689D01*
X1575271Y3934576D01*
D02*
G37*
G36*
X2256521Y3633430D02*
X2205114Y3582024D01*
X2256521Y3530618D01*
X2307927Y3582024D01*
X2256521Y3633430D01*
D02*
G37*
G36*
X2117786Y3633431D02*
X2066379Y3582024D01*
X2117786Y3530617D01*
X2169193Y3582024D01*
X2117786Y3633431D01*
D02*
G37*
G36*
X2187154Y3564063D02*
X2135747Y3512656D01*
X2187153Y3461250D01*
X2238560Y3512657D01*
X2187154Y3564063D01*
D02*
G37*
G36*
X2621628Y4568932D02*
X2570221Y4517525D01*
X2621627Y4466119D01*
X2673034Y4517525D01*
X2621628Y4568932D01*
D02*
G37*
G36*
X2553302Y4500398D02*
X2501896Y4448992D01*
X2553303Y4397585D01*
X2604709Y4448991D01*
X2553302Y4500398D01*
D02*
G37*
G36*
X2979980Y4960620D02*
X2907280D01*
Y4887920D01*
X2979980D01*
Y4960620D01*
D02*
G37*
G36*
X2881880D02*
X2809180D01*
Y4887920D01*
X2881880D01*
Y4960620D01*
D02*
G37*
G36*
X3539653Y4326400D02*
X3488246Y4274993D01*
X3539652Y4223587D01*
X3591059Y4274994D01*
X3539653Y4326400D01*
D02*
G37*
G36*
X3609020Y4257033D02*
X3557613Y4205626D01*
X3609019Y4154220D01*
X3660427Y4205627D01*
X3609020Y4257033D01*
D02*
G37*
G36*
X3763779Y3944232D02*
X3719443Y3899897D01*
X3765546Y3853793D01*
X3809882Y3898129D01*
X3763779Y3944232D01*
D02*
G37*
G36*
X2602672Y2473834D02*
X2551265Y2422428D01*
X2602672Y2371021D01*
X2654078Y2422427D01*
X2602672Y2473834D01*
D02*
G37*
G36*
X2672039Y2404467D02*
X2620633Y2353060D01*
X2672039Y2301654D01*
X2723445Y2353060D01*
X2672039Y2404467D01*
D02*
G37*
G36*
X2533305Y2404467D02*
X2481898Y2353060D01*
X2533305Y2301654D01*
X2584711Y2353060D01*
X2533305Y2404467D01*
D02*
G37*
G36*
X2602672Y2335100D02*
X2551265Y2283693D01*
X2602672Y2232287D01*
X2654079Y2283693D01*
X2602672Y2335100D01*
D02*
G37*
G36*
X2761540Y1088500D02*
X2706340D01*
Y1030800D01*
X2761540D01*
Y1088500D01*
D02*
G37*
G36*
Y1005400D02*
X2706340D01*
Y947700D01*
X2761540D01*
Y1005400D01*
D02*
G37*
%LPD*%
D10*
X396240Y1304260D02*
D03*
Y1459260D02*
D03*
X637540Y1304260D02*
D03*
Y1459260D02*
D03*
D11*
X396240Y1812360D02*
D03*
Y1662360D02*
D03*
X637540Y1812360D02*
D03*
Y1662360D02*
D03*
D12*
X2961500Y1424850D02*
D03*
X3011500D02*
D03*
X3061500D02*
D03*
X3111500D02*
D03*
X3161500D02*
D03*
X3211500D02*
D03*
X3261500D02*
D03*
Y1889850D02*
D03*
X3211500D02*
D03*
X3161500D02*
D03*
X3111500D02*
D03*
X3061500D02*
D03*
X3011500D02*
D03*
X2961500D02*
D03*
D13*
X3344000Y1507350D02*
D03*
Y1557350D02*
D03*
Y1607350D02*
D03*
Y1657350D02*
D03*
Y1707350D02*
D03*
Y1757350D02*
D03*
Y1807350D02*
D03*
X2879000D02*
D03*
Y1757350D02*
D03*
Y1707350D02*
D03*
Y1657350D02*
D03*
Y1607350D02*
D03*
Y1557350D02*
D03*
Y1507350D02*
D03*
D14*
X3111500Y1657350D02*
D03*
D15*
X5965400Y2540000D02*
D03*
D16*
Y2794000D02*
D03*
Y3048000D02*
D03*
Y3302000D02*
D03*
Y3556000D02*
D03*
Y3810000D02*
D03*
X5261400D02*
D03*
Y3556000D02*
D03*
Y3302000D02*
D03*
Y3048000D02*
D03*
Y2794000D02*
D03*
Y2540000D02*
D03*
D17*
X3539653Y4205627D02*
D03*
X3405303Y4339977D02*
D03*
X2370906Y2588909D02*
D03*
X2236556Y2723259D02*
D03*
X2602672Y2353060D02*
D03*
X2737022Y2218710D02*
D03*
X2418952Y4513974D02*
D03*
X2553302Y4379624D02*
D03*
X2690995Y4517525D02*
D03*
X2556645Y4651875D02*
D03*
X1020193Y4562681D02*
D03*
X1154544Y4428330D02*
D03*
X1487305Y5020175D02*
D03*
X1621655Y4885825D02*
D03*
X4385445Y958715D02*
D03*
X4519795Y824365D02*
D03*
X2579235Y1761625D02*
D03*
X2444885Y1895975D02*
D03*
X1682885Y2632575D02*
D03*
X1817235Y2498225D02*
D03*
D18*
X2187153Y3582024D02*
D03*
X2052803Y3447674D02*
D03*
X3422042Y2027921D02*
D03*
X3556392Y2162271D02*
D03*
X4345259Y2948576D02*
D03*
X4210909Y2814226D02*
D03*
X1760835Y4701453D02*
D03*
X1626485Y4567102D02*
D03*
D19*
X1175843Y4664296D02*
D03*
X1204127Y4636012D02*
D03*
X1232412Y4607727D02*
D03*
X1260696Y4579443D02*
D03*
X1465757Y4784504D02*
D03*
X1437473Y4812788D02*
D03*
X1409188Y4841073D02*
D03*
X1380904Y4869357D02*
D03*
D20*
Y4579443D02*
D03*
X1409188Y4607727D02*
D03*
X1437473Y4636012D02*
D03*
X1465757Y4664296D02*
D03*
X1260696Y4869357D02*
D03*
X1232412Y4841073D02*
D03*
X1204127Y4812788D02*
D03*
X1175843Y4784504D02*
D03*
D21*
X1147559Y4692580D02*
D03*
X1352620Y4897641D02*
D03*
X1494041Y4756220D02*
D03*
X1288980Y4551159D02*
D03*
D22*
X1147559Y4756220D02*
D03*
X1288980Y4897641D02*
D03*
X1494041Y4692580D02*
D03*
X1352620Y4551159D02*
D03*
D23*
X1320800Y4724400D02*
D03*
D24*
X1515784Y2266276D02*
D03*
X2187536Y1594524D02*
D03*
D25*
X2203576Y3297895D02*
D03*
X2238932Y3333251D02*
D03*
X2274287Y3368606D02*
D03*
X2309643Y3403961D02*
D03*
X2344998Y3439317D02*
D03*
X2380353Y3474672D02*
D03*
X2415709Y3510027D02*
D03*
X2451064Y3545383D02*
D03*
X2486419Y3580738D02*
D03*
X2521775Y3616093D02*
D03*
X2557130Y3651449D02*
D03*
X2592486Y3686804D02*
D03*
X2627841Y3722159D02*
D03*
X2663196Y3757514D02*
D03*
X2698551Y3792870D02*
D03*
X2733907Y3828225D02*
D03*
X2769262Y3863581D02*
D03*
X2804617Y3898936D02*
D03*
X2839973Y3934291D02*
D03*
X2875328Y3969647D02*
D03*
X2910683Y4005002D02*
D03*
X2946039Y4040357D02*
D03*
X2981394Y4075713D02*
D03*
X3016749Y4111068D02*
D03*
X3052105Y4146424D02*
D03*
X4146424Y3052105D02*
D03*
X4111068Y3016749D02*
D03*
X4075713Y2981394D02*
D03*
X4040357Y2946039D02*
D03*
X4005002Y2910683D02*
D03*
X3969647Y2875328D02*
D03*
X3934291Y2839973D02*
D03*
X3898936Y2804617D02*
D03*
X3863581Y2769262D02*
D03*
X3828225Y2733907D02*
D03*
X3792870Y2698551D02*
D03*
X3757514Y2663196D02*
D03*
X3722159Y2627841D02*
D03*
X3686804Y2592486D02*
D03*
X3651449Y2557130D02*
D03*
X3616093Y2521775D02*
D03*
X3580738Y2486419D02*
D03*
X3545383Y2451064D02*
D03*
X3510027Y2415709D02*
D03*
X3474672Y2380353D02*
D03*
X3439317Y2344998D02*
D03*
X3403961Y2309643D02*
D03*
X3368606Y2274287D02*
D03*
X3333251Y2238932D02*
D03*
X3297895Y2203576D02*
D03*
D26*
Y4146424D02*
D03*
X3333251Y4111068D02*
D03*
X3368606Y4075713D02*
D03*
X3403961Y4040357D02*
D03*
X3439317Y4005002D02*
D03*
X3474672Y3969647D02*
D03*
X3510027Y3934291D02*
D03*
X3545383Y3898936D02*
D03*
X3580738Y3863581D02*
D03*
X3616093Y3828225D02*
D03*
X3651449Y3792870D02*
D03*
X3686804Y3757514D02*
D03*
X3722159Y3722159D02*
D03*
X3757514Y3686804D02*
D03*
X3792870Y3651449D02*
D03*
X3828225Y3616093D02*
D03*
X3863581Y3580738D02*
D03*
X3898936Y3545383D02*
D03*
X3934291Y3510027D02*
D03*
X3969647Y3474672D02*
D03*
X4005002Y3439317D02*
D03*
X4040357Y3403961D02*
D03*
X4075713Y3368606D02*
D03*
X4111068Y3333251D02*
D03*
X4146424Y3297895D02*
D03*
X3052105Y2203576D02*
D03*
X3016749Y2238932D02*
D03*
X2981394Y2274287D02*
D03*
X2946039Y2309643D02*
D03*
X2910683Y2344998D02*
D03*
X2875328Y2380353D02*
D03*
X2839973Y2415709D02*
D03*
X2804617Y2451064D02*
D03*
X2769262Y2486419D02*
D03*
X2733907Y2521775D02*
D03*
X2698551Y2557130D02*
D03*
X2663196Y2592486D02*
D03*
X2627841Y2627841D02*
D03*
X2592486Y2663196D02*
D03*
X2557130Y2698551D02*
D03*
X2521775Y2733907D02*
D03*
X2486419Y2769262D02*
D03*
X2451064Y2804617D02*
D03*
X2415709Y2839973D02*
D03*
X2380353Y2875328D02*
D03*
X2344998Y2910683D02*
D03*
X2309643Y2946039D02*
D03*
X2274287Y2981394D02*
D03*
X2238932Y3016749D02*
D03*
X2203576Y3052105D02*
D03*
D27*
X3634573Y1170802D02*
D03*
X3494572D02*
D03*
D28*
X2693640Y1018100D02*
D03*
X2848640D02*
D03*
X3529779Y1018069D02*
D03*
X3374779D02*
D03*
D29*
X3948380Y1137920D02*
D03*
X3783380D02*
D03*
X3708669Y1843681D02*
D03*
X3543669D02*
D03*
D30*
X3914714Y950133D02*
D03*
X3764714D02*
D03*
D31*
X3016500Y1267800D02*
D03*
X3111500D02*
D03*
X3206500D02*
D03*
Y992800D02*
D03*
X3111500D02*
D03*
X3016500D02*
D03*
D32*
X2791500Y799800D02*
D03*
X2871500D02*
D03*
X3431500D02*
D03*
X3351500D02*
D03*
D33*
X3286500D02*
D03*
X3036500D02*
D03*
X3086500D02*
D03*
X2936500D02*
D03*
X3236500D02*
D03*
X3186500D02*
D03*
X3136500D02*
D03*
X2986500D02*
D03*
D34*
X3966800Y1488440D02*
D03*
X3606800D02*
D03*
D35*
X1357234Y4282297D02*
D03*
X1473906Y4398969D02*
D03*
X1857060Y4086961D02*
D03*
X1973732Y4203633D02*
D03*
X1934595Y3833998D02*
D03*
X1817922Y3717326D02*
D03*
D36*
X2163682Y4772484D02*
D03*
X2209644Y4818447D02*
D03*
X2255606Y4864408D02*
D03*
X2301568Y4910370D02*
D03*
X2446525Y4765414D02*
D03*
X2400563Y4719452D02*
D03*
X2354601Y4673490D02*
D03*
X2308639Y4627528D02*
D03*
D37*
X5175995Y1479098D02*
D03*
X5086192Y1568900D02*
D03*
X4996390Y1658703D02*
D03*
X4906587Y1748506D02*
D03*
X4397470Y1239388D02*
D03*
X4487273Y1149586D02*
D03*
X4577075Y1059784D02*
D03*
X4666878Y969981D02*
D03*
D38*
X2894580Y4973320D02*
D03*
X3084580D02*
D03*
D39*
X2739250Y6230850D02*
D03*
X3336250D02*
D03*
D40*
X3686250Y5763350D02*
D03*
Y6133350D02*
D03*
D41*
X3668750Y5160850D02*
D03*
D42*
X3422750Y5148350D02*
D03*
X3312750D02*
D03*
X3202750D02*
D03*
X3092750D02*
D03*
X2982750D02*
D03*
X2872750D02*
D03*
X2762750D02*
D03*
D43*
X2657750D02*
D03*
D44*
X2536750Y5183350D02*
D03*
D45*
X1577038Y3858563D02*
D03*
X1686640Y3968164D02*
D03*
X2103563Y3953299D02*
D03*
X2213164Y4062900D02*
D03*
D46*
X3878306Y4075885D02*
D03*
X3772240Y4181951D02*
D03*
X3763779Y3962193D02*
D03*
X3657713Y4068259D02*
D03*
D47*
X4076659Y2472870D02*
D03*
X4182725Y2578936D02*
D03*
X3962707Y2586027D02*
D03*
X4068773Y2692093D02*
D03*
D48*
X396240Y1459260D02*
Y1662360D01*
X637540Y1459260D02*
Y1662360D01*
D49*
X1909912Y2758440D02*
X2203576Y3052105D01*
X1428705Y2758440D02*
X1909912D01*
X637540Y1967275D02*
X1428705Y2758440D01*
X637540Y1812360D02*
Y1967275D01*
X2548890Y2548890D02*
X2627841Y2627841D01*
X2255520Y2085340D02*
Y2255520D01*
Y2085340D02*
X2444885Y1895975D01*
X2255520Y2255520D02*
X2548890Y2548890D01*
X2513535Y2584245D02*
X2592486Y2663196D01*
X2215289Y2286000D02*
X2513535Y2584245D01*
X1817235Y2498225D02*
X2029460Y2286000D01*
X2215289D01*
X1585286Y2266276D02*
X1817235Y2498225D01*
X1515784Y2266276D02*
X1585286D01*
X2187536Y1594524D02*
Y1638626D01*
X2444885Y1895975D01*
D50*
X2702875Y4283521D02*
X2867088Y4119308D01*
X2702875Y4377002D02*
X2802945Y4477072D01*
X2702875Y4283521D02*
Y4377002D01*
X2742233Y4360616D02*
X2842138Y4460521D01*
X2742233Y4299591D02*
X2888452Y4153372D01*
X2742233Y4299591D02*
Y4360616D01*
X2888452Y4153372D02*
X2903735D01*
X2842138Y4460521D02*
Y4544983D01*
X2802945Y4477072D02*
Y4528749D01*
X2567869Y4763825D02*
X2802945Y4528749D01*
X3635235Y2277885D02*
Y2429230D01*
Y2277885D02*
X3800766Y2112354D01*
X3674428Y2294119D02*
Y2460748D01*
Y2294119D02*
X3817000Y2151547D01*
X4038946Y3160891D02*
X4046994Y3152843D01*
X3190973Y2539916D02*
X3811948Y3160891D01*
X4038946D01*
X4046994Y3152843D02*
X4335780D01*
X3192127Y3744791D02*
X3622810Y3314109D01*
X4018524D01*
X3533992Y2005598D02*
Y2039144D01*
X3314140Y2050873D02*
X3403137Y2139870D01*
X3433266D02*
X3533992Y2039144D01*
X3403137Y2139870D02*
X3433266D01*
X3241966Y4882806D02*
X4134048Y3990724D01*
X3202750Y4866594D02*
X4094854Y3974489D01*
Y3499746D02*
Y3974489D01*
X4335780Y3152843D02*
X4635500Y2853123D01*
Y2710180D02*
Y2853123D01*
Y2710180D02*
X4805680Y2540000D01*
X5261400D01*
X2881331Y4376735D02*
X3006217Y4251850D01*
X3255624Y3806245D02*
X3283749Y3834370D01*
X3030640Y4282860D02*
X3192127Y4121372D01*
X3403210Y3804138D02*
X3406821Y3807749D01*
X3283749Y3834370D02*
Y3849434D01*
X3329867Y3786647D02*
X3332942Y3789722D01*
X3192127Y3744791D02*
Y4121372D01*
X3255624Y3799803D02*
Y3806245D01*
X3332942Y3789722D02*
Y3827917D01*
X3283749Y3849434D02*
X3439317Y4005002D01*
X2982750Y5148350D02*
Y5257010D01*
X2900120Y5339640D02*
X2982750Y5257010D01*
X2369824Y5301629D02*
X2407834Y5339640D01*
X2369824Y5076224D02*
X2881331Y4564716D01*
X2369824Y5076224D02*
Y5301629D01*
X2407834Y5339640D02*
X2900120D01*
X3019154Y4294340D02*
X3019159D01*
X3030640Y4282860D01*
X2928620Y4384874D02*
Y4572855D01*
Y4384874D02*
X3019154Y4294340D01*
X2881331Y4376735D02*
Y4564716D01*
X2409017Y5092458D02*
Y5285395D01*
X2424068Y5300447D01*
X2718333D01*
X2359453Y4852486D02*
X2423446D01*
X2472914Y4803018D01*
X2584103D01*
X2842138Y4544983D01*
X2461770Y4763825D02*
X2567869D01*
X2409017Y5092458D02*
X2928620Y4572855D01*
X4018524Y3314109D02*
X4073021Y3368606D01*
X3326677Y2427714D02*
X3353909D01*
X3455163Y2611627D02*
X3594260D01*
X3181173Y2217684D02*
Y2282210D01*
X3141980Y2233918D02*
Y2298444D01*
X3455163Y2611627D01*
X3181173Y2282210D02*
X3326677Y2427714D01*
X3353909D02*
X3436625Y2344998D01*
X3241966Y5007266D02*
X3312750Y5078050D01*
Y5148350D01*
X3241966Y4882806D02*
Y5007266D01*
X4134048Y3455649D02*
Y3990724D01*
X3202750Y4866594D02*
Y5148350D01*
X4200920Y3355084D02*
Y3388776D01*
X4134048Y3455649D02*
X4200920Y3388776D01*
X4146424Y3297895D02*
Y3300587D01*
X4094854Y3461150D02*
Y3499746D01*
X4146424Y3300587D02*
X4200920Y3355084D01*
X4040357Y3406653D02*
X4094854Y3461150D01*
X4040357Y3403961D02*
Y3406653D01*
X2763520Y5149120D02*
Y5255260D01*
X2762750Y5148350D02*
X2763520Y5149120D01*
X2718333Y5300447D02*
X2763520Y5255260D01*
X4073021Y3368606D02*
X4075713D01*
X3483242Y3834104D02*
X3545383Y3896244D01*
X3483242Y3785502D02*
Y3834104D01*
X3406821Y3831085D02*
X3510027Y3934291D01*
X3406821Y3807749D02*
Y3831085D01*
X3332942Y3827917D02*
X3474672Y3969647D01*
X3220720Y1971040D02*
X3299460D01*
X3451573Y1757458D02*
Y1818927D01*
X3299460Y1971040D02*
X3451573Y1818927D01*
X3315109Y2011680D02*
X3415352Y1911437D01*
X3433104D01*
X3467445Y1945778D01*
X3451573Y1757458D02*
X3491919Y1717112D01*
X2962252Y2150810D02*
X3142022Y1971040D01*
X3220720D01*
X3300553Y2050873D02*
X3314140D01*
X3261360Y2011680D02*
X3315109D01*
X3064770Y2106670D02*
X3159760Y2011680D01*
X3103963Y2125897D02*
X3178987Y2050873D01*
X3300553D01*
X3159760Y2011680D02*
X3261360D01*
X3545383Y3896244D02*
Y3898936D01*
X3064770Y2106670D02*
Y2156708D01*
X3103963Y2125897D02*
Y2140474D01*
X3181173Y2217684D01*
X3064770Y2156708D02*
X3141980Y2233918D01*
X3533992Y2005598D02*
X3554619Y1984971D01*
X3801127D01*
X4683760Y1164317D02*
Y1228907D01*
X4579226Y1059784D02*
X4683760Y1164317D01*
X3883489Y1795499D02*
X4117169D01*
X4683760Y1228907D01*
X3845334Y1833654D02*
X3883489Y1795499D01*
X3845334Y1833654D02*
Y1940764D01*
X3801127Y1984971D02*
X3845334Y1940764D01*
X3436625Y2344998D02*
X3439317D01*
X4084248Y1717112D02*
X4462819Y1338541D01*
X4397470Y1239388D02*
X4462819Y1304738D01*
Y1338541D01*
X4487273Y1149586D02*
X4574540Y1236853D01*
X4100935Y1756305D02*
X4574540Y1282700D01*
Y1236853D02*
Y1282700D01*
X3867255Y1756305D02*
X4100935D01*
X3491919Y1717112D02*
X4084248D01*
X3804920Y1818640D02*
X3867255Y1756305D01*
X3804920Y1818640D02*
Y1925751D01*
X3784893Y1945778D02*
X3804920Y1925751D01*
X3467445Y1945778D02*
X3784893D01*
X3594260Y2611627D02*
X3648757Y2557130D01*
X3651449D01*
X2962252Y2181743D02*
X3016749Y2236240D01*
X2962252Y2150810D02*
Y2181743D01*
X3016749Y2236240D02*
Y2238932D01*
X5175995Y1479098D02*
X5177338D01*
X5255260Y1557020D01*
Y1662145D01*
X4765858Y2151547D02*
X5255260Y1662145D01*
X3817000Y2151547D02*
X4765858D01*
X3800766Y2112354D02*
X4749624D01*
X4733390Y2073161D02*
X5031745Y1774805D01*
X5086192Y1568900D02*
Y1568901D01*
X4749624Y2112354D02*
X5156857Y1705121D01*
Y1639565D02*
Y1705121D01*
X5031745Y1694058D02*
Y1774805D01*
X5086192Y1568901D02*
X5156857Y1639565D01*
X3781864Y2073161D02*
X4733390D01*
X3616093Y2519083D02*
Y2521775D01*
Y2519083D02*
X3674428Y2460748D01*
X3474672Y2380353D02*
X3781864Y2073161D01*
X3580738Y2483728D02*
X3635235Y2429230D01*
X3580738Y2483728D02*
Y2486419D01*
X4996390Y1658703D02*
X5031745Y1694058D01*
X2301568Y4910370D02*
X2359453Y4852486D01*
X2903735Y4153372D02*
X2981394Y4075713D01*
X2867088Y4119308D02*
X2946039Y4040357D01*
X2446525Y4765414D02*
X2451828Y4760111D01*
X2458055D01*
X2461770Y4763825D01*
X2251490Y4691544D02*
X2271853Y4711907D01*
Y4819307D01*
X2260909Y4830251D02*
X2271853Y4819307D01*
X2260909Y4830251D02*
Y4859105D01*
X2255606Y4864408D02*
X2260909Y4859105D01*
X2214947Y4784289D02*
X2232660Y4766576D01*
X2212297Y4707778D02*
X2232660Y4728141D01*
Y4766576D01*
X2214947Y4784289D02*
Y4813143D01*
X2209644Y4818447D02*
X2214947Y4813143D01*
X2212297Y4542029D02*
X2525844Y4228481D01*
X2212297Y4542029D02*
Y4707778D01*
X2525844Y4228481D02*
X2631777D01*
X2251490Y4558263D02*
X2542078Y4267674D01*
X2648011D01*
X2792539Y4067718D02*
X2800209Y4060049D01*
X2648011Y4267674D02*
X2831733Y4083952D01*
X2792539Y4067718D02*
Y4067719D01*
X2631777Y4228481D02*
X2792539Y4067719D01*
X2800209Y4044766D02*
X2875328Y3969647D01*
X2800209Y4044766D02*
Y4060049D01*
X2831732Y4083952D02*
X2910683Y4005002D01*
X2251490Y4558263D02*
Y4691544D01*
X1976565Y3202043D02*
X2329412D01*
X2311400Y3162300D02*
X2363071Y3110630D01*
X1960880Y3162300D02*
X2311400D01*
X2454790Y3180080D02*
X2692176Y3417465D01*
X2391294Y3174126D02*
X2652983Y3435815D01*
X2454790Y3147825D02*
Y3180080D01*
X2417595Y3110630D02*
X2454790Y3147825D01*
X2366731Y3239361D02*
X2401101D01*
X2329412Y3202043D02*
X2366731Y3239361D01*
X2401101D02*
X2613789Y3452049D01*
Y3524079D01*
X2521775Y3616093D02*
X2613789Y3524079D01*
X2692176Y3417465D02*
Y3655133D01*
X2363071Y3110630D02*
X2417595D01*
X2652983Y3435815D02*
Y3623615D01*
X1861820Y3261360D02*
X1935480Y3187700D01*
X1728842Y3261360D02*
X1861820D01*
X1935480Y3187700D02*
X1960880Y3162300D01*
X1703891Y3286311D02*
X1728842Y3261360D01*
X1686563Y3303639D02*
Y3380737D01*
X823157Y4244143D02*
X1686563Y3380737D01*
X1745691Y3334309D02*
X1750060Y3329940D01*
X862350Y4260377D02*
X1745691Y3377036D01*
Y3334309D02*
Y3377036D01*
X1686563Y3303639D02*
X1703891Y3286311D01*
Y3286311D02*
Y3286311D01*
X902244Y4275911D02*
Y4572996D01*
X1370873Y3807282D02*
X1371325D01*
X1976565Y3202043D01*
X902244Y4275911D02*
X1370873Y3807282D01*
X862350Y4260377D02*
Y4588530D01*
X823157Y4244143D02*
Y4604764D01*
X1065191Y4846798D02*
X1169547D01*
X823157Y4604764D02*
X1065191Y4846798D01*
X1169547D02*
X1203557Y4812788D01*
X1204127D01*
X2627841Y3719468D02*
Y3722159D01*
Y3719468D02*
X2692176Y3655133D01*
X902244Y4572996D02*
X1095583Y4766336D01*
X862350Y4588530D02*
X1081425Y4807605D01*
X1151899D01*
X1095583Y4766336D02*
X1137443D01*
X1174999Y4784504D02*
X1175843D01*
X1151899Y4807605D02*
X1174999Y4784504D01*
X1137443Y4766336D02*
X1147559Y4756220D01*
X1506382Y4567102D02*
X1626485D01*
X1437473Y4636012D02*
X1506382Y4567102D01*
X1466835Y4406040D02*
Y4550081D01*
X1409188Y4607727D02*
X1466835Y4550081D01*
Y4406040D02*
X1473906Y4398969D01*
X1709994Y3665564D02*
X1761755Y3717326D01*
X1973732Y4190040D02*
Y4203633D01*
Y4190040D02*
X2434718Y3729054D01*
X2476834D01*
X2512896Y3692991D01*
X2515587D02*
X2557130Y3651449D01*
X2512896Y3692991D02*
X2515587D01*
X2634028Y3642570D02*
X2652983Y3623615D01*
X2634028Y3642570D02*
Y3645261D01*
X2592486Y3686804D02*
X2634028Y3645261D01*
X1761755Y3717326D02*
X1817922D01*
X1785467Y4391898D02*
X1973732Y4203633D01*
X1973732D01*
X1473906Y4398969D02*
X1480977Y4391898D01*
X1785467D01*
D51*
X3139992Y2423423D02*
X3728336Y3011767D01*
X3974595D01*
X3103326Y2423423D02*
X3139992D01*
X3097673Y2417770D02*
X3103326Y2423423D01*
X3086968Y2343135D02*
X3092621Y2348788D01*
X3126811D02*
X3746335Y2968312D01*
X3092621Y2348788D02*
X3126811D01*
X3974595Y3011767D02*
X4040323Y2946039D01*
X2750889Y1676081D02*
X2818750Y1608220D01*
X2750889Y1676081D02*
Y2021421D01*
X3746335Y2968312D02*
X3940625D01*
X2730199Y2042110D02*
Y2044820D01*
Y2042110D02*
X2750889Y2021421D01*
X3063198Y625473D02*
X3109364D01*
X3030553Y658118D02*
X3063198Y625473D01*
X3136445Y709847D02*
Y799745D01*
X3036500Y710682D02*
Y799800D01*
X3086281Y681201D02*
X3086555Y681475D01*
X3136445Y799745D02*
X3136500Y799800D01*
X3030553Y658118D02*
Y704736D01*
X3109364Y625473D02*
X3142008Y658118D01*
X3030553Y704736D02*
X3036500Y710682D01*
X3136445Y709847D02*
X3142008Y704284D01*
X3086555Y681475D02*
Y799745D01*
X3086500Y799800D02*
X3086555Y799745D01*
X2802505Y2038374D02*
X2808158Y2044027D01*
X2802505Y2023464D02*
Y2038374D01*
X2798772Y2019732D02*
X2802505Y2023464D01*
X2798772Y1689652D02*
X2830205Y1658219D01*
X2798772Y1689652D02*
Y2019732D01*
X4040323Y2946039D02*
X4040357D01*
X3940625Y2968312D02*
X3998253Y2910683D01*
X2818750Y1608220D02*
X2878131D01*
X2879000Y1607350D01*
X3998253Y2910683D02*
X4005002D01*
X2830205Y1658219D02*
X2878131D01*
X2879000Y1657350D01*
X3161500Y1386120D02*
Y1424850D01*
Y1386120D02*
X3176727Y1370893D01*
Y1297572D02*
Y1370893D01*
Y1297572D02*
X3206500Y1267800D01*
X3046273Y1322123D02*
X3111500Y1387350D01*
X3046273Y1297572D02*
Y1322123D01*
X3016500Y1267800D02*
X3046273Y1297572D01*
X3111500Y1387350D02*
Y1424850D01*
X3187100Y700185D02*
Y799200D01*
Y700185D02*
X3196342Y690943D01*
X3186500Y799800D02*
X3187100Y799200D01*
X3196342Y645729D02*
Y690943D01*
X3142008Y658118D02*
Y704284D01*
X3176727Y939421D02*
Y963027D01*
X3136705Y922572D02*
X3159879D01*
X3176727Y939421D01*
X3128078Y850722D02*
Y913945D01*
X3136500Y799800D02*
Y842300D01*
X3176727Y963027D02*
X3206500Y992800D01*
X3046273Y939421D02*
Y963027D01*
Y939421D02*
X3063121Y922572D01*
X3086295D01*
X3094922Y913945D01*
X3128078Y850722D02*
X3136500Y842300D01*
X3094922Y850722D02*
Y913945D01*
X3086500Y799800D02*
Y842300D01*
X3094922Y850722D01*
X3016500Y992800D02*
X3046273Y963027D01*
X3128078Y913945D02*
X3136705Y922572D01*
D52*
X3973928Y3084894D02*
X4040802D01*
X4108947Y3016749D01*
X4111068D01*
X3100500Y1547350D02*
X3111500D01*
X3061500Y1424850D02*
Y1508350D01*
X3100500Y1547350D01*
X3240711Y2144358D02*
X3297895Y2201542D01*
Y2203576D01*
X3333251Y2238932D02*
X3391216Y2180967D01*
X3430647D01*
X4148545Y3052105D02*
X4194722Y3005928D01*
X4200364D01*
X4210909Y2995384D01*
X4146424Y3052105D02*
X4148545D01*
X4210909Y2961229D02*
Y2995384D01*
X2557130Y2698551D02*
X2598673Y2740094D01*
Y2756357D01*
X2599057Y2756741D01*
Y2756743D02*
X2608030Y2765715D01*
Y2785184D01*
X2447517Y2926229D02*
X2466985D01*
X2608030Y2785184D01*
X2438159Y2916871D02*
X2447517Y2926229D01*
X2421896Y2916871D02*
X2438159D01*
X2380353Y2875328D02*
X2421896Y2916871D01*
X2599057Y2756741D02*
Y2756743D01*
X2301403Y2796377D02*
X2380353Y2875328D01*
Y2875328D01*
X3372142Y4072177D02*
X3426578Y4126613D01*
X3467987D01*
X3297895Y4146424D02*
X3373036Y4221564D01*
X4075713Y2979273D02*
Y2981394D01*
X4136613Y2890620D02*
Y2918372D01*
X4053085Y2807092D02*
X4136613Y2890620D01*
X4053085Y2803405D02*
Y2807092D01*
X4075713Y2979273D02*
X4136613Y2918372D01*
X2875328Y2380353D02*
X2910683Y2344998D01*
X2875328Y2380353D02*
Y2380353D01*
X2796378Y2301402D02*
X2875328Y2380353D01*
X2124129Y3376349D02*
X2202582Y3297895D01*
X2203576D01*
X1380904Y4570958D02*
Y4579443D01*
Y4570958D02*
X1400408Y4551453D01*
X1305451Y4428330D02*
X1400408Y4523287D01*
Y4551453D01*
X1262075Y4428330D02*
X1305451D01*
X1494041Y4758210D02*
X1556129Y4820298D01*
X1494041Y4756220D02*
Y4758210D01*
D53*
X3177595Y2596113D02*
X3791570Y3210088D01*
X4067372Y3202039D02*
X4335126D01*
X3791570Y3210088D02*
X4059324D01*
X4067372Y3202039D01*
X4335126D02*
X4363843Y3230757D01*
X3606574Y3274912D02*
X4041557D01*
X4055306Y3288660D02*
X4063791D01*
X4041557Y3274912D02*
X4055306Y3288660D01*
X3152140Y3729346D02*
X3606574Y3274912D01*
X4063791Y3288660D02*
X4108381Y3333251D01*
X2494649Y2030872D02*
X2699854Y1825667D01*
X2305642Y2113958D02*
X2388728Y2030872D01*
X2494649D01*
X2699854Y1267167D02*
Y1825667D01*
X2606400Y1173713D02*
X2699854Y1267167D01*
X2584245Y2513535D02*
X2663196Y2592486D01*
X2305642Y2234932D02*
X2584245Y2513535D01*
X2305642Y2113958D02*
Y2234932D01*
X2606400Y657021D02*
Y1173713D01*
X3507709Y548129D02*
X3616600Y657021D01*
X2715291Y548129D02*
X3507709D01*
X3591473Y1076544D02*
X3616600Y1051416D01*
X3591473Y1076544D02*
Y1240179D01*
X3453700Y1377951D02*
X3591473Y1240179D01*
X2606400Y657021D02*
X2715291Y548129D01*
X3453700Y1377951D02*
Y1485496D01*
X3396246Y1542950D02*
X3453700Y1485496D01*
X3380300Y1557350D02*
X3394700Y1542950D01*
X3396246D01*
X3344000Y1557350D02*
X3380300D01*
X3616600Y657021D02*
Y1051416D01*
X2785538Y2642986D02*
X2787873Y2645320D01*
X2730526Y2642986D02*
X2785538D01*
X2721568Y2634028D02*
X2730526Y2642986D01*
X2663196Y2592486D02*
X2704739Y2634028D01*
X2721568D01*
X2808252Y2596120D02*
X2918220D01*
X2787873Y2645320D02*
X2938599D01*
X2918220Y2596120D02*
X2979420Y2534920D01*
X2733907Y2521775D02*
X2808252Y2596120D01*
X2938599Y2645320D02*
X2999799Y2584120D01*
X3132632Y2481580D02*
X3190971Y2539919D01*
X2832450Y2546920D02*
X2895283D01*
X3116393Y2534920D02*
X3177586Y2596113D01*
X2960622Y2481580D02*
X3132632D01*
X2979420Y2534920D02*
X3116393D01*
X2895283Y2546920D02*
X2960622Y2481580D01*
X2999799Y2584120D02*
X3096014D01*
X3649980Y3138086D01*
Y3211412D01*
X4247806Y3059893D02*
X4254247D01*
X4280453Y3086100D01*
X4330700D01*
X4584700Y2832100D01*
X4363843Y3230757D02*
X4640077Y3506990D01*
X4584700Y2689860D02*
X4783757Y2490803D01*
X4584700Y2689860D02*
Y2832100D01*
X4998570Y2490803D02*
X5008880Y2480493D01*
X4783757Y2490803D02*
X4998570D01*
X5008880Y2479709D02*
Y2480493D01*
X5031689Y2456900D02*
X5491110D01*
X5510500Y2476289D01*
Y3097568D01*
X5388772Y3219297D02*
X5510500Y3097568D01*
X5008880Y2479709D02*
X5031689Y2456900D01*
X5045435Y3219297D02*
X5388772D01*
X4911932Y3352800D02*
X5045435Y3219297D01*
X4799800Y3352800D02*
X4911932D01*
X2498839Y3426939D02*
X2498881D01*
X2415709Y3510027D02*
X2415751D01*
X2498839Y3426939D01*
X3093648Y4088051D02*
Y4104881D01*
X3102605Y4021349D02*
Y4079094D01*
X3052105Y4146424D02*
X3093648Y4104881D01*
Y4088051D02*
X3102605Y4079094D01*
X3035668Y3954412D02*
X3102605Y4021349D01*
X3006217Y4251850D02*
X3152140Y4105927D01*
Y3729346D02*
Y4105927D01*
X4108381Y3333251D02*
X4111068D01*
X4640077Y3638427D02*
X4811651Y3810000D01*
X4640077Y3506990D02*
Y3638427D01*
X4811651Y3810000D02*
X5261400D01*
X3177586Y2596113D02*
X3177595D01*
X2771949Y2486419D02*
X2832450Y2546920D01*
X2769262Y2486419D02*
X2771949D01*
D54*
X3430647Y2180967D02*
X3450289D01*
X3468985Y2162271D01*
X3556392D01*
X3336500Y784800D02*
X3351500Y799800D01*
X3325000Y723573D02*
X3336500Y735073D01*
X3325000Y688828D02*
Y723573D01*
X3043216Y585229D02*
X3221401D01*
X3325000Y688828D01*
X2886500Y741945D02*
X3043216Y585229D01*
X2886500Y741945D02*
Y784800D01*
X2871500Y799800D02*
X2886500Y784800D01*
X3336500Y735073D02*
Y784800D01*
X2986500Y799926D02*
Y851087D01*
X2895081Y988100D02*
X2986626Y896555D01*
X2876140Y988100D02*
X2895081D01*
X2986500Y851087D02*
X2986626Y851213D01*
Y896555D01*
X2848640Y1015600D02*
X2876140Y988100D01*
X2848640Y1015600D02*
Y1018100D01*
X3374779Y1015569D02*
Y1018069D01*
X3286500Y799800D02*
Y927289D01*
X3374779Y1015569D01*
D55*
X4210909Y2814226D02*
Y2961229D01*
X3211500Y1424850D02*
X3261500D01*
X3335317Y1292563D02*
X3340100Y1287780D01*
X3335317Y1292563D02*
Y1338533D01*
X3261500Y1412350D02*
X3335317Y1338533D01*
X3261500Y1412350D02*
Y1424850D01*
X2236556Y2723259D02*
Y2731530D01*
X2301403Y2796377D01*
X4519795Y824365D02*
X4520528D01*
X4666144Y969981D01*
X4666878D01*
X2426420Y4693594D02*
X2465428D01*
X2400563Y4719452D02*
X2426420Y4693594D01*
X2507147Y4651875D02*
X2556645D01*
X2465428Y4693594D02*
X2507147Y4651875D01*
X2308639Y4624288D02*
Y4627528D01*
Y4624288D02*
X2418952Y4513974D01*
X3373036Y4221564D02*
X3374086Y4222614D01*
Y4259262D02*
X3405303Y4290479D01*
X3374086Y4222614D02*
Y4259262D01*
X3405303Y4290479D02*
Y4339977D01*
X4069170Y2692490D02*
X4070540Y2693860D01*
X4068773Y2692093D02*
X4069170Y2692490D01*
X4053085Y2794406D02*
Y2803405D01*
Y2794406D02*
X4070540Y2776951D01*
Y2693860D02*
Y2776951D01*
X2737022Y2218710D02*
Y2242047D01*
X2796378Y2301402D01*
X2052803Y3447674D02*
X2124129Y3376349D01*
X2052803Y3447674D02*
X2052803D01*
X1154544Y4428330D02*
X1262075D01*
X1621655Y4885824D02*
Y4885825D01*
X1556129Y4820298D02*
X1621655Y4885824D01*
X3088665Y5144265D02*
X3092750Y5148350D01*
X3084580Y4973320D02*
X3088665Y4977405D01*
Y5144265D01*
D56*
X3657713Y4068259D02*
X3771822Y4182369D01*
X4069170Y2692490D02*
X4182725Y2578936D01*
X4069170Y2692490D02*
X4069170D01*
X4182725Y2578936D02*
X4182725D01*
X5965400Y2540000D02*
Y2794000D01*
Y3556000D02*
Y3810000D01*
D57*
X3467987Y4126613D02*
X3488307D01*
X3544894Y4070027D02*
X3655945D01*
X3488307Y4126613D02*
X3544894Y4070027D01*
X3655945D02*
X3657713Y4068259D01*
X3494572Y1170802D02*
Y1277540D01*
X3344000Y1428113D02*
X3494572Y1277540D01*
X3344000Y1428113D02*
Y1507350D01*
X3351500Y799800D02*
Y872948D01*
X3395347Y916795D01*
X3403432D01*
X3447279Y960642D01*
Y1065495D01*
X3494572Y1112788D01*
Y1170802D01*
D58*
X3273763Y3939243D02*
X3302847D01*
X3403961Y4040357D01*
X3268980Y3934460D02*
X3273763Y3939243D01*
X1645920Y3632200D02*
Y3753753D01*
X1703581Y3574539D02*
X1852419D01*
X1645920Y3632200D02*
X1703581Y3574539D01*
X1852419D02*
X1979460Y3701580D01*
X1645920Y3753753D02*
X1746819Y3854652D01*
X2315736Y3760705D02*
X2412111Y3664331D01*
X2007888Y3760705D02*
X2315736D01*
X1934595Y3833998D02*
X2007888Y3760705D01*
X2412111Y3664331D02*
X2426519Y3649923D01*
Y3644174D02*
X2437835Y3632858D01*
Y3632857D02*
Y3632858D01*
Y3632857D02*
X2444876Y3625816D01*
Y3622281D02*
X2486419Y3580738D01*
X2426519Y3644174D02*
Y3649923D01*
X2444876Y3622281D02*
Y3625816D01*
X1746819Y3854652D02*
Y3907985D01*
X1686640Y3968164D02*
X1746819Y3907985D01*
X2294866Y3701580D02*
X2372113Y3624333D01*
X1979460Y3701580D02*
X2294866D01*
X2372113Y3624333D02*
X2451064Y3545383D01*
X1980726Y3833998D02*
X2100027Y3953299D01*
X2103563D01*
X1934595Y3833998D02*
X1980726D01*
X1934595D02*
X1934595D01*
X1686640Y3968164D02*
X1805437Y4086961D01*
X1857060D01*
D59*
X1378941Y1378941D02*
D03*
X4971059Y4971059D02*
D03*
D60*
X5753100Y596900D02*
D03*
Y5753100D02*
D03*
X596900D02*
D03*
Y596900D02*
D03*
D61*
X1550200Y3098800D02*
D03*
Y3352800D02*
D03*
X4799800Y3098800D02*
D03*
Y3352800D02*
D03*
D62*
X2679500Y324300D02*
D03*
X3543500D02*
D03*
D63*
Y742300D02*
D03*
X2679500D02*
D03*
D64*
X3925035Y4972585D02*
D03*
X4104640Y4792980D02*
D03*
X4284245Y4613375D02*
D03*
D65*
X4463850Y4433770D02*
D03*
D66*
X6060005Y5460004D02*
D03*
X6160005Y5260004D02*
D03*
X6060005Y5060004D02*
D03*
X6160005Y4860004D02*
D03*
X6060005Y4660004D02*
D03*
X6160005Y4460004D02*
D03*
X6060005Y4260004D02*
D03*
X6160005Y4060004D02*
D03*
Y3660003D02*
D03*
X6060005Y3460003D02*
D03*
Y2660003D02*
D03*
Y2260003D02*
D03*
X6160005Y2060002D02*
D03*
X6060005Y1860002D02*
D03*
X6160005Y1660002D02*
D03*
X6060005Y1460002D02*
D03*
X6160005Y1260002D02*
D03*
X6060005Y1060002D02*
D03*
X6160005Y860002D02*
D03*
Y460002D02*
D03*
X5960005Y5260004D02*
D03*
X5860005Y5060004D02*
D03*
X5960005Y4860004D02*
D03*
X5860005Y4660004D02*
D03*
X5960005Y4460004D02*
D03*
X5860005Y4260004D02*
D03*
X5960005Y4060004D02*
D03*
X5860005Y3460003D02*
D03*
Y2660003D02*
D03*
Y2260003D02*
D03*
X5960005Y2060002D02*
D03*
X5860005Y1860002D02*
D03*
X5960005Y1660002D02*
D03*
X5860005Y1460002D02*
D03*
X5960005Y1260002D02*
D03*
X5860005Y1060002D02*
D03*
X5760004Y5260004D02*
D03*
X5660004Y5060004D02*
D03*
X5760004Y4860004D02*
D03*
X5660004Y4660004D02*
D03*
X5760004Y4460004D02*
D03*
X5660004Y4260004D02*
D03*
X5760004Y4060004D02*
D03*
X5660004Y3860003D02*
D03*
X5760004Y3660003D02*
D03*
X5660004Y3460003D02*
D03*
Y3060003D02*
D03*
Y2660003D02*
D03*
Y2260003D02*
D03*
X5760004Y2060002D02*
D03*
X5660004Y1860002D02*
D03*
X5760004Y1660002D02*
D03*
X5660004Y1460002D02*
D03*
X5760004Y1260002D02*
D03*
X5660004Y1060002D02*
D03*
X5560004Y5260004D02*
D03*
X5460004Y5060004D02*
D03*
X5560004Y4860004D02*
D03*
X5460004Y4660004D02*
D03*
X5560004Y4460004D02*
D03*
X5460004Y4260004D02*
D03*
X5560004Y4060004D02*
D03*
Y3660003D02*
D03*
Y3260003D02*
D03*
X5460004Y2260003D02*
D03*
X5560004Y2060002D02*
D03*
X5460004Y1860002D02*
D03*
X5560004Y1660002D02*
D03*
X5460004Y1460002D02*
D03*
X5560004Y1260002D02*
D03*
X5460004Y1060002D02*
D03*
Y260002D02*
D03*
X5360004Y6060005D02*
D03*
X5260004Y5860005D02*
D03*
Y5460004D02*
D03*
X5360004Y5260004D02*
D03*
X5260004Y4660004D02*
D03*
X5360004Y4460004D02*
D03*
X5260004Y4260004D02*
D03*
X5360004Y4060004D02*
D03*
X5260004Y2660003D02*
D03*
Y2260003D02*
D03*
X5360004Y2060002D02*
D03*
X5260004Y1860002D02*
D03*
X5360004Y1660002D02*
D03*
Y1260002D02*
D03*
X5260004Y1060002D02*
D03*
X5360004Y860002D02*
D03*
X5260004Y660002D02*
D03*
Y260002D02*
D03*
X5160004Y6060005D02*
D03*
X5060004Y5860005D02*
D03*
X5160004Y5660004D02*
D03*
X5060004Y5460004D02*
D03*
X5160004Y4460004D02*
D03*
X5060004Y4260004D02*
D03*
X5160004Y4060004D02*
D03*
X5060004Y2660003D02*
D03*
Y2260003D02*
D03*
X5160004Y2060002D02*
D03*
Y1260002D02*
D03*
X5060004Y1060002D02*
D03*
X5160004Y860002D02*
D03*
X5060004Y660002D02*
D03*
X5160004Y460002D02*
D03*
X5060004Y260002D02*
D03*
X4960004Y6060005D02*
D03*
X4860004Y5860005D02*
D03*
X4960004Y5660004D02*
D03*
X4860004Y5460004D02*
D03*
X4960004Y4460004D02*
D03*
X4860004Y4260004D02*
D03*
X4960004Y4060004D02*
D03*
Y3660003D02*
D03*
X4860004Y2660003D02*
D03*
Y2260003D02*
D03*
X4960004Y2060002D02*
D03*
X4860004Y1460002D02*
D03*
X4960004Y1260002D02*
D03*
X4860004Y1060002D02*
D03*
X4960004Y860002D02*
D03*
X4860004Y660002D02*
D03*
X4960004Y460002D02*
D03*
X4860004Y260002D02*
D03*
X4760004Y6060005D02*
D03*
X4660004Y5860005D02*
D03*
X4760004Y5660004D02*
D03*
X4660004Y5460004D02*
D03*
Y4660004D02*
D03*
X4760004Y4460004D02*
D03*
X4660004Y4260004D02*
D03*
X4760004Y4060004D02*
D03*
X4660004Y3860003D02*
D03*
X4760004Y3660003D02*
D03*
X4660004Y2260003D02*
D03*
Y1860002D02*
D03*
X4760004Y1660002D02*
D03*
X4660004Y1460002D02*
D03*
X4760004Y1260002D02*
D03*
Y860002D02*
D03*
X4660004Y660002D02*
D03*
X4760004Y460002D02*
D03*
X4660004Y260002D02*
D03*
X4560004Y6060005D02*
D03*
X4460004Y5860005D02*
D03*
X4560004Y5660004D02*
D03*
X4460004Y5460004D02*
D03*
X4560004Y5260004D02*
D03*
X4460004Y5060004D02*
D03*
X4560004Y4860004D02*
D03*
X4460004Y4660004D02*
D03*
Y4260004D02*
D03*
X4560004Y4060004D02*
D03*
X4460004Y3860003D02*
D03*
X4560004Y3660003D02*
D03*
X4460004Y3460003D02*
D03*
X4560004Y3260003D02*
D03*
X4460004Y2660003D02*
D03*
X4560004Y2460003D02*
D03*
X4460004Y2260003D02*
D03*
Y1860002D02*
D03*
X4560004Y1660002D02*
D03*
X4460004Y660002D02*
D03*
X4560004Y460002D02*
D03*
X4460004Y260002D02*
D03*
X4360004Y6060005D02*
D03*
X4260004Y5860005D02*
D03*
X4360004Y5660004D02*
D03*
X4260004Y5460004D02*
D03*
X4360004Y5260004D02*
D03*
X4260004Y5060004D02*
D03*
X4360004Y4860004D02*
D03*
X4260004Y4260004D02*
D03*
X4360004Y4060004D02*
D03*
X4260004Y3860003D02*
D03*
X4360004Y3660003D02*
D03*
X4260004Y3460003D02*
D03*
Y2660003D02*
D03*
X4360004Y2460003D02*
D03*
X4260004Y2260003D02*
D03*
Y1860002D02*
D03*
X4360004Y1660002D02*
D03*
X4260004Y1060002D02*
D03*
Y660002D02*
D03*
X4360004Y460002D02*
D03*
X4260004Y260002D02*
D03*
X4160004Y6060005D02*
D03*
X4060004Y5860005D02*
D03*
X4160004Y5660004D02*
D03*
X4060004Y5460004D02*
D03*
X4160004Y5260004D02*
D03*
X4060004Y5060004D02*
D03*
Y4660004D02*
D03*
X4160004Y4460004D02*
D03*
X4060004Y4260004D02*
D03*
Y2260003D02*
D03*
X4160004Y1260002D02*
D03*
Y860002D02*
D03*
X4060004Y660002D02*
D03*
X4160004Y460002D02*
D03*
X4060004Y260002D02*
D03*
X3960004Y6060005D02*
D03*
X3860003Y5860005D02*
D03*
X3960004Y5660004D02*
D03*
X3860003Y5460004D02*
D03*
X3960004Y5260004D02*
D03*
Y4460004D02*
D03*
X3860003Y3860003D02*
D03*
X3960004Y3660003D02*
D03*
X3860003Y2260003D02*
D03*
Y660002D02*
D03*
X3960004Y460002D02*
D03*
X3860003Y260002D02*
D03*
X3660003Y5460004D02*
D03*
Y4260004D02*
D03*
X3760003Y2860003D02*
D03*
Y2460003D02*
D03*
Y1260002D02*
D03*
Y860002D02*
D03*
Y460002D02*
D03*
X3660003Y260002D02*
D03*
X3560003Y6060005D02*
D03*
X3460003Y5860005D02*
D03*
X3560003Y5660004D02*
D03*
X3460003Y5460004D02*
D03*
X3560003Y4860004D02*
D03*
X3460003Y3060003D02*
D03*
X3360003Y6060005D02*
D03*
X3260003Y5860005D02*
D03*
X3360003Y5660004D02*
D03*
X3260003Y5460004D02*
D03*
X3360003Y5260004D02*
D03*
X3260003Y4660004D02*
D03*
Y3460003D02*
D03*
X3360003Y3260003D02*
D03*
X3260003Y3060003D02*
D03*
X3360003Y460002D02*
D03*
X3260003Y260002D02*
D03*
X3160003Y6060005D02*
D03*
X3060003Y5860005D02*
D03*
X3160003Y5660004D02*
D03*
X3060003Y5460004D02*
D03*
X3160003Y5260004D02*
D03*
X3060003Y4660004D02*
D03*
X3160003Y4460004D02*
D03*
X3060003Y3860003D02*
D03*
Y3460003D02*
D03*
X3160003Y3260003D02*
D03*
X3060003Y3060003D02*
D03*
X3160003Y2860003D02*
D03*
X3060003Y2660003D02*
D03*
X3160003Y460002D02*
D03*
X3060003Y260002D02*
D03*
X2960003Y6060005D02*
D03*
X2860003Y5860005D02*
D03*
X2960003Y5660004D02*
D03*
X2860003Y5460004D02*
D03*
Y5060004D02*
D03*
X2960003Y3660003D02*
D03*
X2860003Y3460003D02*
D03*
X2960003Y3260003D02*
D03*
X2860003Y3060003D02*
D03*
X2960003Y2860003D02*
D03*
Y460002D02*
D03*
X2860003Y260002D02*
D03*
X2760003Y6060005D02*
D03*
X2660003Y5860005D02*
D03*
X2760003Y5660004D02*
D03*
X2660003Y5460004D02*
D03*
X2760003Y4860004D02*
D03*
Y3260003D02*
D03*
X2660003Y3060003D02*
D03*
X2760003Y2860003D02*
D03*
Y1260002D02*
D03*
Y460002D02*
D03*
X2560003Y6060005D02*
D03*
X2460003Y5860005D02*
D03*
X2560003Y5660004D02*
D03*
X2460003Y5460004D02*
D03*
X2560003Y4060004D02*
D03*
X2460003Y3860003D02*
D03*
Y2260003D02*
D03*
X2560003Y2060002D02*
D03*
Y1260002D02*
D03*
X2460003Y1060002D02*
D03*
Y660002D02*
D03*
X2560003Y460002D02*
D03*
X2460003Y260002D02*
D03*
X2360003Y6060005D02*
D03*
X2260003Y5860005D02*
D03*
X2360003Y5660004D02*
D03*
X2260003Y5460004D02*
D03*
Y5060004D02*
D03*
Y4260004D02*
D03*
X2360003Y4060004D02*
D03*
Y1660002D02*
D03*
X2260003Y1060002D02*
D03*
X2360003Y860002D02*
D03*
X2260003Y660002D02*
D03*
X2360003Y460002D02*
D03*
X2260003Y260002D02*
D03*
X2160003Y6060005D02*
D03*
X2060002Y5860005D02*
D03*
X2160003Y5660004D02*
D03*
X2060002Y5460004D02*
D03*
X2160003Y5260004D02*
D03*
X2060002Y5060004D02*
D03*
Y4660004D02*
D03*
X2160003Y4460004D02*
D03*
X2060002Y3060003D02*
D03*
X2160003Y2860003D02*
D03*
X2060002Y2660003D02*
D03*
X2160003Y2460003D02*
D03*
X2060002Y1460002D02*
D03*
Y1060002D02*
D03*
X2160003Y860002D02*
D03*
X2060002Y660002D02*
D03*
X2160003Y460002D02*
D03*
X2060002Y260002D02*
D03*
X1960002Y6060005D02*
D03*
X1860002Y5860005D02*
D03*
X1960002Y5660004D02*
D03*
X1860002Y5460004D02*
D03*
X1960002Y5260004D02*
D03*
X1860002Y5060004D02*
D03*
X1960002Y4860004D02*
D03*
Y4460004D02*
D03*
X1860002Y2660003D02*
D03*
X1960002Y2460003D02*
D03*
Y2060002D02*
D03*
X1860002Y1860002D02*
D03*
X1960002Y1260002D02*
D03*
X1860002Y1060002D02*
D03*
X1960002Y860002D02*
D03*
X1860002Y660002D02*
D03*
X1960002Y460002D02*
D03*
X1860002Y260002D02*
D03*
X1760002Y6060005D02*
D03*
X1660002Y5860005D02*
D03*
X1760002Y5660004D02*
D03*
X1660002Y5460004D02*
D03*
X1760002Y5260004D02*
D03*
X1660002Y5060004D02*
D03*
X1760002Y4860004D02*
D03*
X1660002Y4260004D02*
D03*
X1760002Y2860003D02*
D03*
X1660002Y1860002D02*
D03*
Y1060002D02*
D03*
X1760002Y860002D02*
D03*
X1660002Y660002D02*
D03*
X1760002Y460002D02*
D03*
X1660002Y260002D02*
D03*
X1560002Y6060005D02*
D03*
X1460002Y5860005D02*
D03*
X1560002Y5660004D02*
D03*
X1460002Y5460004D02*
D03*
X1560002Y5260004D02*
D03*
Y4060004D02*
D03*
X1460002Y3860003D02*
D03*
Y3460003D02*
D03*
X1560002Y2860003D02*
D03*
X1460002Y2660003D02*
D03*
X1560002Y860002D02*
D03*
X1460002Y660002D02*
D03*
X1560002Y460002D02*
D03*
X1460002Y260002D02*
D03*
X1360002Y6060005D02*
D03*
X1260002Y5860005D02*
D03*
X1360002Y5660004D02*
D03*
X1260002Y5460004D02*
D03*
X1360002Y5260004D02*
D03*
X1260002Y5060004D02*
D03*
X1360002Y4060004D02*
D03*
X1260002Y3460003D02*
D03*
X1360002Y3260003D02*
D03*
X1260002Y3060003D02*
D03*
X1360002Y2860003D02*
D03*
X1260002Y1860002D02*
D03*
X1360002Y860002D02*
D03*
X1260002Y660002D02*
D03*
X1360002Y460002D02*
D03*
X1260002Y260002D02*
D03*
X1160002Y6060005D02*
D03*
X1060002Y5860005D02*
D03*
X1160002Y5660004D02*
D03*
X1060002Y5460004D02*
D03*
X1160002Y5260004D02*
D03*
X1060002Y5060004D02*
D03*
Y4260004D02*
D03*
Y3860003D02*
D03*
X1160002Y3660003D02*
D03*
X1060002Y3460003D02*
D03*
X1160002Y3260003D02*
D03*
X1060002Y3060003D02*
D03*
X1160002Y2860003D02*
D03*
X1060002Y2660003D02*
D03*
Y2260003D02*
D03*
X1160002Y2060002D02*
D03*
X1060002Y1860002D02*
D03*
Y1060002D02*
D03*
X1160002Y860002D02*
D03*
X1060002Y660002D02*
D03*
X1160002Y460002D02*
D03*
X1060002Y260002D02*
D03*
X960002Y6060005D02*
D03*
Y5260004D02*
D03*
X860002Y5060004D02*
D03*
X960002Y4860004D02*
D03*
X860002Y3860003D02*
D03*
X960002Y3660003D02*
D03*
X860002Y3460003D02*
D03*
X960002Y3260003D02*
D03*
X860002Y3060003D02*
D03*
X960002Y2860003D02*
D03*
X860002Y2660003D02*
D03*
X960002Y2460003D02*
D03*
Y2060002D02*
D03*
X860002Y1860002D02*
D03*
X960002Y1660002D02*
D03*
X860002Y1460002D02*
D03*
X960002Y1260002D02*
D03*
X860002Y1060002D02*
D03*
X960002Y860002D02*
D03*
X860002Y260002D02*
D03*
X760002Y5260004D02*
D03*
X660002Y5060004D02*
D03*
X760002Y4860004D02*
D03*
X660002Y4660004D02*
D03*
Y4260004D02*
D03*
X760002Y4060004D02*
D03*
X660002Y3860003D02*
D03*
X760002Y3660003D02*
D03*
X660002Y3460003D02*
D03*
X760002Y3260003D02*
D03*
X660002Y3060003D02*
D03*
X760002Y2860003D02*
D03*
X660002Y2660003D02*
D03*
X760002Y2460003D02*
D03*
X660002Y2260003D02*
D03*
X760002Y1660002D02*
D03*
Y1260002D02*
D03*
X660002Y1060002D02*
D03*
X560002Y5260004D02*
D03*
X460002Y5060004D02*
D03*
X560002Y4860004D02*
D03*
X460002Y4660004D02*
D03*
X560002Y4460004D02*
D03*
X460002Y4260004D02*
D03*
X560002Y4060004D02*
D03*
X460002Y3860003D02*
D03*
X560002Y3660003D02*
D03*
X460002Y3460003D02*
D03*
X560002Y3260003D02*
D03*
X460002Y3060003D02*
D03*
X560002Y2860003D02*
D03*
X460002Y2660003D02*
D03*
X560002Y2460003D02*
D03*
X460002Y2260003D02*
D03*
X560002Y2060002D02*
D03*
X460002Y1060002D02*
D03*
X260002Y5460004D02*
D03*
X360002Y5260004D02*
D03*
X260002Y5060004D02*
D03*
X360002Y4860004D02*
D03*
X260002Y4660004D02*
D03*
X360002Y4460004D02*
D03*
X260002Y4260004D02*
D03*
X360002Y4060004D02*
D03*
X260002Y3860003D02*
D03*
X360002Y3660003D02*
D03*
X260002Y3460003D02*
D03*
X360002Y3260003D02*
D03*
X260002Y3060003D02*
D03*
X360002Y2860003D02*
D03*
X260002Y2660003D02*
D03*
X360002Y2460003D02*
D03*
X260002Y2260003D02*
D03*
X360002Y2060002D02*
D03*
X260002Y1860002D02*
D03*
Y1460002D02*
D03*
Y1060002D02*
D03*
D67*
X396240Y1812360D02*
D03*
X637540Y1304260D02*
D03*
X396240D02*
D03*
X1165860Y2410460D02*
D03*
X1239520Y2473960D02*
D03*
X1386840Y2623820D02*
D03*
X1308100Y2545080D02*
D03*
X1231900Y2334260D02*
D03*
X1292860Y2260600D02*
D03*
X1216660Y2153920D02*
D03*
X1290320Y2067560D02*
D03*
X1608071Y2537978D02*
D03*
X1676400Y2476500D02*
D03*
X1785620Y2377440D02*
D03*
X1859280Y2319020D02*
D03*
X1932940Y2242820D02*
D03*
X2009140Y2164080D02*
D03*
X2087880Y2090420D02*
D03*
X2164080Y2021840D02*
D03*
X2230120Y1950720D02*
D03*
X2301240Y1879600D02*
D03*
X2420620Y1729740D02*
D03*
X2448560Y1630680D02*
D03*
X2517140Y1559560D02*
D03*
X2588260Y1498600D02*
D03*
X2524760Y1432560D02*
D03*
X2448560Y1356360D02*
D03*
X2316480Y1211580D02*
D03*
X2374900Y1282700D02*
D03*
X2255520Y1275080D02*
D03*
X2179320Y1341120D02*
D03*
X2110740Y1272540D02*
D03*
X2016760Y1343660D02*
D03*
X1930400Y1427480D02*
D03*
X1844040Y1506220D02*
D03*
X1762760Y1592580D02*
D03*
X1684020Y1678940D02*
D03*
X1600200Y1762760D02*
D03*
X1524000Y1833880D02*
D03*
X1445260Y1910080D02*
D03*
X1363980Y1986280D02*
D03*
X1457960Y2560320D02*
D03*
X1531620Y2496820D02*
D03*
X3973928Y3084894D02*
D03*
X3431500Y799800D02*
D03*
X2791500D02*
D03*
X3405303Y4339977D02*
D03*
X1320800Y4724400D02*
D03*
X3240711Y2144358D02*
D03*
X3422042Y2027921D02*
D03*
X3111500Y1267800D02*
D03*
X2693640Y1018100D02*
D03*
X3529779Y1018069D02*
D03*
X2894580Y4973320D02*
D03*
X3539653Y4205627D02*
D03*
X3878306Y4075885D02*
D03*
X3763779Y3962193D02*
D03*
X4345259Y2948576D02*
D03*
X3962707Y2586027D02*
D03*
X4076659Y2472870D02*
D03*
X4906587Y1748506D02*
D03*
X3708669Y1843681D02*
D03*
X4385445Y958715D02*
D03*
X3914714Y950133D02*
D03*
X3948380Y1137920D02*
D03*
X3966800Y1488440D02*
D03*
X2579235Y1761625D02*
D03*
X2602672Y2353060D02*
D03*
X2370906Y2588909D02*
D03*
X1682885Y2632575D02*
D03*
X2213164Y4062900D02*
D03*
X1577038Y3858563D02*
D03*
X2690995Y4517525D02*
D03*
X2553302Y4379624D02*
D03*
X1020193Y4562681D02*
D03*
X1357234Y4282297D02*
D03*
X1760835Y4701453D02*
D03*
X2872750Y5148350D02*
D03*
X3686250Y6133350D02*
D03*
Y5763350D02*
D03*
X3668750Y5160850D02*
D03*
X3340100Y1287780D02*
D03*
X4519795Y824365D02*
D03*
X3764714Y950133D02*
D03*
X3783380Y1137920D02*
D03*
X3606800Y1488440D02*
D03*
X3543669Y1843681D02*
D03*
X3556392Y2162271D02*
D03*
X2737022Y2218710D02*
D03*
X2236556Y2723259D02*
D03*
X2052803Y3447674D02*
D03*
X2556645Y4651875D02*
D03*
X2418952Y4513974D02*
D03*
X1621655Y4885824D02*
D03*
X1154544Y4428330D02*
D03*
X3084580Y4973320D02*
D03*
X4210909Y2814226D02*
D03*
X5261400Y3302000D02*
D03*
Y3048000D02*
D03*
X5965400Y3302000D02*
D03*
Y3048000D02*
D03*
Y3810000D02*
D03*
Y3556000D02*
D03*
Y2794000D02*
D03*
Y2540000D02*
D03*
D68*
X3086968Y2343135D02*
D03*
X3097673Y2417770D02*
D03*
X3649980Y3211412D02*
D03*
X4247806Y3059893D02*
D03*
X2498881Y3426939D02*
D03*
X3035668Y3954412D02*
D03*
X3268980Y3934460D02*
D03*
X3403210Y3804138D02*
D03*
X3329867Y3786647D02*
D03*
X3255624Y3799803D02*
D03*
X2730199Y2044820D02*
D03*
X3483242Y3785502D02*
D03*
X2808158Y2044027D02*
D03*
X3001500Y1547350D02*
D03*
Y1657350D02*
D03*
Y1767350D02*
D03*
X3111500Y1547350D02*
D03*
Y1657350D02*
D03*
Y1767350D02*
D03*
X3221500Y1547350D02*
D03*
Y1657350D02*
D03*
Y1767350D02*
D03*
X3196342Y645729D02*
D03*
X3086281Y681201D02*
D03*
X2391294Y3174126D02*
D03*
X1750060Y3329940D02*
D03*
X1709994Y3665564D02*
D03*
X1817922Y3717326D02*
D03*
%TF.MD5,9c53db4d300fbc46dc931ef39800d2d1*%
M02*
