%TF.GenerationSoftware,Altium Limited,Altium Designer,24.2.2 (26)*%
G04 Layer_Color=8421504*
%FSLAX45Y45*%
%MOMM*%
%TF.SameCoordinates,D31C6D6D-B6E9-44EC-8E0F-9CDDCF0E9FEB*%
%TF.FilePolarity,Positive*%
%TF.FileFunction,Paste,Top*%
%TF.Part,Single*%
G01*
G75*
%TA.AperFunction,SMDPad,CuDef*%
%ADD10R,0.90000X0.85000*%
%ADD11R,0.80000X0.80000*%
%ADD12O,0.25000X1.00000*%
%ADD13O,1.00000X0.25000*%
%ADD14R,3.25000X3.25000*%
%ADD15R,4.50000X1.00000*%
%ADD16R,4.32000X1.00000*%
%ADD17P,1.69706X4X180.0*%
%ADD18P,1.69706X4X270.0*%
G04:AMPARAMS|DCode=19|XSize=0.25mm|YSize=0.75mm|CornerRadius=0mm|HoleSize=0mm|Usage=FLASHONLY|Rotation=135.000|XOffset=0mm|YOffset=0mm|HoleType=Round|Shape=Round|*
%AMOVALD19*
21,1,0.50000,0.25000,0.00000,0.00000,225.0*
1,1,0.25000,0.17678,0.17678*
1,1,0.25000,-0.17678,-0.17678*
%
%ADD19OVALD19*%

G04:AMPARAMS|DCode=20|XSize=0.25mm|YSize=0.75mm|CornerRadius=0mm|HoleSize=0mm|Usage=FLASHONLY|Rotation=45.000|XOffset=0mm|YOffset=0mm|HoleType=Round|Shape=Round|*
%AMOVALD20*
21,1,0.50000,0.25000,0.00000,0.00000,135.0*
1,1,0.25000,0.17678,-0.17678*
1,1,0.25000,-0.17678,0.17678*
%
%ADD20OVALD20*%

G04:AMPARAMS|DCode=21|XSize=0.21mm|YSize=0.6mm|CornerRadius=0mm|HoleSize=0mm|Usage=FLASHONLY|Rotation=135.000|XOffset=0mm|YOffset=0mm|HoleType=Round|Shape=Round|*
%AMOVALD21*
21,1,0.39000,0.21000,0.00000,0.00000,225.0*
1,1,0.21000,0.13788,0.13788*
1,1,0.21000,-0.13788,-0.13788*
%
%ADD21OVALD21*%

G04:AMPARAMS|DCode=22|XSize=0.21mm|YSize=0.6mm|CornerRadius=0mm|HoleSize=0mm|Usage=FLASHONLY|Rotation=45.000|XOffset=0mm|YOffset=0mm|HoleType=Round|Shape=Round|*
%AMOVALD22*
21,1,0.39000,0.21000,0.00000,0.00000,135.0*
1,1,0.21000,0.13788,-0.13788*
1,1,0.21000,-0.13788,0.13788*
%
%ADD22OVALD22*%

G04:AMPARAMS|DCode=23|XSize=1.73mm|YSize=1.57mm|CornerRadius=0mm|HoleSize=0mm|Usage=FLASHONLY|Rotation=45.000|XOffset=0mm|YOffset=0mm|HoleType=Round|Shape=Rectangle|*
%AMROTATEDRECTD23*
4,1,4,-0.05657,-1.16673,-1.16673,-0.05657,0.05657,1.16673,1.16673,0.05657,-0.05657,-1.16673,0.0*
%
%ADD23ROTATEDRECTD23*%

G04:AMPARAMS|DCode=24|XSize=5.6mm|YSize=2.1mm|CornerRadius=0mm|HoleSize=0mm|Usage=FLASHONLY|Rotation=315.000|XOffset=0mm|YOffset=0mm|HoleType=Round|Shape=Rectangle|*
%AMROTATEDRECTD24*
4,1,4,-2.72236,1.23744,-1.23744,2.72236,2.72236,-1.23744,1.23744,-2.72236,-2.72236,1.23744,0.0*
%
%ADD24ROTATEDRECTD24*%

G04:AMPARAMS|DCode=25|XSize=1.475mm|YSize=0.3mm|CornerRadius=0mm|HoleSize=0mm|Usage=FLASHONLY|Rotation=135.000|XOffset=0mm|YOffset=0mm|HoleType=Round|Shape=Rectangle|*
%AMROTATEDRECTD25*
4,1,4,0.62756,-0.41543,0.41543,-0.62756,-0.62756,0.41543,-0.41543,0.62756,0.62756,-0.41543,0.0*
%
%ADD25ROTATEDRECTD25*%

G04:AMPARAMS|DCode=26|XSize=1.475mm|YSize=0.3mm|CornerRadius=0mm|HoleSize=0mm|Usage=FLASHONLY|Rotation=45.000|XOffset=0mm|YOffset=0mm|HoleType=Round|Shape=Rectangle|*
%AMROTATEDRECTD26*
4,1,4,-0.41543,-0.62756,-0.62756,-0.41543,0.41543,0.62756,0.62756,0.41543,-0.41543,-0.62756,0.0*
%
%ADD26ROTATEDRECTD26*%

%ADD27R,0.40000X0.50000*%
%ADD28R,0.85000X0.90000*%
%ADD29R,1.30000X1.50000*%
%ADD30R,1.05000X1.00000*%
%ADD31R,0.80000X1.00000*%
%ADD32R,0.60000X1.15000*%
%ADD33R,0.30000X1.15000*%
%ADD34R,2.60000X1.60000*%
G04:AMPARAMS|DCode=35|XSize=1.5mm|YSize=1.3mm|CornerRadius=0mm|HoleSize=0mm|Usage=FLASHONLY|Rotation=135.000|XOffset=0mm|YOffset=0mm|HoleType=Round|Shape=Rectangle|*
%AMROTATEDRECTD35*
4,1,4,0.98995,-0.07071,0.07071,-0.98995,-0.98995,0.07071,-0.07071,0.98995,0.98995,-0.07071,0.0*
%
%ADD35ROTATEDRECTD35*%

G04:AMPARAMS|DCode=36|XSize=0.5mm|YSize=0.35mm|CornerRadius=0mm|HoleSize=0mm|Usage=FLASHONLY|Rotation=135.000|XOffset=0mm|YOffset=0mm|HoleType=Round|Shape=Rectangle|*
%AMROTATEDRECTD36*
4,1,4,0.30052,-0.05303,0.05303,-0.30052,-0.30052,0.05303,-0.05303,0.30052,0.30052,-0.05303,0.0*
%
%ADD36ROTATEDRECTD36*%

G04:AMPARAMS|DCode=37|XSize=1.6mm|YSize=0.6mm|CornerRadius=0mm|HoleSize=0mm|Usage=FLASHONLY|Rotation=225.000|XOffset=0mm|YOffset=0mm|HoleType=Round|Shape=Round|*
%AMOVALD37*
21,1,1.00000,0.60000,0.00000,0.00000,225.0*
1,1,0.60000,0.35355,0.35355*
1,1,0.60000,-0.35355,-0.35355*
%
%ADD37OVALD37*%

%ADD38R,1.20000X1.20000*%
%ADD39R,1.90000X1.35000*%
%ADD40R,1.20000X1.00000*%
%ADD41R,1.55000X1.35000*%
%ADD42R,0.85000X1.10000*%
%ADD43R,0.75000X1.10000*%
%ADD44R,1.17000X1.80000*%
G04:AMPARAMS|DCode=45|XSize=0.9mm|YSize=0.85mm|CornerRadius=0mm|HoleSize=0mm|Usage=FLASHONLY|Rotation=315.000|XOffset=0mm|YOffset=0mm|HoleType=Round|Shape=Rectangle|*
%AMROTATEDRECTD45*
4,1,4,-0.61872,0.01768,-0.01768,0.61872,0.61872,-0.01768,0.01768,-0.61872,-0.61872,0.01768,0.0*
%
%ADD45ROTATEDRECTD45*%

G04:AMPARAMS|DCode=46|XSize=1mm|YSize=1.05mm|CornerRadius=0mm|HoleSize=0mm|Usage=FLASHONLY|Rotation=225.000|XOffset=0mm|YOffset=0mm|HoleType=Round|Shape=Rectangle|*
%AMROTATEDRECTD46*
4,1,4,-0.01768,0.72479,0.72479,-0.01768,0.01768,-0.72479,-0.72479,0.01768,-0.01768,0.72479,0.0*
%
%ADD46ROTATEDRECTD46*%

G04:AMPARAMS|DCode=47|XSize=1mm|YSize=1.05mm|CornerRadius=0mm|HoleSize=0mm|Usage=FLASHONLY|Rotation=135.000|XOffset=0mm|YOffset=0mm|HoleType=Round|Shape=Rectangle|*
%AMROTATEDRECTD47*
4,1,4,0.72479,0.01768,-0.01768,-0.72479,-0.72479,-0.01768,0.01768,0.72479,0.72479,0.01768,0.0*
%
%ADD47ROTATEDRECTD47*%

D10*
X396240Y1304260D02*
D03*
Y1459260D02*
D03*
X637540Y1304260D02*
D03*
Y1459260D02*
D03*
D11*
X396240Y1812360D02*
D03*
Y1662360D02*
D03*
X637540Y1812360D02*
D03*
Y1662360D02*
D03*
D12*
X2961500Y1424850D02*
D03*
X3011500D02*
D03*
X3061500D02*
D03*
X3111500D02*
D03*
X3161500D02*
D03*
X3211500D02*
D03*
X3261500D02*
D03*
Y1889850D02*
D03*
X3211500D02*
D03*
X3161500D02*
D03*
X3111500D02*
D03*
X3061500D02*
D03*
X3011500D02*
D03*
X2961500D02*
D03*
D13*
X3344000Y1507350D02*
D03*
Y1557350D02*
D03*
Y1607350D02*
D03*
Y1657350D02*
D03*
Y1707350D02*
D03*
Y1757350D02*
D03*
Y1807350D02*
D03*
X2879000D02*
D03*
Y1757350D02*
D03*
Y1707350D02*
D03*
Y1657350D02*
D03*
Y1607350D02*
D03*
Y1557350D02*
D03*
Y1507350D02*
D03*
D14*
X3111500Y1657350D02*
D03*
D15*
X5965400Y2540000D02*
D03*
D16*
Y2794000D02*
D03*
Y3048000D02*
D03*
Y3302000D02*
D03*
Y3556000D02*
D03*
Y3810000D02*
D03*
X5261400D02*
D03*
Y3556000D02*
D03*
Y3302000D02*
D03*
Y3048000D02*
D03*
Y2794000D02*
D03*
Y2540000D02*
D03*
D17*
X3539653Y4205627D02*
D03*
X3405303Y4339977D02*
D03*
X2370906Y2588909D02*
D03*
X2236556Y2723259D02*
D03*
X2602672Y2353060D02*
D03*
X2737022Y2218710D02*
D03*
X2418952Y4513974D02*
D03*
X2553302Y4379624D02*
D03*
X2690995Y4517525D02*
D03*
X2556645Y4651875D02*
D03*
X1020193Y4562681D02*
D03*
X1154544Y4428330D02*
D03*
X1487305Y5020175D02*
D03*
X1621655Y4885825D02*
D03*
X4385445Y958715D02*
D03*
X4519795Y824365D02*
D03*
X2579235Y1761625D02*
D03*
X2444885Y1895975D02*
D03*
X1682885Y2632575D02*
D03*
X1817235Y2498225D02*
D03*
D18*
X2187153Y3582024D02*
D03*
X2052803Y3447674D02*
D03*
X3422042Y2027921D02*
D03*
X3556392Y2162271D02*
D03*
X4345259Y2948576D02*
D03*
X4210909Y2814226D02*
D03*
X1760835Y4701453D02*
D03*
X1626485Y4567102D02*
D03*
D19*
X1175843Y4664296D02*
D03*
X1204127Y4636012D02*
D03*
X1232412Y4607727D02*
D03*
X1260696Y4579443D02*
D03*
X1465757Y4784504D02*
D03*
X1437473Y4812788D02*
D03*
X1409188Y4841073D02*
D03*
X1380904Y4869357D02*
D03*
D20*
Y4579443D02*
D03*
X1409188Y4607727D02*
D03*
X1437473Y4636012D02*
D03*
X1465757Y4664296D02*
D03*
X1260696Y4869357D02*
D03*
X1232412Y4841073D02*
D03*
X1204127Y4812788D02*
D03*
X1175843Y4784504D02*
D03*
D21*
X1147559Y4692580D02*
D03*
X1352620Y4897641D02*
D03*
X1494041Y4756220D02*
D03*
X1288980Y4551159D02*
D03*
D22*
X1147559Y4756220D02*
D03*
X1288980Y4897641D02*
D03*
X1494041Y4692580D02*
D03*
X1352620Y4551159D02*
D03*
D23*
X1320800Y4724400D02*
D03*
D24*
X1515784Y2266276D02*
D03*
X2187536Y1594524D02*
D03*
D25*
X2203576Y3297895D02*
D03*
X2238932Y3333251D02*
D03*
X2274287Y3368606D02*
D03*
X2309643Y3403961D02*
D03*
X2344998Y3439317D02*
D03*
X2380353Y3474672D02*
D03*
X2415709Y3510027D02*
D03*
X2451064Y3545383D02*
D03*
X2486419Y3580738D02*
D03*
X2521775Y3616093D02*
D03*
X2557130Y3651449D02*
D03*
X2592486Y3686804D02*
D03*
X2627841Y3722159D02*
D03*
X2663196Y3757514D02*
D03*
X2698551Y3792870D02*
D03*
X2733907Y3828225D02*
D03*
X2769262Y3863581D02*
D03*
X2804617Y3898936D02*
D03*
X2839973Y3934291D02*
D03*
X2875328Y3969647D02*
D03*
X2910683Y4005002D02*
D03*
X2946039Y4040357D02*
D03*
X2981394Y4075713D02*
D03*
X3016749Y4111068D02*
D03*
X3052105Y4146424D02*
D03*
X4146424Y3052105D02*
D03*
X4111068Y3016749D02*
D03*
X4075713Y2981394D02*
D03*
X4040357Y2946039D02*
D03*
X4005002Y2910683D02*
D03*
X3969647Y2875328D02*
D03*
X3934291Y2839973D02*
D03*
X3898936Y2804617D02*
D03*
X3863581Y2769262D02*
D03*
X3828225Y2733907D02*
D03*
X3792870Y2698551D02*
D03*
X3757514Y2663196D02*
D03*
X3722159Y2627841D02*
D03*
X3686804Y2592486D02*
D03*
X3651449Y2557130D02*
D03*
X3616093Y2521775D02*
D03*
X3580738Y2486419D02*
D03*
X3545383Y2451064D02*
D03*
X3510027Y2415709D02*
D03*
X3474672Y2380353D02*
D03*
X3439317Y2344998D02*
D03*
X3403961Y2309643D02*
D03*
X3368606Y2274287D02*
D03*
X3333251Y2238932D02*
D03*
X3297895Y2203576D02*
D03*
D26*
Y4146424D02*
D03*
X3333251Y4111068D02*
D03*
X3368606Y4075713D02*
D03*
X3403961Y4040357D02*
D03*
X3439317Y4005002D02*
D03*
X3474672Y3969647D02*
D03*
X3510027Y3934291D02*
D03*
X3545383Y3898936D02*
D03*
X3580738Y3863581D02*
D03*
X3616093Y3828225D02*
D03*
X3651449Y3792870D02*
D03*
X3686804Y3757514D02*
D03*
X3722159Y3722159D02*
D03*
X3757514Y3686804D02*
D03*
X3792870Y3651449D02*
D03*
X3828225Y3616093D02*
D03*
X3863581Y3580738D02*
D03*
X3898936Y3545383D02*
D03*
X3934291Y3510027D02*
D03*
X3969647Y3474672D02*
D03*
X4005002Y3439317D02*
D03*
X4040357Y3403961D02*
D03*
X4075713Y3368606D02*
D03*
X4111068Y3333251D02*
D03*
X4146424Y3297895D02*
D03*
X3052105Y2203576D02*
D03*
X3016749Y2238932D02*
D03*
X2981394Y2274287D02*
D03*
X2946039Y2309643D02*
D03*
X2910683Y2344998D02*
D03*
X2875328Y2380353D02*
D03*
X2839973Y2415709D02*
D03*
X2804617Y2451064D02*
D03*
X2769262Y2486419D02*
D03*
X2733907Y2521775D02*
D03*
X2698551Y2557130D02*
D03*
X2663196Y2592486D02*
D03*
X2627841Y2627841D02*
D03*
X2592486Y2663196D02*
D03*
X2557130Y2698551D02*
D03*
X2521775Y2733907D02*
D03*
X2486419Y2769262D02*
D03*
X2451064Y2804617D02*
D03*
X2415709Y2839973D02*
D03*
X2380353Y2875328D02*
D03*
X2344998Y2910683D02*
D03*
X2309643Y2946039D02*
D03*
X2274287Y2981394D02*
D03*
X2238932Y3016749D02*
D03*
X2203576Y3052105D02*
D03*
D27*
X3634573Y1170802D02*
D03*
X3494572D02*
D03*
D28*
X2693640Y1018100D02*
D03*
X2848640D02*
D03*
X3529779Y1018069D02*
D03*
X3374779D02*
D03*
D29*
X3948380Y1137920D02*
D03*
X3783380D02*
D03*
X3708669Y1843681D02*
D03*
X3543669D02*
D03*
D30*
X3914714Y950133D02*
D03*
X3764714D02*
D03*
D31*
X3016500Y1267800D02*
D03*
X3111500D02*
D03*
X3206500D02*
D03*
Y992800D02*
D03*
X3111500D02*
D03*
X3016500D02*
D03*
D32*
X2791500Y799800D02*
D03*
X2871500D02*
D03*
X3431500D02*
D03*
X3351500D02*
D03*
D33*
X3286500D02*
D03*
X3036500D02*
D03*
X3086500D02*
D03*
X2936500D02*
D03*
X3236500D02*
D03*
X3186500D02*
D03*
X3136500D02*
D03*
X2986500D02*
D03*
D34*
X3966800Y1488440D02*
D03*
X3606800D02*
D03*
D35*
X1357234Y4282297D02*
D03*
X1473906Y4398969D02*
D03*
X1857060Y4086961D02*
D03*
X1973732Y4203633D02*
D03*
X1934595Y3833998D02*
D03*
X1817922Y3717326D02*
D03*
D36*
X2163682Y4772484D02*
D03*
X2209644Y4818447D02*
D03*
X2255606Y4864408D02*
D03*
X2301568Y4910370D02*
D03*
X2446525Y4765414D02*
D03*
X2400563Y4719452D02*
D03*
X2354601Y4673490D02*
D03*
X2308639Y4627528D02*
D03*
D37*
X5175995Y1479098D02*
D03*
X5086192Y1568900D02*
D03*
X4996390Y1658703D02*
D03*
X4906587Y1748506D02*
D03*
X4397470Y1239388D02*
D03*
X4487273Y1149586D02*
D03*
X4577075Y1059784D02*
D03*
X4666878Y969981D02*
D03*
D38*
X2894580Y4973320D02*
D03*
X3084580D02*
D03*
D39*
X2739250Y6230850D02*
D03*
X3336250D02*
D03*
D40*
X3686250Y5763350D02*
D03*
Y6133350D02*
D03*
D41*
X3668750Y5160850D02*
D03*
D42*
X3422750Y5148350D02*
D03*
X3312750D02*
D03*
X3202750D02*
D03*
X3092750D02*
D03*
X2982750D02*
D03*
X2872750D02*
D03*
X2762750D02*
D03*
D43*
X2657750D02*
D03*
D44*
X2536750Y5183350D02*
D03*
D45*
X1577038Y3858563D02*
D03*
X1686640Y3968164D02*
D03*
X2103563Y3953299D02*
D03*
X2213164Y4062900D02*
D03*
D46*
X3878306Y4075885D02*
D03*
X3772240Y4181951D02*
D03*
X3763779Y3962193D02*
D03*
X3657713Y4068259D02*
D03*
D47*
X4076659Y2472870D02*
D03*
X4182725Y2578936D02*
D03*
X3962707Y2586027D02*
D03*
X4068773Y2692093D02*
D03*
%TF.MD5,abda315ed9507d7251969843c136edcb*%
M02*
