%TF.GenerationSoftware,Altium Limited,Altium Designer,24.2.2 (26)*%
G04 Layer_Physical_Order=1*
G04 Layer_Color=255*
%FSLAX45Y45*%
%MOMM*%
%TF.SameCoordinates,7B2EFB22-2454-4570-B993-6C8DBF9E02C9*%
%TF.FilePolarity,Positive*%
%TF.FileFunction,Copper,L1,Top,Signal*%
%TF.Part,Single*%
G01*
G75*
%TA.AperFunction,SMDPad,CuDef*%
%ADD10R,1.00000X1.05000*%
%ADD11R,0.90000X0.85000*%
%ADD12R,0.80000X0.80000*%
%ADD13R,4.50000X1.00000*%
%ADD14R,4.32000X1.00000*%
%TA.AperFunction,Conductor*%
%ADD15C,0.25400*%
%ADD16C,0.25000*%
%ADD17C,0.80000*%
%TA.AperFunction,ComponentPad*%
G04:AMPARAMS|DCode=18|XSize=3mm|YSize=3mm|CornerRadius=0.75mm|HoleSize=0mm|Usage=FLASHONLY|Rotation=0.000|XOffset=0mm|YOffset=0mm|HoleType=Round|Shape=RoundedRectangle|*
%AMROUNDEDRECTD18*
21,1,3.00000,1.50000,0,0,0.0*
21,1,1.50000,3.00000,0,0,0.0*
1,1,1.50000,0.75000,-0.75000*
1,1,1.50000,-0.75000,-0.75000*
1,1,1.50000,-0.75000,0.75000*
1,1,1.50000,0.75000,0.75000*
%
%ADD18ROUNDEDRECTD18*%
%ADD19C,1.10000*%
%ADD20R,1.40000X1.40000*%
%ADD21C,1.40000*%
%TA.AperFunction,ViaPad*%
%ADD22C,7.00000*%
%ADD23C,7.50000*%
%ADD24C,0.60000*%
%ADD25C,0.75000*%
G36*
X5981113Y6159500D02*
X5981368Y6158215D01*
X5984667Y6124724D01*
X5994811Y6091283D01*
X6011284Y6060465D01*
X6033452Y6033452D01*
X6060465Y6011284D01*
X6091283Y5994811D01*
X6124724Y5984667D01*
X6158215Y5981368D01*
X6159500Y5981113D01*
X6298613D01*
Y368887D01*
X6159500D01*
X6158215Y368632D01*
X6124724Y365333D01*
X6091283Y355189D01*
X6060465Y338716D01*
X6033452Y316547D01*
X6011284Y289535D01*
X5994811Y258717D01*
X5984667Y225276D01*
X5981368Y191785D01*
X5981113Y190500D01*
Y51387D01*
X368887D01*
Y190500D01*
X368632Y191785D01*
X365333Y225276D01*
X355189Y258717D01*
X338716Y289535D01*
X316547Y316547D01*
X289535Y338716D01*
X258717Y355189D01*
X225276Y365333D01*
X191785Y368632D01*
X190500Y368887D01*
X51387D01*
Y5981113D01*
X190500D01*
X191785Y5981368D01*
X225276Y5984667D01*
X258717Y5994811D01*
X289535Y6011284D01*
X316547Y6033452D01*
X338716Y6060465D01*
X355189Y6091283D01*
X365333Y6124724D01*
X368632Y6158215D01*
X368887Y6159500D01*
Y6298613D01*
X5981113D01*
Y6159500D01*
D02*
G37*
%LPC*%
G36*
X5781826Y6118100D02*
X5724374D01*
X5667629Y6109113D01*
X5612989Y6091359D01*
X5561798Y6065276D01*
X5515318Y6031507D01*
X5474693Y5990882D01*
X5440924Y5944402D01*
X5414841Y5893211D01*
X5397087Y5838571D01*
X5388100Y5781826D01*
Y5724374D01*
X5397087Y5667629D01*
X5414841Y5612989D01*
X5440924Y5561798D01*
X5474693Y5515318D01*
X5515318Y5474693D01*
X5561798Y5440924D01*
X5612989Y5414841D01*
X5667629Y5397087D01*
X5724374Y5388100D01*
X5781826D01*
X5838571Y5397087D01*
X5893211Y5414841D01*
X5944402Y5440924D01*
X5990882Y5474693D01*
X6031507Y5515318D01*
X6065276Y5561798D01*
X6091359Y5612989D01*
X6109113Y5667629D01*
X6118100Y5724374D01*
Y5781826D01*
X6109113Y5838571D01*
X6091359Y5893211D01*
X6065276Y5944402D01*
X6031507Y5990882D01*
X5990882Y6031507D01*
X5944402Y6065276D01*
X5893211Y6091359D01*
X5838571Y6109113D01*
X5781826Y6118100D01*
D02*
G37*
G36*
X625626D02*
X568174D01*
X511429Y6109113D01*
X456789Y6091359D01*
X405598Y6065276D01*
X359118Y6031507D01*
X318493Y5990882D01*
X284724Y5944402D01*
X258641Y5893211D01*
X240887Y5838571D01*
X231900Y5781826D01*
Y5724374D01*
X240887Y5667629D01*
X258641Y5612989D01*
X284724Y5561798D01*
X318493Y5515318D01*
X359118Y5474693D01*
X405598Y5440924D01*
X456789Y5414841D01*
X511429Y5397087D01*
X568174Y5388100D01*
X625626D01*
X682371Y5397087D01*
X737011Y5414841D01*
X788202Y5440924D01*
X834682Y5474693D01*
X875307Y5515318D01*
X909076Y5561798D01*
X935159Y5612989D01*
X952913Y5667629D01*
X961900Y5724374D01*
Y5781826D01*
X952913Y5838571D01*
X935159Y5893211D01*
X909076Y5944402D01*
X875307Y5990882D01*
X834682Y6031507D01*
X788202Y6065276D01*
X737011Y6091359D01*
X682371Y6109113D01*
X625626Y6118100D01*
D02*
G37*
G36*
X5001753Y5361059D02*
X4940366D01*
X4879734Y5351456D01*
X4821351Y5332487D01*
X4766655Y5304617D01*
X4716991Y5268535D01*
X4673584Y5225127D01*
X4637502Y5175464D01*
X4609632Y5120768D01*
X4590662Y5062385D01*
X4581059Y5001753D01*
Y4940366D01*
X4590662Y4879734D01*
X4609632Y4821351D01*
X4637502Y4766655D01*
X4673584Y4716991D01*
X4716991Y4673584D01*
X4766655Y4637502D01*
X4821351Y4609632D01*
X4879734Y4590662D01*
X4940366Y4581059D01*
X5001753D01*
X5062385Y4590662D01*
X5120768Y4609632D01*
X5175464Y4637502D01*
X5225127Y4673584D01*
X5268535Y4716991D01*
X5304617Y4766655D01*
X5332487Y4821351D01*
X5351456Y4879734D01*
X5361059Y4940366D01*
Y5001753D01*
X5351456Y5062385D01*
X5332487Y5120768D01*
X5304617Y5175464D01*
X5268535Y5225127D01*
X5225127Y5268535D01*
X5175464Y5304617D01*
X5120768Y5332487D01*
X5062385Y5351456D01*
X5001753Y5361059D01*
D02*
G37*
G36*
X4211320Y4633624D02*
X3825240D01*
X3817586Y4630454D01*
X3817586Y4630453D01*
X3736936Y4549804D01*
X576580D01*
X568926Y4546634D01*
X153571Y4131278D01*
X150401Y4123624D01*
Y1748856D01*
X150400Y1748856D01*
X153571Y1741202D01*
X248886Y1645886D01*
X256540Y1642716D01*
X345260D01*
Y1511760D01*
X341240D01*
Y1406760D01*
X451240D01*
Y1511760D01*
X447220D01*
Y1642716D01*
X462280D01*
X469934Y1645886D01*
X469934Y1645887D01*
X492794Y1668746D01*
X495964Y1676400D01*
Y1683108D01*
X508664Y1688368D01*
X523206Y1673826D01*
X530860Y1670656D01*
X575681D01*
X586560Y1662360D01*
Y1511760D01*
X582540D01*
Y1406760D01*
X692540D01*
Y1511760D01*
X688520D01*
Y1662360D01*
X699399Y1670656D01*
X721360D01*
X729014Y1673826D01*
X729014Y1673827D01*
X894223Y1839035D01*
X898559Y1840831D01*
X898559Y1840832D01*
X946824Y1889096D01*
X2008047D01*
X2013308Y1876396D01*
X2006983Y1870071D01*
X1995793Y1850689D01*
X1990000Y1829071D01*
Y1806690D01*
X1995793Y1785071D01*
X2006983Y1765689D01*
X2022809Y1749863D01*
X2042191Y1738673D01*
X2063809Y1732880D01*
X2086190D01*
X2107809Y1738673D01*
X2127191Y1749863D01*
X2143017Y1765689D01*
X2154207Y1785071D01*
X2160000Y1806690D01*
Y1829071D01*
X2154207Y1850689D01*
X2143017Y1870071D01*
X2136692Y1876396D01*
X2141953Y1889096D01*
X2284057D01*
X3530566Y642586D01*
X3538220Y639416D01*
X4714239D01*
X4714240Y639415D01*
X4721894Y642586D01*
X4721895Y642587D01*
X5780444Y1701136D01*
X5953760D01*
X5961414Y1704306D01*
X6245894Y1988786D01*
X6249064Y1996440D01*
Y2905760D01*
X6245894Y2913414D01*
X6245893Y2913414D01*
X6217954Y2941354D01*
X6210300Y2944524D01*
X5725160D01*
X5717506Y2941354D01*
X5717506Y2941353D01*
X5686378Y2910226D01*
X5674645Y2915086D01*
Y3404434D01*
X5686378Y3409294D01*
X5702266Y3393406D01*
X5709920Y3390236D01*
X6222999D01*
X6223000Y3390235D01*
X6230654Y3393406D01*
X6230655Y3393407D01*
X6278914Y3441666D01*
X6282084Y3449320D01*
Y4003039D01*
X6282085Y4003040D01*
X6278914Y4010694D01*
X6278913Y4010695D01*
X5742974Y4546634D01*
X5735320Y4549804D01*
X4299623D01*
X4218974Y4630454D01*
X4211320Y4633624D01*
D02*
G37*
G36*
X6206800Y3377400D02*
X5978100D01*
Y3314700D01*
X6206800D01*
Y3377400D01*
D02*
G37*
G36*
X5952700D02*
X5724000D01*
Y3314700D01*
X5952700D01*
Y3377400D01*
D02*
G37*
G36*
X6206800Y3289300D02*
X5978100D01*
Y3226600D01*
X6206800D01*
Y3289300D01*
D02*
G37*
G36*
X5952700D02*
X5724000D01*
Y3226600D01*
X5952700D01*
Y3289300D01*
D02*
G37*
G36*
X6206800Y3123400D02*
X5978100D01*
Y3060700D01*
X6206800D01*
Y3123400D01*
D02*
G37*
G36*
X5952700D02*
X5724000D01*
Y3060700D01*
X5952700D01*
Y3123400D01*
D02*
G37*
G36*
X6206800Y3035300D02*
X5978100D01*
Y2972600D01*
X6206800D01*
Y3035300D01*
D02*
G37*
G36*
X5952700D02*
X5724000D01*
Y2972600D01*
X5952700D01*
Y3035300D01*
D02*
G37*
G36*
X2086190Y1702880D02*
X2063809D01*
X2042191Y1697087D01*
X2022809Y1685897D01*
X2006983Y1670071D01*
X1995793Y1650689D01*
X1990000Y1629070D01*
Y1606689D01*
X1995793Y1585071D01*
X2006983Y1565689D01*
X2022809Y1549863D01*
X2042191Y1538673D01*
X2063809Y1532880D01*
X2086190D01*
X2107809Y1538673D01*
X2127191Y1549863D01*
X2143017Y1565689D01*
X2154207Y1585071D01*
X2160000Y1606689D01*
Y1629070D01*
X2154207Y1650689D01*
X2143017Y1670071D01*
X2127191Y1685897D01*
X2107809Y1697087D01*
X2086190Y1702880D01*
D02*
G37*
G36*
Y1502880D02*
X2063809D01*
X2042191Y1497087D01*
X2022809Y1485897D01*
X2006983Y1470071D01*
X1995793Y1450689D01*
X1990000Y1429071D01*
Y1406690D01*
X1995793Y1385071D01*
X2006983Y1365689D01*
X2022809Y1349863D01*
X2042191Y1338673D01*
X2063809Y1332880D01*
X2086190D01*
X2107809Y1338673D01*
X2127191Y1349863D01*
X2143017Y1365689D01*
X2154207Y1385071D01*
X2160000Y1406690D01*
Y1429071D01*
X2154207Y1450689D01*
X2143017Y1470071D01*
X2127191Y1485897D01*
X2107809Y1497087D01*
X2086190Y1502880D01*
D02*
G37*
G36*
X707940Y1372160D02*
X650240D01*
Y1316960D01*
X707940D01*
Y1372160D01*
D02*
G37*
G36*
X624840D02*
X567140D01*
Y1316960D01*
X624840D01*
Y1372160D01*
D02*
G37*
G36*
X466640D02*
X408940D01*
Y1316960D01*
X466640D01*
Y1372160D01*
D02*
G37*
G36*
X383540D02*
X325840D01*
Y1316960D01*
X383540D01*
Y1372160D01*
D02*
G37*
G36*
X707940Y1291560D02*
X650240D01*
Y1236360D01*
X707940D01*
Y1291560D01*
D02*
G37*
G36*
X624840D02*
X567140D01*
Y1236360D01*
X624840D01*
Y1291560D01*
D02*
G37*
G36*
X466640D02*
X408940D01*
Y1236360D01*
X466640D01*
Y1291560D01*
D02*
G37*
G36*
X383540D02*
X325840D01*
Y1236360D01*
X383540D01*
Y1291560D01*
D02*
G37*
G36*
X2086190Y1302880D02*
X2063809D01*
X2042191Y1297087D01*
X2022809Y1285897D01*
X2006983Y1270071D01*
X1995793Y1250689D01*
X1990000Y1229070D01*
Y1206689D01*
X1995793Y1185071D01*
X2006983Y1165689D01*
X2022809Y1149863D01*
X2042191Y1138673D01*
X2063809Y1132880D01*
X2086190D01*
X2107809Y1138673D01*
X2127191Y1149863D01*
X2143017Y1165689D01*
X2154207Y1185071D01*
X2160000Y1206689D01*
Y1229070D01*
X2154207Y1250689D01*
X2143017Y1270071D01*
X2127191Y1285897D01*
X2107809Y1297087D01*
X2086190Y1302880D01*
D02*
G37*
G36*
X1409634Y1768941D02*
X1348247D01*
X1287615Y1759338D01*
X1229232Y1740368D01*
X1174536Y1712498D01*
X1124873Y1676416D01*
X1081465Y1633009D01*
X1045383Y1583345D01*
X1017513Y1528649D01*
X998544Y1470266D01*
X988941Y1409634D01*
Y1348247D01*
X998544Y1287615D01*
X1017513Y1229232D01*
X1045383Y1174536D01*
X1081465Y1124873D01*
X1124873Y1081465D01*
X1174536Y1045383D01*
X1229232Y1017513D01*
X1287615Y998544D01*
X1348247Y988941D01*
X1409634D01*
X1470266Y998544D01*
X1528649Y1017513D01*
X1583345Y1045383D01*
X1633009Y1081465D01*
X1676416Y1124873D01*
X1712498Y1174536D01*
X1740368Y1229232D01*
X1759338Y1287615D01*
X1768941Y1348247D01*
Y1409634D01*
X1759338Y1470266D01*
X1740368Y1528649D01*
X1712498Y1583345D01*
X1676416Y1633009D01*
X1633009Y1676416D01*
X1583345Y1712498D01*
X1528649Y1740368D01*
X1470266Y1759338D01*
X1409634Y1768941D01*
D02*
G37*
G36*
X2086190Y1102880D02*
X2063809D01*
X2042191Y1097087D01*
X2022809Y1085897D01*
X2006983Y1070071D01*
X1995793Y1050689D01*
X1990000Y1029071D01*
Y1006690D01*
X1995793Y985071D01*
X2006983Y965689D01*
X2022809Y949863D01*
X2042191Y938673D01*
X2063809Y932880D01*
X2086190D01*
X2107809Y938673D01*
X2127191Y949863D01*
X2143017Y965689D01*
X2154207Y985071D01*
X2160000Y1006690D01*
Y1029071D01*
X2154207Y1050689D01*
X2143017Y1070071D01*
X2127191Y1085897D01*
X2107809Y1097087D01*
X2086190Y1102880D01*
D02*
G37*
G36*
Y902880D02*
X2063809D01*
X2042191Y897087D01*
X2022809Y885897D01*
X2006983Y870071D01*
X1995793Y850689D01*
X1990000Y829070D01*
Y806690D01*
X1995793Y785071D01*
X2006983Y765689D01*
X2022809Y749863D01*
X2042191Y738673D01*
X2063809Y732880D01*
X2086190D01*
X2107809Y738673D01*
X2127191Y749863D01*
X2143017Y765689D01*
X2154207Y785071D01*
X2160000Y806690D01*
Y829070D01*
X2154207Y850689D01*
X2143017Y870071D01*
X2127191Y885897D01*
X2107809Y897087D01*
X2086190Y902880D01*
D02*
G37*
G36*
X5781826Y961900D02*
X5724374D01*
X5667629Y952913D01*
X5612989Y935159D01*
X5561798Y909076D01*
X5515318Y875307D01*
X5474693Y834682D01*
X5440924Y788202D01*
X5414841Y737011D01*
X5397087Y682371D01*
X5388100Y625626D01*
Y568174D01*
X5397087Y511429D01*
X5414841Y456789D01*
X5440924Y405598D01*
X5474693Y359118D01*
X5515318Y318493D01*
X5561798Y284724D01*
X5612989Y258641D01*
X5667629Y240887D01*
X5724374Y231900D01*
X5781826D01*
X5838571Y240887D01*
X5893211Y258641D01*
X5944402Y284724D01*
X5990882Y318493D01*
X6031507Y359118D01*
X6065276Y405598D01*
X6091359Y456789D01*
X6109113Y511429D01*
X6118100Y568174D01*
Y625626D01*
X6109113Y682371D01*
X6091359Y737011D01*
X6065276Y788202D01*
X6031507Y834682D01*
X5990882Y875307D01*
X5944402Y909076D01*
X5893211Y935159D01*
X5838571Y952913D01*
X5781826Y961900D01*
D02*
G37*
G36*
X625626D02*
X568174D01*
X511429Y952913D01*
X456789Y935159D01*
X405598Y909076D01*
X359118Y875307D01*
X318493Y834682D01*
X284724Y788202D01*
X258641Y737011D01*
X240887Y682371D01*
X231900Y625626D01*
Y568174D01*
X240887Y511429D01*
X258641Y456789D01*
X284724Y405598D01*
X318493Y359118D01*
X359118Y318493D01*
X405598Y284724D01*
X456789Y258641D01*
X511429Y240887D01*
X568174Y231900D01*
X625626D01*
X682371Y240887D01*
X737011Y258641D01*
X788202Y284724D01*
X834682Y318493D01*
X875307Y359118D01*
X909076Y405598D01*
X935159Y456789D01*
X952913Y511429D01*
X961900Y568174D01*
Y625626D01*
X952913Y682371D01*
X935159Y737011D01*
X909076Y788202D01*
X875307Y834682D01*
X834682Y875307D01*
X788202Y909076D01*
X737011Y935159D01*
X682371Y952913D01*
X625626Y961900D01*
D02*
G37*
%LPD*%
G36*
X5578715Y3772198D02*
Y2891957D01*
X5503903Y2817145D01*
X5490100D01*
Y2856700D01*
X5032700D01*
Y2731300D01*
X5469913D01*
X5474773Y2719567D01*
X5448334Y2693128D01*
X5443317Y2685619D01*
X5441555Y2676762D01*
Y2602700D01*
X5032700D01*
Y2477300D01*
X5490100D01*
Y2602700D01*
X5487845D01*
Y2667176D01*
X5496863Y2676194D01*
X5508596Y2671333D01*
Y1976120D01*
X5508815Y1975591D01*
X5508650Y1975043D01*
X5511190Y1949643D01*
X5512912Y1946433D01*
X5514306Y1943066D01*
X5567016Y1890356D01*
Y1812963D01*
X4760556Y1006504D01*
X4619460D01*
Y1055800D01*
X4556760D01*
Y977900D01*
X4531360D01*
Y1055800D01*
X4485576D01*
X4480716Y1067533D01*
X4697181Y1283998D01*
X4702154Y1291441D01*
X4703900Y1300220D01*
Y3398918D01*
X4838042Y3533059D01*
X5032700D01*
Y3493300D01*
X5490100D01*
Y3618700D01*
X5032700D01*
Y3578941D01*
X4833304D01*
X4827692Y3591289D01*
X5020000Y3783597D01*
X5032700Y3778701D01*
Y3747300D01*
X5490100D01*
Y3844220D01*
X5501833Y3849080D01*
X5578715Y3772198D01*
D02*
G37*
G36*
X4295140Y4538980D02*
X5735320D01*
X6271260Y4003040D01*
Y3449320D01*
X6223000Y3401060D01*
X5709920D01*
X5681980Y3429000D01*
Y3886200D01*
X5349240Y4218940D01*
X4300220D01*
X4224020Y4142740D01*
X3820160D01*
X3738880Y4218940D01*
X657860D01*
Y4198620D01*
X386080Y3926840D01*
Y2092960D01*
X500346Y1978694D01*
X497806Y1976154D01*
X494636Y1968500D01*
Y1731616D01*
X485140Y1722120D01*
Y1676400D01*
X462280Y1653540D01*
X447220D01*
Y1662360D01*
X446240Y1667285D01*
Y1712360D01*
X401165D01*
X396240Y1713339D01*
X391315Y1712360D01*
X346240D01*
Y1667285D01*
X345260Y1662360D01*
Y1653540D01*
X256540D01*
X161224Y1748856D01*
Y4123624D01*
X576580Y4538980D01*
X3741420D01*
X3825240Y4622800D01*
X4211320D01*
X4295140Y4538980D01*
D02*
G37*
G36*
X3812757Y4134844D02*
X3816479Y4133441D01*
X3820160Y4131916D01*
X3875010D01*
X3879321Y4119216D01*
X3872985Y4114354D01*
X3857758Y4094509D01*
X3848185Y4071400D01*
X3844920Y4046600D01*
Y3896600D01*
X3848185Y3871800D01*
X3857758Y3848690D01*
X3872985Y3828845D01*
X3892830Y3813618D01*
X3915940Y3804045D01*
X3940740Y3800780D01*
X4090740D01*
X4115540Y3804045D01*
X4138650Y3813618D01*
X4158495Y3828845D01*
X4173722Y3848690D01*
X4183295Y3871800D01*
X4186560Y3896600D01*
Y3948455D01*
X4462769D01*
X4467762Y3935755D01*
X4415934Y3883928D01*
X4410917Y3876419D01*
X4409155Y3867562D01*
Y3766247D01*
X4216973Y3574065D01*
X4186520D01*
Y3631600D01*
X4183255Y3656400D01*
X4173682Y3679510D01*
X4158455Y3699355D01*
X4138610Y3714582D01*
X4115500Y3724155D01*
X4090700Y3727420D01*
X3940700D01*
X3915900Y3724155D01*
X3892790Y3714582D01*
X3872946Y3699355D01*
X3857718Y3679510D01*
X3848145Y3656400D01*
X3844881Y3631600D01*
Y3481600D01*
X3848145Y3456800D01*
X3857718Y3433690D01*
X3872946Y3413845D01*
X3892790Y3398618D01*
X3915900Y3389045D01*
X3940700Y3385780D01*
X4090700D01*
X4115500Y3389045D01*
X4138610Y3398618D01*
X4158455Y3413845D01*
X4173682Y3433690D01*
X4183255Y3456800D01*
X4186520Y3481600D01*
Y3527775D01*
X4226560D01*
X4235417Y3529537D01*
X4242926Y3534554D01*
X4448666Y3740294D01*
X4453683Y3747803D01*
X4455445Y3756660D01*
Y3857975D01*
X4497245Y3899775D01*
X5451138D01*
X5466480Y3884433D01*
X5461620Y3872700D01*
X5032700D01*
Y3832941D01*
X5013960D01*
X5005181Y3831194D01*
X4997739Y3826221D01*
X4616739Y3445221D01*
X4611766Y3437779D01*
X4610019Y3429000D01*
Y1330302D01*
X4520538Y1240820D01*
X4362028D01*
X4358867Y1252619D01*
X4347018Y1273141D01*
X4330261Y1289898D01*
X4309739Y1301746D01*
X4286849Y1307880D01*
X4263151D01*
X4240262Y1301746D01*
X4219739Y1289898D01*
X4202982Y1273141D01*
X4191134Y1252619D01*
X4185000Y1229729D01*
Y1206031D01*
X4191134Y1183141D01*
X4202982Y1162619D01*
X4219739Y1145862D01*
X4240262Y1134013D01*
X4263151Y1127880D01*
X4286849D01*
X4309739Y1134013D01*
X4330261Y1145862D01*
X4347018Y1162619D01*
X4358867Y1183141D01*
X4362028Y1194939D01*
X4525276D01*
X4530888Y1182590D01*
X4389118Y1040821D01*
X4362028D01*
X4358867Y1052619D01*
X4347018Y1073141D01*
X4330261Y1089898D01*
X4309739Y1101747D01*
X4286849Y1107880D01*
X4263151D01*
X4240262Y1101747D01*
X4219739Y1089898D01*
X4202982Y1073141D01*
X4191134Y1052619D01*
X4185000Y1029729D01*
Y1006504D01*
X4131092D01*
X4129103Y1005680D01*
X4126951Y1005680D01*
X4125428Y1004158D01*
X4124960Y1003964D01*
X3667164D01*
X2453674Y2217454D01*
X2446020Y2220624D01*
X2160000D01*
Y2229070D01*
X2154207Y2250689D01*
X2143017Y2270071D01*
X2127191Y2285897D01*
X2107809Y2297087D01*
X2086190Y2302880D01*
X2063809D01*
X2042191Y2297087D01*
X2022809Y2285897D01*
X2006983Y2270071D01*
X1995793Y2250689D01*
X1990000Y2229070D01*
Y2220624D01*
X746761D01*
X746760Y2220624D01*
X739106Y2217454D01*
X508000Y1986348D01*
X396904Y2097444D01*
Y3922357D01*
X665514Y4190966D01*
X668684Y4198620D01*
Y4208116D01*
X3734600D01*
X3812757Y4134844D01*
D02*
G37*
G36*
X6238240Y2905760D02*
Y1996440D01*
X5953760Y1711960D01*
X5775960D01*
X4714240Y650240D01*
X3538220D01*
X2288540Y1899920D01*
X2097237D01*
X2086190Y1902880D01*
X2063809D01*
X2052763Y1899920D01*
X942340D01*
X890905Y1848485D01*
X888365D01*
X721360Y1681480D01*
X687540D01*
Y1712360D01*
X642465D01*
X637540Y1713339D01*
X632615Y1712360D01*
X587540D01*
Y1681480D01*
X530860D01*
X505460Y1706880D01*
Y1968500D01*
X746760Y2209800D01*
X1990000D01*
Y2206690D01*
X1995793Y2185071D01*
X2006983Y2165689D01*
X2022809Y2149863D01*
X2042191Y2138673D01*
X2063809Y2132880D01*
X2086190D01*
X2107809Y2138673D01*
X2127191Y2149863D01*
X2143017Y2165689D01*
X2154207Y2185071D01*
X2160000Y2206690D01*
Y2209800D01*
X2446020D01*
X3662680Y993140D01*
X4130040D01*
X4130040Y993140D01*
X4131092Y995680D01*
X4187774D01*
X4191134Y983142D01*
X4202982Y962619D01*
X4219739Y945862D01*
X4240262Y934014D01*
X4263151Y927880D01*
X4286849D01*
X4309739Y934014D01*
X4330261Y945862D01*
X4347018Y962619D01*
X4358867Y983142D01*
X4362028Y994940D01*
X4398620D01*
X4402342Y995680D01*
X4484060D01*
Y918500D01*
X4484060Y915400D01*
X4476576Y905800D01*
X4468660D01*
Y840600D01*
X4619460D01*
Y905800D01*
X4611544D01*
X4604060Y915400D01*
X4604060Y918500D01*
Y995680D01*
X4765040D01*
X5577840Y1808480D01*
Y1894840D01*
X5521960Y1950720D01*
X5519420Y1976120D01*
Y2698751D01*
X5667866Y2847196D01*
X5672883Y2854705D01*
X5674645Y2863562D01*
Y2883185D01*
X5725160Y2933700D01*
X6210300D01*
X6238240Y2905760D01*
D02*
G37*
%LPC*%
G36*
X5502800Y3377400D02*
X5274100D01*
Y3314700D01*
X5502800D01*
Y3377400D01*
D02*
G37*
G36*
X5248700D02*
X5020000D01*
Y3314700D01*
X5248700D01*
Y3377400D01*
D02*
G37*
G36*
X5502800Y3289300D02*
X5274100D01*
Y3226600D01*
X5502800D01*
Y3289300D01*
D02*
G37*
G36*
X5248700D02*
X5020000D01*
Y3226600D01*
X5248700D01*
Y3289300D01*
D02*
G37*
G36*
X5502800Y3123400D02*
X5274100D01*
Y3060700D01*
X5502800D01*
Y3123400D01*
D02*
G37*
G36*
X5248700D02*
X5020000D01*
Y3060700D01*
X5248700D01*
Y3123400D01*
D02*
G37*
G36*
X5502800Y3035300D02*
X5274100D01*
Y2972600D01*
X5502800D01*
Y3035300D01*
D02*
G37*
G36*
X5248700D02*
X5020000D01*
Y2972600D01*
X5248700D01*
Y3035300D01*
D02*
G37*
G36*
X6206800Y3885400D02*
X5978100D01*
Y3822700D01*
X6206800D01*
Y3885400D01*
D02*
G37*
G36*
X5952700D02*
X5724000D01*
Y3822700D01*
X5952700D01*
Y3885400D01*
D02*
G37*
G36*
X6206800Y3797300D02*
X5978100D01*
Y3734600D01*
X6206800D01*
Y3797300D01*
D02*
G37*
G36*
X5952700D02*
X5724000D01*
Y3734600D01*
X5952700D01*
Y3797300D01*
D02*
G37*
G36*
X6206800Y3631400D02*
X5978100D01*
Y3568700D01*
X6206800D01*
Y3631400D01*
D02*
G37*
G36*
X5952700D02*
X5724000D01*
Y3568700D01*
X5952700D01*
Y3631400D01*
D02*
G37*
G36*
X6206800Y3543300D02*
X5978100D01*
Y3480600D01*
X6206800D01*
Y3543300D01*
D02*
G37*
G36*
X5952700D02*
X5724000D01*
Y3480600D01*
X5952700D01*
Y3543300D01*
D02*
G37*
G36*
X461640Y1877760D02*
X408940D01*
Y1825060D01*
X461640D01*
Y1877760D01*
D02*
G37*
G36*
X383540D02*
X330840D01*
Y1825060D01*
X383540D01*
Y1877760D01*
D02*
G37*
G36*
X461640Y1799660D02*
X408940D01*
Y1746960D01*
X461640D01*
Y1799660D01*
D02*
G37*
G36*
X383540D02*
X330840D01*
Y1746960D01*
X383540D01*
Y1799660D01*
D02*
G37*
G36*
X2086190Y2702880D02*
X2063809D01*
X2042191Y2697087D01*
X2022809Y2685897D01*
X2006983Y2670071D01*
X1995793Y2650689D01*
X1990000Y2629070D01*
Y2606689D01*
X1995793Y2585071D01*
X2006983Y2565689D01*
X2022809Y2549863D01*
X2042191Y2538673D01*
X2063809Y2532880D01*
X2086190D01*
X2107809Y2538673D01*
X2127191Y2549863D01*
X2143017Y2565689D01*
X2154207Y2585071D01*
X2160000Y2606689D01*
Y2629070D01*
X2154207Y2650689D01*
X2143017Y2670071D01*
X2127191Y2685897D01*
X2107809Y2697087D01*
X2086190Y2702880D01*
D02*
G37*
G36*
X4286191Y2502880D02*
X4263810D01*
X4242191Y2497087D01*
X4222809Y2485897D01*
X4206983Y2470071D01*
X4195793Y2450689D01*
X4190000Y2429071D01*
Y2406690D01*
X4195793Y2385071D01*
X4206983Y2365689D01*
X4222809Y2349863D01*
X4242191Y2338673D01*
X4263810Y2332880D01*
X4286191D01*
X4307809Y2338673D01*
X4327191Y2349863D01*
X4343017Y2365689D01*
X4354207Y2385071D01*
X4360000Y2406690D01*
Y2429071D01*
X4354207Y2450689D01*
X4343017Y2470071D01*
X4327191Y2485897D01*
X4307809Y2497087D01*
X4286191Y2502880D01*
D02*
G37*
G36*
X2086190D02*
X2063809D01*
X2042191Y2497087D01*
X2022809Y2485897D01*
X2006983Y2470071D01*
X1995793Y2450689D01*
X1990000Y2429071D01*
Y2406690D01*
X1995793Y2385071D01*
X2006983Y2365689D01*
X2022809Y2349863D01*
X2042191Y2338673D01*
X2063809Y2332880D01*
X2086190D01*
X2107809Y2338673D01*
X2127191Y2349863D01*
X2143017Y2365689D01*
X2154207Y2385071D01*
X2160000Y2406690D01*
Y2429071D01*
X2154207Y2450689D01*
X2143017Y2470071D01*
X2127191Y2485897D01*
X2107809Y2497087D01*
X2086190Y2502880D01*
D02*
G37*
G36*
X4286191Y2302880D02*
X4263810D01*
X4242191Y2297087D01*
X4222809Y2285897D01*
X4206983Y2270071D01*
X4195793Y2250689D01*
X4190000Y2229070D01*
Y2206690D01*
X4195793Y2185071D01*
X4206983Y2165689D01*
X4222809Y2149863D01*
X4242191Y2138673D01*
X4263810Y2132880D01*
X4286191D01*
X4307809Y2138673D01*
X4327191Y2149863D01*
X4343017Y2165689D01*
X4354207Y2185071D01*
X4360000Y2206690D01*
Y2229070D01*
X4354207Y2250689D01*
X4343017Y2270071D01*
X4327191Y2285897D01*
X4307809Y2297087D01*
X4286191Y2302880D01*
D02*
G37*
G36*
Y2102880D02*
X4263810D01*
X4242191Y2097087D01*
X4222809Y2085897D01*
X4206983Y2070071D01*
X4195793Y2050689D01*
X4190000Y2029071D01*
Y2006690D01*
X4195793Y1985071D01*
X4206983Y1965689D01*
X4222809Y1949863D01*
X4242191Y1938673D01*
X4263810Y1932880D01*
X4286191D01*
X4307809Y1938673D01*
X4327191Y1949863D01*
X4343017Y1965689D01*
X4354207Y1985071D01*
X4360000Y2006690D01*
Y2029071D01*
X4354207Y2050689D01*
X4343017Y2070071D01*
X4327191Y2085897D01*
X4307809Y2097087D01*
X4286191Y2102880D01*
D02*
G37*
G36*
Y1902880D02*
X4263810D01*
X4242191Y1897087D01*
X4222809Y1885897D01*
X4206983Y1870071D01*
X4195793Y1850689D01*
X4190000Y1829071D01*
Y1806690D01*
X4195793Y1785071D01*
X4206983Y1765689D01*
X4222809Y1749863D01*
X4242191Y1738673D01*
X4263810Y1732880D01*
X4286191D01*
X4307809Y1738673D01*
X4327191Y1749863D01*
X4343017Y1765689D01*
X4354207Y1785071D01*
X4360000Y1806690D01*
Y1829071D01*
X4354207Y1850689D01*
X4343017Y1870071D01*
X4327191Y1885897D01*
X4307809Y1897087D01*
X4286191Y1902880D01*
D02*
G37*
G36*
Y1702880D02*
X4263810D01*
X4242191Y1697087D01*
X4222809Y1685897D01*
X4206983Y1670071D01*
X4195793Y1650689D01*
X4190000Y1629070D01*
Y1606689D01*
X4195793Y1585071D01*
X4206983Y1565689D01*
X4222809Y1549863D01*
X4242191Y1538673D01*
X4263810Y1532880D01*
X4286191D01*
X4307809Y1538673D01*
X4327191Y1549863D01*
X4343017Y1565689D01*
X4354207Y1585071D01*
X4360000Y1606689D01*
Y1629070D01*
X4354207Y1650689D01*
X4343017Y1670071D01*
X4327191Y1685897D01*
X4307809Y1697087D01*
X4286191Y1702880D01*
D02*
G37*
G36*
Y1502880D02*
X4263810D01*
X4242191Y1497087D01*
X4222809Y1485897D01*
X4206983Y1470071D01*
X4195793Y1450689D01*
X4190000Y1429071D01*
Y1406690D01*
X4195793Y1385071D01*
X4206983Y1365689D01*
X4222809Y1349863D01*
X4242191Y1338673D01*
X4263810Y1332880D01*
X4286191D01*
X4307809Y1338673D01*
X4327191Y1349863D01*
X4343017Y1365689D01*
X4354207Y1385071D01*
X4360000Y1406690D01*
Y1429071D01*
X4354207Y1450689D01*
X4343017Y1470071D01*
X4327191Y1485897D01*
X4307809Y1497087D01*
X4286191Y1502880D01*
D02*
G37*
G36*
X6206800Y2869400D02*
X5978100D01*
Y2806700D01*
X6206800D01*
Y2869400D01*
D02*
G37*
G36*
X5952700D02*
X5724000D01*
Y2806700D01*
X5952700D01*
Y2869400D01*
D02*
G37*
G36*
X6206800Y2781300D02*
X5978100D01*
Y2718600D01*
X6206800D01*
Y2781300D01*
D02*
G37*
G36*
X5952700D02*
X5724000D01*
Y2718600D01*
X5952700D01*
Y2781300D01*
D02*
G37*
G36*
X6215800Y2615400D02*
X5978100D01*
Y2552700D01*
X6215800D01*
Y2615400D01*
D02*
G37*
G36*
X5952700D02*
X5715000D01*
Y2552700D01*
X5952700D01*
Y2615400D01*
D02*
G37*
G36*
X6215800Y2527300D02*
X5978100D01*
Y2464600D01*
X6215800D01*
Y2527300D01*
D02*
G37*
G36*
X5952700D02*
X5715000D01*
Y2464600D01*
X5952700D01*
Y2527300D01*
D02*
G37*
G36*
X702940Y1877760D02*
X650240D01*
Y1825060D01*
X702940D01*
Y1877760D01*
D02*
G37*
G36*
X624840D02*
X572140D01*
Y1825060D01*
X624840D01*
Y1877760D01*
D02*
G37*
G36*
X702940Y1799660D02*
X650240D01*
Y1746960D01*
X702940D01*
Y1799660D01*
D02*
G37*
G36*
X624840D02*
X572140D01*
Y1746960D01*
X624840D01*
Y1799660D01*
D02*
G37*
G36*
X4619460Y815200D02*
X4556760D01*
Y750000D01*
X4619460D01*
Y815200D01*
D02*
G37*
G36*
X4531360D02*
X4468660D01*
Y750000D01*
X4531360D01*
Y815200D01*
D02*
G37*
%LPD*%
D10*
X4544060Y977900D02*
D03*
Y827900D02*
D03*
D11*
X637540Y1304260D02*
D03*
Y1459260D02*
D03*
X396240Y1304260D02*
D03*
Y1459260D02*
D03*
D12*
X637540Y1812360D02*
D03*
Y1662360D02*
D03*
X396240Y1812360D02*
D03*
Y1662360D02*
D03*
D13*
X5965400Y2540000D02*
D03*
D14*
Y2794000D02*
D03*
Y3048000D02*
D03*
Y3302000D02*
D03*
Y3556000D02*
D03*
Y3810000D02*
D03*
X5261400D02*
D03*
Y3556000D02*
D03*
Y3302000D02*
D03*
Y3048000D02*
D03*
Y2794000D02*
D03*
Y2540000D02*
D03*
D15*
X5464700Y2577300D02*
Y2676762D01*
X5651500Y2863562D01*
Y3800592D01*
X5480492Y3971600D02*
X5651500Y3800592D01*
X5513490Y2794000D02*
X5601860Y2882370D01*
Y3781785D01*
X5460725Y3922920D02*
X5601860Y3781785D01*
X4015740Y3971600D02*
X5480492D01*
X4432300Y3867562D02*
X4487658Y3922920D01*
X4432300Y3756660D02*
Y3867562D01*
X4487658Y3922920D02*
X5460725D01*
X5261400Y2794000D02*
X5513490D01*
X4015700Y3556600D02*
X4021380Y3550920D01*
X4226560D01*
X4432300Y3756660D01*
X5427400Y2540000D02*
X5464700Y2577300D01*
X5261400Y2540000D02*
X5427400D01*
D16*
X4680960Y3408420D02*
X4828540Y3556000D01*
X4632960Y3429000D02*
X5013960Y3810000D01*
X4632960Y1320800D02*
Y3429000D01*
X4530040Y1217880D02*
X4632960Y1320800D01*
X4398620Y1017880D02*
X4680960Y1300220D01*
Y3408420D01*
X5013960Y3810000D02*
X5261400D01*
X4828540Y3556000D02*
X5261400D01*
X4275000Y1217880D02*
X4530040D01*
X4275000Y1017880D02*
X4398620D01*
D17*
X396240Y1459260D02*
Y1662360D01*
X637540Y1459260D02*
Y1662360D01*
D18*
X4015740Y4386580D02*
D03*
X4015700Y4811600D02*
D03*
X4015740Y3971600D02*
D03*
X4015700Y3556600D02*
D03*
D19*
X4015740Y4386580D02*
D03*
X4015700Y4811600D02*
D03*
X4015740Y3971600D02*
D03*
X4015700Y3556600D02*
D03*
D20*
X4275000Y817880D02*
D03*
D21*
Y1017880D02*
D03*
Y1217880D02*
D03*
Y1417880D02*
D03*
Y1617880D02*
D03*
Y1817880D02*
D03*
Y2017880D02*
D03*
Y2217880D02*
D03*
Y2417880D02*
D03*
Y2617880D02*
D03*
X2075000D02*
D03*
Y2417880D02*
D03*
Y2217880D02*
D03*
Y2017880D02*
D03*
Y1817880D02*
D03*
Y1617880D02*
D03*
Y1417880D02*
D03*
Y1217880D02*
D03*
Y1017880D02*
D03*
Y817880D02*
D03*
D22*
X5753100Y5753100D02*
D03*
X596900Y596900D02*
D03*
X5753100D02*
D03*
X596900Y5753100D02*
D03*
D23*
X4971059Y4971059D02*
D03*
X1378941Y1378941D02*
D03*
D24*
X6057465Y5460004D02*
D03*
X6157465Y5260004D02*
D03*
X6057465Y5060004D02*
D03*
X6157465Y4860004D02*
D03*
X6057465Y4660004D02*
D03*
X6157465Y4460004D02*
D03*
Y1660002D02*
D03*
X6057465Y1460002D02*
D03*
X6157465Y1260002D02*
D03*
X6057465Y1060002D02*
D03*
X6157465Y860002D02*
D03*
Y460002D02*
D03*
X5957465Y5260004D02*
D03*
X5857465Y5060004D02*
D03*
X5957465Y4860004D02*
D03*
X5857465Y4660004D02*
D03*
X5957465Y4460004D02*
D03*
X5857465Y1460002D02*
D03*
X5957465Y1260002D02*
D03*
X5857465Y1060002D02*
D03*
X5757464Y5260004D02*
D03*
X5657464Y5060004D02*
D03*
X5757464Y4860004D02*
D03*
X5657464Y4660004D02*
D03*
Y1460002D02*
D03*
X5757464Y1260002D02*
D03*
X5657464Y1060002D02*
D03*
X5557464Y5260004D02*
D03*
X5457464Y5060004D02*
D03*
X5557464Y4860004D02*
D03*
X5457464Y4660004D02*
D03*
Y2260003D02*
D03*
Y1860002D02*
D03*
X5557464Y1260002D02*
D03*
X5457464Y1060002D02*
D03*
Y260002D02*
D03*
X5357464Y6060005D02*
D03*
X5257464Y5860005D02*
D03*
Y5460004D02*
D03*
X5357464Y5260004D02*
D03*
X5257464Y4660004D02*
D03*
Y2660003D02*
D03*
Y2260003D02*
D03*
X5357464Y2060002D02*
D03*
X5257464Y1860002D02*
D03*
Y1060002D02*
D03*
X5357464Y860002D02*
D03*
X5257464Y660002D02*
D03*
Y260002D02*
D03*
X5157464Y6060005D02*
D03*
X5057464Y5860005D02*
D03*
X5157464Y5660004D02*
D03*
X5057464Y5460004D02*
D03*
Y2660003D02*
D03*
Y2260003D02*
D03*
X5157464Y2060002D02*
D03*
X5057464Y1860002D02*
D03*
X5157464Y1660002D02*
D03*
X5057464Y1460002D02*
D03*
X5157464Y860002D02*
D03*
X5057464Y660002D02*
D03*
X5157464Y460002D02*
D03*
X5057464Y260002D02*
D03*
X4957464Y6060005D02*
D03*
X4857464Y5860005D02*
D03*
X4957464Y5660004D02*
D03*
X4857464Y5460004D02*
D03*
Y3460003D02*
D03*
X4957464Y3260003D02*
D03*
X4857464Y3060003D02*
D03*
X4957464Y2860003D02*
D03*
X4857464Y2660003D02*
D03*
X4957464Y2460003D02*
D03*
X4857464Y2260003D02*
D03*
X4957464Y2060002D02*
D03*
X4857464Y1860002D02*
D03*
X4957464Y1660002D02*
D03*
X4857464Y1460002D02*
D03*
Y660002D02*
D03*
X4957464Y460002D02*
D03*
X4857464Y260002D02*
D03*
X4757464Y6060005D02*
D03*
X4657464Y5860005D02*
D03*
X4757464Y5660004D02*
D03*
X4657464Y5460004D02*
D03*
Y4660004D02*
D03*
X4757464Y3660003D02*
D03*
Y3260003D02*
D03*
Y2860003D02*
D03*
Y2460003D02*
D03*
Y2060002D02*
D03*
Y1660002D02*
D03*
Y1260002D02*
D03*
X4657464Y1060002D02*
D03*
X4757464Y460002D02*
D03*
X4657464Y260002D02*
D03*
X4557464Y6060005D02*
D03*
X4457464Y5860005D02*
D03*
X4557464Y5660004D02*
D03*
X4457464Y5460004D02*
D03*
X4557464Y5260004D02*
D03*
X4457464Y5060004D02*
D03*
X4557464Y4860004D02*
D03*
X4457464Y4660004D02*
D03*
X4557464Y3660003D02*
D03*
X4457464Y3460003D02*
D03*
X4557464Y3260003D02*
D03*
X4457464Y3060003D02*
D03*
X4557464Y2860003D02*
D03*
X4457464Y2660003D02*
D03*
X4557464Y2460003D02*
D03*
X4457464Y2260003D02*
D03*
X4557464Y2060002D02*
D03*
X4457464Y1860002D02*
D03*
X4557464Y1660002D02*
D03*
X4457464Y1460002D02*
D03*
X4557464Y460002D02*
D03*
X4457464Y260002D02*
D03*
X4357464Y6060005D02*
D03*
X4257464Y5860005D02*
D03*
X4357464Y5660004D02*
D03*
X4257464Y5460004D02*
D03*
X4357464Y5260004D02*
D03*
X4257464Y5060004D02*
D03*
X4357464Y4860004D02*
D03*
X4257464Y4660004D02*
D03*
Y3860003D02*
D03*
Y3460003D02*
D03*
X4357464Y3260003D02*
D03*
X4257464Y3060003D02*
D03*
X4357464Y2860003D02*
D03*
X4257464Y2660003D02*
D03*
X4357464Y460002D02*
D03*
X4257464Y260002D02*
D03*
X4157464Y6060005D02*
D03*
X4057464Y5860005D02*
D03*
X4157464Y5660004D02*
D03*
X4057464Y5460004D02*
D03*
X4157464Y5260004D02*
D03*
X4057464Y5060004D02*
D03*
X4157464Y3260003D02*
D03*
X4057464Y3060003D02*
D03*
X4157464Y2860003D02*
D03*
X4057464Y2660003D02*
D03*
X4157464Y2460003D02*
D03*
X4057464Y2260003D02*
D03*
X4157464Y2060002D02*
D03*
X4057464Y1860002D02*
D03*
X4157464Y1660002D02*
D03*
X4057464Y1460002D02*
D03*
Y1060002D02*
D03*
X4157464Y460002D02*
D03*
X4057464Y260002D02*
D03*
X3957464Y6060005D02*
D03*
X3857463Y5860005D02*
D03*
X3957464Y5660004D02*
D03*
X3857463Y5460004D02*
D03*
X3957464Y5260004D02*
D03*
X3857463Y5060004D02*
D03*
X3957464Y3260003D02*
D03*
X3857463Y3060003D02*
D03*
X3957464Y2860003D02*
D03*
X3857463Y2660003D02*
D03*
X3957464Y2460003D02*
D03*
X3857463Y2260003D02*
D03*
X3957464Y2060002D02*
D03*
X3857463Y1860002D02*
D03*
X3957464Y1660002D02*
D03*
X3857463Y1460002D02*
D03*
X3957464Y1260002D02*
D03*
X3857463Y1060002D02*
D03*
X3957464Y460002D02*
D03*
X3857463Y260002D02*
D03*
X3757463Y6060005D02*
D03*
X3657463Y5860005D02*
D03*
X3757463Y5660004D02*
D03*
X3657463Y5460004D02*
D03*
X3757463Y5260004D02*
D03*
X3657463Y5060004D02*
D03*
X3757463Y4860004D02*
D03*
X3657463Y4660004D02*
D03*
X3757463Y4060004D02*
D03*
X3657463Y3860003D02*
D03*
X3757463Y3660003D02*
D03*
X3657463Y3460003D02*
D03*
X3757463Y3260003D02*
D03*
X3657463Y3060003D02*
D03*
X3757463Y2860003D02*
D03*
X3657463Y2660003D02*
D03*
X3757463Y2460003D02*
D03*
X3657463Y2260003D02*
D03*
X3757463Y2060002D02*
D03*
X3657463Y1860002D02*
D03*
X3757463Y1660002D02*
D03*
X3657463Y1460002D02*
D03*
X3757463Y1260002D02*
D03*
Y460002D02*
D03*
X3657463Y260002D02*
D03*
X3557463Y6060005D02*
D03*
X3457463Y5860005D02*
D03*
X3557463Y5660004D02*
D03*
X3457463Y5460004D02*
D03*
X3557463Y5260004D02*
D03*
X3457463Y5060004D02*
D03*
X3557463Y4860004D02*
D03*
X3457463Y4660004D02*
D03*
X3557463Y4060004D02*
D03*
X3457463Y3860003D02*
D03*
X3557463Y3660003D02*
D03*
X3457463Y3460003D02*
D03*
X3557463Y3260003D02*
D03*
X3457463Y3060003D02*
D03*
X3557463Y2860003D02*
D03*
X3457463Y2660003D02*
D03*
X3557463Y2460003D02*
D03*
X3457463Y2260003D02*
D03*
X3557463Y2060002D02*
D03*
X3457463Y1860002D02*
D03*
X3557463Y1660002D02*
D03*
X3457463Y1460002D02*
D03*
X3557463Y1260002D02*
D03*
Y460002D02*
D03*
X3457463Y260002D02*
D03*
X3357463Y6060005D02*
D03*
X3257463Y5860005D02*
D03*
X3357463Y5660004D02*
D03*
X3257463Y5460004D02*
D03*
X3357463Y5260004D02*
D03*
X3257463Y5060004D02*
D03*
X3357463Y4860004D02*
D03*
X3257463Y4660004D02*
D03*
X3357463Y4060004D02*
D03*
X3257463Y3860003D02*
D03*
X3357463Y3660003D02*
D03*
X3257463Y3460003D02*
D03*
X3357463Y3260003D02*
D03*
X3257463Y3060003D02*
D03*
X3357463Y2860003D02*
D03*
X3257463Y2660003D02*
D03*
X3357463Y2460003D02*
D03*
X3257463Y2260003D02*
D03*
X3357463Y2060002D02*
D03*
X3257463Y1860002D02*
D03*
X3357463Y1660002D02*
D03*
X3257463Y660002D02*
D03*
X3357463Y460002D02*
D03*
X3257463Y260002D02*
D03*
X3157463Y6060005D02*
D03*
X3057463Y5860005D02*
D03*
X3157463Y5660004D02*
D03*
X3057463Y5460004D02*
D03*
X3157463Y5260004D02*
D03*
X3057463Y5060004D02*
D03*
X3157463Y4860004D02*
D03*
X3057463Y4660004D02*
D03*
X3157463Y4060004D02*
D03*
X3057463Y3860003D02*
D03*
X3157463Y3660003D02*
D03*
X3057463Y3460003D02*
D03*
X3157463Y3260003D02*
D03*
X3057463Y3060003D02*
D03*
X3157463Y2860003D02*
D03*
X3057463Y2660003D02*
D03*
X3157463Y2460003D02*
D03*
X3057463Y2260003D02*
D03*
X3157463Y2060002D02*
D03*
X3057463Y1860002D02*
D03*
X3157463Y1660002D02*
D03*
Y860002D02*
D03*
X3057463Y660002D02*
D03*
X3157463Y460002D02*
D03*
X3057463Y260002D02*
D03*
X2957463Y6060005D02*
D03*
X2857463Y5860005D02*
D03*
X2957463Y5660004D02*
D03*
X2857463Y5460004D02*
D03*
X2957463Y5260004D02*
D03*
X2857463Y5060004D02*
D03*
X2957463Y4860004D02*
D03*
X2857463Y4660004D02*
D03*
X2957463Y4060004D02*
D03*
X2857463Y3860003D02*
D03*
X2957463Y3660003D02*
D03*
X2857463Y3460003D02*
D03*
X2957463Y3260003D02*
D03*
X2857463Y3060003D02*
D03*
X2957463Y2860003D02*
D03*
X2857463Y2660003D02*
D03*
X2957463Y2460003D02*
D03*
X2857463Y2260003D02*
D03*
X2957463Y2060002D02*
D03*
X2857463Y1060002D02*
D03*
X2957463Y860002D02*
D03*
X2857463Y660002D02*
D03*
X2957463Y460002D02*
D03*
X2857463Y260002D02*
D03*
X2757463Y6060005D02*
D03*
X2657463Y5860005D02*
D03*
X2757463Y5660004D02*
D03*
X2657463Y5460004D02*
D03*
X2757463Y5260004D02*
D03*
X2657463Y5060004D02*
D03*
X2757463Y4860004D02*
D03*
X2657463Y4660004D02*
D03*
X2757463Y4060004D02*
D03*
X2657463Y3860003D02*
D03*
X2757463Y3660003D02*
D03*
X2657463Y3460003D02*
D03*
X2757463Y3260003D02*
D03*
X2657463Y3060003D02*
D03*
X2757463Y2860003D02*
D03*
X2657463Y2660003D02*
D03*
X2757463Y2460003D02*
D03*
X2657463Y2260003D02*
D03*
X2757463Y2060002D02*
D03*
Y1260002D02*
D03*
X2657463Y1060002D02*
D03*
X2757463Y860002D02*
D03*
X2657463Y660002D02*
D03*
X2757463Y460002D02*
D03*
X2657463Y260002D02*
D03*
X2557463Y6060005D02*
D03*
X2457463Y5860005D02*
D03*
X2557463Y5660004D02*
D03*
X2457463Y5460004D02*
D03*
X2557463Y5260004D02*
D03*
X2457463Y5060004D02*
D03*
X2557463Y4860004D02*
D03*
X2457463Y4660004D02*
D03*
X2557463Y4060004D02*
D03*
X2457463Y3860003D02*
D03*
X2557463Y3660003D02*
D03*
X2457463Y3460003D02*
D03*
X2557463Y3260003D02*
D03*
X2457463Y3060003D02*
D03*
X2557463Y2860003D02*
D03*
X2457463Y2660003D02*
D03*
X2557463Y2460003D02*
D03*
X2457463Y1460002D02*
D03*
X2557463Y1260002D02*
D03*
X2457463Y1060002D02*
D03*
X2557463Y860002D02*
D03*
X2457463Y660002D02*
D03*
X2557463Y460002D02*
D03*
X2457463Y260002D02*
D03*
X2357463Y6060005D02*
D03*
X2257463Y5860005D02*
D03*
X2357463Y5660004D02*
D03*
X2257463Y5460004D02*
D03*
X2357463Y5260004D02*
D03*
X2257463Y5060004D02*
D03*
X2357463Y4860004D02*
D03*
X2257463Y4660004D02*
D03*
X2357463Y4060004D02*
D03*
X2257463Y3860003D02*
D03*
X2357463Y3660003D02*
D03*
X2257463Y3460003D02*
D03*
X2357463Y3260003D02*
D03*
X2257463Y3060003D02*
D03*
X2357463Y2860003D02*
D03*
X2257463Y2660003D02*
D03*
X2357463Y2460003D02*
D03*
Y1660002D02*
D03*
X2257463Y1460002D02*
D03*
X2357463Y1260002D02*
D03*
X2257463Y1060002D02*
D03*
X2357463Y860002D02*
D03*
X2257463Y660002D02*
D03*
X2357463Y460002D02*
D03*
X2257463Y260002D02*
D03*
X2157463Y6060005D02*
D03*
X2057462Y5860005D02*
D03*
X2157463Y5660004D02*
D03*
X2057462Y5460004D02*
D03*
X2157463Y5260004D02*
D03*
X2057462Y5060004D02*
D03*
X2157463Y4860004D02*
D03*
X2057462Y4660004D02*
D03*
X2157463Y4060004D02*
D03*
X2057462Y3860003D02*
D03*
X2157463Y3660003D02*
D03*
X2057462Y3460003D02*
D03*
X2157463Y3260003D02*
D03*
X2057462Y3060003D02*
D03*
X2157463Y2860003D02*
D03*
X2057462Y660002D02*
D03*
X2157463Y460002D02*
D03*
X2057462Y260002D02*
D03*
X1957462Y6060005D02*
D03*
X1857462Y5860005D02*
D03*
X1957462Y5660004D02*
D03*
X1857462Y5460004D02*
D03*
X1957462Y5260004D02*
D03*
X1857462Y5060004D02*
D03*
X1957462Y4860004D02*
D03*
X1857462Y4660004D02*
D03*
X1957462Y4060004D02*
D03*
X1857462Y3860003D02*
D03*
X1957462Y3660003D02*
D03*
X1857462Y3460003D02*
D03*
X1957462Y3260003D02*
D03*
X1857462Y3060003D02*
D03*
X1957462Y2860003D02*
D03*
X1857462Y2660003D02*
D03*
X1957462Y2460003D02*
D03*
Y1660002D02*
D03*
X1857462Y1460002D02*
D03*
X1957462Y1260002D02*
D03*
X1857462Y1060002D02*
D03*
X1957462Y860002D02*
D03*
X1857462Y660002D02*
D03*
X1957462Y460002D02*
D03*
X1857462Y260002D02*
D03*
X1757462Y6060005D02*
D03*
X1657462Y5860005D02*
D03*
X1757462Y5660004D02*
D03*
X1657462Y5460004D02*
D03*
X1757462Y5260004D02*
D03*
X1657462Y5060004D02*
D03*
X1757462Y4860004D02*
D03*
X1657462Y4660004D02*
D03*
X1757462Y4060004D02*
D03*
X1657462Y3860003D02*
D03*
X1757462Y3660003D02*
D03*
X1657462Y3460003D02*
D03*
X1757462Y3260003D02*
D03*
X1657462Y3060003D02*
D03*
X1757462Y2860003D02*
D03*
X1657462Y2660003D02*
D03*
X1757462Y2460003D02*
D03*
Y1660002D02*
D03*
X1657462Y1060002D02*
D03*
X1757462Y860002D02*
D03*
X1657462Y660002D02*
D03*
X1757462Y460002D02*
D03*
X1657462Y260002D02*
D03*
X1557462Y6060005D02*
D03*
X1457462Y5860005D02*
D03*
X1557462Y5660004D02*
D03*
X1457462Y5460004D02*
D03*
X1557462Y5260004D02*
D03*
X1457462Y5060004D02*
D03*
X1557462Y4860004D02*
D03*
X1457462Y4660004D02*
D03*
X1557462Y4060004D02*
D03*
X1457462Y3860003D02*
D03*
X1557462Y3660003D02*
D03*
X1457462Y3460003D02*
D03*
X1557462Y3260003D02*
D03*
X1457462Y3060003D02*
D03*
X1557462Y2860003D02*
D03*
X1457462Y2660003D02*
D03*
X1557462Y2460003D02*
D03*
Y860002D02*
D03*
X1457462Y660002D02*
D03*
X1557462Y460002D02*
D03*
X1457462Y260002D02*
D03*
X1357462Y6060005D02*
D03*
X1257462Y5860005D02*
D03*
X1357462Y5660004D02*
D03*
X1257462Y5460004D02*
D03*
X1357462Y5260004D02*
D03*
X1257462Y5060004D02*
D03*
X1357462Y4860004D02*
D03*
X1257462Y4660004D02*
D03*
X1357462Y4060004D02*
D03*
X1257462Y3860003D02*
D03*
X1357462Y3660003D02*
D03*
X1257462Y3460003D02*
D03*
X1357462Y3260003D02*
D03*
X1257462Y3060003D02*
D03*
X1357462Y2860003D02*
D03*
X1257462Y2660003D02*
D03*
X1357462Y2460003D02*
D03*
Y860002D02*
D03*
X1257462Y660002D02*
D03*
X1357462Y460002D02*
D03*
X1257462Y260002D02*
D03*
X1157462Y6060005D02*
D03*
X1057462Y5860005D02*
D03*
X1157462Y5660004D02*
D03*
X1057462Y5460004D02*
D03*
X1157462Y5260004D02*
D03*
X1057462Y5060004D02*
D03*
X1157462Y4860004D02*
D03*
X1057462Y4660004D02*
D03*
X1157462Y4060004D02*
D03*
X1057462Y3860003D02*
D03*
X1157462Y3660003D02*
D03*
X1057462Y3460003D02*
D03*
X1157462Y3260003D02*
D03*
X1057462Y3060003D02*
D03*
X1157462Y2860003D02*
D03*
X1057462Y2660003D02*
D03*
X1157462Y2460003D02*
D03*
X1057462Y1060002D02*
D03*
X1157462Y860002D02*
D03*
X1057462Y660002D02*
D03*
X1157462Y460002D02*
D03*
X1057462Y260002D02*
D03*
X957462Y6060005D02*
D03*
Y5260004D02*
D03*
X857462Y5060004D02*
D03*
X957462Y4860004D02*
D03*
X857462Y4660004D02*
D03*
X957462Y4060004D02*
D03*
X857462Y3860003D02*
D03*
X957462Y3660003D02*
D03*
X857462Y3460003D02*
D03*
X957462Y3260003D02*
D03*
X857462Y3060003D02*
D03*
X957462Y2860003D02*
D03*
X857462Y2660003D02*
D03*
X957462Y2460003D02*
D03*
Y1660002D02*
D03*
X857462Y1460002D02*
D03*
X957462Y1260002D02*
D03*
X857462Y1060002D02*
D03*
X957462Y860002D02*
D03*
X857462Y260002D02*
D03*
X757462Y5260004D02*
D03*
X657462Y5060004D02*
D03*
X757462Y4860004D02*
D03*
X657462Y4660004D02*
D03*
X757462Y4060004D02*
D03*
X657462Y3860003D02*
D03*
X757462Y3660003D02*
D03*
X657462Y3460003D02*
D03*
X757462Y3260003D02*
D03*
X657462Y3060003D02*
D03*
X757462Y2860003D02*
D03*
X657462Y2660003D02*
D03*
X757462Y2460003D02*
D03*
X657462Y2260003D02*
D03*
X757462Y1260002D02*
D03*
X657462Y1060002D02*
D03*
X557462Y5260004D02*
D03*
X457462Y5060004D02*
D03*
X557462Y4860004D02*
D03*
X457462Y4660004D02*
D03*
Y3860003D02*
D03*
X557462Y3660003D02*
D03*
X457462Y3460003D02*
D03*
X557462Y3260003D02*
D03*
X457462Y3060003D02*
D03*
X557462Y2860003D02*
D03*
X457462Y2660003D02*
D03*
X557462Y2460003D02*
D03*
X457462Y2260003D02*
D03*
Y1060002D02*
D03*
X257462Y5460004D02*
D03*
X357462Y5260004D02*
D03*
X257462Y5060004D02*
D03*
X357462Y4860004D02*
D03*
X257462Y4660004D02*
D03*
X357462Y4460004D02*
D03*
X257462Y1460002D02*
D03*
Y1060002D02*
D03*
D25*
X637540Y1304260D02*
D03*
X396240D02*
D03*
X4544060Y977900D02*
D03*
X5966605Y3808567D02*
D03*
Y3554567D02*
D03*
Y3300567D02*
D03*
Y3046567D02*
D03*
X5262605D02*
D03*
X5261400Y3302000D02*
D03*
%TF.MD5,226fa5d5723c44824734837ac6316283*%
M02*
