%TF.GenerationSoftware,Altium Limited,Altium Designer,24.2.2 (26)*%
G04 Layer_Color=16711935*
%FSLAX45Y45*%
%MOMM*%
%TF.SameCoordinates,7B2EFB22-2454-4570-B993-6C8DBF9E02C9*%
%TF.FilePolarity,Negative*%
%TF.FileFunction,Soldermask,Bot*%
%TF.Part,Single*%
G01*
G75*
%TA.AperFunction,ComponentPad*%
%ADD20R,1.40000X1.40000*%
%ADD21C,1.40000*%
G04:AMPARAMS|DCode=36|XSize=3.1mm|YSize=3.1mm|CornerRadius=0.8mm|HoleSize=0mm|Usage=FLASHONLY|Rotation=0.000|XOffset=0mm|YOffset=0mm|HoleType=Round|Shape=RoundedRectangle|*
%AMROUNDEDRECTD36*
21,1,3.10000,1.50000,0,0,0.0*
21,1,1.50000,3.10000,0,0,0.0*
1,1,1.60000,0.75000,-0.75000*
1,1,1.60000,-0.75000,-0.75000*
1,1,1.60000,-0.75000,0.75000*
1,1,1.60000,0.75000,0.75000*
%
%ADD36ROUNDEDRECTD36*%
%ADD37C,1.20000*%
%TA.AperFunction,ViaPad*%
%ADD38C,7.10000*%
%ADD39C,7.60000*%
D20*
X4275000Y817880D02*
D03*
D21*
Y1017880D02*
D03*
Y1217880D02*
D03*
Y1417880D02*
D03*
Y1617880D02*
D03*
Y1817880D02*
D03*
Y2017880D02*
D03*
Y2217880D02*
D03*
Y2417880D02*
D03*
Y2617880D02*
D03*
X2075000D02*
D03*
Y2417880D02*
D03*
Y2217880D02*
D03*
Y2017880D02*
D03*
Y1817880D02*
D03*
Y1617880D02*
D03*
Y1417880D02*
D03*
Y1217880D02*
D03*
Y1017880D02*
D03*
Y817880D02*
D03*
D36*
X4015740Y4386580D02*
D03*
X4015700Y4811600D02*
D03*
X4015740Y3971600D02*
D03*
X4015700Y3556600D02*
D03*
D37*
X4015740Y4386580D02*
D03*
X4015700Y4811600D02*
D03*
X4015740Y3971600D02*
D03*
X4015700Y3556600D02*
D03*
D38*
X5753100Y5753100D02*
D03*
X596900Y596900D02*
D03*
X5753100D02*
D03*
X596900Y5753100D02*
D03*
D39*
X4971059Y4971059D02*
D03*
X1378941Y1378941D02*
D03*
%TF.MD5,1cae2bb326ff15eb20995ff3871a3a4b*%
M02*
