%TF.GenerationSoftware,Altium Limited,Altium Designer,24.2.2 (26)*%
G04 Layer_Color=0*
%FSLAX45Y45*%
%MOMM*%
%TF.SameCoordinates,7B2EFB22-2454-4570-B993-6C8DBF9E02C9*%
%TF.FilePolarity,Positive*%
%TF.FileFunction,Plated,1,2,PTH,Drill*%
%TF.Part,Single*%
G01*
G75*
%TA.AperFunction,ComponentDrill*%
%ADD42C,0.50000*%
%ADD43C,1.00000*%
%ADD44C,0.90000*%
%TA.AperFunction,OtherDrill,Free Pad (57.531mm,57.531mm)*%
%ADD45C,3.50000*%
%TA.AperFunction,OtherDrill,Free Pad (5.969mm,5.969mm)*%
%ADD46C,3.50000*%
%TA.AperFunction,OtherDrill,Free Pad (57.531mm,5.969mm)*%
%ADD47C,3.50000*%
%TA.AperFunction,OtherDrill,Free Pad (49.711mm,49.711mm)*%
%ADD48C,6.50240*%
%TA.AperFunction,OtherDrill,Free Pad (5.969mm,57.531mm)*%
%ADD49C,3.50000*%
%TA.AperFunction,OtherDrill,Free Pad (13.789mm,13.789mm)*%
%ADD50C,6.50240*%
%TA.AperFunction,ViaDrill,NotFilled*%
%ADD51C,0.45000*%
%ADD52C,0.50000*%
D42*
X4015740Y4386580D02*
D03*
X4015700Y4811600D02*
D03*
X4015740Y3971600D02*
D03*
X4015700Y3556600D02*
D03*
D43*
X4015740Y4386580D02*
D03*
X4015700Y4811600D02*
D03*
X4015740Y3971600D02*
D03*
X4015700Y3556600D02*
D03*
D44*
X4275000Y817880D02*
D03*
Y1017880D02*
D03*
Y1217880D02*
D03*
Y1417880D02*
D03*
Y1617880D02*
D03*
Y1817880D02*
D03*
Y2017880D02*
D03*
Y2217880D02*
D03*
Y2417880D02*
D03*
Y2617880D02*
D03*
X2075000D02*
D03*
Y2417880D02*
D03*
Y2217880D02*
D03*
Y2017880D02*
D03*
Y1817880D02*
D03*
Y1617880D02*
D03*
Y1417880D02*
D03*
Y1217880D02*
D03*
Y1017880D02*
D03*
Y817880D02*
D03*
D45*
X5753100Y5753100D02*
D03*
D46*
X596900Y596900D02*
D03*
D47*
X5753100D02*
D03*
D48*
X4971059Y4971059D02*
D03*
D49*
X596900Y5753100D02*
D03*
D50*
X1378941Y1378941D02*
D03*
D51*
X6057465Y5460004D02*
D03*
X6157465Y5260004D02*
D03*
X6057465Y5060004D02*
D03*
X6157465Y4860004D02*
D03*
X6057465Y4660004D02*
D03*
X6157465Y4460004D02*
D03*
Y1660002D02*
D03*
X6057465Y1460002D02*
D03*
X6157465Y1260002D02*
D03*
X6057465Y1060002D02*
D03*
X6157465Y860002D02*
D03*
Y460002D02*
D03*
X5957465Y5260004D02*
D03*
X5857465Y5060004D02*
D03*
X5957465Y4860004D02*
D03*
X5857465Y4660004D02*
D03*
X5957465Y4460004D02*
D03*
X5857465Y1460002D02*
D03*
X5957465Y1260002D02*
D03*
X5857465Y1060002D02*
D03*
X5757464Y5260004D02*
D03*
X5657464Y5060004D02*
D03*
X5757464Y4860004D02*
D03*
X5657464Y4660004D02*
D03*
Y1460002D02*
D03*
X5757464Y1260002D02*
D03*
X5657464Y1060002D02*
D03*
X5557464Y5260004D02*
D03*
X5457464Y5060004D02*
D03*
X5557464Y4860004D02*
D03*
X5457464Y4660004D02*
D03*
Y2260003D02*
D03*
Y1860002D02*
D03*
X5557464Y1260002D02*
D03*
X5457464Y1060002D02*
D03*
Y260002D02*
D03*
X5357464Y6060005D02*
D03*
X5257464Y5860005D02*
D03*
Y5460004D02*
D03*
X5357464Y5260004D02*
D03*
X5257464Y4660004D02*
D03*
Y2660003D02*
D03*
Y2260003D02*
D03*
X5357464Y2060002D02*
D03*
X5257464Y1860002D02*
D03*
Y1060002D02*
D03*
X5357464Y860002D02*
D03*
X5257464Y660002D02*
D03*
Y260002D02*
D03*
X5157464Y6060005D02*
D03*
X5057464Y5860005D02*
D03*
X5157464Y5660004D02*
D03*
X5057464Y5460004D02*
D03*
Y2660003D02*
D03*
Y2260003D02*
D03*
X5157464Y2060002D02*
D03*
X5057464Y1860002D02*
D03*
X5157464Y1660002D02*
D03*
X5057464Y1460002D02*
D03*
X5157464Y860002D02*
D03*
X5057464Y660002D02*
D03*
X5157464Y460002D02*
D03*
X5057464Y260002D02*
D03*
X4957464Y6060005D02*
D03*
X4857464Y5860005D02*
D03*
X4957464Y5660004D02*
D03*
X4857464Y5460004D02*
D03*
Y3460003D02*
D03*
X4957464Y3260003D02*
D03*
X4857464Y3060003D02*
D03*
X4957464Y2860003D02*
D03*
X4857464Y2660003D02*
D03*
X4957464Y2460003D02*
D03*
X4857464Y2260003D02*
D03*
X4957464Y2060002D02*
D03*
X4857464Y1860002D02*
D03*
X4957464Y1660002D02*
D03*
X4857464Y1460002D02*
D03*
Y660002D02*
D03*
X4957464Y460002D02*
D03*
X4857464Y260002D02*
D03*
X4757464Y6060005D02*
D03*
X4657464Y5860005D02*
D03*
X4757464Y5660004D02*
D03*
X4657464Y5460004D02*
D03*
Y4660004D02*
D03*
X4757464Y3660003D02*
D03*
Y3260003D02*
D03*
Y2860003D02*
D03*
Y2460003D02*
D03*
Y2060002D02*
D03*
Y1660002D02*
D03*
Y1260002D02*
D03*
X4657464Y1060002D02*
D03*
X4757464Y460002D02*
D03*
X4657464Y260002D02*
D03*
X4557464Y6060005D02*
D03*
X4457464Y5860005D02*
D03*
X4557464Y5660004D02*
D03*
X4457464Y5460004D02*
D03*
X4557464Y5260004D02*
D03*
X4457464Y5060004D02*
D03*
X4557464Y4860004D02*
D03*
X4457464Y4660004D02*
D03*
X4557464Y3660003D02*
D03*
X4457464Y3460003D02*
D03*
X4557464Y3260003D02*
D03*
X4457464Y3060003D02*
D03*
X4557464Y2860003D02*
D03*
X4457464Y2660003D02*
D03*
X4557464Y2460003D02*
D03*
X4457464Y2260003D02*
D03*
X4557464Y2060002D02*
D03*
X4457464Y1860002D02*
D03*
X4557464Y1660002D02*
D03*
X4457464Y1460002D02*
D03*
X4557464Y460002D02*
D03*
X4457464Y260002D02*
D03*
X4357464Y6060005D02*
D03*
X4257464Y5860005D02*
D03*
X4357464Y5660004D02*
D03*
X4257464Y5460004D02*
D03*
X4357464Y5260004D02*
D03*
X4257464Y5060004D02*
D03*
X4357464Y4860004D02*
D03*
X4257464Y4660004D02*
D03*
Y3860003D02*
D03*
Y3460003D02*
D03*
X4357464Y3260003D02*
D03*
X4257464Y3060003D02*
D03*
X4357464Y2860003D02*
D03*
X4257464Y2660003D02*
D03*
X4357464Y460002D02*
D03*
X4257464Y260002D02*
D03*
X4157464Y6060005D02*
D03*
X4057464Y5860005D02*
D03*
X4157464Y5660004D02*
D03*
X4057464Y5460004D02*
D03*
X4157464Y5260004D02*
D03*
X4057464Y5060004D02*
D03*
X4157464Y3260003D02*
D03*
X4057464Y3060003D02*
D03*
X4157464Y2860003D02*
D03*
X4057464Y2660003D02*
D03*
X4157464Y2460003D02*
D03*
X4057464Y2260003D02*
D03*
X4157464Y2060002D02*
D03*
X4057464Y1860002D02*
D03*
X4157464Y1660002D02*
D03*
X4057464Y1460002D02*
D03*
Y1060002D02*
D03*
X4157464Y460002D02*
D03*
X4057464Y260002D02*
D03*
X3957464Y6060005D02*
D03*
X3857463Y5860005D02*
D03*
X3957464Y5660004D02*
D03*
X3857463Y5460004D02*
D03*
X3957464Y5260004D02*
D03*
X3857463Y5060004D02*
D03*
X3957464Y3260003D02*
D03*
X3857463Y3060003D02*
D03*
X3957464Y2860003D02*
D03*
X3857463Y2660003D02*
D03*
X3957464Y2460003D02*
D03*
X3857463Y2260003D02*
D03*
X3957464Y2060002D02*
D03*
X3857463Y1860002D02*
D03*
X3957464Y1660002D02*
D03*
X3857463Y1460002D02*
D03*
X3957464Y1260002D02*
D03*
X3857463Y1060002D02*
D03*
X3957464Y460002D02*
D03*
X3857463Y260002D02*
D03*
X3757463Y6060005D02*
D03*
X3657463Y5860005D02*
D03*
X3757463Y5660004D02*
D03*
X3657463Y5460004D02*
D03*
X3757463Y5260004D02*
D03*
X3657463Y5060004D02*
D03*
X3757463Y4860004D02*
D03*
X3657463Y4660004D02*
D03*
X3757463Y4060004D02*
D03*
X3657463Y3860003D02*
D03*
X3757463Y3660003D02*
D03*
X3657463Y3460003D02*
D03*
X3757463Y3260003D02*
D03*
X3657463Y3060003D02*
D03*
X3757463Y2860003D02*
D03*
X3657463Y2660003D02*
D03*
X3757463Y2460003D02*
D03*
X3657463Y2260003D02*
D03*
X3757463Y2060002D02*
D03*
X3657463Y1860002D02*
D03*
X3757463Y1660002D02*
D03*
X3657463Y1460002D02*
D03*
X3757463Y1260002D02*
D03*
Y460002D02*
D03*
X3657463Y260002D02*
D03*
X3557463Y6060005D02*
D03*
X3457463Y5860005D02*
D03*
X3557463Y5660004D02*
D03*
X3457463Y5460004D02*
D03*
X3557463Y5260004D02*
D03*
X3457463Y5060004D02*
D03*
X3557463Y4860004D02*
D03*
X3457463Y4660004D02*
D03*
X3557463Y4060004D02*
D03*
X3457463Y3860003D02*
D03*
X3557463Y3660003D02*
D03*
X3457463Y3460003D02*
D03*
X3557463Y3260003D02*
D03*
X3457463Y3060003D02*
D03*
X3557463Y2860003D02*
D03*
X3457463Y2660003D02*
D03*
X3557463Y2460003D02*
D03*
X3457463Y2260003D02*
D03*
X3557463Y2060002D02*
D03*
X3457463Y1860002D02*
D03*
X3557463Y1660002D02*
D03*
X3457463Y1460002D02*
D03*
X3557463Y1260002D02*
D03*
Y460002D02*
D03*
X3457463Y260002D02*
D03*
X3357463Y6060005D02*
D03*
X3257463Y5860005D02*
D03*
X3357463Y5660004D02*
D03*
X3257463Y5460004D02*
D03*
X3357463Y5260004D02*
D03*
X3257463Y5060004D02*
D03*
X3357463Y4860004D02*
D03*
X3257463Y4660004D02*
D03*
X3357463Y4060004D02*
D03*
X3257463Y3860003D02*
D03*
X3357463Y3660003D02*
D03*
X3257463Y3460003D02*
D03*
X3357463Y3260003D02*
D03*
X3257463Y3060003D02*
D03*
X3357463Y2860003D02*
D03*
X3257463Y2660003D02*
D03*
X3357463Y2460003D02*
D03*
X3257463Y2260003D02*
D03*
X3357463Y2060002D02*
D03*
X3257463Y1860002D02*
D03*
X3357463Y1660002D02*
D03*
X3257463Y660002D02*
D03*
X3357463Y460002D02*
D03*
X3257463Y260002D02*
D03*
X3157463Y6060005D02*
D03*
X3057463Y5860005D02*
D03*
X3157463Y5660004D02*
D03*
X3057463Y5460004D02*
D03*
X3157463Y5260004D02*
D03*
X3057463Y5060004D02*
D03*
X3157463Y4860004D02*
D03*
X3057463Y4660004D02*
D03*
X3157463Y4060004D02*
D03*
X3057463Y3860003D02*
D03*
X3157463Y3660003D02*
D03*
X3057463Y3460003D02*
D03*
X3157463Y3260003D02*
D03*
X3057463Y3060003D02*
D03*
X3157463Y2860003D02*
D03*
X3057463Y2660003D02*
D03*
X3157463Y2460003D02*
D03*
X3057463Y2260003D02*
D03*
X3157463Y2060002D02*
D03*
X3057463Y1860002D02*
D03*
X3157463Y1660002D02*
D03*
Y860002D02*
D03*
X3057463Y660002D02*
D03*
X3157463Y460002D02*
D03*
X3057463Y260002D02*
D03*
X2957463Y6060005D02*
D03*
X2857463Y5860005D02*
D03*
X2957463Y5660004D02*
D03*
X2857463Y5460004D02*
D03*
X2957463Y5260004D02*
D03*
X2857463Y5060004D02*
D03*
X2957463Y4860004D02*
D03*
X2857463Y4660004D02*
D03*
X2957463Y4060004D02*
D03*
X2857463Y3860003D02*
D03*
X2957463Y3660003D02*
D03*
X2857463Y3460003D02*
D03*
X2957463Y3260003D02*
D03*
X2857463Y3060003D02*
D03*
X2957463Y2860003D02*
D03*
X2857463Y2660003D02*
D03*
X2957463Y2460003D02*
D03*
X2857463Y2260003D02*
D03*
X2957463Y2060002D02*
D03*
X2857463Y1060002D02*
D03*
X2957463Y860002D02*
D03*
X2857463Y660002D02*
D03*
X2957463Y460002D02*
D03*
X2857463Y260002D02*
D03*
X2757463Y6060005D02*
D03*
X2657463Y5860005D02*
D03*
X2757463Y5660004D02*
D03*
X2657463Y5460004D02*
D03*
X2757463Y5260004D02*
D03*
X2657463Y5060004D02*
D03*
X2757463Y4860004D02*
D03*
X2657463Y4660004D02*
D03*
X2757463Y4060004D02*
D03*
X2657463Y3860003D02*
D03*
X2757463Y3660003D02*
D03*
X2657463Y3460003D02*
D03*
X2757463Y3260003D02*
D03*
X2657463Y3060003D02*
D03*
X2757463Y2860003D02*
D03*
X2657463Y2660003D02*
D03*
X2757463Y2460003D02*
D03*
X2657463Y2260003D02*
D03*
X2757463Y2060002D02*
D03*
Y1260002D02*
D03*
X2657463Y1060002D02*
D03*
X2757463Y860002D02*
D03*
X2657463Y660002D02*
D03*
X2757463Y460002D02*
D03*
X2657463Y260002D02*
D03*
X2557463Y6060005D02*
D03*
X2457463Y5860005D02*
D03*
X2557463Y5660004D02*
D03*
X2457463Y5460004D02*
D03*
X2557463Y5260004D02*
D03*
X2457463Y5060004D02*
D03*
X2557463Y4860004D02*
D03*
X2457463Y4660004D02*
D03*
X2557463Y4060004D02*
D03*
X2457463Y3860003D02*
D03*
X2557463Y3660003D02*
D03*
X2457463Y3460003D02*
D03*
X2557463Y3260003D02*
D03*
X2457463Y3060003D02*
D03*
X2557463Y2860003D02*
D03*
X2457463Y2660003D02*
D03*
X2557463Y2460003D02*
D03*
X2457463Y1460002D02*
D03*
X2557463Y1260002D02*
D03*
X2457463Y1060002D02*
D03*
X2557463Y860002D02*
D03*
X2457463Y660002D02*
D03*
X2557463Y460002D02*
D03*
X2457463Y260002D02*
D03*
X2357463Y6060005D02*
D03*
X2257463Y5860005D02*
D03*
X2357463Y5660004D02*
D03*
X2257463Y5460004D02*
D03*
X2357463Y5260004D02*
D03*
X2257463Y5060004D02*
D03*
X2357463Y4860004D02*
D03*
X2257463Y4660004D02*
D03*
X2357463Y4060004D02*
D03*
X2257463Y3860003D02*
D03*
X2357463Y3660003D02*
D03*
X2257463Y3460003D02*
D03*
X2357463Y3260003D02*
D03*
X2257463Y3060003D02*
D03*
X2357463Y2860003D02*
D03*
X2257463Y2660003D02*
D03*
X2357463Y2460003D02*
D03*
Y1660002D02*
D03*
X2257463Y1460002D02*
D03*
X2357463Y1260002D02*
D03*
X2257463Y1060002D02*
D03*
X2357463Y860002D02*
D03*
X2257463Y660002D02*
D03*
X2357463Y460002D02*
D03*
X2257463Y260002D02*
D03*
X2157463Y6060005D02*
D03*
X2057462Y5860005D02*
D03*
X2157463Y5660004D02*
D03*
X2057462Y5460004D02*
D03*
X2157463Y5260004D02*
D03*
X2057462Y5060004D02*
D03*
X2157463Y4860004D02*
D03*
X2057462Y4660004D02*
D03*
X2157463Y4060004D02*
D03*
X2057462Y3860003D02*
D03*
X2157463Y3660003D02*
D03*
X2057462Y3460003D02*
D03*
X2157463Y3260003D02*
D03*
X2057462Y3060003D02*
D03*
X2157463Y2860003D02*
D03*
X2057462Y660002D02*
D03*
X2157463Y460002D02*
D03*
X2057462Y260002D02*
D03*
X1957462Y6060005D02*
D03*
X1857462Y5860005D02*
D03*
X1957462Y5660004D02*
D03*
X1857462Y5460004D02*
D03*
X1957462Y5260004D02*
D03*
X1857462Y5060004D02*
D03*
X1957462Y4860004D02*
D03*
X1857462Y4660004D02*
D03*
X1957462Y4060004D02*
D03*
X1857462Y3860003D02*
D03*
X1957462Y3660003D02*
D03*
X1857462Y3460003D02*
D03*
X1957462Y3260003D02*
D03*
X1857462Y3060003D02*
D03*
X1957462Y2860003D02*
D03*
X1857462Y2660003D02*
D03*
X1957462Y2460003D02*
D03*
Y1660002D02*
D03*
X1857462Y1460002D02*
D03*
X1957462Y1260002D02*
D03*
X1857462Y1060002D02*
D03*
X1957462Y860002D02*
D03*
X1857462Y660002D02*
D03*
X1957462Y460002D02*
D03*
X1857462Y260002D02*
D03*
X1757462Y6060005D02*
D03*
X1657462Y5860005D02*
D03*
X1757462Y5660004D02*
D03*
X1657462Y5460004D02*
D03*
X1757462Y5260004D02*
D03*
X1657462Y5060004D02*
D03*
X1757462Y4860004D02*
D03*
X1657462Y4660004D02*
D03*
X1757462Y4060004D02*
D03*
X1657462Y3860003D02*
D03*
X1757462Y3660003D02*
D03*
X1657462Y3460003D02*
D03*
X1757462Y3260003D02*
D03*
X1657462Y3060003D02*
D03*
X1757462Y2860003D02*
D03*
X1657462Y2660003D02*
D03*
X1757462Y2460003D02*
D03*
Y1660002D02*
D03*
X1657462Y1060002D02*
D03*
X1757462Y860002D02*
D03*
X1657462Y660002D02*
D03*
X1757462Y460002D02*
D03*
X1657462Y260002D02*
D03*
X1557462Y6060005D02*
D03*
X1457462Y5860005D02*
D03*
X1557462Y5660004D02*
D03*
X1457462Y5460004D02*
D03*
X1557462Y5260004D02*
D03*
X1457462Y5060004D02*
D03*
X1557462Y4860004D02*
D03*
X1457462Y4660004D02*
D03*
X1557462Y4060004D02*
D03*
X1457462Y3860003D02*
D03*
X1557462Y3660003D02*
D03*
X1457462Y3460003D02*
D03*
X1557462Y3260003D02*
D03*
X1457462Y3060003D02*
D03*
X1557462Y2860003D02*
D03*
X1457462Y2660003D02*
D03*
X1557462Y2460003D02*
D03*
Y860002D02*
D03*
X1457462Y660002D02*
D03*
X1557462Y460002D02*
D03*
X1457462Y260002D02*
D03*
X1357462Y6060005D02*
D03*
X1257462Y5860005D02*
D03*
X1357462Y5660004D02*
D03*
X1257462Y5460004D02*
D03*
X1357462Y5260004D02*
D03*
X1257462Y5060004D02*
D03*
X1357462Y4860004D02*
D03*
X1257462Y4660004D02*
D03*
X1357462Y4060004D02*
D03*
X1257462Y3860003D02*
D03*
X1357462Y3660003D02*
D03*
X1257462Y3460003D02*
D03*
X1357462Y3260003D02*
D03*
X1257462Y3060003D02*
D03*
X1357462Y2860003D02*
D03*
X1257462Y2660003D02*
D03*
X1357462Y2460003D02*
D03*
Y860002D02*
D03*
X1257462Y660002D02*
D03*
X1357462Y460002D02*
D03*
X1257462Y260002D02*
D03*
X1157462Y6060005D02*
D03*
X1057462Y5860005D02*
D03*
X1157462Y5660004D02*
D03*
X1057462Y5460004D02*
D03*
X1157462Y5260004D02*
D03*
X1057462Y5060004D02*
D03*
X1157462Y4860004D02*
D03*
X1057462Y4660004D02*
D03*
X1157462Y4060004D02*
D03*
X1057462Y3860003D02*
D03*
X1157462Y3660003D02*
D03*
X1057462Y3460003D02*
D03*
X1157462Y3260003D02*
D03*
X1057462Y3060003D02*
D03*
X1157462Y2860003D02*
D03*
X1057462Y2660003D02*
D03*
X1157462Y2460003D02*
D03*
X1057462Y1060002D02*
D03*
X1157462Y860002D02*
D03*
X1057462Y660002D02*
D03*
X1157462Y460002D02*
D03*
X1057462Y260002D02*
D03*
X957462Y6060005D02*
D03*
Y5260004D02*
D03*
X857462Y5060004D02*
D03*
X957462Y4860004D02*
D03*
X857462Y4660004D02*
D03*
X957462Y4060004D02*
D03*
X857462Y3860003D02*
D03*
X957462Y3660003D02*
D03*
X857462Y3460003D02*
D03*
X957462Y3260003D02*
D03*
X857462Y3060003D02*
D03*
X957462Y2860003D02*
D03*
X857462Y2660003D02*
D03*
X957462Y2460003D02*
D03*
Y1660002D02*
D03*
X857462Y1460002D02*
D03*
X957462Y1260002D02*
D03*
X857462Y1060002D02*
D03*
X957462Y860002D02*
D03*
X857462Y260002D02*
D03*
X757462Y5260004D02*
D03*
X657462Y5060004D02*
D03*
X757462Y4860004D02*
D03*
X657462Y4660004D02*
D03*
X757462Y4060004D02*
D03*
X657462Y3860003D02*
D03*
X757462Y3660003D02*
D03*
X657462Y3460003D02*
D03*
X757462Y3260003D02*
D03*
X657462Y3060003D02*
D03*
X757462Y2860003D02*
D03*
X657462Y2660003D02*
D03*
X757462Y2460003D02*
D03*
X657462Y2260003D02*
D03*
X757462Y1260002D02*
D03*
X657462Y1060002D02*
D03*
X557462Y5260004D02*
D03*
X457462Y5060004D02*
D03*
X557462Y4860004D02*
D03*
X457462Y4660004D02*
D03*
Y3860003D02*
D03*
X557462Y3660003D02*
D03*
X457462Y3460003D02*
D03*
X557462Y3260003D02*
D03*
X457462Y3060003D02*
D03*
X557462Y2860003D02*
D03*
X457462Y2660003D02*
D03*
X557462Y2460003D02*
D03*
X457462Y2260003D02*
D03*
Y1060002D02*
D03*
X257462Y5460004D02*
D03*
X357462Y5260004D02*
D03*
X257462Y5060004D02*
D03*
X357462Y4860004D02*
D03*
X257462Y4660004D02*
D03*
X357462Y4460004D02*
D03*
X257462Y1460002D02*
D03*
Y1060002D02*
D03*
D52*
X637540Y1304260D02*
D03*
X396240D02*
D03*
X4544060Y977900D02*
D03*
X5966605Y3808567D02*
D03*
Y3554567D02*
D03*
Y3300567D02*
D03*
Y3046567D02*
D03*
X5262605D02*
D03*
X5261400Y3302000D02*
D03*
%TF.MD5,be1f0841190dfdd995a2b049902efcaf*%
M02*
